<svg id="Grupo_244197" data-name="Grupo 244197" xmlns="http://www.w3.org/2000/svg" xmlns:xlink="http://www.w3.org/1999/xlink" width="62.042" height="64" viewBox="0 0 62.042 64">
  <defs>
    <clipPath id="clip-path">
      <rect id="Rectángulo_316919" data-name="Rectángulo 316919" width="62.042" height="64" fill="none"/>
    </clipPath>
  </defs>
  <g id="Grupo_244196" data-name="Grupo 244196" clip-path="url(#clip-path)">
    <path id="Trazado_245452" data-name="Trazado 245452" d="M14.62,6.411c-1.627,6.93-4.565,6.714-7.781,7.978,2.523,3.828,2.385,7.7-.253,11.6,0,0,7.6,1.466,8.034,8.036a9.216,9.216,0,0,1,4.262-1.575s3.179-12.217,14.311-14.281l1.52-3.784s-7.066-.125-8.338-8.216c0,0-5.024,5.037-11.755.238" transform="translate(-5.543 -5.195)" fill="#e9a52d"/>
    <path id="Trazado_245453" data-name="Trazado 245453" d="M122.113,99.208A20.647,20.647,0,1,0,96.23,119.185v7.073a3.1,3.1,0,0,0,3.1,3.1,2.138,2.138,0,0,0,2.138-2.138v-7.362a20.712,20.712,0,0,0,4.615-.518v3.7a3.1,3.1,0,0,0,3.1,3.1A2.138,2.138,0,0,0,111.316,124v-6.637a20.643,20.643,0,0,0,10.8-18.151" transform="translate(-68.019 -66.119)" fill="#9ec8fc"/>
    <path id="Trazado_245454" data-name="Trazado 245454" d="M86.53,125.909a18.808,18.808,0,0,1-.877-8.377A19.449,19.449,0,0,1,93.9,103.5a1.5,1.5,0,0,1,1.729-.244c2.317,1.193,4.659,2.343,6.943,3.6a1.794,1.794,0,0,1,.723,1.291c.089,1.552.037,3.112.035,4.669a1.621,1.621,0,0,1-1.119,1.566q-3.372,1.473-6.736,2.961c-2.362,1.041-2.837,2.893-1.266,4.942,1.028,1.34,2.063,2.674,3.084,4.02.587.774.554,1.486-.061,1.95s-1.308.3-1.91-.456c-1.1-1.385-2.183-2.782-3.282-4.167-1.4-1.763-3.382-1.586-4.477.392-.318.574-.633,1.15-1.035,1.883" transform="translate(-71.971 -86.758)" fill="#6fbbc6"/>
    <path id="Trazado_245455" data-name="Trazado 245455" d="M252.459,200.727l-2.676,5.285-.265-.046c-.191-.47-.4-.936-.572-1.412a7.438,7.438,0,0,0-4.651-4.639c-1.76-.636-3.5-1.326-5.245-2-1.021-.395-1.27-.794-1.141-1.874.1-.837.225-1.673.366-2.5a1.29,1.29,0,0,1,1.078-1.212c1.091-.151,2.192-.235,3.3-.349,1.125,5.227,4.32,8.093,9.807,8.753" transform="translate(-200.204 -161.57)" fill="#6fbbc6"/>
    <path id="Trazado_245456" data-name="Trazado 245456" d="M289.659,34.027V16.062a3.252,3.252,0,0,0-3.252-3.253h-6.66a3.345,3.345,0,0,0-3.345,3.345V33.818a8.877,8.877,0,1,0,13.257.209" transform="translate(-230.658 -10.78)" fill="#ddebfd"/>
    <path id="Trazado_245457" data-name="Trazado 245457" d="M305.747,43.371c0,2.771-.016,5.542.019,8.312a1.83,1.83,0,0,0,.436,1.094,5.251,5.251,0,0,1,.694,6.239,5.207,5.207,0,0,1-9.682-2.44,5.313,5.313,0,0,1,1.389-3.768,1.967,1.967,0,0,0,.453-1.164c.029-5.436.019-10.872.02-16.308,0-2.093.96-3.057,3.042-3.061.317,0,.634-.007.95,0a2.553,2.553,0,0,1,2.673,2.7c.016,2.8,0,5.594.005,8.391m-1.984.5c0-2.849.009-5.7-.013-8.547,0-.311-.141-.867-.284-.89a5.284,5.284,0,0,0-2.014-.015c-.2.049-.336.8-.338,1.236q-.034,8.191-.006,16.382a2.319,2.319,0,0,1-.862,1.994,2.984,2.984,0,0,0-.855,3.389,3.1,3.1,0,0,0,2.834,2.165,3.2,3.2,0,0,0,3.148-1.955,3.114,3.114,0,0,0-.8-3.613,2.205,2.205,0,0,1-.829-1.917c.036-2.743.014-5.487.013-8.23" transform="translate(-250.139 -27.161)"/>
    <path id="Trazado_245458" data-name="Trazado 245458" d="M63.919,58.052a5.977,5.977,0,0,1,5.832,4.753,1.284,1.284,0,0,1-.571,1.529,18.933,18.933,0,0,0-4.889,5,1.136,1.136,0,0,1-1.309.542,5.95,5.95,0,0,1,.937-11.828" transform="translate(-48.77 -48.858)" fill="#f1cd88"/>
    <path id="Trazado_245459" data-name="Trazado 245459" d="M314.359,54.791c0,2.744.022,5.487-.014,8.23a2.205,2.205,0,0,0,.829,1.917,3.115,3.115,0,0,1,.8,3.613,3.2,3.2,0,0,1-3.148,1.955,3.1,3.1,0,0,1-2.834-2.165,2.985,2.985,0,0,1,.855-3.389,2.319,2.319,0,0,0,.862-1.994q-.026-8.191.006-16.382c0-.433.134-1.188.338-1.236a5.284,5.284,0,0,1,2.014.015c.143.023.282.579.284.89.022,2.849.013,5.7.013,8.547" transform="translate(-260.735 -38.082)" fill="#d97b7b"/>
    <path id="Trazado_245460" data-name="Trazado 245460" d="M25.3,14.892c1.95,1.072,3.9,2.163,5.874,3.221a3.825,3.825,0,0,1,2.175,3.736c-.031,1.319-.011,2.639-.006,3.959a3.657,3.657,0,0,1-2.4,3.647c-2.228.963-4.445,1.951-6.666,2.93-1.171.516-1.272.93-.481,1.963,1.043,1.362,2.1,2.715,3.132,4.084a3.19,3.19,0,1,1-5.038,3.9c-1.1-1.381-2.185-2.781-3.285-4.166-.577-.727-.888-.7-1.328.1-.522.948-1.058,1.889-1.527,2.862a1.1,1.1,0,0,0,0,.918c.954,1.451,1.949,2.875,2.964,4.285.527.733.35,1.588-.444,1.634a1.559,1.559,0,0,1-1.064-.5,20.805,20.805,0,0,1-4.22-6.914A21.873,21.873,0,0,1,11.82,30.029c.036-.285.07-.57.132-1.065-.5.34-.878.58-1.238.845a1.668,1.668,0,0,1-2.827-1.2,6.885,6.885,0,0,0-6.1-6.216c-1.8-.275-2.308-1.524-1.2-2.984a6.837,6.837,0,0,0-.027-8.574C-.514,9.426.039,8.211,1.74,7.855A14.386,14.386,0,0,0,5.028,6.608c.785-.383,1.375-.459,1.749.073.336.476.155,1.129-.626,1.553-1.033.561-2.142.983-3.22,1.458-.161.071-.336.109-.558.179a9.062,9.062,0,0,1-.025,10.558,9.088,9.088,0,0,1,7.475,7.429c.846-.4,1.669-.786,2.482-1.19a.593.593,0,0,0,.222-.312c.417-1.078.825-2.16,1.267-3.322A8.226,8.226,0,0,1,8.01,18.688a7.665,7.665,0,0,1-.748-4.771A8,8,0,0,1,13.828,7.27a7.8,7.8,0,0,1,5.864,1.349A8.177,8.177,0,0,1,23,13.631c1.2-.476,2.323-.913,3.438-1.379a.983.983,0,0,0,.424-.425c.342-.621.653-1.259,1.023-1.983a9.114,9.114,0,0,1-7.449-7.493A9.061,9.061,0,0,1,9.85,2.358c-.15.539-.259,1.025-.421,1.493-.193.556-.592.951-1.2.753a1,1,0,0,1-.685-1.321,14.27,14.27,0,0,0,.337-1.624A1.658,1.658,0,0,1,10.714.476a6.619,6.619,0,0,0,6.015,1.379A9.461,9.461,0,0,0,19.466.508C20.877-.44,22.15.042,22.4,1.724A6.863,6.863,0,0,0,28.621,7.9,1.665,1.665,0,0,1,29.8,10.73c-.181.246-.353.5-.641.907a22.094,22.094,0,0,1,15.531,2.805v-.963c0-2.455-.008-4.91,0-7.365A4.88,4.88,0,0,1,49.951.89c1.637,0,3.274-.013,4.911,0A4.84,4.84,0,0,1,59.855,5.9c.013,1.108,0,2.217,0,3.326,0,.643-.244,1.087-.929,1.146-.585.051-.959-.409-.967-1.176-.012-1.109.008-2.218-.008-3.326a2.942,2.942,0,0,0-3.008-3.094q-2.691-.071-5.385-.008a2.968,2.968,0,0,0-2.983,3.21q-.016,8.355.007,16.709a2.748,2.748,0,0,1-.6,1.81,7.846,7.846,0,0,0-.049,9.439,7.988,7.988,0,0,0,9.081,2.66,7.882,7.882,0,0,0,5.114-7.947A7.419,7.419,0,0,0,58.5,24.431a2.422,2.422,0,0,1-.554-1.668c.023-2.771.01-5.543.01-8.315,0-.211-.009-.423.009-.633a.937.937,0,0,1,1.875,0c.033.605.013,1.214.014,1.821,0,2.27-.015,4.54.016,6.81a2.04,2.04,0,0,0,.347,1.078A9.758,9.758,0,0,1,54.9,38.612a1.125,1.125,0,0,0-.878.857,21.406,21.406,0,0,1-9,11.762,1.218,1.218,0,0,0-.662,1.2c.042,1.556.027,3.115.01,4.672a3.458,3.458,0,1,1-6.913.2c-.026-.368.006-.739-.015-1.107a1.585,1.585,0,1,0-3.164.028c-.027,1.425,0,2.851-.017,4.276a3.339,3.339,0,0,1-2,3.166,3.418,3.418,0,0,1-4.9-2.982c-.064-2.031-.04-4.065-.008-6.1.009-.573-.2-.772-.72-1q-2.673-1.169-5.261-2.527c-.889-.466-1.064-1.088-.666-1.638.356-.492.869-.479,1.672.048a18.74,18.74,0,0,0,4.936,2.346c0-1.036-.006-1.976,0-2.916.007-.853.328-1.276.949-1.281s.976.428.978,1.264c.008,3.59,0,7.18,0,10.77,0,.29-.008.581.009.871a1.548,1.548,0,0,0,3.1.075c.059-.788.024-1.582.029-2.374,0-.766-.019-1.532.013-2.3a3.468,3.468,0,0,1,6.912-.2c.052.524.02,1.056.069,1.581a1.513,1.513,0,0,0,1.566,1.455,1.466,1.466,0,0,0,1.5-1.512c.037-1.847.045-3.7.008-5.543a1.857,1.857,0,0,1,.953-1.736c1.423-.991,2.763-2.106,4.092-3.223a1.083,1.083,0,0,0,.193-.936c-.238-.807-.59-1.579-.887-2.369a5.217,5.217,0,0,0-3.2-3.184c-1.8-.675-3.6-1.373-5.4-2.061a3.388,3.388,0,0,1-2.423-4.073q.155-1.177.343-2.349a3.358,3.358,0,0,1,3.151-3.031c.865-.1,1.733-.185,2.6-.23.433-.023.654-.121.712-.612a9.649,9.649,0,0,1,1.764-4.44,1.771,1.771,0,0,0,.3-.938c.025-1.742.024-3.485-.016-5.226a1.144,1.144,0,0,0-.4-.829,19.61,19.61,0,0,0-18.681-1.731.992.992,0,0,0-.208.11c-.04.029-.064.081-.041.049M14.558,39.151c.4-.733.717-1.309,1.035-1.883,1.1-1.979,3.078-2.155,4.477-.392,1.1,1.385,2.183,2.782,3.282,4.167.6.757,1.3.915,1.91.455s.648-1.176.061-1.95c-1.02-1.346-2.056-2.68-3.084-4.02-1.571-2.048-1.1-3.9,1.266-4.941q3.367-1.484,6.736-2.962A1.621,1.621,0,0,0,31.36,26.06c0-1.557.054-3.117-.035-4.669A1.794,1.794,0,0,0,30.6,20.1c-2.285-1.253-4.626-2.4-6.943-3.6a1.5,1.5,0,0,0-1.729.244,19.45,19.45,0,0,0-8.249,14.027,18.808,18.808,0,0,0,.877,8.377m.59-29.957a5.95,5.95,0,0,0-.937,11.828,1.136,1.136,0,0,0,1.31-.542,18.935,18.935,0,0,1,4.889-5,1.284,1.284,0,0,0,.571-1.529,5.977,5.977,0,0,0-5.832-4.753M52.255,39.157c-5.487-.66-8.682-3.525-9.807-8.753-1.108.114-2.208.2-3.3.349a1.29,1.29,0,0,0-1.078,1.212c-.141.832-.266,1.667-.366,2.5-.129,1.081.119,1.48,1.141,1.874,1.745.675,3.486,1.366,5.245,2a7.438,7.438,0,0,1,4.651,4.639c.176.476.381.941.572,1.412l.265.046,2.676-5.285" transform="translate(0 -0.001)"/>
  </g>
</svg>
