<svg xmlns="http://www.w3.org/2000/svg" xmlns:xlink="http://www.w3.org/1999/xlink" width="128.149" height="128.119" viewBox="0 0 128.149 128.119">
  <defs>
    <clipPath id="clip-path">
      <rect id="Rectángulo_316921" data-name="Rectángulo 316921" width="128.149" height="128.119" fill="none"/>
    </clipPath>
  </defs>
  <g id="Grupo_244200" data-name="Grupo 244200" transform="translate(0)">
    <g id="Grupo_244199" data-name="Grupo 244199" transform="translate(0 0)" clip-path="url(#clip-path)">
      <path id="Trazado_245461" data-name="Trazado 245461" d="M83.876,137.845a2.335,2.335,0,0,1,2.04-2.449,7.765,7.765,0,0,1,1.736-.073q22.2,0,44.4,0H134V19.183a11.256,11.256,0,0,0-1.137.373c-8.989,4.044-17.78,3.363-26.377-1.162a2.358,2.358,0,0,0-2.587.023c-9.139,5.073-18.334,5.119-27.493.062a2.446,2.446,0,0,0-2.725.041c-9.177,5.029-18.363,4.941-27.5-.125a1.944,1.944,0,0,0-2.162-.185C35.131,23,26.055,23.668,16.782,19.329a3.5,3.5,0,0,0-.67-.152V135.32H62.4a13.108,13.108,0,0,1,1.584.03,2.452,2.452,0,0,1,2.288,2.495h17.6" transform="translate(-11.002 -12.261)" fill="#b3f1ff"/>
      <path id="Trazado_245462" data-name="Trazado 245462" d="M5.11,123.059H51.4a12.978,12.978,0,0,1,1.584.03,2.508,2.508,0,0,1-.134,5c-.368.032-.74.013-1.109.013q-24.1,0-48.2,0c-2.8,0-3.536-.751-3.536-3.59Q0,64.027,0,3.537c0-.106,0-.212,0-.317C.021.247,1.805-.815,4.347.664A31.2,31.2,0,0,0,15.269,4.728C21.1,5.636,26.4,3.949,31.331,1.1A4.61,4.61,0,0,1,36.8,1.2C45.168,6.371,53.6,6.18,61.866.892A3.512,3.512,0,0,1,66.2.843c8.617,5.5,17.3,5.49,25.894-.062a3.289,3.289,0,0,1,3.938-.1,29.251,29.251,0,0,0,10.917,4.057c5.89.888,11.159-.961,16.219-3.71.464-.252.9-.559,1.38-.777a2.472,2.472,0,0,1,3.56,1.93,11.2,11.2,0,0,1,.035,1.583q0,60.252,0,120.5c0,3.174-.651,3.838-3.766,3.839q-23.943,0-47.885,0a8.1,8.1,0,0,1-1.424-.036,2.379,2.379,0,0,1-2.19-2.486,2.335,2.335,0,0,1,2.04-2.45,7.765,7.765,0,0,1,1.736-.073q22.2,0,44.4,0H123V6.923a11.255,11.255,0,0,0-1.137.373c-8.989,4.043-17.78,3.363-26.377-1.162a2.357,2.357,0,0,0-2.587.023c-9.139,5.073-18.334,5.119-27.493.062a2.446,2.446,0,0,0-2.725.041c-9.177,5.029-18.363,4.942-27.5-.125a1.945,1.945,0,0,0-2.162-.185C24.13,10.736,15.053,11.408,5.781,7.069a3.471,3.471,0,0,0-.67-.152Z" transform="translate(0 0)"/>
      <path id="Trazado_245463" data-name="Trazado 245463" d="M109.413,277.107c-.8,0-1.373-.012-1.945,0-1.98.048-2.722.692-3.083,2.661a2.507,2.507,0,0,1-2.837,2.321,2.608,2.608,0,0,1-2.16-3.013,7.5,7.5,0,0,1,7.017-6.938c.937-.057,1.88-.009,2.842-.009.14-1.752.136-3.338.414-4.873A12.479,12.479,0,0,1,121.1,257.087c2.22-.158,3.281.788,3.311,2.985.019,1.426.063,2.856-.016,4.279-.051.921.345,1.288,1.152,1.576a17.877,17.877,0,0,0,12.855-.094,2.01,2.01,0,0,0,1-1.436c.136-1.467.028-2.955.054-4.434.036-2.036,1.059-2.973,3.1-2.886a12.513,12.513,0,0,1,11.868,11.852c.133,3.8.139,7.612,0,11.41a12.516,12.516,0,0,1-11.913,11.81c-2,.081-3.021-.891-3.053-2.939-.022-1.426-.054-2.855.013-4.279a1.4,1.4,0,0,0-1.093-1.619,18.584,18.584,0,0,0-12.878,0,1.4,1.4,0,0,0-1.1,1.612c.069,1.476.045,2.958.01,4.437-.045,1.913-1.107,2.864-3.044,2.788a12.606,12.606,0,0,1-11.938-11.8c-.05-1-.007-2-.007-3.238m9.683,9.073v-23.15a6.769,6.769,0,0,0-4.5,6.369q-.113,5.222,0,10.448a6.729,6.729,0,0,0,4.5,6.333m25.6.008a6.622,6.622,0,0,0,4.548-6.167c.116-3.585.112-7.178.006-10.763-.089-3.016-2.131-5.651-4.554-6.147Zm-5.366-7.859v-7.443a23.142,23.142,0,0,1-14.826.02v7.4a23.261,23.261,0,0,1,14.826.025" transform="translate(-67.86 -175.537)"/>
      <path id="Trazado_245464" data-name="Trazado 245464" d="M245.629,91.216c-.622,1.914-1.2,3.548-1.683,5.209a17.643,17.643,0,0,1-4.665,7.779c-7.738,7.654-15.407,15.377-23.1,23.07-2.069,2.068-3.093,2.065-5.166-.006q-6.391-6.385-12.774-12.779c-1.8-1.809-1.807-2.9-.013-4.693Q210.1,97.909,221.969,86.022a16.868,16.868,0,0,1,7.317-4.235c1.693-.51,3.369-1.078,5.237-1.68-.694-.765-1.239-1.268-1.665-1.856a2.49,2.49,0,0,1,3.433-3.529,4.768,4.768,0,0,1,.713.625q6.728,6.721,13.435,13.463c.458.464,1.018,1.185.957,1.721a3.393,3.393,0,0,1-1.108,2.366,3.948,3.948,0,0,1-2.745-.038c-.634-.19-1.107-.92-1.913-1.643M238.4,83.949c-2.893,1-5.508,1.969-8.164,2.8a11.64,11.64,0,0,0-5.733,3.941l10.516,10.572a11.888,11.888,0,0,0,3.862-5.511c.893-2.8,1.9-5.553,2.893-8.418L238.4,83.949m-7.631,21.35L220.617,95.043l-6.353,6.39,10.078,10.316,6.43-6.449m-10.515,10.515-10.17-10.19-6.555,6.53,10.19,10.187,6.535-6.527" transform="translate(-134.437 -50.672)"/>
      <path id="Trazado_245465" data-name="Trazado 245465" d="M52.762,72.074l3.647-3.644c-1.605-1.553-3.2-3.063-4.76-4.611-1.814-1.8-1.811-2.889-.022-4.692,2.046-2.063,4.094-4.123,6.165-6.16,1.421-1.4,2.482-1.486,4.044-.275,9.013,6.992,18.038,13.969,27,21.025a7.337,7.337,0,0,1,.742,11.175q-10.1,10.288-20.391,20.394a7.352,7.352,0,0,1-11.177-.75c-7.054-8.964-14.031-17.989-21.023-27-1.221-1.573-1.138-2.6.274-4.039q3.167-3.22,6.388-6.386c1.491-1.462,2.751-1.457,4.25.021,1.614,1.591,3.18,3.23,4.861,4.943m3.612-10.52c1.726,1.691,3.37,3.259,4.966,4.875,1.485,1.5,1.481,2.736,0,4.248-2.036,2.075-4.1,4.123-6.165,6.17-1.762,1.747-2.908,1.736-4.7-.051-1.553-1.551-3.081-3.127-4.488-4.559L42.1,75.87c.358.48.664.906.987,1.321q9.05,11.641,18.1,23.279c1.971,2.534,3.126,2.617,5.366.378q9.309-9.3,18.613-18.615c2.188-2.19,2.126-3.378-.286-5.256q-11.761-9.154-23.528-18.3c-.4-.31-.813-.6-1.116-.82l-3.862,3.7" transform="translate(-24.674 -35.403)"/>
      <path id="Trazado_245466" data-name="Trazado 245466" d="M51.274,248.83a7.545,7.545,0,1,1-7.568-7.547,7.632,7.632,0,0,1,7.568,7.547m-5.043.056a2.5,2.5,0,0,0-4.991-.228,2.5,2.5,0,1,0,4.991.228" transform="translate(-24.708 -164.757)"/>
      <path id="Trazado_245467" data-name="Trazado 245467" d="M224.9,75.354a7.5,7.5,0,1,1-7.346-7.566,7.44,7.44,0,0,1,7.346,7.566m-5.035-.117a2.456,2.456,0,1,0-2.487,2.508,2.415,2.415,0,0,0,2.487-2.508" transform="translate(-143.33 -46.288)"/>
      <path id="Trazado_245468" data-name="Trazado 245468" d="M304.614,311.985a7.514,7.514,0,0,1,15.027.058,7.514,7.514,0,1,1-15.027-.058m7.564-2.472a2.576,2.576,0,0,0-2.563,2.469,2.534,2.534,0,0,0,2.349,2.5,2.476,2.476,0,0,0,2.617-2.365,2.529,2.529,0,0,0-2.4-2.605" transform="translate(-208.002 -207.935)"/>
      <path id="Trazado_245469" data-name="Trazado 245469" d="M196.612,393.069a2.51,2.51,0,1,1,2.5-2.554,2.567,2.567,0,0,1-2.5,2.554" transform="translate(-132.536 -264.975)"/>
      <path id="Trazado_245470" data-name="Trazado 245470" d="M57.079,322.687a2.518,2.518,0,0,1-5.036.063,2.518,2.518,0,1,1,5.036-.063" transform="translate(-35.536 -218.643)"/>
      <path id="Trazado_245471" data-name="Trazado 245471" d="M167.569,54.465a2.482,2.482,0,1,1-2.468-2.527,2.515,2.515,0,0,1,2.468,2.527" transform="translate(-111.033 -35.465)"/>
      <path id="Trazado_245472" data-name="Trazado 245472" d="M309.609,243.806a2.48,2.48,0,0,1-4.958.143,2.481,2.481,0,1,1,4.958-.143" transform="translate(-208.025 -164.788)"/>
      <path id="Trazado_245473" data-name="Trazado 245473" d="M151.728,299.014a6.729,6.729,0,0,1-4.5-6.333q-.12-5.222,0-10.448a6.769,6.769,0,0,1,4.5-6.369Z" transform="translate(-100.493 -188.37)" fill="#ff9256"/>
      <path id="Trazado_245474" data-name="Trazado 245474" d="M242.267,299.2V276.12c2.423.5,4.466,3.131,4.554,6.147.105,3.585.11,7.178-.007,10.763a6.622,6.622,0,0,1-4.548,6.167" transform="translate(-165.429 -188.545)" fill="#ff9256"/>
      <path id="Trazado_245475" data-name="Trazado 245475" d="M193.429,308.076a23.261,23.261,0,0,0-14.826-.025v-7.4a23.142,23.142,0,0,0,14.826-.02Z" transform="translate(-121.957 -205.283)" fill="#fce8d0"/>
      <path id="Trazado_245476" data-name="Trazado 245476" d="M297.875,104.921l3.375,3.388c-.99,2.864-2,5.622-2.893,8.417a11.889,11.889,0,0,1-3.862,5.512l-10.516-10.572a11.64,11.64,0,0,1,5.733-3.941c2.657-.835,5.272-1.8,8.164-2.8" transform="translate(-193.911 -71.644)" fill="#eefaff"/>
      <path id="Trazado_245477" data-name="Trazado 245477" d="M268.2,150.156l-6.43,6.449L251.689,146.29l6.353-6.39L268.2,150.156" transform="translate(-171.863 -95.529)" fill="#d8ec84"/>
      <path id="Trazado_245478" data-name="Trazado 245478" d="M234.574,183.45l-6.535,6.527-10.19-10.187,6.555-6.53,10.17,10.19" transform="translate(-148.755 -118.308)" fill="#d8ec84"/>
      <path id="Trazado_245479" data-name="Trazado 245479" d="M69.213,74.494l3.862-3.7c.3.222.717.511,1.116.82q11.766,9.148,23.528,18.3c2.412,1.877,2.475,3.066.286,5.256q-9.3,9.31-18.613,18.615c-2.24,2.239-3.395,2.156-5.366-.378q-9.053-11.639-18.1-23.279c-.322-.415-.629-.841-.987-1.321l3.887-3.634c1.408,1.432,2.935,3.009,4.489,4.559,1.791,1.788,2.937,1.8,4.7.051,2.065-2.046,4.129-4.095,6.165-6.17,1.484-1.513,1.487-2.743,0-4.248-1.6-1.616-3.239-3.184-4.966-4.875" transform="translate(-37.513 -48.343)" fill="#eefaff"/>
      <path id="Trazado_245480" data-name="Trazado 245480" d="M57.1,259.709a2.5,2.5,0,1,1-4.991-.228,2.5,2.5,0,0,1,4.991.228" transform="translate(-35.58 -175.579)" fill="#f8fffe"/>
      <path id="Trazado_245481" data-name="Trazado 245481" d="M230.745,86.1a2.456,2.456,0,1,1-4.91.1,2.456,2.456,0,0,1,4.91-.1" transform="translate(-154.208 -57.156)" fill="#f8fffe"/>
      <path id="Trazado_245482" data-name="Trazado 245482" d="M322.944,320.269a2.529,2.529,0,0,1,2.4,2.605,2.476,2.476,0,0,1-2.617,2.365,2.534,2.534,0,0,1-2.349-2.5,2.576,2.576,0,0,1,2.563-2.469" transform="translate(-218.768 -218.691)" fill="#eefaff"/>
    </g>
  </g>
</svg>
