<svg xmlns="http://www.w3.org/2000/svg" xmlns:xlink="http://www.w3.org/1999/xlink" width="128.402" height="128.402" viewBox="0 0 128.402 128.402">
  <defs>
    <clipPath id="clip-path">
      <rect id="Rectángulo_316922" data-name="Rectángulo 316922" width="128.402" height="128.402" fill="none"/>
    </clipPath>
  </defs>
  <g id="Grupo_244202" data-name="Grupo 244202" transform="translate(0)">
    <g id="Grupo_244201" data-name="Grupo 244201" transform="translate(0 0)" clip-path="url(#clip-path)">
      <path id="Trazado_245483" data-name="Trazado 245483" d="M68.917,77.461c-.969,1.972-1.906,3.619-2.607,5.36a5.093,5.093,0,1,0,9.447.1c-.691-1.8-1.651-3.5-2.6-5.466,1.322,0,2.416.024,3.508-.005A3.753,3.753,0,0,0,80.388,74.8a3.961,3.961,0,0,0-1.481-4.647,2.031,2.031,0,0,1-1.014-2.071c.035-3.965.031-7.932.011-11.9-.034-6.54-4.183-10.7-10.711-10.757a56.4,56.4,0,0,1-5.861-.064,11.339,11.339,0,0,1-3.792-1.313,53.017,53.017,0,0,1-4.682-2.9,1.44,1.44,0,0,1-.612-.93c-.078-1.047-.029-2.1-.029-3.424,2.013,0,3.946.053,5.875-.012a4.276,4.276,0,0,0,3.782-6.243c-.918-1.962-4.279-3.174-6.194-2.15a1.6,1.6,0,0,0-.718,1.255,1.632,1.632,0,0,0,.935,1.079,4.427,4.427,0,0,0,1.721.117c1.187-.038,1.987.375,1.982,1.682-.006,1.337-.9,1.657-2.031,1.649-1.057-.008-2.115,0-3.172,0-4.652,0-9.3.034-13.956-.039a2.825,2.825,0,0,1-2.021-.838,1.562,1.562,0,0,1,1.42-2.427c1.531-.063,3.066-.014,4.6-.028.909-.008,1.788-.183,1.75-1.333-.036-1.113-.883-1.3-1.812-1.291-1.639.016-3.28-.044-4.916.034A4.012,4.012,0,0,0,35.534,32.4a4.087,4.087,0,0,0,3.883,4.372c.894.068,1.8.024,2.695.028.835,0,1.67,0,2.709,0,0,1.346.049,2.55-.032,3.745a1.555,1.555,0,0,1-.681.927c-.512.364-1.244.491-1.643.934-2.849,3.168-6.557,3.249-10.374,3.019a7.05,7.05,0,0,0-1.268,0,2.29,2.29,0,0,1-2.754-1.579c-.864-1.966-2.705-2.712-4.824-2.714-2.368,0-4.737,0-7.323,0a10.285,10.285,0,0,1,.519-1.264C27.523,21.363,43.692,10.559,65.26,8.886c32.313-2.505,60.219,19.632,65.468,51.732,2.553,15.612-.8,30.162-9.483,43.423a2.115,2.115,0,0,1-1.469.886q-21.886.063-43.771.019a2.319,2.319,0,0,1-.487-.171c1.343-2.469.3-4.649-.9-6.823-.788-1.436-1.476-2.927-2.269-4.359-.778-1.4-1.86-1.455-2.6-.088a51.579,51.579,0,0,0-3.254,6.516c-.529,1.427-.375,3.107-.553,4.945H63.617q-21.41,0-42.82.028a2.5,2.5,0,0,1-2.4-1.33,61.583,61.583,0,0,1-9.7-39.288c.1-1.228.588-1.453,1.678-1.44,4.174.051,8.349,0,12.524.029,2.574.021,4.488-.923,5.588-3.361a1.571,1.571,0,0,1,1.164-.734,39.858,39.858,0,0,1,6.491.056,7.938,7.938,0,0,1,3.943,1.7c5.816,5.018,11.8,5.026,17.644-.01a8.531,8.531,0,0,1,3.643-1.675,2.066,2.066,0,0,1,2.6,2.223c.068,2.536.058,5.076,0,7.613a1.955,1.955,0,0,1-.713,1.234,4.31,4.31,0,0,0-1.519,4.933c.58,1.644,1.9,2.482,3.981,2.512.948.013,1.9,0,3.2,0m39.672-33.715a9.763,9.763,0,1,0-10.013,9.534,9.786,9.786,0,0,0,10.013-9.534m-58.2-12.253c.825-.861,1.7-1.347,1.758-1.922.129-1.177-.885-1.335-1.868-1.341-.955-.005-1.895.276-1.754,1.3.084.61,1,1.1,1.863,1.967m46.554-3.78c.88.749,1.4,1.556,1.973,1.6,1.083.084,1.2-.9,1.194-1.8-.007-.93-.255-1.858-1.323-1.657-.579.109-1.015.979-1.844,1.852M82.8,45.412c.865-.827,1.733-1.266,1.837-1.842.192-1.064-.737-1.317-1.665-1.317-.889,0-1.879.114-1.785,1.2.05.575.858,1.084,1.613,1.958m31.827,0c.885-.828,1.759-1.257,1.871-1.835.208-1.069-.728-1.321-1.65-1.328-.884-.007-1.879.085-1.788,1.189.048.576.832,1.092,1.566,1.974m-2.238,9.7A22.155,22.155,0,0,0,109.6,53.2c-.151-.075-1.142,1.089-1.1,1.144a10.378,10.378,0,0,0,2.111,2.03c.16.108.875-.6,1.769-1.256M89.846,32.586a22.281,22.281,0,0,0-2.775-1.921c-.148-.074-1.141,1.088-1.095,1.143a10.353,10.353,0,0,0,2.107,2.029c.16.108.875-.6,1.762-1.251m-1.9,19.924a21.914,21.914,0,0,0-1.924,2.767c-.078.156,1.064,1.149,1.116,1.107a10.569,10.569,0,0,0,2.058-2.089c.108-.156-.6-.881-1.251-1.784m21.931-17.985a22.441,22.441,0,0,0,1.838-2.826c.068-.146-1.124-1.1-1.186-1.051a10.522,10.522,0,0,0-1.982,2.169c-.1.15.641.843,1.33,1.707M96.9,59.458c.908.821,1.409,1.657,1.989,1.716,1.114.114,1.224-.892,1.219-1.794-.005-.868-.209-1.784-1.217-1.63-.6.091-1.083.892-1.99,1.708" transform="translate(-5.773 -5.936)" fill="#ffece9"/>
      <path id="Trazado_245484" data-name="Trazado 245484" d="M118.666,80.116h-17.79a2.972,2.972,0,0,1,0-5.945h17.79a2.972,2.972,0,0,1,0,5.945" transform="translate(-66.852 -50.647)" fill="#aaadad"/>
      <path id="Trazado_245485" data-name="Trazado 245485" d="M64.458,128.547a64.076,64.076,0,1,1,64.107-64.014,64.024,64.024,0,0,1-64.107,64.014m-1.01-56.752c-1.307,0-2.256.011-3.2,0-2.081-.029-3.4-.868-3.981-2.512a4.311,4.311,0,0,1,1.519-4.933,1.953,1.953,0,0,0,.713-1.233c.062-2.536.072-5.077,0-7.613a2.067,2.067,0,0,0-2.6-2.223,8.532,8.532,0,0,0-3.642,1.676c-5.845,5.036-11.829,5.028-17.644.01a7.938,7.938,0,0,0-3.943-1.7,39.857,39.857,0,0,0-6.491-.057,1.574,1.574,0,0,0-1.164.734c-1.1,2.438-3.013,3.382-5.588,3.362-4.175-.034-8.35.022-12.524-.029-1.09-.013-1.577.211-1.678,1.44A61.581,61.581,0,0,0,12.923,98a2.494,2.494,0,0,0,2.4,1.33q21.41-.062,42.82-.027h2.326c.179-1.838.024-3.519.553-4.946a51.555,51.555,0,0,1,3.254-6.516c.742-1.367,1.823-1.316,2.6.088.794,1.432,1.482,2.923,2.269,4.359,1.193,2.174,2.239,4.355.9,6.823a2.339,2.339,0,0,0,.487.171q21.886.014,43.771-.019a2.114,2.114,0,0,0,1.469-.886c8.684-13.262,12.036-27.812,9.483-43.423C120.01,22.852,92.1.715,59.791,3.22,38.223,4.893,22.054,15.7,10.973,34.206a10.243,10.243,0,0,0-.519,1.264c2.587,0,4.955,0,7.323,0,2.119,0,3.96.748,4.824,2.714a2.29,2.29,0,0,0,2.754,1.579,6.993,6.993,0,0,1,1.268,0c3.817.23,7.525.149,10.374-3.019.4-.443,1.13-.57,1.643-.934a1.556,1.556,0,0,0,.681-.928c.081-1.194.032-2.4.032-3.744-1.039,0-1.874,0-2.709,0-.9,0-1.8.04-2.695-.028a4.087,4.087,0,0,1-3.883-4.372,4.012,4.012,0,0,1,3.925-4.151c1.635-.078,3.277-.018,4.916-.034.929-.009,1.775.178,1.812,1.291.037,1.15-.841,1.325-1.75,1.333-1.533.014-3.068-.035-4.6.027a1.562,1.562,0,0,0-1.42,2.427,2.824,2.824,0,0,0,2.021.838c4.651.072,9.3.039,13.956.039,1.057,0,2.115-.009,3.172,0,1.136.008,2.025-.311,2.031-1.649.005-1.307-.794-1.72-1.982-1.681a4.426,4.426,0,0,1-1.721-.117,1.631,1.631,0,0,1-.935-1.079,1.605,1.605,0,0,1,.718-1.255c1.916-1.024,5.276.188,6.194,2.15a4.276,4.276,0,0,1-3.782,6.243c-1.929.065-3.862.012-5.875.012,0,1.322-.049,2.378.029,3.425a1.439,1.439,0,0,0,.612.93,53.021,53.021,0,0,0,4.682,2.9,11.339,11.339,0,0,0,3.792,1.313,56.308,56.308,0,0,0,5.861.063c6.528.057,10.677,4.217,10.711,10.757.02,3.966.024,7.932-.011,11.9a2.032,2.032,0,0,0,1.014,2.071,3.961,3.961,0,0,1,1.481,4.647A3.752,3.752,0,0,1,71.2,71.786c-1.092.03-2.186.005-3.508.005.948,1.971,1.907,3.667,2.6,5.466a5.093,5.093,0,1,1-9.447-.1c.7-1.741,1.638-3.388,2.607-5.36m19.809,37.073a23.956,23.956,0,0,1-.067,4.06,2.289,2.289,0,0,1-1.435,1.535c-.949.17-1.485-.617-1.494-1.617-.009-.846-.006-1.692-.01-2.538,0-.529.027-1.06-.013-1.586-.088-1.172-5.41-6.552-6.592-6.69-2.229-.26-2.274-.042-2.5,2.191-.332,3.231.309,5.933,3.116,7.854.171.117.4.291.419.46.082.708.386,1.614.07,2.094-.559.85-1.478.606-2.18-.077-1.061-1.033-2.057-2.137-3.167-3.112a3.947,3.947,0,0,1-1.379-3.37c.062-1.584-.008-3.172.012-4.758.011-.939-.392-1.334-1.342-1.3a31.707,31.707,0,0,1-3.8-.013c-1.442-.123-2.025.374-1.935,1.857a46.844,46.844,0,0,1-.005,4.757,3.019,3.019,0,0,1-.475,1.779,50.325,50.325,0,0,1-4.374,4.358,1.805,1.805,0,0,1-1.774-.093c-.348-.331-.284-1.195-.227-1.809.027-.3.4-.626.7-.83a7.085,7.085,0,0,0,3.033-7.553c-.016-.1.018-.216-.005-.316-.157-.679-.3-1.929-.49-1.938a6.759,6.759,0,0,0-3.12.434c-.856.409-1.392,1.438-2.186,2.039-2.557,1.936-3.819,4.356-3.272,7.628.179,1.07-.131,2.162-1.449,2.183-1.3.02-1.564-1.028-1.563-2.128,0-1.136,0-2.272,0-3.5-1.339,0-2.392.007-3.445,0-2.114-.017-4.228-.01-6.34-.078-.978-.032-1.82-.417-1.719-1.609.093-1.1.916-1.283,1.843-1.28a77.123,77.123,0,0,1,8.082.059c3.188.347,4.181-2.142,6.214-3.839H16.384c8.411,11.8,27.369,25.179,52.2,23.46,18.061-1.25,32.686-9.258,44.333-23.418H78.594a21.068,21.068,0,0,1,2.063,1.993,4.572,4.572,0,0,0,4.271,1.783c2.688-.147,5.39-.032,8.086-.036.95,0,1.715.265,1.759,1.364s-.731,1.443-1.651,1.517c-.841.068-1.688.079-2.533.082-2.367.01-4.734,0-7.333,0M61.364,61.295c-.382,2.02-.316,2.288.758,2.317,2.219.058,4.442.056,6.659-.022.348-.012.969-.551.97-.848.02-4.7.153-9.421-.147-14.108a6.726,6.726,0,0,0-6.488-6.089c-2.053-.145-4.122-.134-6.181-.084a10.417,10.417,0,0,1-7.283-2.534C45.7,36.6,41.176,36.583,37.24,39.868a10.583,10.583,0,0,1-7.428,2.589c-2.046-.063-4.1-.012-6.276-.012V50.5c2.06,0,3.951.046,5.839-.01a9.865,9.865,0,0,1,7.364,2.727,10.713,10.713,0,0,0,3.416,2.222,8.776,8.776,0,0,0,9.442-1.77c1.684-1.5,3.412-2.811,5.76-3.077A4.873,4.873,0,0,1,61.123,55.4c.047.943-.226,2.179.265,2.741.459.525,1.786.2,2.637.5.571.205.978.863,1.459,1.318-.5.443-.943,1.119-1.521,1.272a10.289,10.289,0,0,1-2.6.056m-47.84-6.657c1.541,0,2.9.032,4.253-.008,1.974-.057,2.906-.966,2.928-2.943q.057-5.305,0-10.611c-.021-1.978-.947-2.9-2.922-2.943-2.163-.048-4.338.111-6.489-.056-1.747-.136-2.824.352-3.221,2.116a8.418,8.418,0,0,1-.485,1.167A58.549,58.549,0,0,0,3.956,54.5h6.882c0-1.563.008-2.983,0-4.4-.007-.942.242-1.764,1.328-1.784s1.366.794,1.362,1.741c-.005,1.465,0,2.929,0,4.585M65.535,69.181c1.794,0,3.587-.007,5.381,0,.944.005,1.514-.365,1.518-1.383s-.576-1.387-1.515-1.386q-5.3.006-10.6,0c-.909,0-1.569.266-1.6,1.306-.029,1.087.567,1.486,1.594,1.471,1.741-.024,3.482-.007,5.222-.007m.022,21.985c-.833,1.618-1.521,2.912-2.168,4.227a2.359,2.359,0,0,0,.627,3.127,2.312,2.312,0,0,0,3.058.014,2.418,2.418,0,0,0,.633-3.139c-.6-1.336-1.324-2.619-2.149-4.229m0-17.535c-.841,1.622-1.542,2.906-2.179,4.222a2.374,2.374,0,0,0,.633,3.126A2.275,2.275,0,0,0,67.063,81a2.413,2.413,0,0,0,.649-3.13c-.6-1.336-1.32-2.619-2.151-4.244M42.214,31.31c-.619,3.146-.37,3.586,1.795,3.167V31.31Z" transform="translate(-0.304 -0.27)"/>
      <path id="Trazado_245486" data-name="Trazado 245486" d="M117.574,327.5c2.6,0,4.965.007,7.333,0,.845,0,1.692-.015,2.533-.082.92-.074,1.7-.414,1.651-1.516s-.809-1.366-1.759-1.364c-2.7,0-5.4-.11-8.086.036a4.57,4.57,0,0,1-4.271-1.783,21.042,21.042,0,0,0-2.063-1.993H147.23c-11.647,14.16-26.272,22.168-44.333,23.418-24.826,1.719-43.784-11.655-52.195-23.46H84.695c-2.033,1.7-3.025,4.186-6.214,3.839a77.118,77.118,0,0,0-8.082-.06c-.926,0-1.75.183-1.843,1.281-.1,1.191.74,1.577,1.719,1.608,2.112.069,4.227.062,6.34.079,1.053.008,2.106,0,3.444,0,0,1.23,0,2.365,0,3.5,0,1.1.26,2.149,1.563,2.128,1.318-.021,1.628-1.112,1.449-2.182-.547-3.273.715-5.693,3.271-7.628.794-.6,1.33-1.63,2.186-2.039a6.749,6.749,0,0,1,3.12-.434c.193.009.333,1.258.49,1.938.023.1-.011.213.006.316a7.087,7.087,0,0,1-3.033,7.553c-.295.2-.67.531-.7.83-.056.615-.121,1.478.227,1.809a1.8,1.8,0,0,0,1.774.093,50.286,50.286,0,0,0,4.374-4.358,3.022,3.022,0,0,0,.475-1.779,46.932,46.932,0,0,0,.005-4.757c-.09-1.483.494-1.98,1.935-1.857a31.637,31.637,0,0,0,3.8.013c.949-.033,1.353.362,1.342,1.3-.02,1.586.05,3.174-.011,4.758a3.946,3.946,0,0,0,1.379,3.37c1.11.975,2.106,2.079,3.167,3.112.7.683,1.621.927,2.18.077.316-.48.012-1.387-.07-2.094-.02-.169-.248-.344-.419-.46-2.807-1.921-3.449-4.624-3.116-7.854.23-2.233.274-2.452,2.5-2.191,1.183.138,6.5,5.518,6.593,6.69.04.526.011,1.057.013,1.586,0,.846,0,1.692.009,2.538.01,1,.545,1.787,1.494,1.617a2.289,2.289,0,0,0,1.434-1.535,23.923,23.923,0,0,0,.067-4.06m-34.5,9.3c.02-1.171-.036-2.331-1.484-2.35-1.319-.018-1.522,1.033-1.532,2.107-.01,1.119.14,2.261,1.528,2.288,1.3.025,1.542-1.018,1.488-2.045m31.5-.023c-.053,1.021.158,2.078,1.467,2.066,1.384-.012,1.558-1.141,1.549-2.266-.009-1.071-.2-2.128-1.513-2.127-1.446,0-1.526,1.151-1.5,2.327M63.126,324.541c-1-.054-2.021.086-2.076,1.335-.059,1.348,1.031,1.579,2.084,1.578s2.142-.218,2.095-1.569c-.044-1.263-1.068-1.387-2.1-1.344m71.319,0c-1-.042-2.01.112-2.03,1.374-.022,1.352,1.081,1.536,2.125,1.539.994,0,2.038-.218,2.057-1.452.021-1.365-1.046-1.51-2.151-1.461" transform="translate(-34.621 -218.905)" fill="#ff8939"/>
      <path id="Trazado_245487" data-name="Trazado 245487" d="M111.078,141a10.273,10.273,0,0,0,2.6-.056c.579-.154,1.019-.829,1.522-1.272-.48-.455-.888-1.113-1.459-1.318-.852-.306-2.179.022-2.637-.5-.491-.562-.218-1.8-.265-2.741a4.873,4.873,0,0,0-5.765-4.814c-2.348.266-4.077,1.576-5.76,3.077a8.776,8.776,0,0,1-9.442,1.769,10.705,10.705,0,0,1-3.416-2.221,9.866,9.866,0,0,0-7.364-2.727c-1.888.056-3.779.011-5.839.011v-8.054c2.18,0,4.23-.051,6.276.012a10.586,10.586,0,0,0,7.428-2.589c3.937-3.285,8.459-3.266,12.414.057a10.417,10.417,0,0,0,7.283,2.534c2.059-.049,4.129-.061,6.182.084a6.727,6.727,0,0,1,6.488,6.09c.3,4.688.167,9.4.146,14.108,0,.3-.623.836-.97.848-2.218.078-4.441.08-6.66.022-1.074-.028-1.14-.3-.758-2.317" transform="translate(-50.017 -79.979)" fill="#aaadad"/>
      <path id="Trazado_245488" data-name="Trazado 245488" d="M21.082,135.718c0-1.656,0-3.12,0-4.585,0-.947-.268-1.76-1.362-1.741s-1.335.842-1.328,1.784c.011,1.42,0,2.84,0,4.4H11.514a58.547,58.547,0,0,1,3.634-13.138,8.419,8.419,0,0,0,.484-1.167c.4-1.764,1.474-2.252,3.221-2.116,2.151.167,4.325.009,6.489.056,1.975.043,2.9.964,2.922,2.943q.057,5.305,0,10.611c-.021,1.977-.954,2.887-2.928,2.944-1.355.039-2.712.007-4.253.007m.694-10.453c-.966-.813-1.52-1.665-2.129-1.708-1.166-.08-1.26.981-1.254,1.928s.312,1.863,1.346,1.669c.627-.117,1.112-.99,2.037-1.889" transform="translate(-7.862 -81.35)" fill="#aaadad"/>
      <path id="Trazado_245489" data-name="Trazado 245489" d="M190.995,211.31c-1.741,0-3.482-.017-5.222.007-1.027.014-1.623-.384-1.594-1.471.028-1.04.688-1.309,1.6-1.306q5.3.015,10.6,0c.939,0,1.518.362,1.515,1.386s-.574,1.389-1.518,1.383c-1.794-.01-3.587,0-5.381,0" transform="translate(-125.763 -142.398)" fill="#aaadad"/>
      <path id="Trazado_245490" data-name="Trazado 245490" d="M200.362,286.591c.825,1.609,1.545,2.893,2.149,4.229a2.416,2.416,0,0,1-.633,3.138,2.312,2.312,0,0,1-3.058-.014,2.359,2.359,0,0,1-.627-3.127c.648-1.315,1.336-2.609,2.168-4.227" transform="translate(-135.108 -195.695)" fill="#508def"/>
      <path id="Trazado_245491" data-name="Trazado 245491" d="M200.365,231.3c.83,1.624,1.549,2.908,2.151,4.244a2.413,2.413,0,0,1-.649,3.13,2.277,2.277,0,0,1-3.049-.026,2.374,2.374,0,0,1-.632-3.126c.637-1.316,1.338-2.6,2.179-4.223" transform="translate(-135.108 -157.942)" fill="#508def"/>
      <path id="Trazado_245492" data-name="Trazado 245492" d="M131.507,97.869H133.3v3.167c-2.165.42-2.414-.021-1.794-3.167" transform="translate(-89.596 -66.829)" fill="#aaadad"/>
      <path id="Trazado_245493" data-name="Trazado 245493" d="M282.133,97.723a9.763,9.763,0,1,1-9.569-9.977,9.782,9.782,0,0,1,9.569,9.977m-2.821-.185a6.922,6.922,0,1,0-13.844,0,6.922,6.922,0,0,0,13.844,0" transform="translate(-179.318 -59.913)"/>
      <path id="Trazado_245494" data-name="Trazado 245494" d="M136.623,73.553c-.859-.862-1.779-1.357-1.863-1.967-.141-1.019.8-1.3,1.754-1.3.983.005,2,.164,1.867,1.341-.063.575-.933,1.061-1.758,1.922" transform="translate(-92.009 -47.996)"/>
      <path id="Trazado_245495" data-name="Trazado 245495" d="M287.446,64.613c.829-.873,1.265-1.743,1.844-1.852,1.068-.2,1.316.727,1.323,1.657.007.9-.111,1.88-1.194,1.8-.576-.045-1.092-.851-1.973-1.6" transform="translate(-196.279 -42.837)"/>
      <path id="Trazado_245496" data-name="Trazado 245496" d="M239.362,117.664c-.755-.873-1.563-1.383-1.613-1.958-.094-1.088.9-1.2,1.785-1.2.927,0,1.857.253,1.665,1.317-.1.576-.972,1.015-1.837,1.842" transform="translate(-162.339 -78.188)"/>
      <path id="Trazado_245497" data-name="Trazado 245497" d="M339.813,117.67c-.734-.882-1.519-1.4-1.566-1.974-.091-1.1.9-1.2,1.788-1.189.922.007,1.858.259,1.65,1.328-.113.578-.986,1.007-1.871,1.835" transform="translate(-230.963 -78.19)"/>
      <path id="Trazado_245498" data-name="Trazado 245498" d="M327.784,150.931c-.894.651-1.609,1.364-1.769,1.256a10.379,10.379,0,0,1-2.111-2.03c-.046-.055.946-1.219,1.1-1.144a22.13,22.13,0,0,1,2.783,1.918" transform="translate(-221.173 -101.749)"/>
      <path id="Trazado_245499" data-name="Trazado 245499" d="M256.746,79.882c-.887.646-1.6,1.359-1.762,1.251a10.342,10.342,0,0,1-2.107-2.029c-.046-.056.946-1.218,1.094-1.143a22.286,22.286,0,0,1,2.775,1.921" transform="translate(-172.672 -53.233)"/>
      <path id="Trazado_245500" data-name="Trazado 245500" d="M254.925,146.845c.649.9,1.359,1.629,1.251,1.784a10.558,10.558,0,0,1-2.058,2.089c-.052.043-1.194-.951-1.116-1.107a21.906,21.906,0,0,1,1.924-2.767" transform="translate(-172.756 -100.271)"/>
      <path id="Trazado_245501" data-name="Trazado 245501" d="M325.34,81.787c-.689-.865-1.427-1.558-1.33-1.707a10.523,10.523,0,0,1,1.982-2.169c.062-.053,1.254.905,1.186,1.051a22.416,22.416,0,0,1-1.838,2.826" transform="translate(-221.24 -53.199)"/>
      <path id="Trazado_245502" data-name="Trazado 245502" d="M287.312,165.04c.907-.815,1.394-1.617,1.99-1.708,1.009-.154,1.212.762,1.217,1.63.005.9-.1,1.908-1.219,1.794-.58-.06-1.081-.9-1.989-1.716" transform="translate(-196.187 -111.518)"/>
      <path id="Trazado_245503" data-name="Trazado 245503" d="M146.276,366.681c.054,1.028-.183,2.071-1.488,2.045-1.388-.027-1.538-1.169-1.528-2.288.01-1.074.213-2.125,1.532-2.107,1.448.019,1.5,1.178,1.484,2.349" transform="translate(-97.823 -248.779)"/>
      <path id="Trazado_245504" data-name="Trazado 245504" d="M252.063,366.658c-.023-1.176.057-2.326,1.5-2.327,1.315,0,1.5,1.056,1.513,2.127.009,1.125-.165,2.254-1.549,2.266-1.309.011-1.519-1.045-1.467-2.066" transform="translate(-172.113 -248.779)"/>
      <path id="Trazado_245505" data-name="Trazado 245505" d="M85.4,333.046c1.035-.043,2.059.081,2.1,1.344.047,1.352-1.047,1.567-2.095,1.569s-2.143-.229-2.084-1.578c.055-1.249,1.075-1.389,2.076-1.335" transform="translate(-56.896 -227.41)"/>
      <path id="Trazado_245506" data-name="Trazado 245506" d="M310.368,333.05c1.1-.049,2.172.1,2.151,1.461-.019,1.233-1.062,1.454-2.057,1.452-1.044,0-2.147-.186-2.125-1.539.02-1.262,1.031-1.416,2.03-1.374" transform="translate(-210.544 -227.414)"/>
      <path id="Trazado_245507" data-name="Trazado 245507" d="M36.587,134.777c-.925.9-1.41,1.772-2.037,1.889-1.034.194-1.34-.725-1.346-1.669s.088-2.008,1.254-1.928c.609.042,1.163.9,2.129,1.708" transform="translate(-22.673 -90.862)"/>
      <path id="Trazado_245508" data-name="Trazado 245508" d="M285.469,103.588a6.922,6.922,0,1,1-6.85-6.986,6.824,6.824,0,0,1,6.85,6.986" transform="translate(-185.476 -65.963)" fill="#ff8939"/>
      <path id="Trazado_245509" data-name="Trazado 245509" d="M64.2,128.4a64.2,64.2,0,1,1,64.2-64.2,64.274,64.274,0,0,1-64.2,64.2m0-122.693A58.492,58.492,0,1,0,122.693,64.2,58.558,58.558,0,0,0,64.2,5.709"/>
    </g>
  </g>
</svg>
