<svg id="Grupo_244209" data-name="Grupo 244209" xmlns="http://www.w3.org/2000/svg" xmlns:xlink="http://www.w3.org/1999/xlink" width="820" height="817.816" viewBox="0 0 820 817.816">
  <defs>
    <clipPath id="clip-path">
      <rect id="Rectángulo_316925" data-name="Rectángulo 316925" width="820" height="817.816" fill="none"/>
    </clipPath>
  </defs>
  <g id="Grupo_244206" data-name="Grupo 244206">
    <g id="Grupo_244205" data-name="Grupo 244205" clip-path="url(#clip-path)">
      <path id="Trazado_245523" data-name="Trazado 245523" d="M94.168,578.87,68.634,604.4A17.937,17.937,0,0,0,94,629.769l25.532-25.533A17.936,17.936,0,0,0,94.168,578.87" transform="translate(14.561 131.784)" fill="#f9d9d9"/>
      <path id="Trazado_245524" data-name="Trazado 245524" d="M103.4,316.3,77.87,341.831A17.937,17.937,0,1,1,52.5,316.463l25.533-25.532A17.936,17.936,0,0,1,103.4,316.3" transform="translate(10.856 65.632)" fill="#f9d9d9"/>
      <path id="Trazado_245525" data-name="Trazado 245525" d="M48.177,174.553,13.3,165.206a17.936,17.936,0,1,1,9.285-34.65L57.461,139.9a17.936,17.936,0,1,1-9.285,34.65" transform="translate(0 29.853)" fill="#f9d9d9"/>
      <path id="Trazado_245526" data-name="Trazado 245526" d="M139.9,57.462l-9.346-34.878A17.937,17.937,0,0,1,165.208,13.3l9.345,34.878a17.936,17.936,0,1,1-34.65,9.285" transform="translate(29.853 0)" fill="#f9d9d9"/>
      <path id="Trazado_245527" data-name="Trazado 245527" d="M291.273,78.955l25.533-25.533a17.937,17.937,0,0,1,25.366,25.367l-25.533,25.532a17.936,17.936,0,0,1-25.366-25.366" transform="translate(65.711 11.066)" fill="#f9d9d9"/>
      <path id="Trazado_245528" data-name="Trazado 245528" d="M622.564,145.043l34.878-9.346a17.937,17.937,0,0,1,9.285,34.652l-34.878,9.345a17.936,17.936,0,1,1-9.285-34.65" transform="translate(139.974 31.034)" fill="#f9d9d9"/>
      <path id="Trazado_245529" data-name="Trazado 245529" d="M515.919,70.134l9.346-34.878a17.936,17.936,0,0,1,21.967-12.684h0A17.937,17.937,0,0,1,559.916,44.54L550.57,79.418a17.936,17.936,0,1,1-34.651-9.285" transform="translate(118.387 5.044)" fill="#f9d9d9"/>
      <path id="Trazado_245530" data-name="Trazado 245530" d="M397.826,119.3,372.292,93.763A17.937,17.937,0,1,1,397.66,68.4l25.532,25.533A17.936,17.936,0,0,1,397.826,119.3" transform="translate(84.325 14.507)" fill="#f9d9d9"/>
      <path id="Trazado_245531" data-name="Trazado 245531" d="M580.06,300.97,605.593,326.5a17.937,17.937,0,1,0,25.366-25.367L605.425,275.6A17.936,17.936,0,1,0,580.06,300.97" transform="translate(132.058 62.111)" fill="#f9d9d9"/>
      <path id="Trazado_245532" data-name="Trazado 245532" d="M516.426,630.073l9.346,34.878a17.936,17.936,0,1,0,34.65-9.285l-9.346-34.878a17.936,17.936,0,1,0-34.65,9.285" transform="translate(118.504 139.566)" fill="#f9d9d9"/>
      <path id="Trazado_245533" data-name="Trazado 245533" d="M621.757,549.447l34.878,9.346a17.937,17.937,0,0,0,9.285-34.652L631.041,514.8a17.936,17.936,0,1,0-9.285,34.65" transform="translate(139.789 118.129)" fill="#f9d9d9"/>
      <path id="Trazado_245534" data-name="Trazado 245534" d="M480.713,207.6l50.153,50.154,21.812,81.4A13.8,13.8,0,0,0,571,348.449a139.4,139.4,0,0,0,50.657-34.069c51.4-54.115,50.856-140.1-1.188-193.6a139.815,139.815,0,0,0-230.456,46.7,13.736,13.736,0,0,0,9.208,18.278Z" transform="translate(89.385 18.023)" fill="#6eb7ff"/>
      <path id="Trazado_245535" data-name="Trazado 245535" d="M86.429,544.068a140.179,140.179,0,0,0,79.611,80.2A13.89,13.89,0,0,0,184.583,615L204.4,541.045l-12.245-43.428-96.611,27.9a14.011,14.011,0,0,0-9.114,18.547" transform="translate(19.638 114.324)" fill="#6eb7ff"/>
      <path id="Trazado_245536" data-name="Trazado 245536" d="M485.144,562.141l-15.962,59.57a13.933,13.933,0,0,0,11.426,17.368,140.544,140.544,0,0,0,20.946,1.565c76.879,0,139.757-62.882,139.75-139.76a140.466,140.466,0,0,0-1.556-20.865A13.994,13.994,0,0,0,622.3,468.542l-43.632,11.691Z" transform="translate(107.681 107.534)" fill="#6eb7ff"/>
      <path id="Trazado_245537" data-name="Trazado 245537" d="M270.681,211.165l-59.56,59.56-25.86,96.515a16.526,16.526,0,0,1-21.948,11.134,165.555,165.555,0,0,1-60.009-40.4c-61.041-64.265-60.394-166.381,1.412-229.91a166.04,166.04,0,0,1,273.5,55,16.743,16.743,0,0,1-11.235,22.3Z" transform="translate(13.311 13.277)" fill="#a5d6a7"/>
      <path id="Trazado_245538" data-name="Trazado 245538" d="M644.507,518.042a88.882,88.882,0,0,0-88.05-22.415,47,47,0,0,1-46.563-11.75l-.869-.871a46.652,46.652,0,0,1-10.38-49.54,110.762,110.762,0,0,0,0-77.741,46.654,46.654,0,0,1,10.38-49.541l.911-.911a46.27,46.27,0,0,1,46.193-11.528,88.9,88.9,0,1,0-59.47-60.307,47.044,47.044,0,0,1-11.83,46.376l-.789.789a47.357,47.357,0,0,1-50.17,10.551A110.391,110.391,0,0,0,291.891,433.133a47.361,47.361,0,0,1-10.55,50.171l-.547.547A47.006,47.006,0,0,1,234.2,495.618a89.074,89.074,0,0,0-29.317-3.529c-46.087,2.1-83.289,39.862-84.728,85.974a88.914,88.914,0,0,0,91.725,91.712c46.108-1.446,83.867-38.651,85.959-84.734A89,89,0,0,0,294.3,555.7,46.935,46.935,0,0,1,306.05,509.16l.871-.869a46.652,46.652,0,0,1,49.54-10.38,110.762,110.762,0,0,0,77.741,0,46.654,46.654,0,0,1,49.541,10.379l.869.871a47,47,0,0,1,11.751,46.563,88.928,88.928,0,0,0,134.23,99.419l25.282-25.282a88.935,88.935,0,0,0-11.369-111.817" transform="translate(27.594 27.522)" fill="#144677"/>
      <path id="Trazado_245539" data-name="Trazado 245539" d="M323.091,212.712A110.379,110.379,0,1,1,212.712,102.333,110.379,110.379,0,0,1,323.091,212.712" transform="translate(23.51 23.51)" fill="#00574f"/>
      <path id="Trazado_245540" data-name="Trazado 245540" d="M449.2,359.977A88.576,88.576,0,1,1,360.627,271.4,88.577,88.577,0,0,1,449.2,359.977" transform="translate(62.502 62.352)" fill="#baeaff"/>
      <path id="Trazado_245541" data-name="Trazado 245541" d="M623.24,290.667A40.881,40.881,0,1,1,594.332,240.6a40.882,40.882,0,0,1,28.908,50.069" transform="translate(124.718 54.953)" fill="#144677"/>
      <path id="Trazado_245542" data-name="Trazado 245542" d="M652.658,180.857a40.881,40.881,0,1,1-28.908-50.069,40.882,40.882,0,0,1,28.908,50.069" transform="translate(131.477 29.725)" fill="#144677"/>
      <path id="Trazado_245543" data-name="Trazado 245543" d="M572.316,100.5a40.881,40.881,0,1,1-28.908-50.069A40.882,40.882,0,0,1,572.316,100.5" transform="translate(113.019 11.263)" fill="#144677"/>
      <path id="Trazado_245544" data-name="Trazado 245544" d="M601.214,208.553A88.757,88.757,0,1,1,512.458,119.8a88.757,88.757,0,0,1,88.757,88.757" transform="translate(97.342 27.522)" fill="#144677"/>
      <path id="Trazado_245545" data-name="Trazado 245545" d="M462.527,129.955a40.881,40.881,0,1,1-28.908-50.069,40.882,40.882,0,0,1,28.908,50.069" transform="translate(87.796 18.031)" fill="#144677"/>
      <path id="Trazado_245546" data-name="Trazado 245546" d="M65.337,304.776a40.881,40.881,0,1,0,28.908-50.069,40.882,40.882,0,0,0-28.908,50.069" transform="translate(14.688 58.195)" fill="#00574f"/>
      <path id="Trazado_245547" data-name="Trazado 245547" d="M30.186,176.948a40.881,40.881,0,1,0,28.908-50.069,40.88,40.88,0,0,0-28.908,50.069" transform="translate(6.613 28.827)" fill="#00574f"/>
      <path id="Trazado_245548" data-name="Trazado 245548" d="M125.078,82.049A40.881,40.881,0,1,0,153.986,31.98a40.882,40.882,0,0,0-28.908,50.069" transform="translate(28.413 7.025)" fill="#00574f"/>
      <path id="Trazado_245549" data-name="Trazado 245549" d="M254.229,115.3a40.881,40.881,0,1,0,28.908-50.069A40.882,40.882,0,0,0,254.229,115.3" transform="translate(58.085 14.664)" fill="#00574f"/>
      <path id="Trazado_245550" data-name="Trazado 245550" d="M89.124,552.188a40.882,40.882,0,1,1,0,57.815,40.883,40.883,0,0,1,0-57.815" transform="translate(17.725 124.11)" fill="#144677"/>
      <path id="Trazado_245551" data-name="Trazado 245551" d="M521.931,651.664A40.881,40.881,0,1,1,572,622.756a40.882,40.882,0,0,1-50.069,28.907" transform="translate(112.946 131.248)" fill="#144677"/>
      <path id="Trazado_245552" data-name="Trazado 245552" d="M602.29,571.322a40.881,40.881,0,1,1,50.069-28.908,40.882,40.882,0,0,1-50.069,28.908" transform="translate(131.408 112.79)" fill="#144677"/>
      <path id="Trazado_245553" data-name="Trazado 245553" d="M584.826,205.973a74.949,74.949,0,1,1-74.949-74.949,74.949,74.949,0,0,1,74.949,74.949" transform="translate(99.922 30.102)" fill="#baeaff"/>
      <path id="Trazado_245554" data-name="Trazado 245554" d="M601.214,511.469a88.757,88.757,0,1,1-88.757-88.757,88.757,88.757,0,0,1,88.757,88.757" transform="translate(97.342 97.115)" fill="#144677"/>
      <path id="Trazado_245555" data-name="Trazado 245555" d="M584.826,508.889a74.949,74.949,0,1,1-74.949-74.949,74.949,74.949,0,0,1,74.949,74.949" transform="translate(99.922 99.695)" fill="#baeaff"/>
      <path id="Trazado_245556" data-name="Trazado 245556" d="M297.429,511.469a88.757,88.757,0,1,1-88.757-88.757,88.757,88.757,0,0,1,88.757,88.757" transform="translate(27.55 97.115)" fill="#144677"/>
      <path id="Trazado_245557" data-name="Trazado 245557" d="M281.042,508.889a74.949,74.949,0,1,1-74.95-74.949,74.95,74.95,0,0,1,74.95,74.949" transform="translate(30.13 99.695)" fill="#baeaff"/>
    </g>
  </g>
  <text id="Indicadores_de_" data-name="Indicadores de " transform="translate(351.078 407.806)" fill="#12263f" font-size="20" font-family="Roboto-Regular, Roboto"><tspan x="0" y="0">Indicado</tspan><tspan y="0" letter-spacing="-0.009em">r</tspan><tspan y="0">es de </tspan></text>
  <text id="intervención_" data-name="intervención " transform="translate(351.078 426.884)" fill="#12263f" font-size="20" font-family="Roboto-Bold, Roboto" font-weight="700"><tspan x="0" y="0">inte</tspan><tspan y="0" letter-spacing="0.008em">r</tspan><tspan y="0" letter-spacing="-0.006em">v</tspan><tspan y="0">ención </tspan></text>
  <text id="antrópica" transform="translate(351.078 445.962)" fill="#12263f" font-size="20" font-family="Roboto-Bold, Roboto" font-weight="700"><tspan x="0" y="0">ant</tspan><tspan y="0" letter-spacing="-0.017em">r</tspan><tspan y="0">ópica</tspan></text>
  <text id="Indicadores_de_2" data-name="Indicadores de " transform="translate(551.672 223.936)" fill="#12263f" font-size="15" font-family="Roboto-Regular, Roboto"><tspan x="0" y="0">Indicado</tspan><tspan y="0" letter-spacing="-0.009em">r</tspan><tspan y="0">es de </tspan></text>
  <text id="presión_por_uso_" data-name="presión por uso " transform="translate(551.672 237.931)" fill="#12263f" font-size="14" font-family="Roboto-Bold, Roboto" font-weight="700"><tspan x="0" y="0">p</tspan><tspan y="0" letter-spacing="-0.009em">r</tspan><tspan y="0">esión por uso </tspan></text>
  <text id="de_agua" data-name="de agua" transform="translate(551.672 253.926)" fill="#12263f" font-size="15" font-family="Roboto-Bold, Roboto" font-weight="700"><tspan x="0" y="0">de agua</tspan></text>
  <text id="Indicadores_de_3" data-name="Indicadores de " transform="translate(553.83 581.448)" fill="#12263f" font-size="15" font-family="Roboto-Regular, Roboto"><tspan x="0" y="0">Indicado</tspan><tspan y="0" letter-spacing="-0.009em">r</tspan><tspan y="0">es de </tspan></text>
  <text id="estado_de_" data-name="estado de " transform="translate(553.83 595.443)" fill="#12263f" font-size="14" font-family="Roboto-Regular, Roboto"><tspan x="0" y="0">estado de </tspan></text>
  <text id="calidad_y_" data-name="calidad y " transform="translate(553.83 612.439)" fill="#12263f" font-size="16" font-family="Roboto-Regular, Roboto"><tspan x="0" y="0">calidad y </tspan></text>
  <text id="presión_por_" data-name="presión por " transform="translate(553.83 626.433)" fill="#12263f" font-size="15" font-family="Roboto-Bold, Roboto" font-weight="700"><tspan x="0" y="0">p</tspan><tspan y="0" letter-spacing="-0.009em">r</tspan><tspan y="0">esión por </tspan></text>
  <text id="contaminación" transform="translate(553.83 640.428)" fill="#12263f" font-size="14" font-family="Roboto-Bold, Roboto" font-weight="700"><tspan x="0" y="0">contaminación</tspan></text>
  <text id="Indicadores_de_4" data-name="Indicadores de " transform="translate(180.26 603.933)" fill="#12263f" font-size="15" font-family="Roboto-Regular, Roboto"><tspan x="0" y="0">Indicado</tspan><tspan y="0" letter-spacing="-0.009em">r</tspan><tspan y="0">es de </tspan></text>
  <text id="riesgo" transform="translate(180.26 617.928)" fill="#12263f" font-size="14" font-family="Roboto-Bold, Roboto" font-weight="700"><tspan x="0" y="0">riesgo</tspan></text>
  <text id="IVH" transform="translate(115.497 709.009)" fill="#fff" font-size="21" font-family="Roboto-Bold, Roboto" font-weight="700"><tspan x="0" y="0">IVH</tspan></text>
  <text id="IA" transform="translate(107.574 356.19)" fill="#fff59d" font-size="21" font-family="Roboto-Bold, Roboto" font-weight="700"><tspan x="0" y="0" letter-spacing="0.008em">I</tspan><tspan y="0">A</tspan></text>
  <text id="IRH" transform="translate(56.211 198.986)" fill="#fff59d" font-size="21" font-family="Roboto-Bold, Roboto" font-weight="700"><tspan x="0" y="0">IRH</tspan></text>
  <text id="ICA" transform="translate(625.593 747.225)" fill="#fff" font-size="21" font-family="Roboto-Bold, Roboto" font-weight="700"><tspan x="0" y="0">ICA</tspan></text>
  <text id="IACAL" transform="translate(709.529 648.424)" fill="#fff" font-size="21" font-family="Roboto-Bold, Roboto" font-weight="700"><tspan x="0" y="0" letter-spacing="0.008em">I</tspan><tspan y="0" letter-spacing="-0.01em">A</tspan><tspan y="0">CAL</tspan></text>
  <text id="IEUA" transform="translate(681.788 338.848)" fill="#fff" font-size="21" font-family="Roboto-Bold, Roboto" font-weight="700"><tspan x="0" y="0">IE</tspan><tspan y="0" letter-spacing="-0.01em">U</tspan><tspan y="0">A</tspan></text>
  <text id="IARC" transform="translate(716.839 203.818)" fill="#fff" font-size="21" font-family="Roboto-Bold, Roboto" font-weight="700"><tspan x="0" y="0" letter-spacing="0.008em">I</tspan><tspan y="0">ARC</tspan></text>
  <text id="IPHE" transform="translate(618.774 104.992)" fill="#fff" font-size="21" font-family="Roboto-Bold, Roboto" font-weight="700"><tspan x="0" y="0">IPHE</tspan></text>
  <text id="IUA" transform="translate(491.054 141.221)" fill="#fff" font-size="21" font-family="Roboto-Bold, Roboto" font-weight="700"><tspan x="0" y="0">I</tspan><tspan y="0" letter-spacing="-0.011em">U</tspan><tspan y="0">A</tspan></text>
  <g id="Grupo_244208" data-name="Grupo 244208">
    <g id="Grupo_244207" data-name="Grupo 244207" clip-path="url(#clip-path)">
      <path id="Trazado_245558" data-name="Trazado 245558" d="M145.836,271.565a88.9,88.9,0,1,0,0-125.73,88.9,88.9,0,0,0,0,125.73" transform="translate(27.522 27.522)" fill="#fff59d"/>
    </g>
  </g>
  <text id="Indicadores_de_5" data-name="Indicadores de " transform="translate(164.171 221.634)" fill="#144677" font-size="20" font-family="Roboto-Regular, Roboto"><tspan x="0" y="0">Indicado</tspan><tspan y="0" letter-spacing="-0.009em">r</tspan><tspan y="0">es de </tspan></text>
  <text id="sistema_" data-name="sistema " transform="translate(164.171 240.712)" fill="#144677" font-size="20" font-family="Roboto-Bold, Roboto" font-weight="700"><tspan x="0" y="0">sistema </tspan></text>
  <text id="hídrico" transform="translate(164.171 259.79)" fill="#144677" font-size="20" font-family="Roboto-Bold, Roboto" font-weight="700"><tspan x="0" y="0">hídrico</tspan></text>
  <text id="SPI" transform="translate(173.955 82.296)" fill="#fff59d" font-size="21" font-family="Roboto-Bold, Roboto" font-weight="700"><tspan x="0" y="0">SPI</tspan></text>
  <text id="IRS" transform="translate(332.851 123.185)" fill="#fff59d" font-size="21" font-family="Roboto-Bold, Roboto" font-weight="700"><tspan x="0" y="0">IRS</tspan></text>
  <text id="_1" data-name="1" transform="translate(72.272 393.868)" fill="#144677" font-size="18" font-family="Roboto-Bold, Roboto" font-weight="700"><tspan x="0" y="0">1</tspan></text>
  <text id="_2" data-name="2" transform="translate(13.901 181.014)" fill="#144677" font-size="18" font-family="Roboto-Bold, Roboto" font-weight="700"><tspan x="0" y="0">2</tspan></text>
  <text id="_3" data-name="3" transform="translate(172.058 21.595)" fill="#144677" font-size="18" font-family="Roboto-Bold, Roboto" font-weight="700"><tspan x="0" y="0">3</tspan></text>
  <text id="_5" data-name="5" transform="translate(464.134 99.777)" fill="#144677" font-size="18" font-family="Roboto-Bold, Roboto" font-weight="700"><tspan x="0" y="0">5</tspan></text>
  <text id="_6" data-name="6" transform="translate(654.831 47.715)" fill="#144677" font-size="18" font-family="Roboto-Bold, Roboto" font-weight="700"><tspan x="0" y="0">6</tspan></text>
  <text id="_7" data-name="7" transform="translate(798.202 187.633)" fill="#144677" font-size="18" font-family="Roboto-Bold, Roboto" font-weight="700"><tspan x="0" y="0">7</tspan></text>
  <text id="_8" data-name="8" transform="translate(744.678 378.727)" fill="#144677" font-size="18" font-family="Roboto-Bold, Roboto" font-weight="700"><tspan x="0" y="0">8</tspan></text>
  <text id="_9" data-name="9" transform="translate(793.996 663.764)" fill="#144677" font-size="18" font-family="Roboto-Bold, Roboto" font-weight="700"><tspan x="0" y="0">9</tspan></text>
  <text id="_10" data-name="10" transform="translate(648.5 806.815)" fill="#144677" font-size="21" font-family="Roboto-Bold, Roboto" font-weight="700"><tspan x="0" y="0">10</tspan></text>
  <text id="_11" data-name="11" transform="translate(84.424 755.992)" fill="#144677" font-size="21" font-family="Roboto-Bold, Roboto" font-weight="700"><tspan x="0" y="0">11</tspan></text>
  <text id="_4" data-name="4" transform="translate(387.812 79.745)" fill="#144677" font-size="18" font-family="Roboto-Bold, Roboto" font-weight="700"><tspan x="0" y="0">4</tspan></text>
</svg>
