<svg xmlns="http://www.w3.org/2000/svg" width="119.128" height="119.128" viewBox="0 0 119.128 119.128">
  <g id="Grupo_245336" data-name="Grupo 245336" transform="translate(-1010.404 -26.023)">
    <path id="Trazado_246196" data-name="Trazado 246196" d="M1101.532,59.587A59.564,59.564,0,1,1,1041.968.023a59.564,59.564,0,0,1,59.564,59.564" transform="translate(28 26)" fill="#144677"/>
    <path id="Trazado_246197" data-name="Trazado 246197" d="M1028.307,26.791a6.661,6.661,0,0,0,5.334,6.611,6.216,6.216,0,0,0,6.056,5.255,5.982,5.982,0,0,0,3.652-1.245,7.511,7.511,0,0,0,6.547,3.919,7.692,7.692,0,0,0,7.556-7.821v0c.049,0,.1,0,.147,0" transform="translate(28 26)" fill="none" stroke="#fff" stroke-linecap="round" stroke-linejoin="round" stroke-width="2"/>
    <path id="Trazado_246198" data-name="Trazado 246198" d="M1037.906,28.606a8.224,8.224,0,0,1,16.449,0v.012a6.336,6.336,0,0,1,10.993,4.03V41.98" transform="translate(28 26)" fill="none" stroke="#fff" stroke-linecap="round" stroke-linejoin="round" stroke-width="2"/>
    <path id="Trazado_246199" data-name="Trazado 246199" d="M1034.068,92.865h-23.514V49.438l23.514,21.714Z" transform="translate(28 26)" fill="none" stroke="#fff" stroke-linecap="round" stroke-linejoin="round" stroke-width="2"/>
    <path id="Trazado_246200" data-name="Trazado 246200" d="M1057.532,92.865h-23.514V49.438l23.514,21.714Z" transform="translate(28 26)" fill="none" stroke="#fff" stroke-linecap="round" stroke-linejoin="round" stroke-width="2"/>
    <rect id="Rectángulo_317297" data-name="Rectángulo 317297" width="15.191" height="38.405" transform="translate(1085.533 80.461)" fill="none" stroke="#fff" stroke-linecap="round" stroke-linejoin="round" stroke-width="2"/>
    <rect id="Rectángulo_317298" data-name="Rectángulo 317298" width="19.926" height="8.443" transform="translate(1083.165 72.018)" fill="none" stroke="#fff" stroke-linecap="round" stroke-linejoin="round" stroke-width="2"/>
    <line id="Línea_648" data-name="Línea 648" y2="26.842" transform="translate(1044.176 92.023)" fill="none" stroke="#fff" stroke-linecap="round" stroke-linejoin="round" stroke-width="2"/>
    <line id="Línea_649" data-name="Línea 649" y2="26.842" transform="translate(1067.591 92.023)" fill="none" stroke="#fff" stroke-linecap="round" stroke-linejoin="round" stroke-width="2"/>
    <line id="Línea_650" data-name="Línea 650" x2="78.879" transform="translate(1030.358 118.865)" fill="none" stroke="#fff" stroke-linecap="round" stroke-linejoin="round" stroke-width="2"/>
  </g>
</svg>
