<svg id="Grupo_244769" data-name="Grupo 244769" xmlns="http://www.w3.org/2000/svg" xmlns:xlink="http://www.w3.org/1999/xlink" width="62" height="61.896" viewBox="0 0 62 61.896">
  <defs>
    <clipPath id="clip-path">
      <rect id="Rectángulo_317302" data-name="Rectángulo 317302" width="62" height="61.896" fill="none"/>
    </clipPath>
  </defs>
  <g id="Grupo_244768" data-name="Grupo 244768" clip-path="url(#clip-path)">
    <path id="Trazado_246201" data-name="Trazado 246201" d="M61.92,51.9h-9.8c-.038-.048-.1-.089-.1-.127a6.7,6.7,0,0,0-2.078-5.029c-.84-.942-1.593-1.961-2.4-2.969-1.15.818-2.287,1.607-3.393,2.435-.141.106-.173.42-.176.639-.017,1.16-.021,2.32,0,3.48a5.257,5.257,0,0,1-1.227,3.5,26.217,26.217,0,0,0-2,2.549,5.11,5.11,0,0,0-.725,2.1,32.7,32.7,0,0,0-.031,3.42H24.013c0-.956-.04-1.9.01-2.83a4.4,4.4,0,0,0-1.071-3.12c-3.373-4.226-2.728-2.741-3.661-8.3a1.378,1.378,0,0,0-.708-1.036c-1.392-.892-2.745-1.844-4.184-2.822-1.214,1.547-2.586,3.061-3.665,4.761a13.064,13.064,0,0,0-1.013,3.346H.02v-.914C.02,43.7.068,36.424,0,29.149A15.591,15.591,0,0,1,3.71,19.216a3.057,3.057,0,0,1,2.633-1.209c.575.026.739-.207.915-.694C10.838,7.4,17.833,1.513,28.28.191A24.734,24.734,0,0,1,54.7,17.249a.893.893,0,0,0,1.025.76,3.324,3.324,0,0,1,2.754,1.459A16.279,16.279,0,0,1,62,30.033c-.13,7.063-.036,14.13-.038,21.2,0,.2-.023.41-.039.667M33.969,46.918v-.937q0-6.207,0-12.414a4.017,4.017,0,0,0-.023-.71c-.1-.532-.458-.934-.969-.827a1.909,1.909,0,0,0-.923.8c-.129.177-.053.51-.053.773q0,6.207,0,12.415v.9H29.982v-.969q0-8.105,0-16.21a6.256,6.256,0,0,0-.017-.79.972.972,0,0,0-1.943.012,6.578,6.578,0,0,0-.01.711q0,9.172,0,18.345v.89c-2.593.272-4.051-.841-4.477-3.266-.4-2.257-.821-4.509-1.23-6.764-.168-.926-.474-1.124-1.378-.86a1.074,1.074,0,0,0-.868,1.086,10.182,10.182,0,0,0,.111,1.572c.391,2.445.891,4.875,1.187,7.331a9.625,9.625,0,0,0,2.657,6.071,6.311,6.311,0,0,1,2.017,5.356,1.9,1.9,0,0,0,.051.41H37.95c0-.318.015-.581,0-.84a5.7,5.7,0,0,1,1.531-4.346c.439-.49.8-1.056,1.246-1.533a4.606,4.606,0,0,0,1.235-3.455c-.061-3.716-.021-7.433-.021-11.149,0-.5.008-1-.008-1.5-.02-.62-.329-1.013-.972-1s-.927.42-.948,1.033c-.007.211,0,.422,0,.633q0,4.191,0,8.382v.855H37.95v-.892q0-5.258,0-10.517c0-.263.073-.6-.059-.771-.232-.3-.615-.714-.9-.689-.335.03-.686.438-.924.76-.129.174-.046.511-.046.774q0,5.219,0,10.438v.9ZM15.068,8.49c.6.452,1.058.854,1.569,1.174a4.848,4.848,0,0,1,2.409,4.8c-.109,1.715.577,2.365,2.3,2.52a3.769,3.769,0,0,1,3.479,2.873,9.344,9.344,0,0,1-.273,5.754,18.42,18.42,0,0,1-2.989,4.518,6.2,6.2,0,0,1-8.1.724A6.64,6.64,0,0,1,10.9,27.342a2.921,2.921,0,0,0-2.851-2.225,22.769,22.769,0,0,0,2.861,10.909c1.2-1.689,2.663-2.491,4.579-1.853,1.828.608,2.587,2.036,2.558,4.122,1.194-2.923,3.57-2.327,5.806-2.344l1.876,10.205.224-.03v-.841q0-7.908,0-15.815a5.659,5.659,0,0,1,.08-1.1A3.005,3.005,0,0,1,32,28.858c.015.378,0,.757,0,1.215a3.215,3.215,0,0,1,3.357,1.005c.523-.72,1.008-1.374,1.48-2.037,1.418-2,3.138-3.339,5.8-3.155a2.265,2.265,0,0,0,2.282-2.357,5.158,5.158,0,0,1,1.667-3.63c1.551-1.5,3.067-3.045,4.582-4.586.157-.16.348-.49.284-.63-.313-.676-.708-1.314-1.121-2.05-.486.545-.892.956-1.249,1.407a7.516,7.516,0,0,1-6.467,3,3.634,3.634,0,0,0-3.645,2.725,6.057,6.057,0,0,1-6.774,4.2,5.878,5.878,0,0,1-5.207-5.81,3.4,3.4,0,0,0-2.442-3.246c-.173-.062-.352-.112-.522-.181a4.435,4.435,0,0,1-3.012-3.987,4.485,4.485,0,0,1,2.607-4.495,5.682,5.682,0,0,0,1.094-.622,3.2,3.2,0,0,0,1.209-3.025A22.968,22.968,0,0,0,15.068,8.49M49.06,10.964a4.369,4.369,0,0,0-.252-.378A22.662,22.662,0,0,0,28.681,2.168c-.542.044-.649.318-.654.766A5.39,5.39,0,0,1,24.558,8.11a2.371,2.371,0,0,0-1.483,2.47A2.339,2.339,0,0,0,24.8,12.805a5.642,5.642,0,0,1,4.275,5.584A3.693,3.693,0,0,0,32.346,21.9a4,4,0,0,0,4.545-2.458c1.279-3.317,2.831-4.4,6.417-4.492a4.539,4.539,0,0,0,3.176-1.2c.9-.879,1.714-1.846,2.575-2.784m8.483,26.814c-.818.551-1.548,1.064-2.3,1.544a3.569,3.569,0,0,1-4.874-.811c-.491-.619-.942-1.271-1.445-1.88a1.554,1.554,0,0,0-1.855-.492,1.431,1.431,0,0,0-1.039,1.516,3.445,3.445,0,0,0,.562,1.653c1.231,1.645,2.574,3.205,3.832,4.83,1.39,1.795,3.158,3.36,3.5,5.74h5.991V48.9c0-6.379-.089-12.759.036-19.136a14.052,14.052,0,0,0-3.09-9.074,1.33,1.33,0,0,0-1.365-.617,25.135,25.135,0,0,1-3.023,17.658c1.8.57,2.6-1.2,4-1.546l1.067,1.592M2.059,49.874H8.052a7.906,7.906,0,0,1,1.821-3.669c1.622-1.976,3.206-3.983,4.8-5.978.33-.411.679-.809.976-1.244A1.972,1.972,0,0,0,15.24,36.3a1.7,1.7,0,0,0-2.4.595c-.42.541-.825,1.094-1.243,1.637a3.51,3.51,0,0,1-2.326,1.36C7.195,40.215,6,38.672,4.423,37.78l1.106-1.591c1.4.4,2.187,2.1,3.971,1.536a25.8,25.8,0,0,1-3.117-17.74,2.237,2.237,0,0,0-1.12.55c-1.872,2.45-3.256,5.081-3.217,8.3.054,4.507.013,9.015.013,13.522,0,2.477,0,4.954,0,7.515M8.174,22.92a5.748,5.748,0,0,1,4.9,4.243,4.231,4.231,0,0,0,6.415,2.007,9.272,9.272,0,0,0,3.339-4.957,10.094,10.094,0,0,0,.119-2.752c.007-1.7-.59-2.338-2.273-2.464A3.99,3.99,0,0,1,17,15.373a15.952,15.952,0,0,0-.063-1.812,3,3,0,0,0-.68-1.521,29.5,29.5,0,0,0-2.617-2.027A22.837,22.837,0,0,0,8.174,22.92M51.107,36.006A23.142,23.142,0,0,0,52.485,17c-1.7,1.683-3.33,3.249-4.89,4.885a2.582,2.582,0,0,0-.571,1.431c-.343,3.159-1.95,4.635-5.11,4.7a2.733,2.733,0,0,0-1.7.461c-1.063,1.01-1.974,2.179-3,3.346a3.836,3.836,0,0,1,2.719,2.206c2.32-.3,3.367.347,4.1,2.522,1.222-3.024,4.925-3.626,7.065-.547M15.794,42.2l2.874,2.15-.758-5.038L15.794,42.2m30.366-.024-2.115-2.868v4.529l2.115-1.662" transform="translate(0 -0.001)"/>
    <path id="Trazado_246202" data-name="Trazado 246202" d="M140.758,196.024h2.049v-.9q0-5.219,0-10.438c0-.263-.083-.6.046-.774.239-.322.59-.729.924-.76.285-.026.668.387.9.689.132.171.059.509.059.771q0,5.259,0,10.517v.892H146.8v-.855q0-4.191,0-8.382c0-.211,0-.422,0-.633.021-.614.3-1.024.948-1.033s.952.384.972,1c.016.5.008,1,.008,1.5,0,3.717-.04,7.434.021,11.149a4.606,4.606,0,0,1-1.235,3.455c-.451.477-.807,1.043-1.246,1.533a5.7,5.7,0,0,0-1.531,4.346c.018.26,0,.522,0,.841H132.872a1.914,1.914,0,0,1-.051-.41,6.311,6.311,0,0,0-2.017-5.356,9.624,9.624,0,0,1-2.657-6.071c-.3-2.456-.8-4.887-1.187-7.331a10.159,10.159,0,0,1-.111-1.572,1.074,1.074,0,0,1,.868-1.086c.9-.264,1.21-.066,1.378.86.409,2.255.834,4.507,1.23,6.764.426,2.425,1.884,3.538,4.477,3.266v-.89q0-9.173,0-18.345a6.58,6.58,0,0,1,.01-.711.972.972,0,0,1,1.943-.012,6.257,6.257,0,0,1,.017.79q0,8.105,0,16.21v.969h2.017v-.9q0-6.207,0-12.415c0-.263-.076-.6.053-.773a1.908,1.908,0,0,1,.923-.8c.512-.108.872.294.969.827a4,4,0,0,1,.023.71q0,6.207,0,12.415v.937" transform="translate(-106.79 -149.107)" fill="#f0d0b4"/>
    <path id="Trazado_246203" data-name="Trazado 246203" d="M57.94,22.376A22.968,22.968,0,0,1,68.789,16.5a3.2,3.2,0,0,1-1.209,3.024,5.683,5.683,0,0,1-1.094.622,4.485,4.485,0,0,0-2.607,4.495,4.435,4.435,0,0,0,3.013,3.987c.171.068.349.119.522.181a3.4,3.4,0,0,1,2.442,3.246,5.878,5.878,0,0,0,5.207,5.81,6.057,6.057,0,0,0,6.774-4.2,3.635,3.635,0,0,1,3.645-2.726,7.516,7.516,0,0,0,6.467-3c.356-.451.763-.862,1.249-1.407.413.735.808,1.373,1.121,2.05.065.14-.126.47-.284.63C92.52,30.738,91,32.28,89.453,33.784a5.158,5.158,0,0,0-1.667,3.63A2.265,2.265,0,0,1,85.5,39.772c-2.659-.183-4.379,1.159-5.8,3.155-.471.664-.956,1.317-1.48,2.037a3.215,3.215,0,0,0-3.357-1.005c0-.458.013-.837,0-1.215a3.005,3.005,0,0,0-5.954-.486,5.671,5.671,0,0,0-.08,1.1q-.008,7.908,0,15.815v.841l-.224.03L66.729,49.837c-2.236.017-4.612-.579-5.806,2.344.028-2.086-.731-3.513-2.558-4.122-1.916-.638-3.384.164-4.579,1.853A22.769,22.769,0,0,1,50.925,39a2.921,2.921,0,0,1,2.851,2.225,6.639,6.639,0,0,0,2.561,3.508,6.2,6.2,0,0,0,8.1-.724,18.421,18.421,0,0,0,2.989-4.518,9.346,9.346,0,0,0,.273-5.754,3.769,3.769,0,0,0-3.479-2.873c-1.726-.156-2.412-.805-2.3-2.52a4.848,4.848,0,0,0-2.409-4.8c-.511-.32-.97-.722-1.569-1.174" transform="translate(-42.872 -13.887)" fill="#69d6f4"/>
    <path id="Trazado_246204" data-name="Trazado 246204" d="M171.874,22.008c-.861.938-1.675,1.905-2.575,2.784a4.54,4.54,0,0,1-3.177,1.2c-3.586.09-5.138,1.175-6.417,4.492a4,4,0,0,1-4.545,2.458,3.693,3.693,0,0,1-3.273-3.512,5.642,5.642,0,0,0-4.275-5.584,2.339,2.339,0,0,1-1.722-2.225,2.37,2.37,0,0,1,1.483-2.47,5.39,5.39,0,0,0,3.468-5.177c.005-.448.112-.722.654-.765a22.662,22.662,0,0,1,20.127,8.418,4.406,4.406,0,0,1,.252.378" transform="translate(-122.814 -11.044)" fill="#b4dd7f"/>
    <path id="Trazado_246205" data-name="Trazado 246205" d="M302.561,144.536l-1.067-1.592c-1.394.35-2.2,2.116-4,1.546a25.135,25.135,0,0,0,3.023-17.658,1.33,1.33,0,0,1,1.365.617,14.053,14.053,0,0,1,3.09,9.074c-.125,6.376-.036,12.757-.036,19.136v.977h-5.99c-.346-2.381-2.114-3.945-3.5-5.74-1.258-1.625-2.6-3.186-3.832-4.83a3.447,3.447,0,0,1-.563-1.653,1.431,1.431,0,0,1,1.039-1.516,1.553,1.553,0,0,1,1.855.492c.5.609.954,1.261,1.445,1.88a3.569,3.569,0,0,0,4.874.811c.75-.48,1.479-.992,2.3-1.544" transform="translate(-245.018 -106.759)" fill="#f0d0b4"/>
    <path id="Trazado_246206" data-name="Trazado 246206" d="M12.942,156.261v-7.515c0-4.508.041-9.015-.013-13.522-.039-3.222,1.345-5.853,3.217-8.3a2.24,2.24,0,0,1,1.12-.55,25.8,25.8,0,0,0,3.117,17.74c-1.783.569-2.57-1.132-3.971-1.536l-1.106,1.591c1.574.892,2.772,2.434,4.847,2.107a3.51,3.51,0,0,0,2.326-1.36c.418-.543.824-1.1,1.243-1.637a1.7,1.7,0,0,1,2.4-.594,1.971,1.971,0,0,1,.413,2.688c-.3.434-.646.832-.975,1.244-1.6,1.995-3.182,4-4.8,5.978a7.907,7.907,0,0,0-1.821,3.669Z" transform="translate(-10.884 -106.387)" fill="#f0d0b4"/>
    <path id="Trazado_246207" data-name="Trazado 246207" d="M51.692,76.219a22.837,22.837,0,0,1,5.47-12.908,29.5,29.5,0,0,1,2.617,2.027,2.993,2.993,0,0,1,.68,1.521,15.918,15.918,0,0,1,.064,1.813,3.99,3.99,0,0,0,3.67,3.624c1.683.126,2.28.761,2.273,2.464a10.093,10.093,0,0,1-.119,2.752,9.271,9.271,0,0,1-3.339,4.957,4.231,4.231,0,0,1-6.415-2.007,5.749,5.749,0,0,0-4.9-4.243" transform="translate(-43.518 -53.299)" fill="#b4dd7f"/>
    <path id="Trazado_246208" data-name="Trazado 246208" d="M249.246,126.5c-2.14-3.079-5.843-2.477-7.065.547-.737-2.175-1.783-2.818-4.1-2.523a3.836,3.836,0,0,0-2.719-2.205c1.024-1.167,1.936-2.335,3-3.346a2.732,2.732,0,0,1,1.7-.461c3.16-.068,4.767-1.544,5.11-4.7a2.583,2.583,0,0,1,.571-1.431c1.56-1.635,3.191-3.2,4.89-4.885a23.141,23.141,0,0,1-1.378,19.006" transform="translate(-198.139 -90.498)" fill="#b4dd7f"/>
    <path id="Trazado_246209" data-name="Trazado 246209" d="M99.876,251.473l2.116-2.888.758,5.038-2.874-2.15" transform="translate(-84.082 -209.275)" fill="#69d6f4"/>
    <path id="Trazado_246210" data-name="Trazado 246210" d="M280.641,251.434l-2.115,1.662v-4.529l2.115,2.868" transform="translate(-234.481 -209.259)" fill="#b4dd7f"/>
  </g>
</svg>
