<svg xmlns="http://www.w3.org/2000/svg" xmlns:xlink="http://www.w3.org/1999/xlink" width="292.842" height="314.339" viewBox="0 0 292.842 314.339">
  <defs>
    <clipPath id="clip-path">
      <rect id="Rectángulo_317325" data-name="Rectángulo 317325" width="290.526" height="314.339" fill="none"/>
    </clipPath>
    <clipPath id="clip-path-3">
      <rect id="Rectángulo_317303" data-name="Rectángulo 317303" width="30.799" height="11.899" fill="none"/>
    </clipPath>
    <clipPath id="clip-path-4">
      <rect id="Rectángulo_317304" data-name="Rectángulo 317304" width="53.162" height="59.295" fill="none"/>
    </clipPath>
    <clipPath id="clip-path-5">
      <rect id="Rectángulo_317305" data-name="Rectángulo 317305" width="54.034" height="41.581" fill="none"/>
    </clipPath>
    <clipPath id="clip-path-6">
      <rect id="Rectángulo_317306" data-name="Rectángulo 317306" width="25.213" height="9.263" fill="none"/>
    </clipPath>
    <clipPath id="clip-path-7">
      <rect id="Rectángulo_317307" data-name="Rectángulo 317307" width="7.855" height="8.407" fill="none"/>
    </clipPath>
    <clipPath id="clip-path-8">
      <rect id="Rectángulo_317308" data-name="Rectángulo 317308" width="9.901" height="26.756" fill="none"/>
    </clipPath>
    <clipPath id="clip-path-9">
      <rect id="Rectángulo_317309" data-name="Rectángulo 317309" width="33.918" height="17.181" fill="none"/>
    </clipPath>
    <clipPath id="clip-path-10">
      <rect id="Rectángulo_317310" data-name="Rectángulo 317310" width="9.624" height="13.564" fill="none"/>
    </clipPath>
    <clipPath id="clip-path-11">
      <rect id="Rectángulo_317311" data-name="Rectángulo 317311" width="183.777" height="101.235" fill="none"/>
    </clipPath>
    <clipPath id="clip-path-12">
      <rect id="Rectángulo_317312" data-name="Rectángulo 317312" width="183.243" height="165.629" fill="none"/>
    </clipPath>
    <clipPath id="clip-path-13">
      <rect id="Rectángulo_317313" data-name="Rectángulo 317313" width="140.809" height="92.479" fill="none"/>
    </clipPath>
    <clipPath id="clip-path-14">
      <rect id="Rectángulo_317314" data-name="Rectángulo 317314" width="94.545" height="134.302" fill="none"/>
    </clipPath>
    <clipPath id="clip-path-15">
      <rect id="Rectángulo_317315" data-name="Rectángulo 317315" width="60.626" height="120.955" fill="none"/>
    </clipPath>
    <clipPath id="clip-path-16">
      <rect id="Rectángulo_317316" data-name="Rectángulo 317316" width="12.363" height="17.329" fill="none"/>
    </clipPath>
    <clipPath id="clip-path-17">
      <rect id="Rectángulo_317317" data-name="Rectángulo 317317" width="27.334" height="61.042" fill="none"/>
    </clipPath>
    <clipPath id="clip-path-18">
      <rect id="Rectángulo_317318" data-name="Rectángulo 317318" width="24.05" height="2.52" fill="none"/>
    </clipPath>
    <clipPath id="clip-path-19">
      <rect id="Rectángulo_317319" data-name="Rectángulo 317319" width="24.107" height="2.275" fill="none"/>
    </clipPath>
    <clipPath id="clip-path-20">
      <rect id="Rectángulo_317320" data-name="Rectángulo 317320" width="16.918" height="2.54" fill="none"/>
    </clipPath>
    <clipPath id="clip-path-21">
      <rect id="Rectángulo_317321" data-name="Rectángulo 317321" width="26.631" height="10.11" fill="none"/>
    </clipPath>
    <clipPath id="clip-path-22">
      <rect id="Rectángulo_317322" data-name="Rectángulo 317322" width="28.164" height="11.867" fill="none"/>
    </clipPath>
    <clipPath id="clip-path-23">
      <rect id="Rectángulo_317323" data-name="Rectángulo 317323" width="17.168" height="6.19" fill="none"/>
    </clipPath>
  </defs>
  <g id="Grupo_244837" data-name="Grupo 244837" transform="translate(-180 -419)">
    <path id="Trazado_243103" data-name="Trazado 243103" d="M250.3,150.482A125.151,125.151,0,1,1,125.152,25.332,125.15,125.15,0,0,1,250.3,150.482" transform="translate(180.001 457.706)" fill="#2160bb"/>
    <g id="Grupo_244836" data-name="Grupo 244836" transform="translate(182.316 419)">
      <g id="Grupo_244835" data-name="Grupo 244835" clip-path="url(#clip-path)">
        <g id="Grupo_244834" data-name="Grupo 244834">
          <g id="Grupo_244833" data-name="Grupo 244833" clip-path="url(#clip-path)">
            <path id="Trazado_246211" data-name="Trazado 246211" d="M77.29,109.785s-17.9-21.992-50.123,52.169c0,0-28.642,42.452-27.108,63.934S35.35,245.322,35.35,245.322s36.313.512,52.681-4.091,11.763-4.092,16.878-1.534,49.612,4.091,49.612,4.091l17.39-11.763a1.948,1.948,0,0,0-1.534-3.58q5.882-4.859,11.763-9.717a4.552,4.552,0,0,0,.347-4.015,3.449,3.449,0,0,0-.859-1.1l4.7-2.744a3.006,3.006,0,0,0,.428-3.631,3.142,3.142,0,0,0-2.573-1.3q1.279-2.558,2.556-5.114a4.289,4.289,0,0,0-1.692-3.411,4.172,4.172,0,0,0-4.956.342c-4.757,2.983-14.678,8.695-28.13,8.695a78.914,78.914,0,0,1-18.412-2.558l1.534-5.115s16.367-10.229,15.855-17.39-10.229.512-10.229.512l-20.46,11.251-14.832,12.275s-37.848,14.833-51.146,2.558c0,0,30.177-45.52,30.177-73.651s-7.161-24.55-7.161-24.55" transform="translate(0 68.965)" fill="#f29e79"/>
            <g id="Grupo_244772" data-name="Grupo 244772" transform="translate(24.298 265.874)" style="mix-blend-mode: multiply;isolation: isolate">
              <g id="Grupo_244771" data-name="Grupo 244771">
                <g id="Grupo_244770" data-name="Grupo 244770" clip-path="url(#clip-path-3)">
                  <path id="Trazado_246212" data-name="Trazado 246212" d="M15.261,162.039s19.948-1.022,29.153,10.229" transform="translate(-14.438 -161.193)" fill="none" stroke="#f29e79" stroke-linecap="round" stroke-linejoin="round" stroke-width="1"/>
                </g>
              </g>
            </g>
            <path id="Trazado_246213" data-name="Trazado 246213" d="M127.511,28.828A22.114,22.114,0,0,1,140.6,46.506a22.115,22.115,0,0,1-9.128,20.012c5.136.851,10.217,2.838,13.957,6.461s5.939,9.049,4.891,14.148-5.775,9.447-10.978,9.269c5.524.351,11.124,2.277,14.986,6.245s5.63,10.178,3.493,15.284-8.6,8.25-13.646,5.961c4.39-.449,8.454,3.473,9.024,7.849s-1.778,8.766-5.18,11.574-7.727,4.255-12.04,5.189a63.328,63.328,0,0,1-34.44-2.234,20.673,20.673,0,0,1,21.138,12.343c-8.135,2.135-16.39,4.288-24.8,4.181S80.735,160.034,75,153.876s-7.58-16.236-2.845-23.187a16,16,0,0,1,16.379-6.423,13.345,13.345,0,1,1,1.781-23.1c-5.384,1.84-11.162-2.331-13.842-7.35A22.56,22.56,0,0,1,98.594,60.743c-4.82,1.108-9.814-2.5-11.6-7.111s-.986-9.845.658-14.509c2.181-6.191,5.962-12.012,11.5-15.531s12.99-4.377,18.718-1.174c4.206,2.354,5.2,4.528,9.635,6.41" transform="translate(44.882 13.199)" fill="#21215b"/>
            <path id="Trazado_246214" data-name="Trazado 246214" d="M59.822,103.314c1.212,7.681,17.2,11.541,35.716,8.622s32.54-11.515,31.329-19.2-17.2-11.541-35.716-8.621-32.54,11.515-31.329,19.2" transform="translate(38.605 53.72)" fill="#f29e79"/>
            <path id="Trazado_246215" data-name="Trazado 246215" d="M108.665,72.892,111,92.176l1.666,13.666,2.12,17.414-49.866.393L60.567,64.788l-1.06-14.336,7.888-2.92Z" transform="translate(38.449 30.711)" fill="#f29e79"/>
            <g id="Grupo_244775" data-name="Grupo 244775" transform="translate(97.956 78.242)" style="mix-blend-mode: multiply;isolation: isolate">
              <g id="Grupo_244774" data-name="Grupo 244774">
                <g id="Grupo_244773" data-name="Grupo 244773" clip-path="url(#clip-path-4)">
                  <path id="Trazado_246216" data-name="Trazado 246216" d="M108.665,72.892,111,92.176l1.666,13.666c-.329.1-.677.179-1.021.27-23.49,5.608-41.958-23.139-51.081-41.324l-1.06-14.336,7.888-2.92Z" transform="translate(-59.507 -47.53)" fill="#f29e79"/>
                </g>
              </g>
            </g>
            <path id="Trazado_246217" data-name="Trazado 246217" d="M51.519,69C74.306,92.65,76.5,84.4,76.5,84.4s14.5,22.919,17.395,24.468,27.051,12.038,42.475,2.7c0,0,8.874-19.312,9.192-30.063a33.156,33.156,0,0,0-.719-8.323c-1.012-4.581-2.769-6.448-2.769-6.448s.178-.644.439-1.775c1.121-4.775,3.8-18.162.863-26.56-2.909-8.354-5.62-34.437-40.774-34.076-22.474.224-43.421,12.3-53.522,32.389-5.3,10.525-7.072,22.435,2.435,32.3" transform="translate(28.912 2.787)" fill="#f29e79"/>
            <path id="Trazado_246218" data-name="Trazado 246218" d="M142.3,13.485a31.54,31.54,0,0,1-12.3,25.1,31.541,31.541,0,0,1-24.05,5.811,30.91,30.91,0,0,1-3.457-.79c5.761,4.823,6.65,13.992,3.062,20.593a20.243,20.243,0,0,1-2.272,3.342,26.656,26.656,0,0,1-15.391,8.51c.263,1.1.477,2.239.642,3.375,4.263,4.807,7.292,14.6,7.687,19.967.626,8.247-4.527,17.564-12.757,18.437a30.055,30.055,0,0,1-10.008,53.219,6.628,6.628,0,0,1,6.716,4.445c1.086,3.144-.049,6.733-2.091,9.366-3.6,4.626-9.7,6.733-15.556,6.881s-11.605-1.432-17.251-3.012l.263-.757c.51-.1,1-.23,1.5-.346A12.547,12.547,0,0,1,45.9,187l-.362.971a33.467,33.467,0,0,1-18.3-1.663c1.761-1.1,3.523-2.206,5.3-3.309-6.074.823-11.77,4.1-13.976-1.613a14.144,14.144,0,0,1,5.054-16.264c-8.51-3.309-12.264-14.107-10.008-22.963,2.272-8.84,9.1-15.819,16.56-21.1C22.972,118,20.388,108.285,23.3,101.042c2.914-7.259,9.91-12.148,17.235-14.881A20.152,20.152,0,0,1,53.491,53.14c.049-.412.115-.84.165-1.251A61.5,61.5,0,0,1,75.862,13.156,61.275,61.275,0,0,1,119.846.316c9.646,1.021,22.321,3.473,22.453,13.169" transform="translate(8.375 0)" fill="#21215b"/>
            <g id="Grupo_244778" data-name="Grupo 244778" transform="translate(62.031 25.963)" style="mix-blend-mode: screen;isolation: isolate">
              <g id="Grupo_244777" data-name="Grupo 244777">
                <g id="Grupo_244776" data-name="Grupo 244776" clip-path="url(#clip-path-5)">
                  <path id="Trazado_246219" data-name="Trazado 246219" d="M89.585,54.011a20.243,20.243,0,0,1-2.272,3.342c-5.893-3.342-10.585-7.062-8.05-9.054A19.717,19.717,0,0,1,48.3,38.834c-3.44,1.284-6.963,2.584-10.617,2.864a60.615,60.615,0,0,1,7.424-21.383,40.549,40.549,0,0,0,14.568-4.543,17.1,17.1,0,0,0,8.988,17.844A17.1,17.1,0,0,0,88.3,29.945a21.665,21.665,0,0,0,1.679,4.263,30.912,30.912,0,0,1-3.457-.79c5.761,4.823,6.65,13.992,3.062,20.593" transform="translate(-37.683 -15.772)" fill="#21215b"/>
                </g>
              </g>
            </g>
            <path id="Trazado_246220" data-name="Trazado 246220" d="M91.339,29.325a40.056,40.056,0,0,0-7.121.212,22.758,22.758,0,0,0-11.867,6.5l16.269-2.7,12.188,1.417,1.528-4.56Z" transform="translate(46.747 18.927)" fill="#21215b"/>
            <path id="Trazado_246221" data-name="Trazado 246221" d="M99.193,30.783l-.472,5.04,8.729-3.009,3.091.253-.487-5.722Z" transform="translate(63.785 17.668)" fill="#21215b"/>
            <g id="Grupo_244781" data-name="Grupo 244781" transform="translate(114.172 67.423)" opacity="0.32" style="mix-blend-mode: multiply;isolation: isolate">
              <g id="Grupo_244780" data-name="Grupo 244780">
                <g id="Grupo_244779" data-name="Grupo 244779" clip-path="url(#clip-path-6)">
                  <path id="Trazado_246222" data-name="Trazado 246222" d="M69.433,49.932c.634,1.091,5.075-2.163,13.06-2.013,7.426.142,11.4,3.1,12,2.092.808-1.358-5.009-9.021-12.5-9.052s-13.368,7.582-12.56,8.973" transform="translate(-69.358 -40.959)" fill="#f29e79"/>
                </g>
              </g>
            </g>
            <g id="Grupo_244784" data-name="Grupo 244784" transform="translate(166.266 68.938)" opacity="0.32" style="mix-blend-mode: multiply;isolation: isolate">
              <g id="Grupo_244783" data-name="Grupo 244783">
                <g id="Grupo_244782" data-name="Grupo 244782" clip-path="url(#clip-path-7)">
                  <path id="Trazado_246223" data-name="Trazado 246223" d="M101.706,50.146c1.149.7,2.83-1.457,4.688-1.416a3.484,3.484,0,0,1,2.466,1.37c-1.011-4.579-2.769-6.446-2.769-6.446s.178-.644.44-1.775a5.943,5.943,0,0,0-1.3.673c-.53.365-4.614,3.19-4.2,6.219a1.875,1.875,0,0,0,.672,1.375" transform="translate(-101.005 -41.879)" fill="#f29e79"/>
                </g>
              </g>
            </g>
            <path id="Trazado_246224" data-name="Trazado 246224" d="M72.744,42.152A22.851,22.851,0,0,0,81.361,46,10.373,10.373,0,0,1,88.3,42.774,11.644,11.644,0,0,1,95.6,45.36a8.2,8.2,0,0,0-1.77-4.663,7.692,7.692,0,0,0-1.422-1.37,7.463,7.463,0,0,0-7.519-.779l-.041.02a9.589,9.589,0,0,0-4.089,3.671l-8.01-.087" transform="translate(47.001 24.473)" fill="#21215b"/>
            <path id="Trazado_246225" data-name="Trazado 246225" d="M115.4,39.689a16.593,16.593,0,0,1-2.635,2.26,15.538,15.538,0,0,1-3.733,1.888,8.525,8.525,0,0,0-5.942-2.573,7.946,7.946,0,0,0-5.475,2.884,8.289,8.289,0,0,1,.812-4.474,6.341,6.341,0,0,1,.956-1.37,5.131,5.131,0,0,1,5.89-1.208l.035.015a9.072,9.072,0,0,1,3.727,3.17l6.367-.593" transform="translate(63.048 23.68)" fill="#21215b"/>
            <g id="Grupo_244787" data-name="Grupo 244787" transform="translate(155.567 58.169)" style="mix-blend-mode: multiply;isolation: isolate">
              <g id="Grupo_244786" data-name="Grupo 244786">
                <g id="Grupo_244785" data-name="Grupo 244785" clip-path="url(#clip-path-8)">
                  <path id="Trazado_246226" data-name="Trazado 246226" d="M99.065,62.093a24.638,24.638,0,0,0,5.291-8.347c.242-.958-.4-1.763-1.661-3.366-.793-1-1.882-2.38-3.172-4.324a28.1,28.1,0,0,1-3.8-10.718l-1.22.142a28.834,28.834,0,0,0,4,11.256c1.319,1.985,2.423,3.384,3.231,4.405.887,1.123,1.528,1.934,1.434,2.306A23.533,23.533,0,0,1,98.2,61.222Z" transform="translate(-94.505 -35.337)" fill="#f29e79"/>
                </g>
              </g>
            </g>
            <g id="Grupo_244790" data-name="Grupo 244790" transform="translate(132.729 83.45)" style="mix-blend-mode: multiply;isolation: isolate">
              <g id="Grupo_244789" data-name="Grupo 244789">
                <g id="Grupo_244788" data-name="Grupo 244788" clip-path="url(#clip-path-9)">
                  <path id="Trazado_246227" data-name="Trazado 246227" d="M80.632,50.695c1.409,3.386,4.84,10.239,11.923,14.445,4.95,2.951,8.619,2.78,9.572,2.7,1.514-.114,4.436-.329,5.857-2.347,1.027-1.468.334-2.566,1.63-3.923,1.2-1.248,2.4-.955,3.669-2.351a5.584,5.584,0,0,0,1.268-2.566c-.607-.059-1.221-.13-1.839-.191-5.353-.589-11.031-1.4-16.975-2.491q-3.874-.709-7.524-1.513c-2.384-.514-4.7-1.049-6.938-1.6-.214-.058-.43-.1-.642-.161" transform="translate(-80.632 -50.695)" fill="#f29e79"/>
                </g>
              </g>
            </g>
            <path id="Trazado_246228" data-name="Trazado 246228" d="M80.632,50.695c1.409,3.386,4.84,10.239,11.923,14.445,4.95,2.951,8.619,2.78,9.572,2.7,1.514-.114,4.436-.329,5.857-2.347-.69-7.4-16.66-12.171-19.772-13.034-2.384-.514-4.7-1.049-6.938-1.6-.214-.058-.43-.1-.642-.161" transform="translate(52.098 32.755)" fill="#f5804e"/>
            <path id="Trazado_246229" data-name="Trazado 246229" d="M81.022,50.793a32.958,32.958,0,0,0,15.869,7.956c8.8,1.863,13.381-.41,15.569-2.347-5.352-.589-11.029-1.4-16.975-2.491-5.095-.937-9.929-1.989-14.463-3.118" transform="translate(52.35 32.818)" fill="#fff"/>
            <path id="Trazado_246230" data-name="Trazado 246230" d="M52.461,58.093c2.081,8.27,8.621,13.753,14.609,12.247s9.154-9.432,7.075-17.7S65.524,38.885,59.536,40.391s-9.156,9.432-7.075,17.7" transform="translate(33.483 25.936)" fill="#f29e79"/>
            <g id="Grupo_244793" data-name="Grupo 244793" transform="translate(91.303 74.992)" style="mix-blend-mode: multiply;isolation: isolate">
              <g id="Grupo_244792" data-name="Grupo 244792">
                <g id="Grupo_244791" data-name="Grupo 244791" clip-path="url(#clip-path-10)">
                  <path id="Trazado_246231" data-name="Trazado 246231" d="M55.685,51.467a4.643,4.643,0,0,1,2.268-1.044,6.626,6.626,0,0,1,2.532.138,4.744,4.744,0,0,1,1.291.53,16.145,16.145,0,0,0-1.131-1.7,23.163,23.163,0,0,0-2.56-2.884.553.553,0,0,1,.658-.876,11.042,11.042,0,0,1,3.48,2.917,15.024,15.024,0,0,1,2.24,4.074,7.882,7.882,0,0,1,.576,3.761c-.15,1.133-.757,2.565-2.048,2.729a.884.884,0,0,1-.581-1.615c1.256-.955.968-2.652.469-4.051a2.9,2.9,0,0,0-.831-.6,10.272,10.272,0,0,0-1.806-.621,5.487,5.487,0,0,0-3.687.548.718.718,0,0,1-.942-.263.833.833,0,0,1,.071-1.044" transform="translate(-55.465 -45.557)" fill="#f29e79"/>
                </g>
              </g>
            </g>
            <path id="Trazado_246232" data-name="Trazado 246232" d="M58.7,56.974a1.169,1.169,0,1,0,.849-1.421,1.17,1.17,0,0,0-.849,1.421" transform="translate(37.903 35.871)" fill="#fff"/>
            <path id="Trazado_246233" data-name="Trazado 246233" d="M122.3,41.5a12.871,12.871,0,0,1-11.243-.127,13.077,13.077,0,0,1-6.8-9.039c.285,1.475-8.087.407-8.9.092A21.073,21.073,0,0,1,82.673,18.567C81.211,13.7,80.689,2.582,87.965,1.606c7.409-.994,16.7,6.155,21.615,10.879A41.657,41.657,0,0,1,122.3,41.5" transform="translate(52.837 0.977)" fill="#21215b"/>
            <path id="Trazado_246234" data-name="Trazado 246234" d="M208.918,157.847a92.055,92.055,0,0,1-62.192,88.266,92.3,92.3,0,0,1-59.757.061,89.4,89.4,0,0,1-16.148-7.3c-.4-.234-.807-.467-1.2-.708-1.271-.765-2.525-1.554-3.756-2.38-.428-.28-.846-.568-1.261-.854-.859-.593-1.707-1.2-2.55-1.817-.252-.188-.509-.382-.762-.574-.308-.229-.612-.458-.914-.7-.446-.341-.889-.693-1.322-1.045-.382-.306-.759-.611-1.126-.917-.928-.769-1.835-1.551-2.726-2.357-.441-.4-.879-.8-1.314-1.2-.349-.324-.7-.654-1.042-.989-.441-.418-.876-.848-1.3-1.277-.328-.318-.647-.647-.96-.971q-1.928-1.988-3.737-4.091c-.206-.242-.415-.484-.617-.726A92.447,92.447,0,0,1,33.107,197.7c-.018-.035-.028-.071-.048-.107q-1.274-2.746-2.365-5.59c-.128-.319-.252-.647-.369-.973-.143-.374-.278-.747-.412-1.121q-.6-1.691-1.137-3.4c-.049-.16-.105-.326-.155-.492-.067-.219-.132-.433-.2-.647-.186-.629-.367-1.259-.538-1.888-.114-.4-.221-.815-.324-1.218-.12-.444-.234-.891-.337-1.343-.02-.064-.038-.13-.051-.194-.189-.785-.372-1.569-.54-2.359-.109-.505-.209-1.011-.311-1.516q-.8-4.012-1.235-8.155c0-.089-.018-.173-.026-.262-.072-.714-.142-1.44-.2-2.16q-.244-3.109-.283-6.259c-.023-2.02.038-4,.133-5.984q.16-3.094.528-6.125c.061-.5.12-.991.184-1.48q.479-3.543,1.231-7.009A89.092,89.092,0,0,1,32.969,120.5,92.119,92.119,0,0,1,48.337,97.18l.008-.012c.894-.994,1.812-1.97,2.754-2.917q1.41-1.444,2.884-2.81l.993-.905c.329-.3.667-.6,1-.894a91.4,91.4,0,0,1,10.935-8.254l.15-.1c.922-.589,1.847-1.169,2.792-1.727a.3.3,0,0,0,.076-.048q.933-.548,1.882-1.077c.333-.183.658-.365.988-.548q1.983-1.086,4.03-2.061c.678-.331,1.366-.649,2.061-.96.344-.153.688-.306,1.037-.459.38-.171.757-.337,1.144-.491l0,0,.008-.007c.329-.142.663-.277,1-.412a90.827,90.827,0,0,1,19.926-5.561,89.752,89.752,0,0,1,13.653-1.174,91.121,91.121,0,0,1,33.061,5.717q3.025,1.119,5.941,2.433h0c.451.2.892.407,1.335.616a90.992,90.992,0,0,1,8.247,4.417l0,0c.486.291.974.584,1.453.889.091.051.173.11.263.163.186.11.374.227.551.351.948.609,1.891,1.235,2.818,1.891.433.3.864.6,1.291.909.446.323.889.645,1.328.973.333.247.662.494.986.752.408.3.807.616,1.2.932.5.393.988.787,1.468,1.193.132.105.258.211.385.323.4.334.807.675,1.2,1.029.209.176.42.357.626.547.451.393.9.8,1.343,1.2.619.571,1.235,1.154,1.837,1.748.308.295.609.594.91.9q.894.891,1.773,1.819t1.722,1.868a92,92,0,0,1,11.2,15.46q.64,1.111,1.254,2.237t1.189,2.275c.323.645.642,1.291.951,1.942.122.242.232.492.342.734.313.658.607,1.322.9,1.985.349.788.681,1.588,1.006,2.39.128.319.258.64.38.961s.253.652.375.978.24.652.364.979c.2.556.4,1.114.591,1.679.148.426.3.854.433,1.292q.326,1,.63,2.007c.226.742.441,1.491.647,2.252.069.267.143.533.212.8.186.688.356,1.389.525,2.091.081.332.156.665.232,1,.012.053.025.107.038.16.143.642.277,1.284.41,1.926.114.565.221,1.136.323,1.7.089.476.173.958.25,1.434q.1.543.174,1.088c.038.255.076.505.115.754.046.352.1.7.143,1.047a93.665,93.665,0,0,1,.813,11.24" transform="translate(15.878 43.133)" fill="#3fd5fe"/>
            <g id="Grupo_244796" data-name="Grupo 244796" transform="translate(40.785 192.232)" opacity="0.6" style="mix-blend-mode: multiply;isolation: isolate">
              <g id="Grupo_244795" data-name="Grupo 244795">
                <g id="Grupo_244794" data-name="Grupo 244794" clip-path="url(#clip-path-11)">
                  <path id="Trazado_246235" data-name="Trazado 246235" d="M185.863,186.387A92.18,92.18,0,0,1,36.067,171.1a89.208,89.208,0,0,1-8.835-21.8,92.51,92.51,0,0,1-2.456-13.271q5.928,3.4,12.407,7.361c91.578,56.032,152.345-3.784,170.924-26.614a91.945,91.945,0,0,1-22.244,69.608" transform="translate(-24.776 -116.78)" fill="#3fd5fe"/>
                </g>
              </g>
            </g>
            <g id="Grupo_244799" data-name="Grupo 244799" transform="translate(40.74 116.38)" style="mix-blend-mode: multiply;isolation: isolate">
              <g id="Grupo_244798" data-name="Grupo 244798">
                <g id="Grupo_244797" data-name="Grupo 244797" clip-path="url(#clip-path-12)">
                  <path id="Trazado_246236" data-name="Trazado 246236" d="M181.462,139.7c-.038-.25-.077-.5-.115-.756q-.079-.546-.174-1.088c-.077-.476-.16-.958-.249-1.434-.1-.565-.211-1.136-.324-1.7-.133-.647-.265-1.284-.41-1.924-.013-.054-.025-.107-.038-.161-.076-.339-.151-.672-.232-1-.17-.7-.339-1.4-.525-2.091-.069-.273-.138-.542-.212-.8-.206-.761-.423-1.509-.645-2.25q-.309-1.007-.632-2.007c-.137-.44-.285-.868-.431-1.294-.186-.565-.39-1.123-.593-1.679-.123-.326-.24-.654-.364-.979s-.252-.652-.374-.978-.252-.64-.382-.961c-.324-.8-.655-1.6-1-2.389-.288-.67-.588-1.328-.9-1.985-.11-.244-.219-.492-.342-.736-.3-.652-.622-1.3-.951-1.942q-.578-1.146-1.189-2.275c-.408-.751-.821-1.5-1.254-2.237a91.986,91.986,0,0,0-11.2-15.46c-.561-.63-1.141-1.254-1.72-1.868s-1.177-1.225-1.773-1.819c-.3-.3-.6-.6-.91-.9-.6-.594-1.218-1.177-1.839-1.748-.444-.4-.891-.812-1.342-1.2-.206-.188-.416-.37-.627-.547-.4-.354-.8-.695-1.2-1.029-.127-.112-.254-.217-.385-.323-.481-.407-.975-.8-1.468-1.192-.4-.318-.793-.629-1.2-.933-.324-.258-.655-.505-.986-.752-.439-.328-.884-.65-1.328-.973-.426-.3-.859-.609-1.292-.909a2.533,2.533,0,0,1-2.1.919.334.334,0,0,0-.242.14c-.171.174-.346.487-.528.7-.194-.326-.359-.586-.571-.935-1.1,1.146-2.9.963-4.408,1.035-.109.407-.178.652-.257.945-.912-.436-1.648-.785-2.456-1.164.533-.209.93-.362,1.315-.51-.583-1.434-1.872-1.068-3.305-1.009.372.293.565.446.764.6-.171.151-.354.314-.472.416a11.368,11.368,0,0,1,.891,1.188,8.633,8.633,0,0,0-2.736.472c-.046-.828-.082-1.488-.112-1.959-2.53-1.251-6.216-.57-7.64-1.108-1.09-.41-2.143-.433-3.1-1.226-.263-.224-1.208.622-1.882.016-.049-.041-.622.252-.973.339a24.87,24.87,0,0,1-4.041.947c-1.493.125-2.817,1.052-4.115,1.068-.334,0-1.282,1.009-.532,1.394-1.613,2.688-4.836,3.691-8.43,4.616.953.494-1.355.933-.043,1.531a8.855,8.855,0,0,0-.772,2.166c.178,1.422,3.942.912,6.03.066.476.948.9,1.8,1.305,2.612-.37.314-.612.514-1.049.882-.374-.83-.7-1.57-1.029-2.282-.793.444-2.234.991-2.392,1.345-.179.4.392,1.806.673,2.988L96.585,94.58a11.611,11.611,0,0,1-4.156,2.77c-.538,1.33-1.98,1.335-2.938,1.984-.342-.3-.565-.487-.879-.764-.206.67-.384,1.268-.578,1.942-.374-.293-.6-.476-.879-.7-.728.342-1.452.69-2.1,1,1.035.942,2.071,1.883,2.884,2.631-.107,1.514.018,3.58-.252,3.834-.573.537-6.423-1.491-9.042.66.955,2.229.1,4.265-1.221,6.186.275,1,.515,2.682.79,2.851.889.55,3.822,3.215,1.1,4.831a10.675,10.675,0,0,0-3.8,4.555c.254.319.785.831.762.968-.166,1.116-8.509,8.543-10.356,13.576.948,3.6,2.105,7.32-.329,10.459.089.56.15,1.149.2,1.725a8.879,8.879,0,0,0,.54,2.782c.933,1.837,3.6,4.356,4.733,6.779.122.255.342.7.594.81,2.779,1.236,5.358,6.818,8.478,4.094a3.2,3.2,0,0,1,3.664-.52c3.136,2.186,4.728-2.779,10.425-1.684.686,1.083,1.244,1.946,1.845,2.892l3.789-.026a12.894,12.894,0,0,1,1.519,2.591c.54,4.849,3.4,14.272,5.575,20.1a.325.325,0,0,1,.03.071,2.245,2.245,0,0,1-.23,1.7c-3.435,4.216-.2,9.4,1.628,12.636.881,1.551.431,4.849,1.865,6.15,1.457,1.323,1.969,3.23,3.378,4.56.151.148-.254.617-.416.983a13.394,13.394,0,0,0,1.969,1.781c1.4.586,5.233-.407,5.607-.43a8.14,8.14,0,0,0,2.675-.616,25.627,25.627,0,0,0,5.491-4.586c.971-1.1,2.3-2.41,2.283-4.036,1.162-.5,2.14-.932,3.154-1.371-.146-1.768.606-3.707-.512-5.463.947-1.037,2.846-1.136,3.126-2.724a.688.688,0,0,1,.466-.412c2.3-.067,3.116-1.954,4.459-2.821.1-2.278.683-5.187.247-6.331-.2-.517-1.46-1.067-1.241-2.148.084-.436-.38-.925-.38-1.4.007-.519.551-1.235.357-1.542a2.528,2.528,0,0,1,.117-3.307c.833-1.042.384-2.775,1.531-3.539a9.609,9.609,0,0,0,2.267-2.316c1.167-1.569,2.2-3.361,3.641-4.426,4.713-3.506,8.981-15.513,7.875-16.371-.326-.252-10.906,5.342-10.03-.179,4.463-1.984,9.118-3.348,12.7-7.078l1.936-.023c.555-.436.181-1.819,1.4-1.536,2.341-1.964,4.659-6.525,4.561-7.729-.076-.881-5.918-2.128-5.1-5.189,3.551.989,10.682.428,11.691.53,1.085.112,4.92,4.983,6.729,7.845.4-.232.917-.56,1.378-.844-.046-.352-.1-.7-.143-1.047m-48.541-37.525c.026.614.049,1.085.074,1.74-.953,0-1.77.015-3.175.025,1.327-.754,2.143-1.216,3.1-1.765m-4.828-21.4c.018.41.04.785.066,1.424-.616-.178-1.106-.309-1.633-.458-.283.229-.637.519-1.11.9-.281-.622-.545-1.2-.838-1.832,1.085-.012,2.263-.026,3.514-.035m-3.03,22.884c.948-.012,1.781-.015,2.764-.026-.3.3-.448.451-.688.686.774.522,1.561,1.055,2.372,1.612a6.963,6.963,0,0,1,1.106-1.116c1.4-.772,4.117.953,6.191,2.072.365.2.708.372,1.026.519.833.377,1.146,1.254.749,2.41-1-.084-2.02,0-3.039-.018a6.88,6.88,0,0,1-3.849-1.009c-.864-.561-2.367-.222-3.488-.286-.489.482-.884.863-1.332,1.309a4.88,4.88,0,0,1-4.649-1.631c.976-1.561,1.936-3.086,2.836-4.52m-18.55-11.941c1.16-.556,2.234-1.07,3.324-1.589-.339-.456-.538-.721-.823-1.1.724-.658,1.437-1.3,2.323-2.1-.438-.268-.846-.514-1.363-.823.013-.375.031-.877.059-1.533,1.259-.927,2.647-1.933,4.42-3.2l2.281-.026c-1.556.989-3.849,2.059-4.033,2.6-.3.9,3.942,2.968,3.949,3.021a43.911,43.911,0,0,0-4.392,5.962c-1.31.051-2.076-1.215-3.445-.221-.491.357-1.88,1.315-2.907.123.2-.379.431-.8.607-1.121m-20.282,25.75q1.427-1.617,3-3.384c-.043-.059-.255-.39-.438-.668.961-2.4,3.554-2.848,4.886-4.609a12.2,12.2,0,0,1-.846-.937s6.665-1.758,7.893-1.7c.864.043,1.728,4.1,4.759,4,.966,1.021,1.951,2.135,2.933,3.213-.147.145-.471.476-.919.935-1.108.018-3.88-.14-4,.071a32.323,32.323,0,0,0,4.221,2.846c-.138-2.15,2.066-2.761,2.282-4.573-.181-.273-.393-.609-.891-1.373a13.006,13.006,0,0,0,2.051.709c.331-.206-7.141-6.922-6.283-7.439.278-.171,3.575,3.585,5.918,3.648.357.008,1.213.849,1.2,1.184-.13,2.6,2.658,4.645,3.924,7.437.328-.01.871-.016,1.526-.025.087-.644.181-1.282.275-1.962l1.684.879-2.5-4.176c1-.359,2.035-.734,3.3-1.19.013,1.6.028,2.83.036,4.04a5.162,5.162,0,0,1,3.289,3.047c.91-1.083,2.089.853,2.828-.117,1.144-1.5,1.931.561,2.986.163a11.937,11.937,0,0,1,2.27-.545c.351-.059.714-.122,1.088-.2.412,2.545.328,7.128-.713,7.8-.874.571-3.465.685-6.334.356a26.1,26.1,0,0,1-6.017-1.36c-1.574-.589-3.31-1.373-5.562-.769-.245.915-.558,2.086-.947,3.526-1.969-1.269-4.654-1.088-6.1-3.521-1.006.013-2.013.03-2.9.046-.849-.866-1.58-1.608-2.117-2.155.168-1.45.808-3.806.5-4.254a3.8,3.8,0,0,0-2.2-.565c-4.349,2.064-8.876-.4-14.267,3.766a5.737,5.737,0,0,0-3.552-.637c.971-1.972,2.428-1.3,3.742-1.509m46.709,56.58c1.342,1.564-.035,2.568-.331,3.751a6.5,6.5,0,0,1-1.829.028c-.54-.412.978-2.561,2.16-3.779m12.339-19.688s-2.672-3.292-3.829-4.43c-1.434-1.4-1.509-4.784-3.875-5.19.655-4.578-2.589-5.934-3.4-9.261-.357-1.467-2.5-4.189-2.356-4.846.265-1.254,5.459,5.192,6.041,5.577a3.957,3.957,0,0,1,1.029,2.866,3.141,3.141,0,0,0,1.1,2.764c1.822,1.355,4.777,5.467,4.657,7.923a26.027,26.027,0,0,0,.632,4.6m-.453-49.6c3.009-3.026,3.74-3.236,6.463-1.672a34.084,34.084,0,0,0-3.842,2.064s1.875.813,1.883,1.063c.023.953.8.836,1.271,1.123,2.328,1.426.871,5.226,3.939,6.12.038.769.082,1.536.128,2.382a5.861,5.861,0,0,1-5.483-1.635c.054-1.049.11-2.288.183-3.766-1.6-1.46-3.6-3.027-4.542-5.679m13.23,31.1a7.959,7.959,0,0,1-2.318.015c-.438-.291.222-2.892-1.434-3.426a7.225,7.225,0,0,1-.451,1.261c-.03,0-.425-.239-.426-.309.3-2.548-3.569-3.617-2.968-6.609a1.908,1.908,0,0,1,2.78,1.2c1.152,2.744,6.412,3.607,7.916,3.493.548-.043-2.51,3.312-3.1,4.374" transform="translate(1.637 -67.38)" fill="#3fd5fe"/>
                  <path id="Trazado_246237" data-name="Trazado 246237" d="M54.465,82.811c.533-.222,1.248-.337,1.458-.589.27-.331.193-.909-.059-1.561-.336.295-.673.591-1,.894l-.991.905c-.978.917-1.944,1.852-2.886,2.81s-1.854,1.923-2.754,2.915l-.007.013c.025,0,.048-.007.072-.007.183.825.357,1.574.584,2.566l2.23.695,1.2-1.068c.147.158.285.313.737.813.254-1.773.425-2.877.607-4,.336.145.624.273.965.43a22.742,22.742,0,0,0,2.706-2.481c-1.006-.816-1.913-1.557-2.864-2.331M71.828,178.57c-.7-.016-1.292-.033-1.722-.046-1.4-1.246-2.859-2.968-3.661-3.292-1.809-.724-5.108-1.09-7.459-2.915-1.31-1.016-3.23-1.029-4.4-2.528a4.29,4.29,0,0,0,.466-.9c.056-3.414-4.9-6.038-8.311-7.641-.863-.4-1.21-2.453-2.291-2.84-1.3-.466-1.323-2.551-2.525-3.389a3.4,3.4,0,0,0-2.864.611c-.83-1.073-1.847-.491-2.751-.772-.123-.392-.247-.77-.408-1.269-.667,0-1.365-.008-2.02-.018-.142-.5-.253-.879-.4-1.378-1.343.815-2.621,1.6-3.768,2.3-.423,1.09-.81,2.089-1.192,3.083-.828-.593-1.442-1.109-2.079-1.478-.887-.519-1.034,1.246-1.677,1.236a.272.272,0,0,1-.023-.036c.056.721.123,1.447.2,2.161.007.089.02.173.026.262.174.117.349.216.522.309.023-.066.046-.138.069-.216.316-.981.621-2.468.9-2.311a9.05,9.05,0,0,1,1.467,3.684c.036.476-.056.853-.364,1.011.688.719.461,1.717.533,2.7-.851.683-1.216,2.059-1.89,2.978.1.505.2,1.011.309,1.516.17.79.352,1.574.54,2.359.013.066.031.13.051.2.105.451.219.9.337,1.343.105.4.212.813.324,1.216q.259.946.54,1.888c.067.214.13.428.2.647.049.166.1.333.153.494q.538,1.709,1.137,3.4c.135.374.27.747.412,1.121.117.326.24.652.369.973q1.089,2.847,2.365,5.59a.75.75,0,0,0,.044.1l0,.007c.061.064.127.128.188.188a19.535,19.535,0,0,0,4.053,3.212,8.256,8.256,0,0,1,4.13,5.087A84.06,84.06,0,0,0,45.7,208.34c.025.059.054.112.079.171.11.244.232.5.342.77.007.007.007.018.013.025.2.235.4.471.6.7,1.2,1.4,2.451,2.765,3.735,4.091.314.324.634.653.96.971.428.431.863.861,1.3,1.279.344.336.693.665,1.042.988.435.407.874.807,1.314,1.207.891.8,1.8,1.587,2.726,2.357.367.3.746.611,1.126.915.433.352.877.7,1.322,1.045.3.24.607.469.915.7.252.194.51.388.762.576q1.262.931,2.548,1.816a2.809,2.809,0,0,1,.071-.543,2.713,2.713,0,0,1,.207-.639c-.742-.237-1.417-.461-2.112-.7-.329-.11-.658-.226-1-.341-.081-.178-.173-.385-.252-.574-.043-.1-.086-.2-.122-.278.38-.071.583-.109.844-.16-.7-.838-.764-1.516-.155-1.993.053-.043-.122-.249-.232-.449-.568-.119-1.141-.237-1.768-.374-.033-.291-.054-.469-.074-.66.39.2.719.367.923.466,1.427-.166.367-1.213.2-1.962,2.044.143,3.592-.6,3-2.038-.221-.545-1.784-.8-1.587-1.738.709.051,1.472.107,2.295.17.058-1.175,1.314-1.821.155-3.547,2.189.153.326-2.28,1.74-2.528-.512-1.449-1.6-3.692-1.407-4.2.173-.456,2.523-1.77,4.058-2a1.838,1.838,0,0,0,1.849-1.909c.178-2.624-1.142-7.447-1.151-9.12a15.2,15.2,0,0,1,2.747-5.961,2.181,2.181,0,0,0,.487-1.2c.179-1.5-.744-3.465-1.371-5.1m-1.011,50.75a11.924,11.924,0,0,1-1.312-.133c.4.239.792.472,1.193.706h.007a1.437,1.437,0,0,0,.489-.362,1.148,1.148,0,0,0,.142-.2c-.173,0-.346,0-.519-.012" transform="translate(-24.749 -64.264)" fill="#3fd5fe"/>
                  <path id="Trazado_246238" data-name="Trazado 246238" d="M78.082,72.758c-.846-.979-4.267.4-4.436.171-.061-.076-1.457-2.235-2.976-2.222a11.176,11.176,0,0,0-3.113.227c-.018.007-.041.012-.059.02a4.957,4.957,0,0,0-1,.412l0,0-.007,0a5.256,5.256,0,0,0-.691.461c-.15.01-.3.016-.453.03-.351.153-.693.306-1.037.461-.693.309-1.381.627-2.063.96q-2.035.978-4.026,2.059c-.333.183-.657.365-.989.548q-.948.528-1.882,1.077a.289.289,0,0,1-.077.048q-2.911,1.733-5.682,3.661a.717.717,0,0,1,.479.221c.224.265.757,1.021.476,1.394-.581.769.105,1.291-.621,1.937-.955.844-.645,1.824-.849,2.226s-.69,1.111-1.134,1.807c.863-.087,1.457-.148,2.487-.25-1.035.621-1.658,1-2.331,1.411-.311.938-.645,1.961-.937,2.905.891,1.783.479,4.362,1.854,6.1,1.75-1.106,2.693,1.541,3.646.528,1.088-1.151,2.545-5.923,4.973-6.749,3.9-1.327,2.249-2.713,6.594-4.128a11.693,11.693,0,0,0,5.292-3.417c.711-.836.222-1.248.24-1.826a2.772,2.772,0,0,1,.454-1.376,10.966,10.966,0,0,1,2.2-2.326c.247-.217.247-.736.357-1.088.337-.105.67-.211,1.305-.4-.418-.607-1.161-1.416-1.134-1.648.054-.52,3.608-2.23,5.146-3.243" transform="translate(-10.273 -70.7)" fill="#3fd5fe"/>
                  <path id="Trazado_246239" data-name="Trazado 246239" d="M113.4,162.577c-.328-.843.54-1.9-.415-2.744-.221-.194.094-1.034.408-1.44,1.449-1.867.856-5.625,1.778-6.555,1.417-1.432,6.43-5.192,7.33-5.4.593-.135,1.6,3.491,1.556,4.257-.028.512-1.593,1.872-1.76,2.975-.367,2.415-3.249,6.947-4.637,8.282a14.521,14.521,0,0,1-2.8,1.21l-1.46-.584" transform="translate(32.217 -21.766)" fill="#3fd5fe"/>
                  <path id="Trazado_246240" data-name="Trazado 246240" d="M86.2,92.856c-.581-.416-1.164.881-2.079.374-1.263-.7-5.031.907-5.032.889a19.626,19.626,0,0,1,1.59-3.64c.063-.112-.347-.4-.621-.688l2.257-.421-2.453-1.537c-.122,1.077-.23,2.1-.324,3.016a5.677,5.677,0,0,1-4.535,1.136c.718-3.6,1.328-4.242,3.974-4.644.091-.779.188-1.572.309-2.51L78.137,83.3c1.4-.374,2.956-1.1,3.575-.293.6.787,1.906.928,2.156,2.015-.247.329-.523.7-.907,1.223,1.3,1.343,2.644,2.736,4.115,4.262-.237.627-.566,1.511-.874,2.347" transform="translate(7.723 -62.984)" fill="#3fd5fe"/>
                  <path id="Trazado_246241" data-name="Trazado 246241" d="M90.748,71.6l2.314-.031c1.192-1.154,4.1-1.1,6.914.094-.774.746-.787.761-3.638.591,1.037.537,1.908,1,2.764,1.467-1.59.737-1.635.685-3.383-.861-.871.563-1.705,1.9-1.929,2a12.486,12.486,0,0,1-2.522-.754c0-.135.007-.4.012-.675-2.04-.728-2.043-.849-.532-1.835" transform="translate(17.201 -70.679)" fill="#3fd5fe"/>
                  <path id="Trazado_246242" data-name="Trazado 246242" d="M112.946,76.763a7.079,7.079,0,0,1-.8-.092,21.85,21.85,0,0,1-3.259-.938,5.925,5.925,0,0,0,.9-.965c.487.293.973.584,1.452.889.091.053.174.112.265.165.186.122.372.239.558.362.3.188.594.387.889.579" transform="translate(29.611 -68.072)" fill="#3fd5fe"/>
                  <path id="Trazado_246243" data-name="Trazado 246243" d="M67.912,82.192c-.112.487-.227,1-.331,1.473-1.114.7-2.221,1.4-3.353,2.135-1.121-.2-2.171-.319-3.271-.469-.038-.258-.081-.558-.128-.894l-.793.617c-.168-.555-.333-1.106-.514-1.723.435-.357.825-.677,1.193-.978,1.068.672,2.454-.543,3.363-.206.584-.476,1.007-.787,1.342-1.03l2.492,1.075" transform="translate(-2.281 -63.969)" fill="#3fd5fe"/>
                  <path id="Trazado_246244" data-name="Trazado 246244" d="M31.4,119.22c-1.328,1.523-1.376,1.536-3.093,1.437.14-.277.25-.486.436-.846-1.2-.528-2.54-2.716-3.766-3.154.059-.5.12-.991.184-1.48l1.3-.051c1.672,1.4,3.3,2.749,4.94,4.094" transform="translate(-24.601 -41.996)" fill="#3fd5fe"/>
                  <path id="Trazado_246245" data-name="Trazado 246245" d="M30.238,119.452c-.247-.6-.423-1.027-.65-1.58l3.136-.072c.523.718,1.533,1.323,1.119,3-1.414-1-2.068-.412-2.068-.412a5.185,5.185,0,0,0-2.413.012c-.186.067-.5.772-.655.364a4.4,4.4,0,0,1-.043-.826l1.574-.481" transform="translate(-22.219 -40.269)" fill="#3fd5fe"/>
                  <path id="Trazado_246246" data-name="Trazado 246246" d="M105.551,72.329c-.242.117-.5.232-.775.36-.533-.148-1.172-.319-2.11-.571.551-.143,1.063-.28,1.544-.4h.007c.449.2.892.407,1.335.616" transform="translate(25.594 -70.045)" fill="#3fd5fe"/>
                  <path id="Trazado_246247" data-name="Trazado 246247" d="M109.964,77.837l-2.369.018c0-.474,0-.872-.007-1.462,1.035.4,1.8.7,2.573,1-.066.146-.133.295-.2.443" transform="translate(28.775 -67.022)" fill="#3fd5fe"/>
                  <path id="Trazado_246248" data-name="Trazado 246248" d="M56.2,170c-.509.487-.507.487-2.609.362.5-.494.5-.494,2.609-.362" transform="translate(-6.117 -6.591)" fill="#3fd5fe"/>
                  <path id="Trazado_246249" data-name="Trazado 246249" d="M85.917,101.109a14.392,14.392,0,0,1,.416-5.095,10.606,10.606,0,0,1,1.378-.923,1.538,1.538,0,0,1-.321,2.389c1.5,1.157-.133,3.913-.813,3.98-.11.01-.44-.234-.66-.351" transform="translate(14.727 -54.941)" fill="#3fd5fe"/>
                  <path id="Trazado_246250" data-name="Trazado 246250" d="M97.26,101.74c1.319.156,2.815-.825,3.911.78-1.728.591-1.733.588-3.911-.78" transform="translate(22.102 -50.745)" fill="#3fd5fe"/>
                  <path id="Trazado_246251" data-name="Trazado 246251" d="M103.968,102.6c.728-1,1.518-1.4,2.591-.835.7,1.687-1.424.932-1.567,1.951-.326-.354-.627-.683-1.024-1.116" transform="translate(26.436 -50.793)" fill="#3fd5fe"/>
                </g>
              </g>
            </g>
            <g id="Grupo_244802" data-name="Grupo 244802" transform="translate(42.532 109.891)" opacity="0.5" style="mix-blend-mode: screen;isolation: isolate">
              <g id="Grupo_244801" data-name="Grupo 244801">
                <g id="Grupo_244800" data-name="Grupo 244800" clip-path="url(#clip-path-13)">
                  <path id="Trazado_246252" data-name="Trazado 246252" d="M166.642,90.88a56.357,56.357,0,0,1-4.152,21.867q-.59,1.472-1.264,2.91a62.382,62.382,0,0,1-3.937,7.149c-.257.407-.52.81-.8,1.207-.415.624-.849,1.249-1.289,1.862-1.207,1.676-2.5,3.305-3.875,4.882-13.62,15.646-35.156,26.374-59.854,28.2-2.077.156-4.184.247-6.306.272-23.186.273-44.228-7.338-59.329-19.809A89.093,89.093,0,0,1,32.151,120.5,92.081,92.081,0,0,1,47.521,97.18l.007-.012c.894-.994,1.812-1.97,2.754-2.917q1.412-1.444,2.886-2.81l.991-.905c.329-.3.667-.6,1-.894A91.663,91.663,0,0,1,66.1,81.389l.151-.1c.92-.589,1.847-1.169,2.79-1.727a.3.3,0,0,0,.076-.048q.933-.548,1.883-1.077l.988-.548q1.98-1.086,4.028-2.061,1.02-.494,2.061-.96c.344-.153.688-.306,1.037-.459.38-.171.759-.336,1.144-.491l.007,0,.007-.007a5.1,5.1,0,0,1,1-.412,90.879,90.879,0,0,1,19.925-5.561,89.788,89.788,0,0,1,13.653-1.174,91.13,91.13,0,0,1,33.062,5.717q3.025,1.119,5.939,2.433h.007c.449.2.892.407,1.335.616a90.992,90.992,0,0,1,8.247,4.417l0,0c.486.291.973.584,1.452.889.091.051.174.11.265.163.186.112.372.229.551.351l.007.012c.031.161.058.328.082.489.148.808.27,1.628.382,2.449a56.243,56.243,0,0,1,.464,6.584" transform="translate(-25.838 -66.758)" fill="#3fd5fe"/>
                </g>
              </g>
            </g>
            <path id="Trazado_246253" data-name="Trazado 246253" d="M140.034,173.48c.364,2.767-19.972,9.773-42.083,10.033s-42.6-6.27-42.3-9.039c.226-2.084,14.068-2.252,41.755-2.591,28.234-.344,42.351-.517,42.631,1.6" transform="translate(35.952 110.922)" fill="#21215b"/>
            <g id="Grupo_244805" data-name="Grupo 244805" transform="translate(92.113 131.301)" style="mix-blend-mode: screen;isolation: isolate">
              <g id="Grupo_244804" data-name="Grupo 244804">
                <g id="Grupo_244803" data-name="Grupo 244803" clip-path="url(#clip-path-14)">
                  <path id="Trazado_246254" data-name="Trazado 246254" d="M148.966,176.431c-5.893,23.852-27.925,39.559-50.531,37.444A44.559,44.559,0,0,1,83.814,209.9a49.245,49.245,0,0,1-26.6-32.361,56.382,56.382,0,0,1-.268-22.264c3.217-16.488,12.985-24.315,27.73-47.151,3.172-4.912,7.791-12.407,12.876-22.1a29.657,29.657,0,0,0,2.105-4.744,2.013,2.013,0,0,1,3.816-.263c.028.061.058.127.084.191a22.054,22.054,0,0,0,2.148,3.972C112.7,95.96,118.586,104.5,122.57,110.161c17.791,25.307,27.154,35.484,27.887,52.1a48.715,48.715,0,0,1-1.491,14.165" transform="translate(-55.958 -79.764)" fill="#3fd5fe"/>
                </g>
              </g>
            </g>
            <path id="Trazado_246255" data-name="Trazado 246255" d="M143.121,171.351c-5.356,21.684-25.385,35.964-45.936,34.04a40.468,40.468,0,0,1-13.292-3.615,44.764,44.764,0,0,1-24.183-29.419,51.241,51.241,0,0,1-.244-20.237c2.925-14.99,11.8-22.1,25.209-42.865,2.884-4.466,7.085-11.279,11.707-20.092A27.159,27.159,0,0,0,98.3,84.849a1.829,1.829,0,0,1,3.467-.24c.026.056.054.115.076.174a20.1,20.1,0,0,0,1.954,3.612c6.356,9.8,11.71,17.561,15.334,22.711,16.173,23.006,24.685,32.257,25.352,47.367a44.3,44.3,0,0,1-1.356,12.878" transform="translate(37.842 53.933)" fill="#0090c3"/>
            <g id="Grupo_244808" data-name="Grupo 244808" transform="translate(121.734 138.544)" style="mix-blend-mode: multiply;isolation: isolate">
              <g id="Grupo_244807" data-name="Grupo 244807">
                <g id="Grupo_244806" data-name="Grupo 244806" clip-path="url(#clip-path-15)">
                  <path id="Trazado_246256" data-name="Trazado 246256" d="M133.181,170.905c-5.356,21.684-25.385,35.964-45.937,34.04a40.467,40.467,0,0,1-13.292-3.615c8.612-4.217,19.939-11.658,27.893-24.465,15.892-25.586,11.806-62.1-10.023-92.7.026.056.054.115.076.174a20.1,20.1,0,0,0,1.954,3.612c6.356,9.8,11.71,17.561,15.334,22.711,16.173,23.006,24.685,32.257,25.352,47.367a44.3,44.3,0,0,1-1.356,12.878" transform="translate(-73.952 -84.165)" fill="#3fd5fe"/>
                </g>
              </g>
            </g>
            <g id="Grupo_244811" data-name="Grupo 244811" transform="translate(114.599 168.999)" style="mix-blend-mode: screen;isolation: isolate">
              <g id="Grupo_244810" data-name="Grupo 244810">
                <g id="Grupo_244809" data-name="Grupo 244809" clip-path="url(#clip-path-16)">
                  <path id="Trazado_246257" data-name="Trazado 246257" d="M78.6,104.515a1.872,1.872,0,1,1-1.895-1.849,1.872,1.872,0,0,1,1.895,1.849" transform="translate(-66.234 -102.665)" fill="#3fd5fe"/>
                  <path id="Trazado_246258" data-name="Trazado 246258" d="M71.674,109.949c-2.193,3.175-2.714,6.619-1.164,7.689s4.584-.637,6.777-3.812,2.714-6.619,1.164-7.689-4.584.637-6.777,3.812" transform="translate(-69.618 -100.629)" fill="#3fd5fe"/>
                </g>
              </g>
            </g>
            <path id="Trazado_246259" data-name="Trazado 246259" d="M187.493,120.091c1.656,1.3,37.846,53.7,43.472,64.444s5.114,42.962,3.068,46.542-17.9,4.6-27.619,1.536-33.755-30.177-37.848-48.59S174.7,162.03,174.7,162.03l-7.671-15.343s-18.413,0-26.595-4.092c-8.446-4.222-22.716-3.643-39.383-6.649-4.291-.938-6.769-3.149-6.543-4.759.184-1.338,2.226-2.143,2.965-2.4l-7.162-2.046a4.005,4.005,0,0,1,2.048-7.161q-2.294-1.306-4.581-2.612c-2.408-1.615-3.083-4.244-2.16-5.715a3.636,3.636,0,0,1,2.649-1.389L98.5,109.35a3.653,3.653,0,0,0,.4,0c0-.049-4.344.1-7.31-1.786a9.64,9.64,0,0,1-3.834-5.38c8.747-5.686,38.045-2.77,46.356-1.806-.728-.976-1.666-2.367-2.881-4.331-6.65-10.741,0-15.855,0-15.855l8.184,11.763s43.092,24.208,48.076,28.13" transform="translate(55.065 51.817)" fill="#f29e79"/>
            <g id="Grupo_244814" data-name="Grupo 244814" transform="translate(222.119 198.648)" style="mix-blend-mode: multiply;isolation: isolate">
              <g id="Grupo_244813" data-name="Grupo 244813">
                <g id="Grupo_244812" data-name="Grupo 244812" clip-path="url(#clip-path-17)">
                  <line id="Línea_651" data-name="Línea 651" x2="25.821" y2="60.394" transform="translate(0.756 0.324)" fill="none" stroke="#f29e79" stroke-miterlimit="10" stroke-width="1"/>
                </g>
              </g>
            </g>
            <g id="Grupo_244817" data-name="Grupo 244817" transform="translate(151.793 159.654)" style="mix-blend-mode: multiply;isolation: isolate">
              <g id="Grupo_244816" data-name="Grupo 244816">
                <g id="Grupo_244815" data-name="Grupo 244815" clip-path="url(#clip-path-18)">
                  <path id="Trazado_246260" data-name="Trazado 246260" d="M92.588,97.871s12.185-1.556,22.815.779" transform="translate(-91.971 -96.746)" fill="none" stroke="#f29e79" stroke-linecap="round" stroke-linejoin="round" stroke-width="0.75"/>
                </g>
              </g>
            </g>
            <g id="Grupo_244820" data-name="Grupo 244820" transform="translate(146.809 169.751)" style="mix-blend-mode: multiply;isolation: isolate">
              <g id="Grupo_244819" data-name="Grupo 244819">
                <g id="Grupo_244818" data-name="Grupo 244818" clip-path="url(#clip-path-19)">
                  <path id="Trazado_246261" data-name="Trazado 246261" d="M89.56,104.524s14.058-2.319,22.873.013" transform="translate(-88.943 -102.88)" fill="none" stroke="#f29e79" stroke-linecap="round" stroke-linejoin="round" stroke-width="0.75"/>
                </g>
              </g>
            </g>
            <g id="Grupo_244823" data-name="Grupo 244823" transform="translate(151.924 178.82)" style="mix-blend-mode: multiply;isolation: isolate">
              <g id="Grupo_244822" data-name="Grupo 244822">
                <g id="Grupo_244821" data-name="Grupo 244821" clip-path="url(#clip-path-20)">
                  <path id="Trazado_246262" data-name="Trazado 246262" d="M92.667,110.171s9.462-2.711,15.684.142" transform="translate(-92.05 -108.389)" fill="none" stroke="#f29e79" stroke-linecap="round" stroke-linejoin="round" stroke-width="0.75"/>
                </g>
              </g>
            </g>
            <path id="Trazado_246263" data-name="Trazado 246263" d="M58.912,213.128c16.367-4.6,11.763-4.092,16.878-1.534s49.612,4.091,49.612,4.091l17.39-11.763a1.948,1.948,0,0,0-1.534-3.58l11.763-9.717a4.551,4.551,0,0,0,.347-4.015,3.467,3.467,0,0,0-.859-1.1l4.7-2.744a3.005,3.005,0,0,0,.426-3.631,3.142,3.142,0,0,0-2.573-1.3q1.279-2.558,2.556-5.114a4.289,4.289,0,0,0-1.692-3.411,4.172,4.172,0,0,0-4.956.342c-4.757,2.983-14.678,8.695-28.13,8.695a78.932,78.932,0,0,1-18.412-2.558l1.534-5.114s16.367-10.229,15.855-17.39-10.229.512-10.229.512L91.135,165.05,76.3,177.325l-31.233,7.817Z" transform="translate(29.119 97.067)" fill="#f29e79"/>
            <g id="Grupo_244826" data-name="Grupo 244826" transform="translate(158.172 274.287)" style="mix-blend-mode: multiply;isolation: isolate">
              <g id="Grupo_244825" data-name="Grupo 244825">
                <g id="Grupo_244824" data-name="Grupo 244824" clip-path="url(#clip-path-21)">
                  <path id="Trazado_246264" data-name="Trazado 246264" d="M121.859,167a39.322,39.322,0,0,1-25.4,8.873" transform="translate(-95.846 -166.384)" fill="none" stroke="#f29e79" stroke-linecap="round" stroke-linejoin="round" stroke-width="0.75"/>
                </g>
              </g>
            </g>
            <g id="Grupo_244829" data-name="Grupo 244829" transform="translate(154.081 281.959)" style="mix-blend-mode: multiply;isolation: isolate">
              <g id="Grupo_244828" data-name="Grupo 244828">
                <g id="Grupo_244827" data-name="Grupo 244827" clip-path="url(#clip-path-22)">
                  <path id="Trazado_246265" data-name="Trazado 246265" d="M120.907,171.662s-7.5,12.451-26.929,10.405" transform="translate(-93.36 -171.045)" fill="none" stroke="#f29e79" stroke-linecap="round" stroke-linejoin="round" stroke-width="0.75"/>
                </g>
              </g>
            </g>
            <g id="Grupo_244832" data-name="Grupo 244832" transform="translate(153.825 296.791)" style="mix-blend-mode: multiply;isolation: isolate">
              <g id="Grupo_244831" data-name="Grupo 244831">
                <g id="Grupo_244830" data-name="Grupo 244830" clip-path="url(#clip-path-23)">
                  <path id="Trazado_246266" data-name="Trazado 246266" d="M109.756,180.673s-9.286,6.056-15.933,4.779" transform="translate(-93.205 -180.055)" fill="none" stroke="#f29e79" stroke-linecap="round" stroke-linejoin="round" stroke-width="0.75"/>
                </g>
              </g>
            </g>
          </g>
        </g>
      </g>
    </g>
  </g>
</svg>
