<svg id="Grupo_245159" data-name="Grupo 245159" xmlns="http://www.w3.org/2000/svg" xmlns:xlink="http://www.w3.org/1999/xlink" width="295" height="207.617" viewBox="0 0 295 207.617">
  <defs>
    <clipPath id="clip-path">
      <rect id="Rectángulo_317441" data-name="Rectángulo 317441" width="295" height="207.617" fill="none"/>
    </clipPath>
    <clipPath id="clip-path-3">
      <rect id="Rectángulo_317404" data-name="Rectángulo 317404" width="111.754" height="111.754" fill="none"/>
    </clipPath>
    <clipPath id="clip-path-4">
      <rect id="Rectángulo_317405" data-name="Rectángulo 317405" width="39.23" height="83.914" fill="none"/>
    </clipPath>
    <clipPath id="clip-path-5">
      <rect id="Rectángulo_317406" data-name="Rectángulo 317406" width="28.745" height="50.966" fill="none"/>
    </clipPath>
    <clipPath id="clip-path-7">
      <path id="Trazado_246522" data-name="Trazado 246522" d="M307.692,148.62c-.177.081-.461.194-.779.356s-.735.356-1.174.6c-.459.236-.951.517-1.488.837-1.087.635-2.3,1.435-3.6,2.38a43.907,43.907,0,0,0-18.015,35.682,44.359,44.359,0,0,0,1.6,11.506,43.306,43.306,0,0,0,1.657,4.884,42.771,42.771,0,0,0,1.8,3.914c.286.554.555,1.051.82,1.492.245.436.483.815.679,1.123s.365.551.47.712l.169.245.272-.119c.175-.082.457-.2.775-.358s.731-.357,1.168-.6c.457-.237.948-.518,1.482-.839a42.318,42.318,0,0,0,3.588-2.382,43.187,43.187,0,0,0,3.979-3.284,44.283,44.283,0,0,0,7.408-8.946,43.713,43.713,0,0,0,4.995-11.249,43.205,43.205,0,0,0,1.7-12.186,43.8,43.8,0,0,0-1.6-11.5A43.308,43.308,0,0,0,311.934,156a42.683,42.683,0,0,0-1.815-3.917c-.288-.554-.559-1.052-.826-1.494-.247-.438-.486-.817-.685-1.125s-.367-.552-.474-.712l-.171-.246s-.093.039-.273.119" transform="translate(-282.632 -148.501)" fill="none"/>
    </clipPath>
    <clipPath id="clip-path-8">
      <rect id="Rectángulo_317409" data-name="Rectángulo 317409" width="50.71" height="87.015" fill="none"/>
    </clipPath>
    <clipPath id="clip-path-10">
      <rect id="Rectángulo_317410" data-name="Rectángulo 317410" width="25.333" height="63.848" fill="none"/>
    </clipPath>
    <clipPath id="clip-path-11">
      <rect id="Rectángulo_317411" data-name="Rectángulo 317411" width="5.05" height="22.821" fill="none"/>
    </clipPath>
    <clipPath id="clip-path-12">
      <rect id="Rectángulo_317412" data-name="Rectángulo 317412" width="27.097" height="16.41" fill="none"/>
    </clipPath>
    <clipPath id="clip-path-13">
      <rect id="Rectángulo_317413" data-name="Rectángulo 317413" width="31.665" height="8.603" fill="none"/>
    </clipPath>
    <clipPath id="clip-path-14">
      <path id="Trazado_246540" data-name="Trazado 246540" d="M56.649,148.747c-.106.16-.288.405-.474.712s-.438.687-.684,1.125c-.267.442-.537.94-.825,1.494A42.259,42.259,0,0,0,52.851,156a43.3,43.3,0,0,0-1.666,4.888,43.765,43.765,0,0,0-1.6,11.5,43.177,43.177,0,0,0,1.7,12.186,43.713,43.713,0,0,0,4.995,11.249,44.308,44.308,0,0,0,7.408,8.946,43.294,43.294,0,0,0,3.979,3.284,42.2,42.2,0,0,0,3.589,2.382c.533.321,1.025.6,1.481.839.438.242.84.439,1.168.6s.6.276.775.358l.272.119s.058-.082.169-.245.287-.405.471-.712.434-.687.679-1.123c.265-.441.534-.938.819-1.492a42.558,42.558,0,0,0,1.8-3.914,43.312,43.312,0,0,0,1.657-4.884,44.325,44.325,0,0,0,1.6-11.506,43.765,43.765,0,0,0-1.664-12.2,43.135,43.135,0,0,0-4.959-11.258A44.032,44.032,0,0,0,64.136,152.79c-1.3-.946-2.514-1.745-3.6-2.38-.537-.319-1.03-.6-1.488-.837-.439-.241-.843-.438-1.175-.6s-.6-.275-.778-.356-.273-.119-.273-.119l-.171.246" transform="translate(-49.587 -148.501)" fill="none"/>
    </clipPath>
    <clipPath id="clip-path-21">
      <rect id="Rectángulo_317420" data-name="Rectángulo 317420" width="57.066" height="91.454" fill="none"/>
    </clipPath>
    <clipPath id="clip-path-22">
      <rect id="Rectángulo_317421" data-name="Rectángulo 317421" width="25.063" height="89.961" fill="none"/>
    </clipPath>
    <clipPath id="clip-path-23">
      <rect id="Rectángulo_317422" data-name="Rectángulo 317422" width="216.303" height="91.454" fill="none"/>
    </clipPath>
    <clipPath id="clip-path-24">
      <rect id="Rectángulo_317423" data-name="Rectángulo 317423" width="33.292" height="22.257" fill="none"/>
    </clipPath>
    <clipPath id="clip-path-26">
      <rect id="Rectángulo_317425" data-name="Rectángulo 317425" width="32.203" height="32.744" fill="none"/>
    </clipPath>
    <clipPath id="clip-path-27">
      <rect id="Rectángulo_317426" data-name="Rectángulo 317426" width="19.757" height="67.487" fill="none"/>
    </clipPath>
    <clipPath id="clip-path-28">
      <rect id="Rectángulo_317427" data-name="Rectángulo 317427" width="22.734" height="38.299" fill="none"/>
    </clipPath>
    <clipPath id="clip-path-29">
      <rect id="Rectángulo_317428" data-name="Rectángulo 317428" width="13.112" height="66.95" fill="none"/>
    </clipPath>
    <clipPath id="clip-path-30">
      <rect id="Rectángulo_317429" data-name="Rectángulo 317429" width="17.363" height="29.25" fill="none"/>
    </clipPath>
    <clipPath id="clip-path-31">
      <rect id="Rectángulo_317430" data-name="Rectángulo 317430" width="10.013" height="51.133" fill="none"/>
    </clipPath>
    <clipPath id="clip-path-32">
      <rect id="Rectángulo_317431" data-name="Rectángulo 317431" width="21.169" height="21.526" fill="none"/>
    </clipPath>
    <clipPath id="clip-path-33">
      <rect id="Rectángulo_317432" data-name="Rectángulo 317432" width="12.987" height="44.366" fill="none"/>
    </clipPath>
    <clipPath id="clip-path-34">
      <rect id="Rectángulo_317433" data-name="Rectángulo 317433" width="66.513" height="64.58" fill="none"/>
    </clipPath>
    <clipPath id="clip-path-35">
      <rect id="Rectángulo_317434" data-name="Rectángulo 317434" width="44.983" height="68.542" fill="none"/>
    </clipPath>
    <clipPath id="clip-path-36">
      <rect id="Rectángulo_317435" data-name="Rectángulo 317435" width="42.792" height="26.949" fill="none"/>
    </clipPath>
    <clipPath id="clip-path-37">
      <rect id="Rectángulo_317436" data-name="Rectángulo 317436" width="66.349" height="25.899" fill="none"/>
    </clipPath>
    <clipPath id="clip-path-38">
      <rect id="Rectángulo_317437" data-name="Rectángulo 317437" width="38.94" height="21.287" fill="none"/>
    </clipPath>
    <clipPath id="clip-path-39">
      <rect id="Rectángulo_317438" data-name="Rectángulo 317438" width="42.379" height="16.541" fill="none"/>
    </clipPath>
    <clipPath id="clip-path-40">
      <rect id="Rectángulo_317439" data-name="Rectángulo 317439" width="270.043" height="111.545" fill="none"/>
    </clipPath>
  </defs>
  <g id="Grupo_245158" data-name="Grupo 245158" clip-path="url(#clip-path)">
    <g id="Grupo_245059" data-name="Grupo 245059">
      <g id="Grupo_245058" data-name="Grupo 245058" clip-path="url(#clip-path)">
        <g id="Grupo_245048" data-name="Grupo 245048" transform="translate(145.29 39.406)" opacity="0.3">
          <g id="Grupo_245047" data-name="Grupo 245047">
            <g id="Grupo_245046" data-name="Grupo 245046" clip-path="url(#clip-path-3)">
              <path id="Trazado_246502" data-name="Trazado 246502" d="M295.678,105.762A55.877,55.877,0,1,1,239.8,49.885a55.877,55.877,0,0,1,55.877,55.877" transform="translate(-183.924 -49.885)" fill="#f0c532"/>
            </g>
          </g>
        </g>
        <path id="Trazado_246503" data-name="Trazado 246503" d="M285.673,109.386a42.248,42.248,0,1,1-42.247-42.247,42.247,42.247,0,0,1,42.247,42.247" transform="translate(-42.258 -14.103)" fill="#f0c532"/>
        <path id="Trazado_246504" data-name="Trazado 246504" d="M178.705,54.216h-.019c-16.1,0-37,83.915-37,83.915H215.7s-20.892-83.915-37-83.915" transform="translate(-29.763 -11.388)" fill="#0a890a"/>
        <path id="Trazado_246505" data-name="Trazado 246505" d="M187.127,71.1s4.46,6.469,9.87-1.2c-4.639-9.273-9.453-15.684-13.9-15.684h-.02c-6.616,0-14.037,14.162-20.489,30.849,1.974.318,7.6.3,10.378-9.351,0,0,9.391,10.137,14.163-4.612" transform="translate(-34.152 -11.388)" fill="#8ca800"/>
        <g id="Grupo_245051" data-name="Grupo 245051" transform="translate(146.708 42.828)" opacity="0.2">
          <g id="Grupo_245050" data-name="Grupo 245050">
            <g id="Grupo_245049" data-name="Grupo 245049" clip-path="url(#clip-path-4)">
              <path id="Trazado_246506" data-name="Trazado 246506" d="M187.954,54.216h-.019a5.48,5.48,0,0,0-2.216.506c5.852,14.572,17.5,47.627,19.181,83.409h20.05s-20.892-83.915-37-83.915" transform="translate(-185.719 -54.216)" fill="#007400"/>
            </g>
          </g>
        </g>
        <path id="Trazado_246507" data-name="Trazado 246507" d="M79.3,176.445s10.927-72.075,22.69-72.075,25.8,40.946,25.8,40.946L78.206,177.855" transform="translate(-16.428 -21.924)" fill="#0a890a"/>
        <path id="Trazado_246508" data-name="Trazado 246508" d="M90.114,134.727s6.6,1.129,7.926-9.3c0,0,8.918,7.215,11-5.878,0,0,4.726,5.132,8.245-3.127v0c-4.056-6.768-8.573-12.048-12.8-12.048-5.262,0-10.354,14.419-14.378,30.357" transform="translate(-18.929 -21.924)" fill="#8ca800"/>
        <g id="Grupo_245054" data-name="Grupo 245054" transform="translate(82.621 82.447)" opacity="0.2">
          <g id="Grupo_245053" data-name="Grupo 245053">
            <g id="Grupo_245052" data-name="Grupo 245052" clip-path="url(#clip-path-5)">
              <path id="Trazado_246509" data-name="Trazado 246509" d="M107.533,104.37a4.379,4.379,0,0,0-2.943,1.451c4.481,10.012,12.309,29.988,13.476,49.515l15.27-10.02s-14.04-40.946-25.8-40.946" transform="translate(-104.591 -104.37)" fill="#007400"/>
            </g>
          </g>
        </g>
        <path id="Trazado_246510" data-name="Trazado 246510" d="M284.584,176.445s-10.927-72.075-22.69-72.075-25.8,40.946-25.8,40.946l49.588,32.539" transform="translate(-49.592 -21.924)" fill="#0a890a"/>
        <path id="Trazado_246511" data-name="Trazado 246511" d="M279.731,134.727s-6.6,1.129-7.926-9.3c0,0-8.918,7.215-11-5.878,0,0-4.726,5.132-8.245-3.127v0c4.056-6.768,8.573-12.048,12.8-12.048,5.261,0,10.353,14.419,14.377,30.357" transform="translate(-53.051 -21.924)" fill="#8ca800"/>
        <g id="Grupo_245057" data-name="Grupo 245057" transform="translate(186.5 82.447)" opacity="0.2">
          <g id="Grupo_245056" data-name="Grupo 245056">
            <g id="Grupo_245055" data-name="Grupo 245055" clip-path="url(#clip-path-5)">
              <path id="Trazado_246512" data-name="Trazado 246512" d="M261.9,104.37a4.38,4.38,0,0,1,2.942,1.451c-4.481,10.012-12.309,29.988-13.476,49.515l-15.27-10.02s14.04-40.946,25.8-40.946" transform="translate(-236.092 -104.37)" fill="#007400"/>
            </g>
          </g>
        </g>
        <path id="Trazado_246513" data-name="Trazado 246513" d="M337.355,172.4a27.974,27.974,0,0,0-16.208,1.789,79.19,79.19,0,0,1,10.464-8.7c4.042-2.8,8.794-5.694,13.668-6.792a.872.872,0,0,0-.381-1.7c-5.045,1.137-9.875,4.087-14.087,6.943-1.4.946-2.751,1.949-4.075,2.984,2.095-3.589,3.526-7.6,3.244-11.61-.078-1.108-1.821-1.186-1.742-.063.429,6.12-3.385,12.258-7.243,16.643a114.637,114.637,0,0,0-19.556,25.409c-.567.968.9,1.905,1.472.933A121.791,121.791,0,0,1,317.044,178.5a25.838,25.838,0,0,1,19.8-4.434c1.091.216,1.614-1.451.51-1.667" transform="translate(-63.292 -32.443)" fill="#007400"/>
        <path id="Trazado_246514" data-name="Trazado 246514" d="M339.431,153.882a4.472,4.472,0,1,1-1.382-6.173,4.471,4.471,0,0,1,1.382,6.173" transform="translate(-69.566 -30.881)" fill="#e58d69"/>
        <path id="Trazado_246515" data-name="Trazado 246515" d="M338.737,149.628c-.043.688-1.077,1.186-2.316,1.113s-2.209-.693-2.167-1.382,1.078-1.186,2.317-1.111,2.207.693,2.166,1.381" transform="translate(-70.212 -31.139)" fill="#d65c32"/>
        <path id="Trazado_246516" data-name="Trazado 246516" d="M354.544,161.37a4.472,4.472,0,1,1,4.694-4.24,4.472,4.472,0,0,1-4.694,4.24" transform="translate(-73.582 -32.019)" fill="#e58d69"/>
        <path id="Trazado_246517" data-name="Trazado 246517" d="M359.152,158.368c-.619.3-1.562-.355-2.108-1.469s-.483-2.263.136-2.566,1.563.355,2.11,1.47.482,2.262-.138,2.565" transform="translate(-74.921 -32.403)" fill="#d65c32"/>
        <path id="Trazado_246518" data-name="Trazado 246518" d="M342.035,179.961a4.473,4.473,0,1,1,6.306.477,4.474,4.474,0,0,1-6.306-.477" transform="translate(-71.619 -36.25)" fill="#e58d69"/>
        <path id="Trazado_246519" data-name="Trazado 246519" d="M348.113,180.836c-.646-.242-.821-1.378-.389-2.54s1.307-1.911,1.954-1.671.82,1.378.389,2.541-1.307,1.909-1.953,1.669" transform="translate(-72.992 -37.092)" fill="#d65c32"/>
        <path id="Trazado_246520" data-name="Trazado 246520" d="M289.828,212.348l-.169-.246c-.106-.16-.287-.4-.471-.711s-.434-.687-.679-1.123c-.265-.441-.534-.938-.819-1.491a45.587,45.587,0,0,1-3.458-8.8,44.325,44.325,0,0,1-1.6-11.506,43.739,43.739,0,0,1,1.664-12.2,43.147,43.147,0,0,1,4.958-11.258,44.045,44.045,0,0,1,11.393-12.228c1.3-.946,2.515-1.745,3.6-2.38.536-.319,1.029-.6,1.488-.837.438-.241.842-.438,1.174-.6s.6-.275.778-.356l.273-.12.171.247c.107.16.288.405.474.712s.438.687.685,1.125c.266.442.536.939.826,1.494A42.619,42.619,0,0,1,311.933,156a43.08,43.08,0,0,1,1.667,4.887,43.766,43.766,0,0,1,1.6,11.5,43.2,43.2,0,0,1-1.7,12.186,43.7,43.7,0,0,1-4.995,11.249,44.261,44.261,0,0,1-7.408,8.946,43.266,43.266,0,0,1-3.978,3.284,42.448,42.448,0,0,1-3.589,2.382c-.534.321-1.025.6-1.482.84-.438.24-.84.438-1.168.6s-.6.276-.775.358l-.272.119" transform="translate(-59.368 -31.193)" fill="#007400"/>
      </g>
    </g>
    <g id="Grupo_245064" data-name="Grupo 245064" transform="translate(223.263 117.308)">
      <g id="Grupo_245063" data-name="Grupo 245063" clip-path="url(#clip-path-7)">
        <g id="Grupo_245062" data-name="Grupo 245062" transform="translate(-4.919 -13.794)" opacity="0.5">
          <g id="Grupo_245061" data-name="Grupo 245061">
            <g id="Grupo_245060" data-name="Grupo 245060" clip-path="url(#clip-path-8)">
              <path id="Trazado_246521" data-name="Trazado 246521" d="M324.8,149.225c.543-.283.081-1.111-.462-.829l-21.344,11.081q.857-3.023,1.717-6.047,11.083-5.753,22.163-11.5c.543-.283.081-1.11-.462-.829l-21.345,11.081q1.681-5.92,3.362-11.838a.475.475,0,0,0-.912-.259q-1.68,5.919-3.363,11.837-6.167-10.324-12.332-20.647c-.314-.525-1.143-.064-.829.461q6.4,10.72,12.806,21.439l-1.718,6.047L289.745,138.57c-.314-.525-1.143-.064-.83.461q6.406,10.721,12.806,21.439-.858,3.023-1.718,6.047-6.166-10.324-12.331-20.647c-.314-.525-1.144-.065-.83.461q6.4,10.72,12.806,21.438-.859,3.024-1.717,6.047-6.17-10.322-12.333-20.647c-.313-.525-1.142-.064-.829.462l12.807,21.438-1.718,6.045q-6.167-10.322-12.333-20.645c-.313-.526-1.142-.065-.829.461q6.4,10.719,12.806,21.439-.859,3.023-1.717,6.045-6.167-10.322-12.333-20.644c-.313-.527-1.142-.066-.829.461q6.4,10.718,12.806,21.438-.859,3.024-1.718,6.046l-12.333-20.646c-.313-.526-1.143-.063-.829.462q6.4,10.719,12.806,21.438-.859,3.023-1.718,6.047L277.3,182.372c-.314-.524-1.143-.062-.829.463q6.4,10.718,12.806,21.438-1.875,6.6-3.747,13.189a.475.475,0,0,0,.912.26q1.873-6.6,3.746-13.189,11.084-5.755,22.164-11.506c.543-.283.081-1.111-.463-.83q-10.674,5.542-21.344,11.081.858-3.023,1.717-6.045,11.084-5.755,22.164-11.506c.543-.282.08-1.11-.462-.829l-21.345,11.081q.859-3.024,1.717-6.048,11.083-5.753,22.164-11.5c.543-.284.081-1.111-.463-.83q-10.673,5.542-21.346,11.081.859-3.023,1.718-6.046,11.084-5.752,22.163-11.506c.544-.283.081-1.111-.462-.828q-10.673,5.541-21.344,11.078.858-3.022,1.717-6.045l22.164-11.5c.543-.284.081-1.11-.463-.829l-21.344,11.08q.857-3.024,1.717-6.045l22.163-11.506c.544-.282.081-1.111-.461-.829l-21.345,11.081q.859-3.024,1.717-6.047l22.164-11.5" transform="translate(-276.404 -131.039)" fill="#8ca800"/>
            </g>
          </g>
        </g>
      </g>
    </g>
    <g id="Grupo_245078" data-name="Grupo 245078">
      <g id="Grupo_245077" data-name="Grupo 245077" clip-path="url(#clip-path)">
        <g id="Grupo_245067" data-name="Grupo 245067" transform="translate(223.263 117.307)" opacity="0.2">
          <g id="Grupo_245066" data-name="Grupo 245066">
            <g id="Grupo_245065" data-name="Grupo 245065" clip-path="url(#clip-path-10)">
              <path id="Trazado_246523" data-name="Trazado 246523" d="M307.691,148.62c-.177.081-.46.194-.778.356s-.735.356-1.175.6c-.459.235-.951.517-1.487.837-1.088.634-2.3,1.435-3.6,2.38a43.151,43.151,0,0,0-3.987,3.281,43.734,43.734,0,0,0-7.406,8.947,43.158,43.158,0,0,0-4.958,11.258,43.742,43.742,0,0,0-1.664,12.2,44.32,44.32,0,0,0,1.6,11.5,45.393,45.393,0,0,0,3.458,8.8c.285.553.555,1.051.819,1.491.245.436.483.816.679,1.123s.365.552.471.712.169.245.169.245L307.964,148.5l-.273.119" transform="translate(-282.631 -148.5)" fill="#007400"/>
            </g>
          </g>
        </g>
        <path id="Trazado_246524" data-name="Trazado 246524" d="M336.261,208.552s.377-19.831,27.125-16.466a34.484,34.484,0,0,1-27.125,16.466" transform="translate(-70.634 -40.268)" fill="#8ca800"/>
        <path id="Trazado_246525" data-name="Trazado 246525" d="M333.359,224.42s11.669-16.039,31.665,2.044a34.481,34.481,0,0,1-31.665-2.044" transform="translate(-70.024 -45.763)" fill="#8ca800"/>
        <path id="Trazado_246526" data-name="Trazado 246526" d="M323.769,213.423s-10.829-10.627,0-23.026c0,0,9.9,11.689,0,23.026" transform="translate(-66.999 -39.994)" fill="#8ca800"/>
        <path id="Trazado_246527" data-name="Trazado 246527" d="M344.908,198.393a60.035,60.035,0,0,0-22.236,20.877,64.863,64.863,0,0,0,.893-16.939c-.066-.848-1.4-.855-1.328,0a62.949,62.949,0,0,1-1.771,20.694,56.4,56.4,0,0,0-5.623,15.135c-.175.835,1.105,1.19,1.281.353a52.828,52.828,0,0,1,2.394-8.061.677.677,0,0,0,.295-.254c5.263-8.1,15.77-12.118,25.19-12.322a.665.665,0,0,0,0-1.329c-8.464.185-17.65,3.315-23.6,9.533.2-.412.4-.822.611-1.23a.607.607,0,0,0,.453-.449c.081-.282.154-.566.23-.849a59.285,59.285,0,0,1,23.878-24.011c.758-.4.086-1.546-.671-1.147" transform="translate(-66.131 -41.656)" fill="#007400"/>
        <g id="Grupo_245070" data-name="Grupo 245070" transform="translate(251.958 150.402)" opacity="0.2">
          <g id="Grupo_245069" data-name="Grupo 245069">
            <g id="Grupo_245068" data-name="Grupo 245068" clip-path="url(#clip-path-11)">
              <path id="Trazado_246528" data-name="Trazado 246528" d="M323.572,213.217c.093-1.923.792-16.969.2-22.822-9.951,11.393-1.614,21.292-.2,22.822" transform="translate(-318.956 -190.396)" fill="#007400"/>
            </g>
          </g>
        </g>
        <g id="Grupo_245073" data-name="Grupo 245073" transform="translate(265.655 151.434)" opacity="0.2">
          <g id="Grupo_245072" data-name="Grupo 245072">
            <g id="Grupo_245071" data-name="Grupo 245071" clip-path="url(#clip-path-12)">
              <path id="Trazado_246529" data-name="Trazado 246529" d="M363.393,192.086c-24.376-3.067-26.85,13.129-27.1,16.026.5-.661,8.384-10.66,27.1-16.026" transform="translate(-336.296 -191.702)" fill="#007400"/>
            </g>
          </g>
        </g>
        <g id="Grupo_245076" data-name="Grupo 245076" transform="translate(263.335 172.097)" opacity="0.2">
          <g id="Grupo_245075" data-name="Grupo 245075">
            <g id="Grupo_245074" data-name="Grupo 245074" clip-path="url(#clip-path-13)">
              <path id="Trazado_246530" data-name="Trazado 246530" d="M333.359,224.42s19.338-7.1,31.665,2.044c-20-18.083-31.665-2.044-31.665-2.044" transform="translate(-333.359 -217.86)" fill="#007400"/>
            </g>
          </g>
        </g>
        <path id="Trazado_246531" data-name="Trazado 246531" d="M24.224,172.4a27.978,27.978,0,0,1,16.209,1.789,79.3,79.3,0,0,0-10.466-8.7c-4.042-2.8-8.794-5.694-13.668-6.792a.872.872,0,0,1,.381-1.7c5.045,1.137,9.875,4.087,14.087,6.943,1.4.946,2.751,1.949,4.075,2.984-2.095-3.589-3.526-7.6-3.244-11.61.078-1.108,1.821-1.186,1.742-.063-.429,6.12,3.385,12.258,7.243,16.643A114.64,114.64,0,0,1,60.14,197.306c.566.968-.9,1.905-1.472.933A121.848,121.848,0,0,0,44.534,178.5a25.838,25.838,0,0,0-19.8-4.434c-1.091.216-1.614-1.451-.51-1.667" transform="translate(-3.286 -32.443)" fill="#007400"/>
        <path id="Trazado_246532" data-name="Trazado 246532" d="M31.634,153.882a4.473,4.473,0,1,0,1.382-6.173,4.471,4.471,0,0,0-1.382,6.173" transform="translate(-6.499 -30.881)" fill="#e58d69"/>
        <path id="Trazado_246533" data-name="Trazado 246533" d="M33.516,149.628c.043.688,1.077,1.186,2.316,1.113s2.209-.693,2.167-1.382-1.079-1.186-2.317-1.111-2.207.693-2.166,1.381" transform="translate(-7.04 -31.139)" fill="#d65c32"/>
        <path id="Trazado_246534" data-name="Trazado 246534" d="M16.521,161.37a4.472,4.472,0,1,0-4.694-4.24,4.472,4.472,0,0,0,4.694,4.24" transform="translate(-2.483 -32.019)" fill="#e58d69"/>
        <path id="Trazado_246535" data-name="Trazado 246535" d="M13.5,158.368c.619.3,1.563-.355,2.108-1.469s.483-2.263-.136-2.566-1.563.355-2.11,1.47-.482,2.262.138,2.565" transform="translate(-2.729 -32.403)" fill="#d65c32"/>
        <path id="Trazado_246536" data-name="Trazado 246536" d="M29.031,179.961a4.473,4.473,0,1,0-6.306.477,4.474,4.474,0,0,0,6.306-.477" transform="translate(-4.446 -36.25)" fill="#e58d69"/>
        <path id="Trazado_246537" data-name="Trazado 246537" d="M24.582,180.836c.646-.242.821-1.378.389-2.54s-1.307-1.911-1.954-1.671-.819,1.378-.388,2.541,1.307,1.909,1.953,1.669" transform="translate(-4.704 -37.092)" fill="#d65c32"/>
        <path id="Trazado_246538" data-name="Trazado 246538" d="M74.956,212.348l.169-.246c.106-.16.287-.4.471-.711s.434-.687.679-1.123c.265-.441.534-.938.819-1.491a45.584,45.584,0,0,0,3.458-8.8,44.325,44.325,0,0,0,1.6-11.506,43.738,43.738,0,0,0-1.664-12.2,43.147,43.147,0,0,0-4.958-11.258A44.045,44.045,0,0,0,64.136,152.79c-1.3-.946-2.515-1.745-3.6-2.38-.537-.319-1.029-.6-1.488-.837-.438-.241-.842-.438-1.174-.6s-.6-.275-.778-.356l-.273-.12-.171.247c-.107.16-.288.405-.474.712s-.438.687-.685,1.125c-.267.442-.536.939-.825,1.494A42.4,42.4,0,0,0,52.851,156a43.077,43.077,0,0,0-1.667,4.887,43.765,43.765,0,0,0-1.6,11.5,43.206,43.206,0,0,0,1.7,12.186,43.7,43.7,0,0,0,4.995,11.249,44.261,44.261,0,0,0,7.408,8.946,43.263,43.263,0,0,0,3.978,3.284,42.452,42.452,0,0,0,3.589,2.382c.534.321,1.025.6,1.482.84.438.24.84.438,1.168.6s.6.276.775.358l.272.119" transform="translate(-10.416 -31.193)" fill="#007400"/>
      </g>
    </g>
    <g id="Grupo_245083" data-name="Grupo 245083" transform="translate(39.171 117.308)">
      <g id="Grupo_245082" data-name="Grupo 245082" clip-path="url(#clip-path-14)">
        <g id="Grupo_245081" data-name="Grupo 245081" transform="translate(-13.224 -13.794)" opacity="0.5">
          <g id="Grupo_245080" data-name="Grupo 245080">
            <g id="Grupo_245079" data-name="Grupo 245079" clip-path="url(#clip-path-8)">
              <path id="Trazado_246539" data-name="Trazado 246539" d="M35.162,149.225c-.543-.283-.081-1.111.462-.829l21.344,11.081q-.857-3.023-1.717-6.047-11.083-5.753-22.163-11.5c-.543-.283-.081-1.11.462-.829L54.9,152.176q-1.681-5.92-3.362-11.838a.475.475,0,0,1,.912-.259q1.68,5.919,3.363,11.837,6.168-10.324,12.332-20.647c.314-.525,1.143-.064.829.461q-6.4,10.72-12.806,21.439l1.718,6.047L70.214,138.57c.314-.525,1.143-.064.83.461q-6.406,10.721-12.806,21.439.858,3.023,1.718,6.047,6.166-10.324,12.331-20.647c.314-.525,1.144-.065.83.461q-6.4,10.72-12.806,21.438.859,3.024,1.717,6.047Q68.2,163.5,74.362,153.171c.314-.525,1.142-.064.829.462L62.385,175.071l1.718,6.045q6.168-10.322,12.333-20.645c.313-.526,1.142-.065.829.461q-6.4,10.719-12.806,21.439.859,3.023,1.717,6.045,6.167-10.322,12.333-20.644c.314-.527,1.142-.066.829.461q-6.4,10.718-12.806,21.438.859,3.024,1.718,6.046l12.333-20.646c.313-.526,1.143-.063.829.462q-6.4,10.719-12.806,21.438.859,3.023,1.718,6.047l12.332-20.648c.314-.524,1.143-.062.829.463q-6.4,10.718-12.806,21.438,1.875,6.6,3.747,13.189a.475.475,0,0,1-.912.26q-1.873-6.6-3.746-13.189Q58.685,198.778,47.6,193.027c-.543-.283-.081-1.111.463-.83q10.674,5.542,21.344,11.081-.858-3.023-1.717-6.045-11.084-5.755-22.164-11.506c-.543-.282-.08-1.11.462-.829l21.345,11.081q-.859-3.024-1.717-6.048-11.083-5.753-22.164-11.5c-.543-.284-.081-1.111.463-.83q10.673,5.542,21.346,11.081-.859-3.023-1.718-6.046-11.084-5.752-22.163-11.506c-.544-.283-.081-1.111.462-.828q10.673,5.541,21.344,11.078-.858-3.022-1.717-6.045l-22.164-11.5c-.543-.284-.081-1.11.463-.829l21.344,11.08q-.857-3.024-1.717-6.045L37.236,156.525c-.544-.282-.081-1.111.461-.829l21.345,11.081q-.859-3.024-1.717-6.047l-22.164-11.5" transform="translate(-32.846 -131.039)" fill="#8ca800"/>
            </g>
          </g>
        </g>
      </g>
    </g>
    <g id="Grupo_245157" data-name="Grupo 245157">
      <g id="Grupo_245156" data-name="Grupo 245156" clip-path="url(#clip-path)">
        <g id="Grupo_245086" data-name="Grupo 245086" transform="translate(46.404 117.307)" opacity="0.2">
          <g id="Grupo_245085" data-name="Grupo 245085">
            <g id="Grupo_245084" data-name="Grupo 245084" clip-path="url(#clip-path-10)">
              <path id="Trazado_246541" data-name="Trazado 246541" d="M59.016,148.62c.177.081.46.194.778.356s.735.356,1.175.6c.459.235.951.517,1.487.837a45.285,45.285,0,0,1,7.59,5.661,43.733,43.733,0,0,1,7.406,8.947,43.159,43.159,0,0,1,4.958,11.258,43.77,43.77,0,0,1,1.664,12.2,44.319,44.319,0,0,1-1.6,11.5,45.393,45.393,0,0,1-3.458,8.8c-.285.553-.555,1.051-.819,1.491-.245.436-.483.816-.679,1.123s-.365.552-.471.712-.169.245-.169.245L58.743,148.5l.273.119" transform="translate(-58.743 -148.5)" fill="#007400"/>
            </g>
          </g>
        </g>
        <path id="Trazado_246542" data-name="Trazado 246542" d="M29.971,208.552s-.377-19.831-27.125-16.466a34.484,34.484,0,0,0,27.125,16.466" transform="translate(-0.598 -40.268)" fill="#8ca800"/>
        <path id="Trazado_246543" data-name="Trazado 246543" d="M31.665,224.42S20,208.381,0,226.463a34.481,34.481,0,0,0,31.665-2.044" transform="translate(0 -45.763)" fill="#8ca800"/>
        <path id="Trazado_246544" data-name="Trazado 246544" d="M47.226,213.423s10.829-10.627,0-23.026c0,0-9.9,11.689,0,23.026" transform="translate(-8.996 -39.994)" fill="#8ca800"/>
        <path id="Trazado_246545" data-name="Trazado 246545" d="M20.27,198.393A60.041,60.041,0,0,1,42.506,219.27a64.862,64.862,0,0,1-.893-16.939c.066-.848,1.4-.855,1.328,0a62.949,62.949,0,0,0,1.771,20.694,56.424,56.424,0,0,1,5.623,15.135c.175.835-1.105,1.19-1.28.353a52.832,52.832,0,0,0-2.394-8.061.677.677,0,0,1-.295-.254c-5.263-8.1-15.77-12.118-25.191-12.322a.665.665,0,0,1,0-1.329c8.465.185,17.651,3.315,23.6,9.533-.2-.412-.4-.822-.611-1.23a.607.607,0,0,1-.453-.449c-.081-.282-.154-.566-.23-.849A59.284,59.284,0,0,0,19.6,199.54c-.758-.4-.086-1.546.671-1.147" transform="translate(-4.047 -41.656)" fill="#007400"/>
        <g id="Grupo_245089" data-name="Grupo 245089" transform="translate(37.992 150.402)" opacity="0.2">
          <g id="Grupo_245088" data-name="Grupo 245088">
            <g id="Grupo_245087" data-name="Grupo 245087" clip-path="url(#clip-path-11)">
              <path id="Trazado_246546" data-name="Trazado 246546" d="M48.53,213.217c-.093-1.923-.792-16.969-.2-22.822,9.951,11.393,1.614,21.292.2,22.822" transform="translate(-48.095 -190.396)" fill="#007400"/>
            </g>
          </g>
        </g>
        <g id="Grupo_245092" data-name="Grupo 245092" transform="translate(2.248 151.434)" opacity="0.2">
          <g id="Grupo_245091" data-name="Grupo 245091">
            <g id="Grupo_245090" data-name="Grupo 245090" clip-path="url(#clip-path-12)">
              <path id="Trazado_246547" data-name="Trazado 246547" d="M2.846,192.086c24.376-3.067,26.85,13.129,27.1,16.026-.5-.661-8.384-10.66-27.1-16.026" transform="translate(-2.846 -191.702)" fill="#007400"/>
            </g>
          </g>
        </g>
        <g id="Grupo_245095" data-name="Grupo 245095" transform="translate(0 172.097)" opacity="0.2">
          <g id="Grupo_245094" data-name="Grupo 245094">
            <g id="Grupo_245093" data-name="Grupo 245093" clip-path="url(#clip-path-13)">
              <path id="Trazado_246548" data-name="Trazado 246548" d="M31.665,224.42S12.327,217.32,0,226.463c20-18.083,31.665-2.044,31.665-2.044" transform="translate(0 -217.86)" fill="#007400"/>
            </g>
          </g>
        </g>
        <path id="Trazado_246549" data-name="Trazado 246549" d="M267.949,234.253a109.676,109.676,0,0,0-216.3,0Z" transform="translate(-10.849 -29.996)" fill="#8ca800"/>
        <path id="Trazado_246550" data-name="Trazado 246550" d="M217.711,234.253a92.149,92.149,0,0,0,4.69-46.835c-2.616-16.25-9.419-30.3-17.336-41.835a110.368,110.368,0,0,0-55.294,1.561c8.2,6.391,27.729,23.777,31.452,46.9,2.078,12.9-1.235,26.387-9.813,40.207Z" transform="translate(-31.46 -29.996)" fill="#83c7f8"/>
        <g id="Grupo_245098" data-name="Grupo 245098" transform="translate(128.139 112.803)" opacity="0.2">
          <g id="Grupo_245097" data-name="Grupo 245097">
            <g id="Grupo_245096" data-name="Grupo 245096" clip-path="url(#clip-path-21)">
              <path id="Trazado_246551" data-name="Trazado 246551" d="M197.806,143.8a109.862,109.862,0,0,0-35.594,1c5.421,5.25,19.813,20.073,25.289,34.436,5.589,14.658,2.454,39.876-6.1,55.026h32.613c3.053-12.405,6.772-31.373,4.631-43.471-2.82-15.932-14.279-38.391-20.838-46.987" transform="translate(-162.213 -142.799)" fill="#a0d7f9"/>
            </g>
          </g>
        </g>
        <g id="Grupo_245101" data-name="Grupo 245101" transform="translate(167.046 114.297)" opacity="0.3">
          <g id="Grupo_245100" data-name="Grupo 245100">
            <g id="Grupo_245099" data-name="Grupo 245099" clip-path="url(#clip-path-22)">
              <path id="Trazado_246552" data-name="Trazado 246552" d="M235.36,187.815c-2.616-16.25-9.419-30.3-17.335-41.835q-3.244-.744-6.56-1.29A112.359,112.359,0,0,1,228.484,187.7a101.071,101.071,0,0,1-3.564,46.952h5.75a92.148,92.148,0,0,0,4.69-46.835" transform="translate(-211.465 -144.69)" fill="#4e8ada"/>
            </g>
          </g>
        </g>
        <g id="Grupo_245104" data-name="Grupo 245104" transform="translate(40.797 112.803)" opacity="0.1">
          <g id="Grupo_245103" data-name="Grupo 245103">
            <g id="Grupo_245102" data-name="Grupo 245102" clip-path="url(#clip-path-23)">
              <path id="Trazado_246553" data-name="Trazado 246553" d="M157.555,154.763a109.7,109.7,0,0,1,105.452,79.491h4.941a109.676,109.676,0,0,0-216.3,0H52.1a109.7,109.7,0,0,1,105.452-79.491" transform="translate(-51.646 -142.799)" fill="#007400"/>
            </g>
          </g>
        </g>
        <path id="Trazado_246554" data-name="Trazado 246554" d="M68.529,252.183s-9.08-10.961-5.59-13.31,9.751,7.435,9.751,7.435-4.547-16.878,1.837-18.092S79.867,245,79.867,245s4.044-13.7,7.827-12.393,0,12.784,0,12.784,3.913-5.739,6.914-4.565-3.131,11.352-3.131,11.352Z" transform="translate(-13.053 -47.926)" fill="#007400"/>
        <g id="Grupo_245107" data-name="Grupo 245107" transform="translate(49.087 180.232)" opacity="0.3">
          <g id="Grupo_245106" data-name="Grupo 245106">
            <g id="Grupo_245105" data-name="Grupo 245105" clip-path="url(#clip-path-24)">
              <path id="Trazado_246555" data-name="Trazado 246555" d="M94.23,252.83s3.913-5.741,6.914-4.567a1.161,1.161,0,0,1,.431.3c.716-2.082.952-3.939-.228-4.4-1.986-.777-4.364,1.469-5.751,3.08a43.008,43.008,0,0,1-1.367,5.591" transform="translate(-68.881 -231.486)" fill="#003e00"/>
              <path id="Trazado_246556" data-name="Trazado 246556" d="M62.736,245.732c3.49-2.349,9.752,7.437,9.752,7.437a55.355,55.355,0,0,1-1.2-6.1c-2.051-2.726-5.886-7.1-8.346-5.441-1.094.735-.953,2.315-.246,4.14.016-.01.027-.025.043-.036" transform="translate(-62.14 -230.911)" fill="#003e00"/>
              <path id="Trazado_246557" data-name="Trazado 246557" d="M76.712,232.321c6.383-1.213,5.339,16.79,5.339,16.79s4.044-13.7,7.827-12.393c1,.345,1.469,1.408,1.621,2.779.474-3.034.474-6.232-1.418-6.885-3.783-1.3-7.827,12.393-7.827,12.393s1.044-18-5.339-16.788c-2.914.555-3.547,4.371-3.379,8.357.386-2.21,1.314-3.9,3.176-4.253" transform="translate(-64.529 -228.158)" fill="#003e00"/>
            </g>
          </g>
        </g>
        <path id="Trazado_246558" data-name="Trazado 246558" d="M299.69,252.183s9.08-10.961,5.589-13.31-9.752,7.435-9.752,7.435,4.548-16.878-1.835-18.092S288.352,245,288.352,245s-4.044-13.7-7.828-12.393,0,12.784,0,12.784-3.913-5.739-6.914-4.565,3.131,11.352,3.131,11.352Z" transform="translate(-57.3 -47.926)" fill="#007400"/>
        <g id="Grupo_245110" data-name="Grupo 245110" transform="translate(215.485 180.232)" opacity="0.3">
          <g id="Grupo_245109" data-name="Grupo 245109">
            <g id="Grupo_245108" data-name="Grupo 245108" clip-path="url(#clip-path-24)">
              <path id="Trazado_246559" data-name="Trazado 246559" d="M280.728,252.83s-3.913-5.741-6.914-4.567a1.155,1.155,0,0,0-.431.3c-.717-2.082-.953-3.939.228-4.4,1.985-.777,4.364,1.469,5.75,3.08a43.016,43.016,0,0,0,1.367,5.591" transform="translate(-272.785 -231.486)" fill="#003e00"/>
              <path id="Trazado_246560" data-name="Trazado 246560" d="M311.584,245.732c-3.49-2.349-9.753,7.437-9.753,7.437a55.34,55.34,0,0,0,1.2-6.1c2.049-2.726,5.884-7.1,8.344-5.441,1.094.735.953,2.315.246,4.14-.016-.01-.025-.025-.042-.036" transform="translate(-278.886 -230.911)" fill="#003e00"/>
              <path id="Trazado_246561" data-name="Trazado 246561" d="M295.507,232.321c-6.384-1.213-5.34,16.79-5.34,16.79s-4.044-13.7-7.828-12.393c-1,.345-1.469,1.408-1.621,2.779-.473-3.034-.473-6.232,1.418-6.885,3.783-1.3,7.828,12.393,7.828,12.393s-1.044-18,5.339-16.788c2.913.555,3.548,4.371,3.379,8.357-.387-2.21-1.315-3.9-3.175-4.253" transform="translate(-274.396 -228.158)" fill="#003e00"/>
            </g>
          </g>
        </g>
        <path id="Trazado_246562" data-name="Trazado 246562" d="M139.373,197.439a19.759,19.759,0,1,1-19.757-20.054,19.907,19.907,0,0,1,19.757,20.054" transform="translate(-20.976 -37.261)" fill="#007400"/>
        <path id="Trazado_246563" data-name="Trazado 246563" d="M130.57,205.509l-6.668,6.763c0-.98,0-1.96,0-2.939-.008-2.511.323-5.35-.167-7.832-.281-1.427-2.454-.822-2.173.6.366,1.854.081,5.575.088,7.93.006,1.928-.006,3.856-.006,5.783l-5.536-7.97c-.822-1.186-2.776-.061-1.946,1.137l7.477,10.767c0,2.095,0,4.191-.007,6.285q-.036,11.324-.11,22.651a1.127,1.127,0,0,0,2.253,0q.078-11.777.115-23.556c.011-3.213.006-6.429.007-9.642q4.131-4.191,8.264-8.381c1.021-1.035-.572-2.631-1.593-1.594" transform="translate(-23.939 -42.155)" fill="#003e00"/>
        <g id="Grupo_245113" data-name="Grupo 245113" transform="translate(82.404 144.046)" opacity="0.5">
          <g id="Grupo_245112" data-name="Grupo 245112">
            <g id="Grupo_245111" data-name="Grupo 245111" clip-path="url(#clip-path-26)">
              <path id="Trazado_246564" data-name="Trazado 246564" d="M112.172,187.87a2.118,2.118,0,0,1,.313.088,4,4,0,0,1,.687.316,3.952,3.952,0,0,1,1.368,1.38,3.9,3.9,0,0,1,.543,1.864,4.016,4.016,0,0,1-.06.754,2.422,2.422,0,0,1-.076.318,2.622,2.622,0,0,1-.314-.088,4.086,4.086,0,0,1-.688-.315,3.921,3.921,0,0,1-1.366-1.38,3.963,3.963,0,0,1-.54-1.867,4.029,4.029,0,0,1,.058-.754,2.294,2.294,0,0,1,.075-.315" transform="translate(-105.938 -183.51)" fill="#8ca800"/>
              <path id="Trazado_246565" data-name="Trazado 246565" d="M122.462,182.474a2.157,2.157,0,0,1-.085.314,4,4,0,0,1-.309.69,3.835,3.835,0,0,1-3.981,1.889,2.472,2.472,0,0,1-.318-.073,2.337,2.337,0,0,1,.085-.314,3.953,3.953,0,0,1,.309-.691,3.934,3.934,0,0,1,3.229-1.936,3.966,3.966,0,0,1,.754.051,2.194,2.194,0,0,1,.317.072" transform="translate(-107.142 -182.35)" fill="#8ca800"/>
              <path id="Trazado_246566" data-name="Trazado 246566" d="M125.678,192.132a2.2,2.2,0,0,1-.276.174,4.056,4.056,0,0,1-.693.3,3.97,3.97,0,0,1-1.941.092,3.9,3.9,0,0,1-1.747-.848,3.836,3.836,0,0,1-.521-.548,2.45,2.45,0,0,1-.184-.27,2.349,2.349,0,0,1,.276-.175,3.907,3.907,0,0,1,4.383.463,4,4,0,0,1,.52.547,2.159,2.159,0,0,1,.185.268" transform="translate(-107.677 -184.038)" fill="#8ca800"/>
              <path id="Trazado_246567" data-name="Trazado 246567" d="M109.678,195.592a2.166,2.166,0,0,1-.276.173,4.022,4.022,0,0,1-.694.3,3.965,3.965,0,0,1-1.94.092,3.786,3.786,0,0,1-2.269-1.4,2.4,2.4,0,0,1-.183-.269,2.307,2.307,0,0,1,.275-.175,3.905,3.905,0,0,1,4.382.463,3.968,3.968,0,0,1,.521.547,2.237,2.237,0,0,1,.184.269" transform="translate(-104.316 -184.765)" fill="#8ca800"/>
              <path id="Trazado_246568" data-name="Trazado 246568" d="M115.976,198.644a2.116,2.116,0,0,1,.313.088,3.795,3.795,0,0,1,2.055,1.7,3.917,3.917,0,0,1,.543,1.864,4.018,4.018,0,0,1-.06.754,2.42,2.42,0,0,1-.076.318,2.41,2.41,0,0,1-.314-.088,4.084,4.084,0,0,1-.688-.315,3.921,3.921,0,0,1-1.366-1.38,3.807,3.807,0,0,1-.482-2.621,2.289,2.289,0,0,1,.075-.316" transform="translate(-106.737 -185.773)" fill="#8ca800"/>
              <path id="Trazado_246569" data-name="Trazado 246569" d="M110.791,203.608a2.127,2.127,0,0,1-.085.314,3.844,3.844,0,0,1-4.289,2.58,2.468,2.468,0,0,1-.318-.073,2.39,2.39,0,0,1,.085-.316,3.9,3.9,0,0,1,3.538-2.626,3.9,3.9,0,0,1,.754.05,2.274,2.274,0,0,1,.317.071" transform="translate(-104.69 -186.79)" fill="#8ca800"/>
              <path id="Trazado_246570" data-name="Trazado 246570" d="M133.027,183.628a2.282,2.282,0,0,1-.085.314,4.008,4.008,0,0,1-.31.69,3.936,3.936,0,0,1-3.225,1.942,4.1,4.1,0,0,1-.756-.052,2.263,2.263,0,0,1-.317-.074,2.142,2.142,0,0,1,.083-.314,3.987,3.987,0,0,1,.309-.693,3.871,3.871,0,0,1,3.984-1.885,2.367,2.367,0,0,1,.317.072" transform="translate(-109.361 -182.593)" fill="#8ca800"/>
              <path id="Trazado_246571" data-name="Trazado 246571" d="M111.237,214.839a2.2,2.2,0,0,1,.313.088,3.906,3.906,0,0,1,.686.316,3.935,3.935,0,0,1,1.912,3.243,4.047,4.047,0,0,1-.06.754,2.34,2.34,0,0,1-.076.318,2.132,2.132,0,0,1-.314-.088,3.9,3.9,0,0,1-2.593-3.562,4.012,4.012,0,0,1,.057-.753,2.3,2.3,0,0,1,.076-.317" transform="translate(-105.742 -189.174)" fill="#8ca800"/>
              <path id="Trazado_246572" data-name="Trazado 246572" d="M129.947,196.8a2.2,2.2,0,0,1,.313.088,3.908,3.908,0,0,1,.686.316,3.962,3.962,0,0,1,1.369,1.378,3.914,3.914,0,0,1,.542,1.864,3.989,3.989,0,0,1-.059.754,2.372,2.372,0,0,1-.076.318,2.237,2.237,0,0,1-.315-.088,3.742,3.742,0,0,1-2.053-1.7,3.946,3.946,0,0,1-.54-1.867,4.021,4.021,0,0,1,.057-.753,2.307,2.307,0,0,1,.076-.317" transform="translate(-109.672 -185.385)" fill="#8ca800"/>
              <path id="Trazado_246573" data-name="Trazado 246573" d="M138.054,190.077a2.231,2.231,0,0,1-.085.314,3.911,3.911,0,0,1-3.535,2.631,4.1,4.1,0,0,1-.755-.052,2.258,2.258,0,0,1-.318-.074,2.229,2.229,0,0,1,.084-.314,3.9,3.9,0,0,1,3.538-2.628,4.027,4.027,0,0,1,.754.05,2.249,2.249,0,0,1,.317.073" transform="translate(-110.417 -183.947)" fill="#8ca800"/>
              <path id="Trazado_246574" data-name="Trazado 246574" d="M139.436,195.657a2.142,2.142,0,0,1,.314.088,3.806,3.806,0,0,1,2.055,1.7,3.908,3.908,0,0,1,.543,1.864,4.017,4.017,0,0,1-.06.754,2.275,2.275,0,0,1-.076.318,2.612,2.612,0,0,1-.315-.088,4.086,4.086,0,0,1-.688-.315,3.87,3.87,0,0,1-1.848-4,2.208,2.208,0,0,1,.076-.316" transform="translate(-111.665 -185.145)" fill="#8ca800"/>
              <path id="Trazado_246575" data-name="Trazado 246575" d="M141.362,204.385a2.2,2.2,0,0,1,.313.087,4.006,4.006,0,0,1,.686.317,3.953,3.953,0,0,1,1.368,1.38,3.777,3.777,0,0,1,.483,2.619,2.335,2.335,0,0,1-.077.318,2.575,2.575,0,0,1-.314-.088,3.981,3.981,0,0,1-.688-.316,3.893,3.893,0,0,1-1.365-1.38,3.941,3.941,0,0,1-.54-1.868,4.019,4.019,0,0,1,.057-.753,2.27,2.27,0,0,1,.077-.315" transform="translate(-112.07 -186.979)" fill="#8ca800"/>
              <path id="Trazado_246576" data-name="Trazado 246576" d="M139.8,216.549a2.165,2.165,0,0,1-.276.173,4.085,4.085,0,0,1-.694.3,3.978,3.978,0,0,1-1.941.092,3.786,3.786,0,0,1-2.268-1.4,2.5,2.5,0,0,1-.184-.269,2.285,2.285,0,0,1,.276-.175,3.864,3.864,0,0,1,4.9,1.01,2.2,2.2,0,0,1,.185.269" transform="translate(-110.644 -189.167)" fill="#8ca800"/>
              <path id="Trazado_246577" data-name="Trazado 246577" d="M129.947,217.826a2.2,2.2,0,0,1,.313.088,3.909,3.909,0,0,1,.686.316,3.956,3.956,0,0,1,1.369,1.378,3.914,3.914,0,0,1,.542,1.864,3.989,3.989,0,0,1-.059.754,2.372,2.372,0,0,1-.076.318,2.232,2.232,0,0,1-.315-.088,3.906,3.906,0,0,1-2.593-3.562,4.009,4.009,0,0,1,.057-.753,2.307,2.307,0,0,1,.076-.317" transform="translate(-109.672 -189.802)" fill="#8ca800"/>
            </g>
          </g>
        </g>
        <g id="Grupo_245116" data-name="Grupo 245116" transform="translate(98.675 140.125)" opacity="0.2">
          <g id="Grupo_245115" data-name="Grupo 245115">
            <g id="Grupo_245114" data-name="Grupo 245114" clip-path="url(#clip-path-27)">
              <path id="Trazado_246578" data-name="Trazado 246578" d="M124.914,177.386h0a20.062,20.062,0,0,1,.939,40.083q0,1.835,0,3.669.038,11.323.111,22.651a1.048,1.048,0,0,1-1.055,1.085Z" transform="translate(-124.914 -177.386)" fill="#064906"/>
            </g>
          </g>
        </g>
        <path id="Trazado_246579" data-name="Trazado 246579" d="M270.239,200.127c0,12.186-5.871,22.062-13.112,22.062s-13.11-9.877-13.11-22.062,5.869-22.062,13.11-22.062,13.112,9.877,13.112,22.062" transform="translate(-51.257 -37.404)" fill="#007400"/>
        <path id="Trazado_246580" data-name="Trazado 246580" d="M266.158,211.273l-6.669,6.763c0-.98,0-1.96,0-2.939-.007-2.511.324-5.35-.167-7.833-.281-1.426-2.454-.821-2.173.6.366,1.853.081,5.574.089,7.93,0,1.927-.006,3.857-.007,5.783q-2.768-3.984-5.535-7.971c-.823-1.186-2.777-.06-1.946,1.138l7.478,10.767c0,2.095,0,4.191-.007,6.285-.025,7.55-.062,10.547-.111,18.1a1.127,1.127,0,0,0,2.253,0c.052-7.852.09-11.152.115-19,.011-3.214.006-6.429.007-9.642q4.131-4.191,8.264-8.381c1.021-1.036-.573-2.631-1.593-1.594" transform="translate(-52.419 -43.366)" fill="#003e00"/>
        <g id="Grupo_245119" data-name="Grupo 245119" transform="translate(194.449 142.5)" opacity="0.5">
          <g id="Grupo_245118" data-name="Grupo 245118">
            <g id="Grupo_245117" data-name="Grupo 245117" clip-path="url(#clip-path-28)">
              <path id="Trazado_246581" data-name="Trazado 246581" d="M251.874,185.913a2.135,2.135,0,0,1,.313.087,4.069,4.069,0,0,1,.687.317,3.953,3.953,0,0,1,1.368,1.38,3.9,3.9,0,0,1,.543,1.864,4.162,4.162,0,0,1-.059.754,2.483,2.483,0,0,1-.077.318,2.61,2.61,0,0,1-.315-.088,4.03,4.03,0,0,1-.687-.316,3.928,3.928,0,0,1-1.9-3.247,3.965,3.965,0,0,1,.057-.754,2.3,2.3,0,0,1,.075-.315" transform="translate(-247.328 -181.552)" fill="#8ca800"/>
              <path id="Trazado_246582" data-name="Trazado 246582" d="M262.163,180.517a2.1,2.1,0,0,1-.085.314,3.806,3.806,0,0,1-1.676,2.07,3.918,3.918,0,0,1-1.859.562,4.016,4.016,0,0,1-.754-.053,2.336,2.336,0,0,1-.318-.073,2.39,2.39,0,0,1,.084-.314,4.029,4.029,0,0,1,.31-.691,3.934,3.934,0,0,1,3.229-1.936,3.962,3.962,0,0,1,.753.05,2.214,2.214,0,0,1,.317.073" transform="translate(-248.532 -180.393)" fill="#8ca800"/>
              <path id="Trazado_246583" data-name="Trazado 246583" d="M267.2,189.148a2.108,2.108,0,0,1-.276.174,4.025,4.025,0,0,1-.694.3,3.957,3.957,0,0,1-1.94.092,3.786,3.786,0,0,1-2.269-1.4,2.444,2.444,0,0,1-.184-.269,2.343,2.343,0,0,1,.276-.175,3.905,3.905,0,0,1,4.381.462,4.012,4.012,0,0,1,.521.547,2.234,2.234,0,0,1,.184.269" transform="translate(-249.449 -181.865)" fill="#8ca800"/>
              <path id="Trazado_246584" data-name="Trazado 246584" d="M251.518,195.074a2.044,2.044,0,0,1-.276.174,3.915,3.915,0,0,1-4.382-.457,3.964,3.964,0,0,1-.521-.551,2.235,2.235,0,0,1-.185-.269,2.234,2.234,0,0,1,.276-.174,3.9,3.9,0,0,1,4.382.461,4.049,4.049,0,0,1,.521.548,2.191,2.191,0,0,1,.184.267" transform="translate(-246.155 -183.11)" fill="#8ca800"/>
              <path id="Trazado_246585" data-name="Trazado 246585" d="M258.471,195.862a2.324,2.324,0,0,1,.314.088,3.8,3.8,0,0,1,2.055,1.694,3.9,3.9,0,0,1,.543,1.865,3.992,3.992,0,0,1-.06.754,2.38,2.38,0,0,1-.076.318,2.236,2.236,0,0,1-.315-.088,3.749,3.749,0,0,1-2.053-1.7,3.817,3.817,0,0,1-.482-2.619,2.249,2.249,0,0,1,.075-.317" transform="translate(-248.714 -183.642)" fill="#8ca800"/>
              <path id="Trazado_246586" data-name="Trazado 246586" d="M251.273,202.55a2.164,2.164,0,0,1-.085.314,3.845,3.845,0,0,1-4.29,2.579,2.431,2.431,0,0,1-.318-.073,2.141,2.141,0,0,1,.084-.315,3.87,3.87,0,0,1,.31-.691,3.868,3.868,0,0,1,3.982-1.886,2.424,2.424,0,0,1,.317.071" transform="translate(-246.244 -185.021)" fill="#8ca800"/>
              <path id="Trazado_246587" data-name="Trazado 246587" d="M252.865,209.856a2.166,2.166,0,0,1,.313.087,3.924,3.924,0,0,1,.686.317,3.963,3.963,0,0,1,1.37,1.38,3.756,3.756,0,0,1,.482,2.619,2.273,2.273,0,0,1-.076.318,2.575,2.575,0,0,1-.314-.088,4.036,4.036,0,0,1-.688-.316,3.905,3.905,0,0,1-1.366-1.379,3.963,3.963,0,0,1-.54-1.868,4.034,4.034,0,0,1,.057-.754,2.352,2.352,0,0,1,.076-.315" transform="translate(-247.536 -186.582)" fill="#8ca800"/>
              <path id="Trazado_246588" data-name="Trazado 246588" d="M267.214,205.879a2.251,2.251,0,0,1,.152.285,3.911,3.911,0,0,1-.766,4.34,4.078,4.078,0,0,1-.585.481,2.352,2.352,0,0,1-.283.164,2.285,2.285,0,0,1-.153-.287,3.858,3.858,0,0,1-.25-.716,3.91,3.91,0,0,1,.049-1.942,3.962,3.962,0,0,1,.972-1.683,4.037,4.037,0,0,1,.583-.479,2.247,2.247,0,0,1,.28-.164" transform="translate(-250.162 -185.746)" fill="#8ca800"/>
              <path id="Trazado_246589" data-name="Trazado 246589" d="M272.729,191.881a2.348,2.348,0,0,1-.085.314,4.17,4.17,0,0,1-.309.69,3.975,3.975,0,0,1-1.367,1.382,3.929,3.929,0,0,1-1.859.56,4.1,4.1,0,0,1-.756-.052,2.41,2.41,0,0,1-.317-.074,2.222,2.222,0,0,1,.084-.314,3.767,3.767,0,0,1,1.676-2.07,3.951,3.951,0,0,1,1.863-.558,4.094,4.094,0,0,1,.754.051,2.117,2.117,0,0,1,.317.073" transform="translate(-250.751 -182.78)" fill="#8ca800"/>
              <path id="Trazado_246590" data-name="Trazado 246590" d="M271.213,199.675a2.131,2.131,0,0,1,.314.088,3.806,3.806,0,0,1,2.055,1.7,3.917,3.917,0,0,1,.543,1.864,4.154,4.154,0,0,1-.06.754,2.333,2.333,0,0,1-.077.318,2.621,2.621,0,0,1-.314-.088,4.066,4.066,0,0,1-.688-.316,3.933,3.933,0,0,1-1.9-3.247,4.034,4.034,0,0,1,.057-.754,2.3,2.3,0,0,1,.075-.315" transform="translate(-251.391 -184.443)" fill="#8ca800"/>
              <path id="Trazado_246591" data-name="Trazado 246591" d="M263.248,227.939a2.223,2.223,0,0,1,.066-.318,3.8,3.8,0,0,1,1.55-2.167,3.9,3.9,0,0,1,1.824-.669,3.847,3.847,0,0,1,.756.008,2.061,2.061,0,0,1,.322.055,2.427,2.427,0,0,1-.066.318A3.9,3.9,0,0,1,264.324,228a3.868,3.868,0,0,1-.755,0,2.407,2.407,0,0,1-.321-.053" transform="translate(-249.745 -189.715)" fill="#8ca800"/>
            </g>
          </g>
        </g>
        <g id="Grupo_245122" data-name="Grupo 245122" transform="translate(205.87 140.662)" opacity="0.2">
          <g id="Grupo_245121" data-name="Grupo 245121">
            <g id="Grupo_245120" data-name="Grupo 245120" clip-path="url(#clip-path-29)">
              <path id="Trazado_246592" data-name="Trazado 246592" d="M260.613,178.065v66.95a1.063,1.063,0,0,0,1.075-1.085c.052-7.852.09-11.151.115-19,0-.944,0-1.888,0-2.834,6.681-1.013,11.919-10.459,11.919-21.967,0-12.185-5.871-22.062-13.112-22.062" transform="translate(-260.613 -178.065)" fill="#064906"/>
            </g>
          </g>
        </g>
        <path id="Trazado_246593" data-name="Trazado 246593" d="M148.331,113.19c0,9.306-4.484,16.85-10.013,16.85S128.3,122.5,128.3,113.19s4.483-16.85,10.013-16.85,10.013,7.544,10.013,16.85" transform="translate(-26.951 -20.237)" fill="#007400"/>
        <path id="Trazado_246594" data-name="Trazado 246594" d="M145.214,121.7l-5.094,5.165c0-.749,0-1.5,0-2.246a32.459,32.459,0,0,0-.127-5.982c-.215-1.089-1.875-.626-1.66.457a44.016,44.016,0,0,1,.068,6.057c0,1.472,0,2.946-.006,4.417l-4.227-6.088c-.628-.9-2.121-.046-1.487.869l5.711,8.224c0,1.6,0,3.2,0,4.8-.019,5.766-.047,8.056-.085,13.822a.862.862,0,0,0,1.722,0c.038-6,.067-8.516.087-14.513.009-2.455,0-4.91.006-7.364q3.155-3.2,6.312-6.4c.779-.79-.438-2.007-1.217-1.217" transform="translate(-27.839 -24.791)" fill="#003e00"/>
        <g id="Grupo_245125" data-name="Grupo 245125" transform="translate(102.643 77.508)" opacity="0.5">
          <g id="Grupo_245124" data-name="Grupo 245124">
            <g id="Grupo_245123" data-name="Grupo 245123" clip-path="url(#clip-path-30)">
              <path id="Trazado_246595" data-name="Trazado 246595" d="M134.3,102.334a1.567,1.567,0,0,1,.239.067,2.979,2.979,0,0,1,.524.242,3.017,3.017,0,0,1,1.045,1.053,2.984,2.984,0,0,1,.415,1.424,3.061,3.061,0,0,1-.046.576,1.7,1.7,0,0,1-.058.242,1.653,1.653,0,0,1-.241-.066,3.051,3.051,0,0,1-.525-.24,2.956,2.956,0,0,1-1.411-3.056,1.7,1.7,0,0,1,.058-.242" transform="translate(-130.833 -99.004)" fill="#8ca800"/>
              <path id="Trazado_246596" data-name="Trazado 246596" d="M142.163,98.212a1.619,1.619,0,0,1-.064.24,2.91,2.91,0,0,1-1.28,1.581,3,3,0,0,1-1.42.429,3.135,3.135,0,0,1-.577-.04,1.832,1.832,0,0,1-.243-.055,1.749,1.749,0,0,1,.065-.242,2.982,2.982,0,0,1,2.7-2.006,3.121,3.121,0,0,1,.575.039,1.736,1.736,0,0,1,.243.055" transform="translate(-131.752 -98.118)" fill="#8ca800"/>
              <path id="Trazado_246597" data-name="Trazado 246597" d="M146.009,104.805a1.572,1.572,0,0,1-.211.133,2.893,2.893,0,0,1-2.012.3,2.987,2.987,0,0,1-1.334-.647,3.072,3.072,0,0,1-.4-.419,1.855,1.855,0,0,1-.141-.206,1.711,1.711,0,0,1,.21-.133,3.05,3.05,0,0,1,.531-.229,2.951,2.951,0,0,1,3.214,1,1.683,1.683,0,0,1,.141.2" transform="translate(-132.453 -99.242)" fill="#8ca800"/>
              <path id="Trazado_246598" data-name="Trazado 246598" d="M134.034,109.332a1.7,1.7,0,0,1-.211.132,2.941,2.941,0,0,1-3.745-.769,1.771,1.771,0,0,1-.141-.206,1.84,1.84,0,0,1,.211-.133,3.021,3.021,0,0,1,.531-.23,2.952,2.952,0,0,1,3.213,1,1.685,1.685,0,0,1,.141.2" transform="translate(-129.937 -100.193)" fill="#8ca800"/>
              <path id="Trazado_246599" data-name="Trazado 246599" d="M139.342,109.932a1.765,1.765,0,0,1,.24.068,2.969,2.969,0,0,1,.524.241,3.02,3.02,0,0,1,1.045,1.054,2.965,2.965,0,0,1,.414,1.423,3.163,3.163,0,0,1-.044.577,1.827,1.827,0,0,1-.058.243,1.889,1.889,0,0,1-.241-.067,3.063,3.063,0,0,1-.525-.241,3,3,0,0,1-1.454-2.48,2.953,2.953,0,0,1,.043-.575,1.938,1.938,0,0,1,.057-.242" transform="translate(-131.891 -100.6)" fill="#8ca800"/>
              <path id="Trazado_246600" data-name="Trazado 246600" d="M133.846,115.041a1.6,1.6,0,0,1-.065.24,2.933,2.933,0,0,1-3.276,1.969,1.871,1.871,0,0,1-.243-.055,1.6,1.6,0,0,1,.065-.241,2.894,2.894,0,0,1,1.28-1.582,3.02,3.02,0,0,1,1.423-.424,2.985,2.985,0,0,1,.574.039,1.736,1.736,0,0,1,.242.055" transform="translate(-130.005 -101.653)" fill="#8ca800"/>
              <path id="Trazado_246601" data-name="Trazado 246601" d="M135.062,120.621a1.589,1.589,0,0,1,.239.066,2.932,2.932,0,0,1,.525.242,3.026,3.026,0,0,1,1.046,1.053,2.975,2.975,0,0,1,.413,1.424,3.085,3.085,0,0,1-.044.576,1.652,1.652,0,0,1-.058.243,1.732,1.732,0,0,1-.24-.066,2.883,2.883,0,0,1-1.569-1.3,3.035,3.035,0,0,1-.412-1.425,3.136,3.136,0,0,1,.044-.575,1.8,1.8,0,0,1,.058-.242" transform="translate(-130.992 -102.845)" fill="#8ca800"/>
              <path id="Trazado_246602" data-name="Trazado 246602" d="M146.021,117.582a1.675,1.675,0,0,1,.117.22,3.079,3.079,0,0,1,.19.544,3.028,3.028,0,0,1-.036,1.485,2.98,2.98,0,0,1-.739,1.284,3.116,3.116,0,0,1-.447.367,1.636,1.636,0,0,1-.215.126,1.749,1.749,0,0,1-.118-.219,2.87,2.87,0,0,1-.153-2.029,3.009,3.009,0,0,1,.743-1.284,3.069,3.069,0,0,1,.445-.367,1.689,1.689,0,0,1,.214-.126" transform="translate(-132.997 -102.207)" fill="#8ca800"/>
              <path id="Trazado_246603" data-name="Trazado 246603" d="M150.233,106.892a1.713,1.713,0,0,1-.066.24,3.085,3.085,0,0,1-.236.526,3.027,3.027,0,0,1-1.043,1.055,2.992,2.992,0,0,1-1.42.428,2.951,2.951,0,0,1-.577-.04,1.7,1.7,0,0,1-.242-.055,1.624,1.624,0,0,1,.065-.241,2.9,2.9,0,0,1,.235-.528,2.949,2.949,0,0,1,3.042-1.44,1.694,1.694,0,0,1,.243.055" transform="translate(-133.447 -99.941)" fill="#8ca800"/>
              <path id="Trazado_246604" data-name="Trazado 246604" d="M149.076,112.844a1.776,1.776,0,0,1,.239.068,2.949,2.949,0,0,1,.524.242,3,3,0,0,1,1.46,2.476,3.155,3.155,0,0,1-.045.577,1.706,1.706,0,0,1-.059.243,1.965,1.965,0,0,1-.24-.066,3.042,3.042,0,0,1-.525-.242,3,3,0,0,1-1.455-2.48,3.013,3.013,0,0,1,.043-.574,1.691,1.691,0,0,1,.058-.243" transform="translate(-133.936 -101.211)" fill="#8ca800"/>
              <path id="Trazado_246605" data-name="Trazado 246605" d="M142.991,134.431a1.906,1.906,0,0,1,.051-.243,2.986,2.986,0,0,1,.205-.54,3.03,3.03,0,0,1,.979-1.116,2.984,2.984,0,0,1,1.393-.51,3.056,3.056,0,0,1,.578.006,1.63,1.63,0,0,1,.246.042,1.961,1.961,0,0,1-.051.244,2.951,2.951,0,0,1-3.155,2.158,1.889,1.889,0,0,1-.246-.04" transform="translate(-132.679 -105.237)" fill="#8ca800"/>
            </g>
          </g>
        </g>
        <g id="Grupo_245128" data-name="Grupo 245128" transform="translate(111.366 76.103)" opacity="0.2">
          <g id="Grupo_245127" data-name="Grupo 245127">
            <g id="Grupo_245126" data-name="Grupo 245126" clip-path="url(#clip-path-31)">
              <path id="Trazado_246606" data-name="Trazado 246606" d="M140.98,96.34v51.133a.814.814,0,0,0,.821-.828c.039-6,.067-8.517.087-14.514,0-.722,0-1.443,0-2.164,5.1-.774,9.1-7.988,9.1-16.778,0-9.306-4.484-16.85-10.013-16.85" transform="translate(-140.98 -96.34)" fill="#064906"/>
            </g>
          </g>
        </g>
        <path id="Trazado_246607" data-name="Trazado 246607" d="M240.807,112.282A12.989,12.989,0,1,1,227.819,99.1a13.085,13.085,0,0,1,12.987,13.183" transform="translate(-45.126 -20.816)" fill="#007400"/>
        <path id="Trazado_246608" data-name="Trazado 246608" d="M235.021,117.588l-4.383,4.446c0-.645,0-1.289,0-1.933a27.805,27.805,0,0,0-.109-5.149c-.185-.938-1.613-.54-1.427.393a38.007,38.007,0,0,1,.057,5.214c0,1.268,0,2.536,0,3.8q-1.82-2.619-3.638-5.24c-.541-.779-1.827-.04-1.28.748l4.915,7.079c0,1.377,0,2.754-.006,4.131q-.022,7.445-.072,14.89a.741.741,0,0,0,1.482,0q.051-7.741.075-15.484c.007-2.113,0-4.226,0-6.339l5.433-5.508c.671-.682-.376-1.729-1.047-1.048" transform="translate(-47.074 -24.034)" fill="#003e00"/>
        <g id="Grupo_245131" data-name="Grupo 245131" transform="translate(172.02 80.86)" opacity="0.5">
          <g id="Grupo_245130" data-name="Grupo 245130">
            <g id="Grupo_245129" data-name="Grupo 245129" clip-path="url(#clip-path-32)">
              <path id="Trazado_246609" data-name="Trazado 246609" d="M222.926,105.991a1.511,1.511,0,0,1,.205.058,2.69,2.69,0,0,1,.451.208,2.609,2.609,0,0,1,.9.907,2.572,2.572,0,0,1,.356,1.226,2.5,2.5,0,0,1-.039.5,1.437,1.437,0,0,1-.049.208,1.408,1.408,0,0,1-.207-.057,2.483,2.483,0,0,1-1.35-1.115,2.485,2.485,0,0,1-.317-1.722,1.364,1.364,0,0,1,.05-.209" transform="translate(-218.828 -103.124)" fill="#8ca800"/>
              <path id="Trazado_246610" data-name="Trazado 246610" d="M229.691,102.443a1.457,1.457,0,0,1-.056.207,2.681,2.681,0,0,1-.2.453,2.61,2.61,0,0,1-.9.908,2.559,2.559,0,0,1-1.222.369,2.625,2.625,0,0,1-.5-.034,1.676,1.676,0,0,1-.208-.048,1.378,1.378,0,0,1,.055-.207,2.6,2.6,0,0,1,.2-.455,2.584,2.584,0,0,1,2.122-1.273,2.609,2.609,0,0,1,.5.033,1.491,1.491,0,0,1,.209.047" transform="translate(-219.62 -102.362)" fill="#8ca800"/>
              <path id="Trazado_246611" data-name="Trazado 246611" d="M231.806,108.793a1.646,1.646,0,0,1-.182.115,2.681,2.681,0,0,1-.457.2,2.586,2.586,0,0,1-2.425-.5,2.657,2.657,0,0,1-.342-.361,1.491,1.491,0,0,1-.12-.177,1.433,1.433,0,0,1,.181-.115,2.62,2.62,0,0,1,.457-.2,2.571,2.571,0,0,1,1.274-.059,2.6,2.6,0,0,1,1.149.56,2.562,2.562,0,0,1,.342.36,1.613,1.613,0,0,1,.122.175" transform="translate(-219.971 -103.472)" fill="#8ca800"/>
              <path id="Trazado_246612" data-name="Trazado 246612" d="M221.288,111.068a1.523,1.523,0,0,1-.181.114,2.654,2.654,0,0,1-.457.2,2.589,2.589,0,0,1-2.425-.5,2.66,2.66,0,0,1-.342-.36,1.626,1.626,0,0,1-.12-.179,1.466,1.466,0,0,1,.18-.114,2.536,2.536,0,0,1,.458-.2,2.562,2.562,0,0,1,1.274-.058,2.622,2.622,0,0,1,1.149.558,2.755,2.755,0,0,1,.342.36,1.665,1.665,0,0,1,.122.177" transform="translate(-217.762 -103.949)" fill="#8ca800"/>
              <path id="Trazado_246613" data-name="Trazado 246613" d="M225.427,113.075a1.478,1.478,0,0,1,.205.058,2.663,2.663,0,0,1,.451.208,2.583,2.583,0,0,1,1.257,2.132,2.633,2.633,0,0,1-.039.5,1.53,1.53,0,0,1-.05.208,1.41,1.41,0,0,1-.207-.057,2.638,2.638,0,0,1-.452-.208,2.555,2.555,0,0,1-.9-.908,2.6,2.6,0,0,1-.355-1.227,2.561,2.561,0,0,1,.039-.5,1.318,1.318,0,0,1,.049-.208" transform="translate(-219.354 -104.612)" fill="#8ca800"/>
              <path id="Trazado_246614" data-name="Trazado 246614" d="M222.018,116.338a1.52,1.52,0,0,1-.055.206,2.7,2.7,0,0,1-.2.453,2.6,2.6,0,0,1-.9.908,2.564,2.564,0,0,1-1.223.369,2.617,2.617,0,0,1-.5-.034,1.669,1.669,0,0,1-.209-.048,1.38,1.38,0,0,1,.055-.207,2.639,2.639,0,0,1,.2-.455,2.587,2.587,0,0,1,2.123-1.273,2.6,2.6,0,0,1,.495.033,1.333,1.333,0,0,1,.209.047" transform="translate(-218.008 -105.281)" fill="#8ca800"/>
              <path id="Trazado_246615" data-name="Trazado 246615" d="M236.637,103.2a1.546,1.546,0,0,1-.057.207,2.655,2.655,0,0,1-.2.453,2.609,2.609,0,0,1-.9.908,2.575,2.575,0,0,1-1.222.368,2.693,2.693,0,0,1-.5-.034,1.469,1.469,0,0,1-.209-.049,1.486,1.486,0,0,1,.055-.206,2.637,2.637,0,0,1,.2-.455,2.587,2.587,0,0,1,2.123-1.273,2.673,2.673,0,0,1,.5.033,1.524,1.524,0,0,1,.209.047" transform="translate(-221.079 -102.521)" fill="#8ca800"/>
              <path id="Trazado_246616" data-name="Trazado 246616" d="M222.311,123.721a1.489,1.489,0,0,1,.207.058,2.718,2.718,0,0,1,.451.208,2.616,2.616,0,0,1,.9.907,2.572,2.572,0,0,1,.356,1.226,2.626,2.626,0,0,1-.039.5,1.532,1.532,0,0,1-.05.208,1.388,1.388,0,0,1-.206-.057,2.486,2.486,0,0,1-1.351-1.115,2.514,2.514,0,0,1-.317-1.722,1.618,1.618,0,0,1,.049-.209" transform="translate(-218.699 -106.849)" fill="#8ca800"/>
              <path id="Trazado_246617" data-name="Trazado 246617" d="M234.612,111.86a1.6,1.6,0,0,1,.206.058,2.5,2.5,0,0,1,1.35,1.114,2.567,2.567,0,0,1,.357,1.226,2.623,2.623,0,0,1-.04.5,1.527,1.527,0,0,1-.05.209,1.468,1.468,0,0,1-.206-.058,2.474,2.474,0,0,1-1.351-1.115,2.607,2.607,0,0,1-.355-1.228,2.549,2.549,0,0,1,.039-.495,1.436,1.436,0,0,1,.049-.209" transform="translate(-221.283 -104.357)" fill="#8ca800"/>
              <path id="Trazado_246618" data-name="Trazado 246618" d="M239.941,107.442a1.511,1.511,0,0,1-.055.207,2.668,2.668,0,0,1-.2.453,2.585,2.585,0,0,1-2.121,1.277,2.543,2.543,0,0,1-.5-.035,1.411,1.411,0,0,1-.209-.048,1.481,1.481,0,0,1,.055-.206,2.676,2.676,0,0,1,.2-.455,2.584,2.584,0,0,1,2.123-1.273,2.675,2.675,0,0,1,.495.033,1.492,1.492,0,0,1,.209.047" transform="translate(-221.773 -103.412)" fill="#8ca800"/>
              <path id="Trazado_246619" data-name="Trazado 246619" d="M240.849,111.11a1.553,1.553,0,0,1,.206.058,2.568,2.568,0,0,1,.45.208,2.6,2.6,0,0,1,.9.906,2.563,2.563,0,0,1,.356,1.226,2.626,2.626,0,0,1-.039.5,1.4,1.4,0,0,1-.05.209,1.576,1.576,0,0,1-.206-.058,2.541,2.541,0,0,1-1.668-2.837,1.527,1.527,0,0,1,.05-.209" transform="translate(-222.593 -104.2)" fill="#8ca800"/>
              <path id="Trazado_246620" data-name="Trazado 246620" d="M242.116,116.848a1.509,1.509,0,0,1,.205.058,2.689,2.689,0,0,1,.451.208,2.606,2.606,0,0,1,.9.906,2.571,2.571,0,0,1,.355,1.226,2.515,2.515,0,0,1-.039.5,1.663,1.663,0,0,1-.049.209,1.381,1.381,0,0,1-.207-.058,2.621,2.621,0,0,1-.453-.206,2.571,2.571,0,0,1-.9-.908,2.6,2.6,0,0,1-.355-1.227,2.636,2.636,0,0,1,.038-.5,1.453,1.453,0,0,1,.051-.208" transform="translate(-222.859 -105.405)" fill="#8ca800"/>
              <path id="Trazado_246621" data-name="Trazado 246621" d="M241.09,124.844a1.383,1.383,0,0,1-.181.115,2.676,2.676,0,0,1-.457.2,2.528,2.528,0,0,1-2.767-.858,1.674,1.674,0,0,1-.121-.178,1.558,1.558,0,0,1,.182-.115,2.636,2.636,0,0,1,.457-.2,2.585,2.585,0,0,1,2.424.5,2.531,2.531,0,0,1,.343.36,1.574,1.574,0,0,1,.121.175" transform="translate(-221.922 -106.843)" fill="#8ca800"/>
              <path id="Trazado_246622" data-name="Trazado 246622" d="M234.612,125.684a1.5,1.5,0,0,1,.206.058,2.654,2.654,0,0,1,.451.208,2.6,2.6,0,0,1,.9.907,2.564,2.564,0,0,1,.357,1.226,2.629,2.629,0,0,1-.04.5,1.493,1.493,0,0,1-.05.208,1.522,1.522,0,0,1-.206-.057,2.487,2.487,0,0,1-1.351-1.115,2.61,2.61,0,0,1-.355-1.228,2.549,2.549,0,0,1,.039-.495,1.437,1.437,0,0,1,.049-.209" transform="translate(-221.283 -107.261)" fill="#8ca800"/>
            </g>
          </g>
        </g>
        <g id="Grupo_245134" data-name="Grupo 245134" transform="translate(182.717 78.283)" opacity="0.2">
          <g id="Grupo_245133" data-name="Grupo 245133">
            <g id="Grupo_245132" data-name="Grupo 245132" clip-path="url(#clip-path-33)">
              <path id="Trazado_246623" data-name="Trazado 246623" d="M231.3,99.1h0a13.189,13.189,0,0,1,.617,26.35q0,1.205,0,2.412.024,7.445.073,14.89a.691.691,0,0,1-.693.715Z" transform="translate(-231.303 -99.099)" fill="#064906"/>
            </g>
          </g>
        </g>
        <g id="Grupo_245137" data-name="Grupo 245137" transform="translate(67.196 130.521)" opacity="0.5">
          <g id="Grupo_245136" data-name="Grupo 245136">
            <g id="Grupo_245135" data-name="Grupo 245135" clip-path="url(#clip-path-34)">
              <path id="Trazado_246624" data-name="Trazado 246624" d="M132.295,166.414l-1.423,1.162-.936-2.013c-.3-.652-1.357-.259-1.051.4l1.257,2.7a.568.568,0,0,0,.853.257l1.955-1.6c.559-.456-.092-1.373-.656-.912" transform="translate(-94.257 -165.229)" fill="#707f03"/>
              <path id="Trazado_246625" data-name="Trazado 246625" d="M160.191,178.572l-1.423,1.163q-.467-1.007-.935-2.014c-.3-.652-1.358-.259-1.051.4l1.256,2.7a.57.57,0,0,0,.855.257l1.954-1.6c.559-.457-.092-1.372-.656-.913" transform="translate(-100.117 -167.783)" fill="#707f03"/>
              <path id="Trazado_246626" data-name="Trazado 246626" d="M90.11,198.561l-1.423,1.162-.935-2.013c-.3-.652-1.358-.26-1.051.4l1.256,2.7a.569.569,0,0,0,.854.257l1.955-1.6c.558-.457-.092-1.372-.656-.912" transform="translate(-85.396 -171.981)" fill="#707f03"/>
              <path id="Trazado_246627" data-name="Trazado 246627" d="M165.679,206.615l-1.423,1.162q-.468-1-.936-2.013c-.3-.652-1.357-.26-1.051.4q.628,1.352,1.256,2.7a.569.569,0,0,0,.854.257l1.955-1.6c.559-.457-.092-1.372-.656-.912" transform="translate(-101.27 -173.673)" fill="#707f03"/>
              <path id="Trazado_246628" data-name="Trazado 246628" d="M151.545,227.93l-1.423,1.163q-.467-1.006-.935-2.014c-.3-.652-1.358-.259-1.051.4q.629,1.352,1.257,2.7a.568.568,0,0,0,.854.256q.979-.8,1.955-1.6c.558-.457-.093-1.372-.656-.913" transform="translate(-98.301 -178.15)" fill="#707f03"/>
              <path id="Trazado_246629" data-name="Trazado 246629" d="M167.241,243.349l-1.423,1.163-.936-2.014c-.3-.652-1.357-.259-1.051.4q.629,1.351,1.257,2.7a.569.569,0,0,0,.854.256l1.955-1.6c.559-.457-.092-1.373-.656-.913" transform="translate(-101.598 -181.389)" fill="#707f03"/>
              <path id="Trazado_246630" data-name="Trazado 246630" d="M108.432,236.936l-1.423,1.162-.936-2.013c-.3-.652-1.357-.26-1.051.4l1.256,2.7a.569.569,0,0,0,.854.257l1.955-1.6c.558-.457-.092-1.372-.656-.912" transform="translate(-89.245 -180.042)" fill="#707f03"/>
              <path id="Trazado_246631" data-name="Trazado 246631" d="M88.529,224.987q-.712.579-1.423,1.162l-.936-2.013c-.3-.652-1.357-.259-1.051.4l1.256,2.7a.569.569,0,0,0,.854.257l1.955-1.6c.558-.457-.092-1.372-.656-.912" transform="translate(-85.064 -177.532)" fill="#707f03"/>
            </g>
          </g>
        </g>
        <g id="Grupo_245140" data-name="Grupo 245140" transform="translate(191.481 130.521)" opacity="0.5">
          <g id="Grupo_245139" data-name="Grupo 245139">
            <g id="Grupo_245138" data-name="Grupo 245138" clip-path="url(#clip-path-35)">
              <path id="Trazado_246632" data-name="Trazado 246632" d="M243.267,166.414l1.423,1.162.936-2.013c.3-.652,1.357-.259,1.051.4q-.628,1.352-1.256,2.7a.569.569,0,0,1-.854.257l-1.955-1.6c-.559-.456.092-1.373.656-.912" transform="translate(-242.398 -165.229)" fill="#707f03"/>
              <path id="Trazado_246633" data-name="Trazado 246633" d="M285.453,198.561l1.423,1.162.935-2.013c.3-.652,1.358-.26,1.051.4q-.629,1.352-1.257,2.7a.569.569,0,0,1-.854.257l-1.955-1.6c-.559-.457.093-1.372.656-.912" transform="translate(-251.259 -171.981)" fill="#707f03"/>
              <path id="Trazado_246634" data-name="Trazado 246634" d="M245.839,248.365l1.423,1.163q.467-1.006.935-2.014c.3-.652,1.357-.259,1.051.4l-1.256,2.7a.569.569,0,0,1-.854.256q-.978-.8-1.954-1.6c-.559-.457.092-1.372.655-.913" transform="translate(-242.938 -182.443)" fill="#707f03"/>
              <path id="Trazado_246635" data-name="Trazado 246635" d="M271.133,234.526l1.423,1.163q.468-1.006.935-2.014c.3-.652,1.358-.259,1.051.4q-.629,1.352-1.257,2.7a.567.567,0,0,1-.853.256q-.98-.8-1.956-1.6c-.559-.457.093-1.372.656-.913" transform="translate(-248.251 -179.536)" fill="#707f03"/>
              <path id="Trazado_246636" data-name="Trazado 246636" d="M294.726,218.878l1.423,1.163c.311-.672.624-1.341.935-2.014.3-.652,1.357-.259,1.051.4l-1.256,2.7a.569.569,0,0,1-.854.256q-.978-.8-1.954-1.6c-.559-.457.092-1.372.655-.913" transform="translate(-253.207 -176.249)" fill="#707f03"/>
            </g>
          </g>
        </g>
        <path id="Trazado_246637" data-name="Trazado 246637" d="M66.542,75.652a4.689,4.689,0,0,0-1.272.179,15.291,15.291,0,1,0-29.312-6.1c0,.083.011.164.013.248h-.013a7.522,7.522,0,0,0,0,15.044H66.542a4.686,4.686,0,1,0,0-9.372" transform="translate(-5.973 -11.435)" fill="#83c7f8"/>
        <g id="Grupo_245143" data-name="Grupo 245143" transform="translate(22.463 43.005)" opacity="0.6">
          <g id="Grupo_245142" data-name="Grupo 245142">
            <g id="Grupo_245141" data-name="Grupo 245141" clip-path="url(#clip-path-36)">
              <path id="Trazado_246638" data-name="Trazado 246638" d="M35.959,72.082h.013c0-.084-.013-.165-.013-.247a15.283,15.283,0,0,1,30.53-1.073c.023-.343.054-.683.054-1.031a15.292,15.292,0,1,0-30.583,0c0,.083.011.164.013.247h-.013a7.473,7.473,0,0,0-7.44,8.574,7.518,7.518,0,0,1,7.44-6.47" transform="translate(-28.437 -54.44)" fill="#83c7f8"/>
              <path id="Trazado_246639" data-name="Trazado 246639" d="M75.822,81.329a15.221,15.221,0,0,1-.758,2.246A4.671,4.671,0,0,1,80.9,87.03a4.675,4.675,0,0,0-4.564-5.738,4.439,4.439,0,0,0-.514.037" transform="translate(-38.231 -60.08)" fill="#83c7f8"/>
            </g>
          </g>
        </g>
        <path id="Trazado_246640" data-name="Trazado 246640" d="M165.4,23.054a6.986,6.986,0,0,0-3.819,1.134,9.86,9.86,0,0,0-13.153-6.055,15.78,15.78,0,0,0-30.836-.337,9.739,9.739,0,1,0-1.768,19.317H165.4a7.03,7.03,0,1,0,0-14.059" transform="translate(-22.284 -1.164)" fill="#83c7f8"/>
        <g id="Grupo_245146" data-name="Grupo 245146" transform="translate(83.8 4.379)" opacity="0.6">
          <g id="Grupo_245145" data-name="Grupo 245145">
            <g id="Grupo_245144" data-name="Grupo 245144" clip-path="url(#clip-path-37)">
              <path id="Trazado_246641" data-name="Trazado 246641" d="M115.826,20.343a9.789,9.789,0,0,1,1.767.168,15.78,15.78,0,0,1,30.836.337A9.861,9.861,0,0,1,161.583,26.9a7.021,7.021,0,0,1,10.716,4.54,7.023,7.023,0,0,0-10.716-7.254,9.861,9.861,0,0,0-13.153-6.054,15.781,15.781,0,0,0-30.836-.337,9.682,9.682,0,0,0-11.4,10.932,9.737,9.737,0,0,1,9.637-8.386" transform="translate(-106.084 -5.543)" fill="#83c7f8"/>
            </g>
          </g>
        </g>
        <path id="Trazado_246642" data-name="Trazado 246642" d="M307.916,83.992a4.652,4.652,0,0,1,2.243.574,12.462,12.462,0,1,1,24.353-4.236,6.552,6.552,0,1,1,1.116,13.008H307.916a4.673,4.673,0,1,1,0-9.346" transform="translate(-63.698 -14.371)" fill="#83c7f8"/>
        <g id="Grupo_245149" data-name="Grupo 245149" transform="translate(239.545 54.045)" opacity="0.6">
          <g id="Grupo_245148" data-name="Grupo 245148">
            <g id="Grupo_245147" data-name="Grupo 245147" clip-path="url(#clip-path-38)">
              <path id="Trazado_246643" data-name="Trazado 246643" d="M337.32,82.306a6.576,6.576,0,0,0-1.116.1,12.459,12.459,0,0,0-24.863-.487c-.028-.344-.046-.691-.046-1.043A12.46,12.46,0,0,1,336.2,80.33a6.519,6.519,0,0,1,7.582,7.492,6.552,6.552,0,0,0-6.466-5.516" transform="translate(-304.934 -68.416)" fill="#83c7f8"/>
              <path id="Trazado_246644" data-name="Trazado 246644" d="M310.159,90.784a4.671,4.671,0,0,0-6.8,3.061,4.666,4.666,0,0,1,6.326-5.359,12.478,12.478,0,0,0,.47,2.3" transform="translate(-303.243 -72.558)" fill="#83c7f8"/>
            </g>
          </g>
        </g>
        <path id="Trazado_246645" data-name="Trazado 246645" d="M244.47,11.185a4.461,4.461,0,0,1,2.439.724,6.3,6.3,0,0,1,8.4-3.867,10.079,10.079,0,0,1,19.695-.216,6.221,6.221,0,1,1,1.129,12.337H244.47a4.49,4.49,0,1,1,0-8.979" transform="translate(-50.409)" fill="#83c7f8"/>
        <g id="Grupo_245152" data-name="Grupo 245152" transform="translate(189.57)" opacity="0.6">
          <g id="Grupo_245151" data-name="Grupo 245151">
            <g id="Grupo_245150" data-name="Grupo 245150" clip-path="url(#clip-path-39)">
              <path id="Trazado_246646" data-name="Trazado 246646" d="M276.134,9.452a6.263,6.263,0,0,0-1.129.107,10.079,10.079,0,0,0-19.695.216,6.3,6.3,0,0,0-8.4,3.867,4.484,4.484,0,0,0-6.844,2.9,4.482,4.482,0,0,1,4.4-5.357,4.467,4.467,0,0,1,2.439.724,6.3,6.3,0,0,1,8.4-3.866,10.079,10.079,0,0,1,19.695-.216,6.18,6.18,0,0,1,7.285,6.982,6.219,6.219,0,0,0-6.156-5.357" transform="translate(-239.979)" fill="#83c7f8"/>
            </g>
          </g>
        </g>
        <g id="Grupo_245155" data-name="Grupo 245155" transform="translate(11.121 26.489)" opacity="0.4">
          <g id="Grupo_245154" data-name="Grupo 245154">
            <g id="Grupo_245153" data-name="Grupo 245153" clip-path="url(#clip-path-40)">
              <path id="Trazado_246647" data-name="Trazado 246647" d="M43.082,98.739l-4.375,6.5c-.343.509.479.983.819.479q2.187-3.25,4.374-6.5c.344-.509-.479-.983-.818-.479" transform="translate(-19.234 -47.185)" fill="#83c7f8"/>
              <path id="Trazado_246648" data-name="Trazado 246648" d="M56.587,114.337q-2.187,3.25-4.374,6.5c-.344.509.479.983.818.479l4.375-6.5c.343-.509-.479-.983-.819-.479" transform="translate(-22.071 -50.461)" fill="#83c7f8"/>
              <path id="Trazado_246649" data-name="Trazado 246649" d="M79.9,100.15l-4.374,6.5c-.343.51.479.983.819.479l4.374-6.5c.343-.51-.479-.984-.819-.479" transform="translate(-26.969 -47.481)" fill="#83c7f8"/>
              <path id="Trazado_246650" data-name="Trazado 246650" d="M18.535,134.174l-4.375,6.5c-.343.509.479.983.819.479l4.374-6.5c.344-.51-.479-.983-.818-.479" transform="translate(-14.078 -54.628)" fill="#83c7f8"/>
              <path id="Trazado_246651" data-name="Trazado 246651" d="M31.975,165.572l-4.375,6.5c-.343.51.479.984.819.479l4.374-6.5c.344-.509-.479-.983-.818-.479" transform="translate(-16.901 -61.223)" fill="#83c7f8"/>
              <path id="Trazado_246652" data-name="Trazado 246652" d="M79.9,135.071l-4.374,6.5c-.343.51.479.983.819.479l4.374-6.5c.343-.51-.479-.983-.819-.479" transform="translate(-26.969 -54.816)" fill="#83c7f8"/>
              <path id="Trazado_246653" data-name="Trazado 246653" d="M107.164,84.079q-2.187,3.253-4.375,6.5c-.343.509.479.983.819.479q2.187-3.25,4.374-6.5c.344-.509-.479-.983-.818-.479" transform="translate(-32.695 -44.105)" fill="#83c7f8"/>
              <path id="Trazado_246654" data-name="Trazado 246654" d="M95.7,62.664q-2.189,3.25-4.375,6.5c-.343.51.479.983.819.479l4.374-6.5c.343-.51-.479-.983-.818-.479" transform="translate(-30.287 -39.607)" fill="#83c7f8"/>
              <path id="Trazado_246655" data-name="Trazado 246655" d="M123.851,54.656q-2.187,3.251-4.374,6.5c-.344.51.479.983.818.479q2.187-3.251,4.374-6.5c.344-.509-.479-.983-.818-.479" transform="translate(-36.2 -37.925)" fill="#83c7f8"/>
              <path id="Trazado_246656" data-name="Trazado 246656" d="M138.211,79.388l-4.374,6.5c-.343.509.479.983.819.479l4.374-6.5c.343-.51-.479-.983-.819-.479" transform="translate(-39.217 -43.12)" fill="#83c7f8"/>
              <path id="Trazado_246657" data-name="Trazado 246657" d="M160.743,54.656l-4.374,6.5c-.343.51.479.983.819.479l4.374-6.5c.343-.509-.479-.983-.819-.479" transform="translate(-43.95 -37.925)" fill="#83c7f8"/>
              <path id="Trazado_246658" data-name="Trazado 246658" d="M328.956,106.438q-2.187,3.251-4.375,6.5c-.343.51.48.983.82.479q2.187-3.25,4.374-6.5c.343-.51-.479-.983-.819-.479" transform="translate(-79.284 -48.802)" fill="#83c7f8"/>
              <path id="Trazado_246659" data-name="Trazado 246659" d="M350.063,130.556q-2.187,3.251-4.374,6.5c-.343.509.479.983.819.479l4.375-6.5c.343-.51-.48-.983-.82-.479" transform="translate(-83.718 -53.868)" fill="#83c7f8"/>
              <path id="Trazado_246660" data-name="Trazado 246660" d="M309.132,115.179q-2.187,3.251-4.374,6.5c-.343.509.479.983.819.479l4.375-6.5c.343-.51-.48-.983-.82-.479" transform="translate(-75.12 -50.638)" fill="#83c7f8"/>
              <path id="Trazado_246661" data-name="Trazado 246661" d="M353.6,160.753l-4.374,6.5c-.343.51.479.984.819.48l4.375-6.5c.342-.509-.48-.983-.82-.478" transform="translate(-84.461 -60.211)" fill="#83c7f8"/>
              <path id="Trazado_246662" data-name="Trazado 246662" d="M225.419,39.589l-4.374,6.5c-.343.51.479.983.819.479l4.374-6.5c.343-.509-.48-.983-.819-.479" transform="translate(-57.535 -34.76)" fill="#83c7f8"/>
              <path id="Trazado_246663" data-name="Trazado 246663" d="M261.241,46q-2.187,3.253-4.375,6.5c-.343.509.48.983.82.479l4.374-6.5c.343-.509-.48-.983-.819-.479" transform="translate(-65.06 -36.108)" fill="#83c7f8"/>
              <path id="Trazado_246664" data-name="Trazado 246664" d="M283.551,33.748l-4.374,6.5c-.343.51.479.983.819.479l4.374-6.5c.343-.51-.479-.984-.819-.479" transform="translate(-69.746 -33.533)" fill="#83c7f8"/>
              <path id="Trazado_246665" data-name="Trazado 246665" d="M302.9,54.656q-2.187,3.251-4.374,6.5c-.343.51.479.983.82.479q2.186-3.251,4.374-6.5c.343-.509-.48-.983-.82-.479" transform="translate(-73.81 -37.925)" fill="#83c7f8"/>
            </g>
          </g>
        </g>
      </g>
    </g>
  </g>
</svg>
