<svg id="Grupo_244354" data-name="Grupo 244354" xmlns="http://www.w3.org/2000/svg" xmlns:xlink="http://www.w3.org/1999/xlink" width="60.52" height="61.728" viewBox="0 0 60.52 61.728">
  <defs>
    <clipPath id="clip-path">
      <rect id="Rectángulo_316994" data-name="Rectángulo 316994" width="60.52" height="61.728" fill="none"/>
    </clipPath>
  </defs>
  <g id="Grupo_244353" data-name="Grupo 244353" clip-path="url(#clip-path)">
    <path id="Trazado_245653" data-name="Trazado 245653" d="M44.484,34.832c-.372,1.518-.721,2.95-1.075,4.381-.262,1.06-.448,1.216-1.506,1.216q-13.215,0-26.431,0c-1.317,0-1.625-.414-1.308-1.71.307-1.258.609-2.517.927-3.832-.248-.022-.44-.053-.632-.053-2.393,0-4.787-.013-7.18,0a5.131,5.131,0,0,0-5.329,5.28c-.024,3.132-.013,6.264,0,9.4a2.678,2.678,0,0,0,2.887,2.921c1.016.01,2.031,0,3.174,0,0-.746,0-1.446,0-2.146.013-2.259,1.185-3.428,3.448-3.429q11.458,0,22.917,0c2.267,0,3.415,1.16,3.424,3.442,0,.681,0,1.363,0,2.088h6.081c0-1.451,0-2.869,0-4.287,0-2.087.939-3.014,3.045-3.015q5.348,0,10.694,0c1.942,0,2.9.965,2.9,2.918q0,5.424,0,10.847a2.535,2.535,0,0,1-2.856,2.874q-5.462,0-10.924,0a2.556,2.556,0,0,1-2.859-2.885c0-1.449,0-2.9,0-4.4H37.8c0,.717,0,1.445,0,2.174a3.054,3.054,0,0,1-3.361,3.372q-11.535.018-23.069,0A3.065,3.065,0,0,1,8.008,56.6c-.006-.708,0-1.416,0-2.216-1.054,0-2.039,0-3.024,0a4.674,4.674,0,0,1-4.977-4.97Q0,44.792.006,40.17a7.12,7.12,0,0,1,7.31-7.281c2.723-.009,5.445,0,8.253,0,.359-1.443.715-2.864,1.067-4.286.3-1.214.408-1.3,1.657-1.3q13.1,0,26.2,0c1.437,0,1.724.367,1.388,1.762-.3,1.235-.6,2.469-.889,3.686.071.058.108.114.145.114,2.775,0,5.553.085,8.323-.024A4.946,4.946,0,0,0,58.084,28c.062-4.048.047-8.1.015-12.145-.014-1.8-1.477-2.891-3.444-2.592,0,.712.006,1.442,0,2.172a3.07,3.07,0,0,1-3.385,3.35q-9.969,0-19.938,0a3.055,3.055,0,0,1-3.379-3.345c0-.712,0-1.424,0-2.2H24.53c-.3,1.359-.317,1.371-1.7,1.582-.352.054-.7.111-1.056.163-1.21.182-1.569,1.029-.854,2.021.343.475.687.948,1.027,1.425a1.013,1.013,0,0,1-.119,1.442q-.969.976-1.944,1.945a1.043,1.043,0,0,1-1.506.1q-.678-.5-1.36-.986c-1.02-.735-1.857-.364-2.045.9-.083.553-.191,1.1-.275,1.656a1.006,1.006,0,0,1-1.1.943c-.917.01-1.833,0-2.75,0a1.038,1.038,0,0,1-1.138-.99c-.079-.528-.172-1.055-.252-1.583-.2-1.317-1.023-1.674-2.088-.9-.454.328-.906.659-1.362.984a1.016,1.016,0,0,1-1.444-.1c-.651-.645-1.3-1.3-1.947-1.942a1.033,1.033,0,0,1-.121-1.5c.391-.534.78-1.069,1.163-1.609a1.137,1.137,0,0,0-.74-1.759c-.651-.117-1.3-.226-1.958-.322A.99.99,0,0,1,.007,13.63C0,12.687,0,11.745.006,10.8A.967.967,0,0,1,.884,9.74c.652-.112,1.306-.21,1.958-.321a1.139,1.139,0,0,0,.783-1.832q-.556-.776-1.12-1.546a1.03,1.03,0,0,1,.113-1.5C3.271,3.9,3.917,3.248,4.564,2.6A1.008,1.008,0,0,1,6,2.481c.457.324.908.656,1.362.983,1.075.776,1.892.432,2.094-.878.085-.553.179-1.1.27-1.657A1,1,0,0,1,10.834,0q1.375,0,2.75,0a1.015,1.015,0,0,1,1.124.992c.072.529.185,1.053.264,1.581.194,1.3,1.031,1.658,2.087.893.453-.329.906-.659,1.362-.984a1.013,1.013,0,0,1,1.443.11c.668.664,1.337,1.328,2,2a.99.99,0,0,1,.1,1.383c-.364.522-.745,1.032-1.117,1.548a1.143,1.143,0,0,0,.819,1.908c.4.065.8.129,1.207.19,1.347.2,1.388.24,1.648,1.584h3.43c0-.814-.007-1.593,0-2.371A2.992,2.992,0,0,1,31.1,5.653q10.2-.016,20.4,0a3,3,0,0,1,3.15,3.112c.024.785,0,1.572,0,2.437.407.026.754.044,1.1.071a4.592,4.592,0,0,1,4.294,4.543c.03,4.048.044,8.1,0,12.145a7.073,7.073,0,0,1-7.017,6.863c-2.546.033-5.093.007-7.639.008h-.9M22.917,58.053q5.729,0,11.458,0c1.144,0,1.5-.36,1.5-1.517q.008-3.132,0-6.264c0-1.125-.356-1.493-1.446-1.494q-11.535-.006-23.07,0c-1.055,0-1.412.369-1.415,1.437q-.009,3.132,0,6.264c0,1.251.326,1.573,1.59,1.574q5.691,0,11.382,0M16.225,38.436a4.838,4.838,0,0,0,.506.058q12.141,0,24.283.015c.5,0,.639-.2.743-.635.633-2.672,1.3-5.338,1.944-8.007.046-.188.059-.384.085-.566a.755.755,0,0,0-.189-.07q-12.332-.009-24.664.007a.832.832,0,0,0-.571.5c-.239.749-.4,1.524-.585,2.29-.515,2.12-1.028,4.242-1.552,6.4M41.26,7.588c-3.332,0-6.665-.006-10,0-1.039,0-1.374.339-1.379,1.381q-.018,3.243,0,6.487c.006,1.033.356,1.38,1.381,1.381q10.035.006,20.07,0c1.008,0,1.378-.374,1.381-1.382q.01-3.167,0-6.334c0-1.214-.316-1.533-1.537-1.534q-4.96-.007-9.92,0M58.58,53.476c0-1.831-.017-3.662.009-5.492.01-.672-.206-.961-.921-.956q-5.454.036-10.909,0c-.693,0-.943.245-.939.939q.032,5.454,0,10.908c0,.644.212.917.882.914q5.492-.027,10.985,0c.66,0,.908-.242.9-.9-.024-1.805-.008-3.611-.008-5.416M19.973,5.433,19,4.456c-.639.46-1.243.879-1.83,1.322a1.193,1.193,0,0,1-1.415.109,8.64,8.64,0,0,0-1.544-.646A1.2,1.2,0,0,1,13.263,4.1a9.052,9.052,0,0,0-.291-1.65.933.933,0,0,0-.573-.486,3.033,3.033,0,0,0-.873-.02,9.952,9.952,0,0,0-.2,1.243c-.036,1.229-.479,2.093-1.818,2.3-.312.049-.586.358-.9.4a2.26,2.26,0,0,1-1.261-.1A16.135,16.135,0,0,1,5.523,4.52l-1.078.9a13.239,13.239,0,0,0,.95,1.3,1.75,1.75,0,0,1,.241,2.46c-.224.324-.224.8-.452,1.123a2.257,2.257,0,0,1-.968.818c-.565.2-1.2.191-1.793.343a.786.786,0,0,0-.462.506c-.136.627,0,1.107.81,1.069.223-.01.45.1.677.1a1.764,1.764,0,0,1,1.968,1.593,2.214,2.214,0,0,0,.371.832,1.325,1.325,0,0,1-.108,1.743c-.434.527-.809,1.1-1.192,1.632l.924,1.046a17.874,17.874,0,0,1,1.932-1.356,1.932,1.932,0,0,1,1.256-.1c.585.142,1.119.479,1.7.671a1.167,1.167,0,0,1,.866,1.039c.1.725.235,1.445.35,2.147,1.357.239,1.359.239,1.578-1a4.7,4.7,0,0,1,.219-1.194,2.373,2.373,0,0,1,.823-.959c.489-.3,1.089-.424,1.6-.7a1.23,1.23,0,0,1,1.479.133c.576.445,1.18.854,1.649,1.191l1.093-.913c-.389-.537-.718-1.053-1.11-1.517a1.456,1.456,0,0,1-.179-1.937,4.785,4.785,0,0,0,.51-1.269,1.2,1.2,0,0,1,1.117-.974c.724-.088,1.441-.242,2.151-.366V11.516c-.764-.125-1.489-.236-2.212-.364-.979-.172-2.187-2.934-1.656-3.777.095-.15.209-.289.313-.433l1.085-1.509" transform="translate(0 -0.001)"/>
    <path id="Trazado_245654" data-name="Trazado 245654" d="M78.049,328.513q-5.691,0-11.382,0c-1.263,0-1.588-.323-1.59-1.574q0-3.132,0-6.264c0-1.068.36-1.437,1.415-1.437q11.535-.006,23.07,0c1.089,0,1.442.369,1.446,1.494q.009,3.132,0,6.264c0,1.157-.357,1.515-1.5,1.517q-5.729.006-11.458,0m-4.917-3.67c1.425,0,2.849,0,4.273,0,.817,0,1.275-.374,1.26-.993-.015-.591-.456-.949-1.23-.951q-4.273-.011-8.547,0c-.772,0-1.211.365-1.22.96-.01.622.442.981,1.267.985,1.4.006,2.8,0,4.2,0M84.4,322.895c-.914,0-1.828-.009-2.742,0-.783.01-1.2.354-1.2.968s.413.971,1.189.975q2.78.013,5.56,0c.751,0,1.214-.385,1.217-.964s-.458-.969-1.206-.979c-.939-.013-1.879,0-2.818,0" transform="translate(-55.132 -270.461)" fill="#fe646f"/>
    <path id="Trazado_245655" data-name="Trazado 245655" d="M106.194,200.5c.523-2.16,1.037-4.281,1.552-6.4.186-.766.345-1.541.585-2.29a.832.832,0,0,1,.571-.5q12.332-.032,24.664-.008a.761.761,0,0,1,.189.07c-.027.182-.04.378-.085.566-.649,2.669-1.311,5.334-1.944,8.007-.1.437-.242.636-.743.634q-12.141-.026-24.283-.015a4.832,4.832,0,0,1-.506-.058m18.643-3.605c1.4,0,2.8,0,4.194,0,.9,0,1.342-.336,1.328-.992-.014-.624-.441-.947-1.3-.948q-4.194-.007-8.388,0c-.836,0-1.293.347-1.3.956s.452.98,1.273.984c1.4.007,2.8,0,4.194,0m-11.179-1.943c-.939,0-1.878-.009-2.817,0-.777.01-1.2.36-1.205.963s.42.97,1.192.974q2.779.014,5.558,0c.76,0,1.213-.376,1.216-.961s-.448-.966-1.2-.976c-.913-.012-1.827,0-2.741,0" transform="translate(-89.969 -162.063)" fill="#ffe177"/>
    <path id="Trazado_245656" data-name="Trazado 245656" d="M206.924,49.65q4.96,0,9.921,0c1.221,0,1.536.321,1.537,1.534q0,3.167,0,6.334c0,1.008-.373,1.381-1.381,1.382q-10.035.006-20.07,0c-1.025,0-1.375-.348-1.381-1.381q-.018-3.243,0-6.487c.006-1.041.341-1.378,1.379-1.381,3.332-.009,6.665,0,10,0m-4.356,5.578c1.295,0,2.59-.009,3.885,0,.652.006,1.1-.236,1.166-.921.058-.594-.4-.994-1.168-1q-3.846-.018-7.693,0c-.71,0-1.136.4-1.136.961s.428.942,1.138.949c1.269.012,2.539,0,3.808,0m10.055,0h2.59c.626,0,1.042-.276,1.057-.933s-.4-.97-1.019-.975c-1.727-.016-3.454-.012-5.181,0a.946.946,0,0,0-1.07.943c-.038.577.4.957,1.108.968.838.013,1.676,0,2.514,0" transform="translate(-165.664 -42.063)" fill="#6cf5c2"/>
    <path id="Trazado_245657" data-name="Trazado 245657" d="M312.665,314.25c0,1.805-.016,3.611.008,5.416.009.655-.239.9-.9.9q-5.492-.028-10.985,0c-.671,0-.886-.269-.882-.914q.027-5.454,0-10.908c0-.694.246-.943.939-.939q5.454.032,10.909,0c.714,0,.93.284.921.956-.026,1.83-.009,3.662-.009,5.492m-7.077.847c-.575-.639-1.085-1.233-1.625-1.8a.92.92,0,0,0-1.415-.1.9.9,0,0,0,.019,1.411c.815.837,1.637,1.668,2.48,2.475a.912.912,0,0,0,1.465-.077q1.824-2.2,3.594-4.44a.927.927,0,0,0-.225-1.447,1.009,1.009,0,0,0-1.388.385c-.918,1.147-1.848,2.285-2.9,3.589" transform="translate(-254.085 -260.775)" fill="#8ac9fe"/>
    <path id="Trazado_245658" data-name="Trazado 245658" d="M30.6,16.1l-1.085,1.509c-.1.145-.218.283-.313.433-.532.842.677,3.6,1.656,3.777.723.127,1.448.239,2.212.363v1.381c-.71.124-1.427.278-2.151.366A1.2,1.2,0,0,0,29.8,24.9a4.785,4.785,0,0,1-.51,1.269,1.456,1.456,0,0,0,.179,1.937c.392.463.721.979,1.11,1.517l-1.093.913c-.469-.337-1.073-.746-1.649-1.191a1.23,1.23,0,0,0-1.479-.133c-.513.273-1.113.393-1.6.7a2.373,2.373,0,0,0-.822.959,4.7,4.7,0,0,0-.219,1.195c-.219,1.236-.22,1.236-1.578,1-.116-.7-.246-1.422-.35-2.147a1.167,1.167,0,0,0-.866-1.039c-.576-.192-1.111-.529-1.7-.671a1.932,1.932,0,0,0-1.256.1,17.854,17.854,0,0,0-1.932,1.356l-.924-1.046c.383-.529.758-1.1,1.192-1.632a1.325,1.325,0,0,0,.108-1.742,2.213,2.213,0,0,1-.371-.832,1.764,1.764,0,0,0-1.968-1.593c-.227-.008-.453-.115-.677-.1-.807.037-.946-.443-.81-1.069a.786.786,0,0,1,.461-.506c.589-.152,1.228-.14,1.793-.343a2.256,2.256,0,0,0,.968-.818c.228-.319.228-.8.452-1.123a1.75,1.75,0,0,0-.241-2.46,13.257,13.257,0,0,1-.95-1.3l1.078-.9a16.133,16.133,0,0,0,1.826,1.274,2.26,2.26,0,0,0,1.261.1c.311-.04.585-.348.9-.4,1.339-.21,1.782-1.073,1.818-2.3a9.952,9.952,0,0,1,.2-1.243,3.027,3.027,0,0,1,.873.02.933.933,0,0,1,.573.486,9.076,9.076,0,0,1,.291,1.65,1.2,1.2,0,0,0,.946,1.137,8.64,8.64,0,0,1,1.544.646,1.193,1.193,0,0,0,1.415-.109c.587-.442,1.19-.862,1.83-1.322l.976.977M28.3,22.988a5.46,5.46,0,1,0-5.549,5.345A5.494,5.494,0,0,0,28.3,22.988" transform="translate(-10.627 -10.664)" fill="#ffe177"/>
    <path id="Trazado_245659" data-name="Trazado 245659" d="M87.512,345.126c-1.4,0-2.8,0-4.2,0-.825,0-1.277-.363-1.267-.985.009-.595.449-.958,1.22-.96q4.273-.011,8.547,0c.774,0,1.215.361,1.23.951.015.619-.443.989-1.26.993-1.424.007-2.849,0-4.273,0" transform="translate(-69.513 -290.743)"/>
    <path id="Trazado_245660" data-name="Trazado 245660" d="M169.711,343.173c.939,0,1.879-.01,2.818,0,.748.01,1.209.4,1.206.979s-.466.961-1.217.964q-2.78.012-5.56,0c-.776,0-1.192-.36-1.189-.975s.416-.959,1.2-.969c.914-.011,1.828,0,2.742,0" transform="translate(-140.443 -290.739)"/>
    <path id="Trazado_245661" data-name="Trazado 245661" d="M197.9,217.19c-1.4,0-2.8,0-4.194,0-.821,0-1.284-.37-1.273-.984s.467-.954,1.3-.956q4.194-.007,8.388,0c.856,0,1.284.324,1.3.948.014.656-.423.989-1.328.992-1.4,0-2.8,0-4.194,0" transform="translate(-163.034 -182.359)"/>
    <path id="Trazado_245662" data-name="Trazado 245662" d="M132.745,215.238c.914,0,1.827-.009,2.741,0,.755.01,1.206.389,1.2.976s-.456.957-1.216.961q-2.779.013-5.558,0c-.772,0-1.2-.367-1.192-.974s.428-.953,1.205-.963c.939-.012,1.878,0,2.817,0" transform="translate(-109.056 -182.35)"/>
    <path id="Trazado_245663" data-name="Trazado 245663" d="M214.12,75.5c-1.269,0-2.539.008-3.808,0-.71-.006-1.138-.38-1.138-.949s.427-.957,1.136-.961q3.846-.021,7.693,0c.763,0,1.226.4,1.168,1-.067.684-.514.927-1.166.921-1.295-.013-2.59,0-3.884,0" transform="translate(-177.216 -62.336)"/>
    <path id="Trazado_245664" data-name="Trazado 245664" d="M287.262,75.517c-.838,0-1.676.01-2.514,0-.706-.011-1.146-.391-1.108-.968a.946.946,0,0,1,1.07-.943c1.727-.007,3.454-.012,5.181,0,.616.006,1.034.314,1.019.976s-.431.932-1.057.933h-2.59" transform="translate(-240.303 -62.353)"/>
    <path id="Trazado_245665" data-name="Trazado 245665" d="M318.387,332.718c1.057-1.3,1.987-2.442,2.905-3.589a1.009,1.009,0,0,1,1.388-.385.927.927,0,0,1,.225,1.447q-1.771,2.241-3.594,4.44a.912.912,0,0,1-1.465.077c-.844-.808-1.665-1.639-2.48-2.476a.9.9,0,0,1-.019-1.411.92.92,0,0,1,1.415.1c.54.564,1.05,1.158,1.625,1.8" transform="translate(-266.886 -278.396)"/>
    <path id="Trazado_245666" data-name="Trazado 245666" d="M55.095,49.728a5.46,5.46,0,1,1-5.324-5.576,5.477,5.477,0,0,1,5.324,5.576m-5.447,3.411a3.518,3.518,0,1,0-.014-7.037,3.518,3.518,0,0,0,.014,7.037" transform="translate(-37.426 -37.404)"/>
  </g>
</svg>
