<svg xmlns="http://www.w3.org/2000/svg" xmlns:xlink="http://www.w3.org/1999/xlink" width="187.999" height="186.95" viewBox="0 0 187.999 186.95">
  <defs>
    <clipPath id="clip-path">
      <path id="Trazado_247001" data-name="Trazado 247001" d="M142.295,141.658a66.112,66.112,0,0,0-11.728,44.837q.294,2.717.817,5.424a3.808,3.808,0,0,0,4.691,2.931,4.177,4.177,0,0,0,3.194-4.779,55.874,55.874,0,0,1-.939-7.479,58.19,58.19,0,0,1,10.521-36.671c18.428-26.657,54.672-34.537,80.8-17.564a53.8,53.8,0,0,1,13.439,12.408l12.778,5.143a60.86,60.86,0,0,0-11.533-16.1,62.021,62.021,0,0,0-10.06-8.145,63.607,63.607,0,0,0-34.813-10.19,69.843,69.843,0,0,0-57.164,30.186" fill="none"/>
    </clipPath>
    <linearGradient id="linear-gradient" x1="-1.015" y1="6.178" x2="-1.007" y2="6.178" gradientUnits="objectBoundingBox">
      <stop offset="0" stop-color="#00574f"/>
      <stop offset="1" stop-color="#fff59d"/>
    </linearGradient>
    <clipPath id="clip-path-2">
      <rect id="Rectángulo_317627" data-name="Rectángulo 317627" width="70.852" height="164.5" transform="translate(142.515 92.763)" fill="none"/>
    </clipPath>
    <clipPath id="clip-path-3">
      <path id="Trazado_247003" data-name="Trazado 247003" d="M178.958,186.627c3.082-25.5,25.59-36.839,27.444-67.036a65.928,65.928,0,0,0-1.741-19.374c-1.31-2.011-2.488-3.8-3.5-5.32a4.779,4.779,0,0,0-7.96,0c-12.584,18.921-50.684,78.4-50.684,104.9,0,31.74,24.474,57.471,54.664,57.471a52.2,52.2,0,0,0,16.188-2.563c-31.205-30.258-36.278-52.611-34.409-68.073" fill="none"/>
    </clipPath>
    <linearGradient id="linear-gradient-2" x1="-0.493" y1="4.317" x2="-0.488" y2="4.317" gradientUnits="objectBoundingBox">
      <stop offset="0" stop-color="#aa80f9"/>
      <stop offset="0.996" stop-color="#6165d7"/>
      <stop offset="1" stop-color="#6165d7"/>
    </linearGradient>
    <clipPath id="clip-path-4">
      <rect id="Rectángulo_317628" data-name="Rectángulo 317628" width="82.545" height="79.453" transform="translate(155.236 144.565)" fill="none"/>
    </clipPath>
    <clipPath id="clip-path-5">
      <path id="Trazado_247008" data-name="Trazado 247008" d="M258.283,164.755a4.176,4.176,0,0,0-3.194,4.779,56.122,56.122,0,0,1,.938,7.475,58.19,58.19,0,0,1-10.521,36.675c-18.428,26.657-54.672,34.537-80.792,17.564a53.844,53.844,0,0,1-12.484-11.2l-13.523-5.931A60.931,60.931,0,0,0,150.025,229.8a61.8,61.8,0,0,0,10.061,8.141c29.738,19.32,71,10.354,91.981-19.992a66.13,66.13,0,0,0,11.724-44.837q-.3-2.717-.817-5.424a3.77,3.77,0,0,0-3.748-3.041,4.159,4.159,0,0,0-.943.11" fill="none"/>
    </clipPath>
    <linearGradient id="linear-gradient-3" x1="-0.849" y1="3.17" x2="-0.842" y2="3.17" gradientUnits="objectBoundingBox">
      <stop offset="0" stop-color="#fff59d"/>
      <stop offset="1" stop-color="#00574f"/>
    </linearGradient>
    <clipPath id="clip-path-6">
      <path id="Trazado_247009" data-name="Trazado 247009" d="M224.2,267.693c-.755.227-2.642,1.434-1.459,1.574s4.668-.15,4.769-.552a7.289,7.289,0,0,0-.05-1.6s-2.507.351-3.26.578" fill="none"/>
    </clipPath>
    <linearGradient id="linear-gradient-4" x1="-35.894" y1="138.454" x2="-35.732" y2="138.454" gradientUnits="objectBoundingBox">
      <stop offset="0" stop-color="#444b8c"/>
      <stop offset="0.996" stop-color="#26264f"/>
      <stop offset="1" stop-color="#26264f"/>
    </linearGradient>
    <clipPath id="clip-path-7">
      <path id="Trazado_247010" data-name="Trazado 247010" d="M225.7,265.115l.367,2.4s.937.421,1.387.005l.05-2.517Z" fill="none"/>
    </clipPath>
    <linearGradient id="linear-gradient-5" x1="-125.11" y1="124.475" x2="-124.556" y2="124.475" gradientUnits="objectBoundingBox">
      <stop offset="0" stop-color="#311944"/>
      <stop offset="1" stop-color="#a03976"/>
    </linearGradient>
    <clipPath id="clip-path-8">
      <path id="Trazado_247011" data-name="Trazado 247011" d="M245.347,265.008s-.74.549-.542,1.206a11.557,11.557,0,0,0,3.152,4.038c1.23.746.844-.81.486-1.78a18.647,18.647,0,0,0-1.629-3.464.764.764,0,0,0-.539-.159,3.571,3.571,0,0,0-.928.159" fill="none"/>
    </clipPath>
    <linearGradient id="linear-gradient-6" x1="-49.743" y1="57.157" x2="-49.54" y2="57.157" xlink:href="#linear-gradient-4"/>
    <clipPath id="clip-path-9">
      <path id="Trazado_247012" data-name="Trazado 247012" d="M244.017,262.366c.357,1,.7,1.816.97,2.42a8.665,8.665,0,0,0,1.288,2.273c.321.378,1.082,1.186,1.286,1.052s-.348-1.118-1.42-4c-.157-.417-.648-1.748-.648-1.748Z" fill="none"/>
    </clipPath>
    <linearGradient id="linear-gradient-7" x1="-65.037" y1="62.557" x2="-64.77" y2="62.557" xlink:href="#linear-gradient-5"/>
    <clipPath id="clip-path-10">
      <path id="Trazado_247013" data-name="Trazado 247013" d="M218.4,220.734a62.325,62.325,0,0,0-.134,11.108c.477,6.146,1.706,10.036,3.247,16.589.942,4.005,2.211,9.9,3.36,17.272a3.25,3.25,0,0,0,2.06.4,3.13,3.13,0,0,0,1.237-.471c3.014-9.208,2.124-14.914.67-18.47a19.883,19.883,0,0,1-1.774-5.04c-.531-3.082.126-4.805,1.064-11.944.668-5.089.553-5.875.108-6.638-1.406-2.414-5.1-2.881-7.884-2.881-.735,0-1.4.033-1.954.071" fill="none"/>
    </clipPath>
    <linearGradient id="linear-gradient-8" x1="-15.032" y1="8.921" x2="-14.962" y2="8.921" gradientUnits="objectBoundingBox">
      <stop offset="0" stop-color="#baeaff"/>
      <stop offset="1" stop-color="#0c2b4c"/>
    </linearGradient>
    <clipPath id="clip-path-11">
      <path id="Trazado_247014" data-name="Trazado 247014" d="M233.8,239.177a47.592,47.592,0,0,1,2.533,6.182,50.37,50.37,0,0,1,1.539,5.89c.637,2.922,2.21,7.189,6.442,12.786a1.609,1.609,0,0,0,1.465.075,1.418,1.418,0,0,0,.592-.615c-.554-5.35-1.189-9.847-1.74-13.317-.116-.728-.625-3.912-1.424-8.119-.313-1.647-.771-4.059-1.32-6.537-.683-3.085-1.731-7.282-3.346-12.313l-9.771-1.4c1.847,9.533,3.659,14.541,5.03,17.373" fill="none"/>
    </clipPath>
    <linearGradient id="linear-gradient-9" x1="-12.206" y1="9.477" x2="-12.152" y2="9.477" xlink:href="#linear-gradient-8"/>
    <clipPath id="clip-path-12">
      <path id="Trazado_247015" data-name="Trazado 247015" d="M223.356,173.755c-1.581,2.115-.51,4.882-.207,5.662,1,2.594,3.007,3.709,4.054,4.678,5.692,5.26-2.163,15.752,2.309,26.6,2.479,6.015,8.317,11.092,12.648,10.44.466-.07,3.355-.506,4.824-2.693,1.141-1.7.527-3.107,1.6-3.832.859-.582,1.843-.072,3.078.437a7.184,7.184,0,0,0,3.275.684c3.033-.194,6.253-3.05,6.6-6.04.246-2.154-1.141-3.912-3.915-7.428s-3.347-3.1-4.517-4.919c-3.571-5.536,1.151-10.331-2.108-15.057a12.181,12.181,0,0,0-8.93-4.638,13.87,13.87,0,0,0-2.507.159,7.668,7.668,0,0,1-4.422-.342,15.75,15.75,0,0,1-3.816-2.507c-2.23-1.839-2.436-2.753-3.748-3.011a3.337,3.337,0,0,0-.64-.061,4.693,4.693,0,0,0-3.575,1.868" fill="none"/>
    </clipPath>
    <linearGradient id="linear-gradient-10" x1="-3.434" y1="7.287" x2="-3.418" y2="7.287" xlink:href="#linear-gradient-8"/>
    <clipPath id="clip-path-13">
      <rect id="Rectángulo_317639" data-name="Rectángulo 317639" width="32.687" height="44.425" transform="translate(226.945 186.72)" fill="none"/>
    </clipPath>
    <clipPath id="clip-path-14">
      <path id="Trazado_247017" data-name="Trazado 247017" d="M253.1,227.157c-1.88-1.78-1.145-3.106-3.212-4.717-2.017-1.574-3.412-.851-4.6-2.406-1.109-1.449-.209-2.48-1.1-4.6-.82-1.943-2.086-2.276-4.53-4.445a19.536,19.536,0,0,1-4.989-5.886c-2.106-4.4-.633-9.1-.135-10.473a15.305,15.305,0,0,1,6.007-7.508c-.112-.122-.245-.261-.388-.406-7.721,1.061-12.223,5.522-12.779,6.843-1.287,3.054.75,4.176.8,12.983.025,4.21-.429,5.872.936,7.629,1.563,2.01,3.363,1.388,5.622,4.015,1.735,2.019,1.457,3.3,3.078,4.149,1.743.915,2.853-.151,4.818.268,3.284.7,3.986,4.487,6.157,6.558,1.642,1.566,4.677,2.662,10.663,1.486a.833.833,0,0,0,.178-.583c-.169-1.164-3.792-.323-6.525-2.911" fill="none"/>
    </clipPath>
    <linearGradient id="linear-gradient-11" x1="-5.51" y1="8.929" x2="-5.486" y2="8.929" gradientUnits="objectBoundingBox">
      <stop offset="0" stop-color="#ffc444"/>
      <stop offset="0.996" stop-color="#f36f56"/>
      <stop offset="1" stop-color="#f36f56"/>
    </linearGradient>
    <clipPath id="clip-path-15">
      <path id="Trazado_247023" data-name="Trazado 247023" d="M207.77,187.795a2.73,2.73,0,0,0-1.813,2.834,4.944,4.944,0,0,0,1.461,2.631c-.489-1.64.536-2.543,1.183-3.936.52-1.12.289-1.614-.323-1.614a1.813,1.813,0,0,0-.508.085" fill="none"/>
    </clipPath>
    <linearGradient id="linear-gradient-12" x1="-33.609" y1="102.444" x2="-33.445" y2="102.444" xlink:href="#linear-gradient-5"/>
  </defs>
  <g id="Grupo_245410" data-name="Grupo 245410" transform="translate(3194.998 1337.145)">
    <path id="Trazado_246999" data-name="Trazado 246999" d="M290.236,165.288c-5.1-33.353-25.988-74.33-67.262-78.618,0,0-31.338-3.812-62.23,1.965-18.334,3.429-34.41,13.635-44.583,28.3a61.384,61.384,0,0,0-9.447,49.61c2.679,11.076,4.489,22.539,3.992,33.921-.865,19.808-.367,38.3,18.856,50.111,17.165,10.548,38.766,19.85,59.374,21.48a132.408,132.408,0,0,0,43.21-4.331c68.791-18.583,63.186-69.089,58.09-102.442" transform="translate(-3300 -1422.581)" fill="#f4f7fa"/>
    <path id="Trazado_247000" data-name="Trazado 247000" d="M144.51,171.887l-9.726,16.853-16.6-8.835,2.917,10.9,16.6,8.827,9.729-16.845Z" transform="translate(-3300 -1422.581)" fill="#00574f"/>
    <g id="Grupo_245374" data-name="Grupo 245374" transform="translate(-3300 -1422.581)" clip-path="url(#clip-path)">
      <rect id="Rectángulo_317625" data-name="Rectángulo 317625" width="126.975" height="83.977" transform="translate(128.89 111.384)" fill="url(#linear-gradient)"/>
    </g>
    <path id="Trazado_247002" data-name="Trazado 247002" d="M201.159,94.9a4.78,4.78,0,0,0-7.96,0c-12.585,18.923-50.684,78.4-50.684,104.9,0,31.741,24.474,57.47,54.664,57.47s54.664-25.729,54.664-57.47c0-26.5-38.1-85.973-50.684-104.9" transform="translate(-3300 -1422.581)" fill="#144677"/>
    <g id="Grupo_245380" data-name="Grupo 245380" transform="translate(-3300 -1422.581)" opacity="0.3" style="mix-blend-mode: multiply;isolation: isolate">
      <g id="Grupo_245379" data-name="Grupo 245379">
        <g id="Grupo_245378" data-name="Grupo 245378" clip-path="url(#clip-path-2)">
          <g id="Grupo_245377" data-name="Grupo 245377">
            <g id="Grupo_245376" data-name="Grupo 245376" clip-path="url(#clip-path-3)">
              <rect id="Rectángulo_317626" data-name="Rectángulo 317626" width="179.121" height="119.306" transform="translate(93.103 240.855) rotate(-71.631)" fill="url(#linear-gradient-2)"/>
            </g>
          </g>
        </g>
      </g>
    </g>
    <g id="Grupo_245383" data-name="Grupo 245383" transform="translate(-3300 -1422.581)" style="mix-blend-mode: overlay;isolation: isolate">
      <g id="Grupo_245382" data-name="Grupo 245382">
        <g id="Grupo_245381" data-name="Grupo 245381" clip-path="url(#clip-path-4)">
          <path id="Trazado_247004" data-name="Trazado 247004" d="M204.033,146.247c-11.329-5.6-25.778,3.744-31.435,13.965a26.17,26.17,0,0,0-2.8,7.826,55.473,55.473,0,0,0-3.682,8.74,1.041,1.041,0,0,0,.69,1.3q.04.012.081.021a1.04,1.04,0,0,0,1.218-.711c.054-.176,5.526-17.67,15.58-20.644,10.077-2.981,21.8,5.885,21.918,5.975,0,0-20.517-14.032-29.755,4.245a12.681,12.681,0,0,1,3.513-1.093c7.228-1.11,11.256,4.928,19.956,5.816,3.762.384,9.208-.113,16.178-4.335-.288-9.194-4.416-17.618-11.463-21.1" fill="#fff"/>
          <path id="Trazado_247005" data-name="Trazado 247005" d="M231.952,217.773c9.445-8.4,6.2-25.3-1.148-34.378a26.183,26.183,0,0,0-6.205-5.531,55.427,55.427,0,0,0-6.719-6.693,1.04,1.04,0,0,0-1.463.152l-.05.067a1.04,1.04,0,0,0,.2,1.4c.143.117,14.3,11.753,13.289,22.189-1.018,10.459-13.636,18-13.763,18.074,0,0,20.706-13.753,7.231-29.174a12.7,12.7,0,0,1-.305,3.667c-1.683,7.115-8.792,8.583-12.879,16.315-1.768,3.343-3.351,8.577-2.054,16.622,8.631,3.183,17.989,2.518,23.864-2.706" fill="#fff"/>
          <path id="Trazado_247006" data-name="Trazado 247006" d="M155.279,204c.917,12.6,16.3,20.316,27.98,20.008a26.19,26.19,0,0,0,8.164-1.558,55.583,55.583,0,0,0,9.4-1.259,1.04,1.04,0,0,0,.769-1.254.818.818,0,0,0-.023-.081,1.04,1.04,0,0,0-1.23-.689c-.18.043-18.031,4.2-25.694-2.956-7.68-7.172-5.986-21.773-5.968-21.919,0,0-1.686,24.8,18.751,23.49a12.739,12.739,0,0,1-2.724-2.473c-4.623-5.666-1.462-12.2-5.11-20.149-1.577-3.437-4.768-7.878-11.942-11.744-7.777,4.912-12.944,12.743-12.373,20.584" fill="#fff"/>
        </g>
      </g>
    </g>
    <path id="Trazado_247007" data-name="Trazado 247007" d="M249.848,187.717l9.726-16.853,16.6,8.835-2.917-10.9-16.6-8.827-9.729,16.845Z" transform="translate(-3300 -1422.581)" fill="#00574f"/>
    <g id="Grupo_245386" data-name="Grupo 245386" transform="translate(-3300 -1422.581)" clip-path="url(#clip-path-5)">
      <rect id="Rectángulo_317630" data-name="Rectángulo 317630" width="149.817" height="156.987" transform="translate(94.442 224.551) rotate(-53.539)" fill="url(#linear-gradient-3)"/>
    </g>
    <g id="Grupo_245388" data-name="Grupo 245388" transform="translate(-3300 -1422.581)" clip-path="url(#clip-path-6)">
      <rect id="Rectángulo_317631" data-name="Rectángulo 317631" width="6.171" height="2.623" transform="matrix(0.998, -0.055, 0.055, 0.998, 221.426, 267.122)" fill="url(#linear-gradient-4)"/>
    </g>
    <g id="Grupo_245390" data-name="Grupo 245390" transform="translate(-3300 -1422.581)" clip-path="url(#clip-path-7)">
      <rect id="Rectángulo_317632" data-name="Rectángulo 317632" width="1.804" height="2.933" transform="translate(225.701 265.008)" fill="url(#linear-gradient-5)"/>
    </g>
    <g id="Grupo_245392" data-name="Grupo 245392" transform="translate(-3300 -1422.581)" clip-path="url(#clip-path-8)">
      <rect id="Rectángulo_317633" data-name="Rectángulo 317633" width="4.914" height="6.394" transform="matrix(0.998, -0.055, 0.055, 0.998, 244.266, 264.868)" fill="url(#linear-gradient-6)"/>
    </g>
    <g id="Grupo_245394" data-name="Grupo 245394" transform="translate(-3300 -1422.581)" clip-path="url(#clip-path-9)">
      <rect id="Rectángulo_317634" data-name="Rectángulo 317634" width="3.752" height="5.879" transform="translate(244.017 262.366)" fill="url(#linear-gradient-7)"/>
    </g>
    <g id="Grupo_245396" data-name="Grupo 245396" transform="translate(-3300 -1422.581)" clip-path="url(#clip-path-10)">
      <rect id="Rectángulo_317635" data-name="Rectángulo 317635" width="14.457" height="45.921" transform="translate(216.726 220.693) rotate(-1.481)" fill="url(#linear-gradient-8)"/>
    </g>
    <g id="Grupo_245398" data-name="Grupo 245398" transform="translate(-3300 -1422.581)" clip-path="url(#clip-path-11)">
      <rect id="Rectángulo_317636" data-name="Rectángulo 317636" width="18.698" height="43.111" transform="translate(227.672 221.833) rotate(-1.481)" fill="url(#linear-gradient-9)"/>
    </g>
    <g id="Grupo_245400" data-name="Grupo 245400" transform="translate(-3300 -1422.581)" clip-path="url(#clip-path-12)">
      <rect id="Rectángulo_317637" data-name="Rectángulo 317637" width="61.459" height="63.837" transform="matrix(0.817, -0.577, 0.577, 0.817, 198.266, 188.482)" fill="url(#linear-gradient-10)"/>
    </g>
    <path id="Trazado_247016" data-name="Trazado 247016" d="M209.436,187.1c-.029-3.028,6.849-5.448,10-6.227a22.281,22.281,0,0,1,9.768-.25,21.82,21.82,0,0,1,11.339,6.5,15.3,15.3,0,0,0-6.008,7.509c-.5,1.374-1.97,6.072.135,10.473a19.548,19.548,0,0,0,4.989,5.886c2.445,2.168,3.711,2.5,4.53,4.444.893,2.116-.007,3.148,1.1,4.6,1.19,1.556,2.585.833,4.6,2.406,2.067,1.611,1.332,2.937,3.213,4.718,2.733,2.587,6.356,1.747,6.524,2.911.146,1-2.429,2.36-4.617,2.911a13.54,13.54,0,0,1-9.235-1.305c-3.111-1.563-2.574-2.575-4.946-3.766-3.972-2-6.686.225-15.733.454-4.9.123-7.376.151-8.733-1.506-1.239-1.514-.588-3.175.156-10.332.354-3.406.482-6.832.743-10.247.738-9.659.76-10.509.1-11.844-2.347-4.784-7.9-4.611-7.93-7.328" transform="translate(-3300 -1422.581)" fill="#fff59d"/>
    <g id="Grupo_245406" data-name="Grupo 245406" transform="translate(-3300 -1422.581)" opacity="0.3" style="mix-blend-mode: multiply;isolation: isolate">
      <g id="Grupo_245405" data-name="Grupo 245405">
        <g id="Grupo_245404" data-name="Grupo 245404" clip-path="url(#clip-path-13)">
          <g id="Grupo_245403" data-name="Grupo 245403">
            <g id="Grupo_245402" data-name="Grupo 245402" clip-path="url(#clip-path-14)">
              <rect id="Rectángulo_317638" data-name="Rectángulo 317638" width="40.408" height="49.933" transform="translate(218.9 187.895) rotate(-9.287)" fill="url(#linear-gradient-11)"/>
            </g>
          </g>
        </g>
      </g>
    </g>
    <path id="Trazado_247018" data-name="Trazado 247018" d="M229.713,195.939c-.821,1.743,2.951,5.8,7.143,7.73.854.393,6.987,3.213,9.721.5,2.259-2.241.8-6.874.28-8.529-2.555-8.123-10.4-12.255-13.693-13.745-2.454,6.138-1.009,8.873-.44,9.727a32.716,32.716,0,0,0,4.016,4.416c1.239,1.161,2.011,1.726,1.907,1.908-.129.225-1.582-.2-7.224-2.947a2.2,2.2,0,0,0-1.71.939" transform="translate(-3300 -1422.581)" fill="#fff59d"/>
    <path id="Trazado_247019" data-name="Trazado 247019" d="M206.1,185.925l2.769,13.788a1.131,1.131,0,0,0,.871.883l20.644,4.43a1.131,1.131,0,0,0,1.365-1.194l-1.09-14.022a1.128,1.128,0,0,0-.856-1.01c-3.275-.809-15.879-3.835-22.526-4.229a1.132,1.132,0,0,0-1.177,1.354" transform="translate(-3300 -1422.581)" fill="#fff"/>
    <path id="Trazado_247020" data-name="Trazado 247020" d="M226.693,175.856s.389,3.113,1.538,3.826,3.007,1.645,3.211,1.9-7.117,1.04-10.746-.792c1.2-.249,1.521-.341,1.521-.341a6.723,6.723,0,0,0,1.537-.608,5.227,5.227,0,0,0,1.69-1.563l-.014-1.723Z" transform="translate(-3300 -1422.581)" fill="#f9d9d9"/>
    <path id="Trazado_247021" data-name="Trazado 247021" d="M226.868,176.958a1.724,1.724,0,0,1-1.924.6c-1.052-.384-.424-3.1.41-3.411a1.478,1.478,0,0,1,1.131.156,1.635,1.635,0,0,1,.514,1.84c.266-.077.5-.007.559.125.074.166-.151.394-.2.445a.889.889,0,0,1-.488.245" transform="translate(-3300 -1422.581)" fill="#f9d9d9"/>
    <path id="Trazado_247022" data-name="Trazado 247022" d="M224.694,197.846c-2.217-.625-4.056.927-5.822-.3-1.809-1.258-.629-3.408-2.51-5.521-2.011-2.26-4.562-1.153-6.424-3.212a5.912,5.912,0,0,1-1.322-4.135q-.7-.067-1.336-.106a1.131,1.131,0,0,0-1.176,1.354l2.768,13.787a1.132,1.132,0,0,0,.872.884l19.839,4.257c-1.4-4.914-3.27-6.551-4.889-7.007" transform="translate(-3300 -1422.581)" fill="#f4f7fa"/>
    <g id="Grupo_245409" data-name="Grupo 245409" transform="translate(-3300 -1422.581)" clip-path="url(#clip-path-15)">
      <rect id="Rectángulo_317641" data-name="Rectángulo 317641" width="6.082" height="4.313" transform="matrix(0.192, -0.981, 0.981, 0.192, 204.767, 193.055)" fill="url(#linear-gradient-12)"/>
    </g>
  </g>
</svg>
