<svg xmlns="http://www.w3.org/2000/svg" width="817.57" height="341.7" viewBox="0 0 817.57 341.7">
  <g id="Grupo_245333" data-name="Grupo 245333" transform="translate(-391 -1477)">
    <path id="Trazado_245708" data-name="Trazado 245708" d="M392.528,362.086a6.548,6.548,0,0,1,12.5-2.652.989.989,0,0,1-.84,1.419,1.016,1.016,0,0,1-1-.639,4.53,4.53,0,1,0-4.133,6.442,4.4,4.4,0,0,0,3.909-2.2c.087-.137.155-.286.248-.418a.967.967,0,0,1,1.31-.286.986.986,0,0,1,.391,1.322,6.38,6.38,0,0,1-5.037,3.527,6.574,6.574,0,0,1-6.978-4.35,6.675,6.675,0,0,1-.368-2.168" transform="translate(66.661 1183.188)" fill="#00574f"/>
    <path id="Trazado_245709" data-name="Trazado 245709" d="M410.182,376.614a3.48,3.48,0,1,1,3.457,3.5,3.467,3.467,0,0,1-3.457-3.5m4.964,0a1.489,1.489,0,1,0-1.491,1.5,1.507,1.507,0,0,0,1.491-1.5" transform="translate(52.077 1168.697)" fill="#00574f"/>
    <path id="Trazado_245702" data-name="Trazado 245702" d="M51.785,103.57a51.785,51.785,0,0,1-36.618-88.4A51.785,51.785,0,1,1,88.4,88.4,51.446,51.446,0,0,1,51.785,103.57m0-96.621A44.836,44.836,0,1,0,96.621,51.785,44.887,44.887,0,0,0,51.785,6.949" transform="translate(391 1477)" fill="#00574f"/>
    <path id="Trazado_245703" data-name="Trazado 245703" d="M135.236,143.864c.806,2.638,1.6,5.243,2.4,7.847q.945,3.089,1.889,6.179a.276.276,0,0,0,.272.233q2.1.217,4.207.451c1.331.147,2.662.3,3.993.448.659.073,1.319.132,1.978.208.176.02.2-.05.2-.2q-.007-2.56,0-5.121c0-.776-.006-1.552,0-2.328a2.317,2.317,0,0,1,1.9-2.253,5.113,5.113,0,0,1,.561-.042v-.237c0-1.947.008-3.894,0-5.84a1.4,1.4,0,0,1,.651-1.285c.475-.316.922-.675,1.376-1.02a1,1,0,0,1,1.6.44.983.983,0,0,1-.343,1.116c-.363.292-.745.557-1.113.843a.324.324,0,0,0-.125.214q-.009,2.857,0,5.713c0,.014.005.027,0,.006a6.634,6.634,0,0,1,.93.288,2.244,2.244,0,0,1,1.341,2.045c.03.619.014,1.241.007,1.862a1.006,1.006,0,0,1-.984,1.036.994.994,0,0,1-1.022-.994c-.021-.57-.009-1.142-.011-1.714,0-.368-.093-.468-.459-.47q-.91-.005-1.821,0c-.372,0-.475.11-.475.482q0,3.767,0,7.533c0,.112.024.173.141.186l2.5.268a.756.756,0,0,0,.117-.008c0-.281,0-.554,0-.826a6.915,6.915,0,0,1,.018-.718.953.953,0,0,1,1.047-.905.972.972,0,0,1,.948,1.014q.013.719,0,1.439c0,.177.025.251.232.272,1.578.162,3.154.343,4.731.519.4.044.8.083,1.2.134a2.994,2.994,0,0,1,2.689,3.045c0,3.238.01,6.475-.01,9.713a1.22,1.22,0,0,0,.412.987,10.7,10.7,0,0,1,2.782,4.408,10.989,10.989,0,0,1,.523,4.815,11.143,11.143,0,0,1-2.714,6.17,9.1,9.1,0,0,1-1.984,1.768c-.015.009-.023.028-.056.071.113.007.2.018.288.018q1.726,0,3.451,0a1.008,1.008,0,0,1,1,.612.983.983,0,0,1-.759,1.373,3.432,3.432,0,0,1-.486.028l-64.827,0c-.388,0-.776.007-1.164,0a1.06,1.06,0,0,1-.978-.522,1,1,0,0,1,.821-1.485c.091-.007.183,0,.275,0l8.088,0c.094,0,.188-.016.329-.029-.437-.2-.822-.38-1.213-.547a.218.218,0,0,0-.183.051,1.779,1.779,0,0,1-2.191-.072c-.723-.7-1.437-1.416-2.153-2.126-.386-.383-.774-.762-1.151-1.154a1.815,1.815,0,0,1-.228-2.376.314.314,0,0,0,.017-.247c-.27-.679-.546-1.356-.835-2.027A.386.386,0,0,0,102.6,183a1.8,1.8,0,0,1-1.391-1.305,1.854,1.854,0,0,1-.069-.5q-.008-2.243,0-4.486a1.787,1.787,0,0,1,1.407-1.774.447.447,0,0,0,.359-.344c.229-.6.487-1.2.749-1.791a.32.32,0,0,0-.016-.364,1.794,1.794,0,0,1,.122-2.178c.239-.276.5-.528.78-.814-.318-.314-.634-.614-.936-.928a3.247,3.247,0,0,1-.468-.57,1.626,1.626,0,0,1,.231-2.009,11.4,11.4,0,0,1,2.18-1.735c.719-.444,1.456-.859,2.194-1.271.168-.094.172-.217.172-.368q0-3.618,0-7.237,0-5.639,0-11.278c0-.237-.141-.2-.276-.2a2.329,2.329,0,0,1-1.885-.885,2.039,2.039,0,0,1-.5-1.361,15.4,15.4,0,0,1,.03-1.563,2.271,2.271,0,0,1,2.012-1.906c.372-.031.747-.028,1.121-.028l26.553,0a2.877,2.877,0,0,1,1.5.3,2.236,2.236,0,0,1,1.193,1.923c.021.471,0,.945-.008,1.417a2.323,2.323,0,0,1-2.177,2.1c-.075.005-.15.014-.236.021m28.56,25.453h-.254q-3.779,0-7.558.006-6.235,0-12.47,0c-.564,0-1.13,0-1.692-.037a4.368,4.368,0,0,1-3.966-4.01c-.072-1.676-.032-3.356-.031-5.034,0-.182-.046-.23-.221-.228-.706.007-1.411,0-2.117,0q-4.943,0-9.887,0a1.27,1.27,0,0,1-.434-.063.978.978,0,0,1-.652-1.1,1,1,0,0,1,.988-.825c.522-.01,1.044,0,1.567,0q5.007,0,10.014,0c.128,0,.256-.019.378-.028-.195-.638-.379-1.243-.564-1.848l-1.833-5.975q-.9-2.947-1.808-5.895c-.13-.423-.132-.424-.553-.424H118.984a1.614,1.614,0,0,0-.337.007.22.22,0,0,0-.141.146,3.729,3.729,0,0,0-.006.465q0,6.634,0,13.267c0,.282,0,.282.27.283.685,0,1.369,0,2.054.01a1,1,0,0,1-.076,1.991q-3.62,0-7.241-.005c-1.129,0-2.258.007-3.387,0-.2,0-.247.055-.239.254.019.479.007.959.007,1.439v.265c6.506-1.891,12.508-.971,17.682,3.478s7.064,10.214,6.143,16.959h13.3a11.32,11.32,0,0,1,16.788-9.812Zm-37.455,2.127a.529.529,0,0,0-.057-.083q-1.39-1.393-2.781-2.786c-.08-.08-.141-.075-.236-.012a1.725,1.725,0,0,1-1.673.171c-.856-.343-1.7-.7-2.552-1.063a1.716,1.716,0,0,1-1.048-1.267c-.029-.13-.073-.173-.206-.172q-1.927.007-3.853,0c-.122,0-.162.036-.189.16a1.736,1.736,0,0,1-.822,1.178,1.91,1.91,0,0,1-.245.122c-.851.354-1.7.717-2.556,1.054a1.678,1.678,0,0,1-1.58-.147.238.238,0,0,0-.358.04q-1.337,1.342-2.684,2.674a.165.165,0,0,0-.027.251,1.746,1.746,0,0,1,.133,1.8c-.334.759-.649,1.527-.956,2.3a1.79,1.79,0,0,1-1.323,1.16c-.136.031-.183.079-.182.22q.007,1.9,0,3.809c0,.155.053.2.194.232a1.757,1.757,0,0,1,1.273,1.073c.345.816.677,1.637,1.023,2.453a1.677,1.677,0,0,1-.1,1.637c-.13.2-.113.318.071.442a.9.9,0,0,1,.121.118c.818.818,1.638,1.634,2.451,2.457a.235.235,0,0,0,.356.045,1.63,1.63,0,0,1,1.728-.09,16.071,16.071,0,0,0,2.3.951,1.752,1.752,0,0,1,1.186,1.347c.029.126.08.158.2.157q1.927,0,3.853,0c.114,0,.169-.027.2-.157a1.766,1.766,0,0,1,1.162-1.342c.721-.28,1.449-.55,2.147-.881a1.924,1.924,0,0,1,1.988.042.243.243,0,0,0,.228-.027c.908-.9,1.807-1.8,2.713-2.7.083-.082.116-.138.044-.248a1.845,1.845,0,0,1-.093-1.907c.3-.664.594-1.338.839-2.026a1.927,1.927,0,0,1,1.489-1.375.216.216,0,0,0,.123-.164c0-1.283,0-2.567-.008-3.85,0-.055-.006-.109-.01-.166a1.887,1.887,0,0,1-1.562-1.3c-.271-.709-.55-1.416-.868-2.105a1.889,1.889,0,0,1,.152-2.02m41.192,10.983a9.252,9.252,0,1,0-9.241,9.249,9.24,9.24,0,0,0,9.241-9.249m-15.694,9.229c-.358-.29-.7-.547-1.021-.832a11.132,11.132,0,0,1-3.545-6.11c-.048-.225-.112-.288-.344-.288q-8.988.011-17.975-.007a.7.7,0,0,0-.778.5c-.108.267-.207.482.036.712a.366.366,0,0,1,.064.132,1.829,1.829,0,0,1-.485,2.12c-1.014,1.012-2.042,2.009-3.039,3.037a1.855,1.855,0,0,1-2.409.237.249.249,0,0,0-.2-.047c-.387.171-.766.357-1.173.55Zm-11.985-31.514a.36.36,0,0,0-.028.083c0,1.615,0,3.23.018,4.845a2.126,2.126,0,0,0,.536,1.352,2.538,2.538,0,0,0,2.052.91q6.86-.008,13.72,0H163.5c.282,0,.286,0,.289-.288q.01-1.4.013-2.793a5.43,5.43,0,0,0-.03-.675.929.929,0,0,0-.884-.9c-1.506-.178-3.013-.34-4.52-.5-1.36-.148-2.72-.289-4.08-.438-1.542-.169-3.083-.345-4.625-.516l-5.215-.577-2.986-.327-1.606-.172M116.5,150.957h0q0-3.459,0-6.917c0-.177-.077-.194-.216-.194q-3.1,0-6.2,0c-.175,0-.21.063-.209.221q.007,6.484.006,12.968c0,.247.016.5-.008.74-.02.209.06.248.247.247,1.376-.006,2.752,0,4.127,0h2.032c.121,0,.226.011.226-.183-.007-2.292,0-4.583,0-6.875m-10.522,17.03a1.182,1.182,0,0,0,.109-.09c.321-.317.634-.643.963-.952a1.79,1.79,0,0,1,2.36-.193.3.3,0,0,0,.239.019c.638-.261,1.269-.54,1.909-.8a.39.39,0,0,0,.279-.317,1.706,1.706,0,0,1,1.608-1.407c1.516-.04,3.034-.063,4.549-.033a1.791,1.791,0,0,1,1.937,1.537.361.361,0,0,0,.194.181c.632.277,1.271.537,1.9.82a.307.307,0,0,0,.359-.022,1.752,1.752,0,0,1,2.191.1c.256.22.49.467.729.707.882.884,1.778,1.754,2.637,2.66a1.748,1.748,0,0,1,.14,2.273.279.279,0,0,0-.028.225c.268.665.549,1.325.821,1.988a.331.331,0,0,0,.266.229,1.766,1.766,0,0,1,1.463,1.829q0,2.021,0,4.041a2.107,2.107,0,0,1-.467,1.626c.512,0,.96,0,1.408-.006.041,0,.106-.086.116-.139a16.533,16.533,0,0,0,.2-4.673,15.621,15.621,0,0,0-2.058-6.387,16.2,16.2,0,0,0-16.573-7.967,15.658,15.658,0,0,0-6.57,2.591c-.561.388-1.092.818-1.65,1.239l.963.914m15.456-27.874h-5.715q-4,0-8,0c-.421,0-.488.072-.49.5,0,.275,0,.55,0,.825s.081.351.341.4a1.513,1.513,0,0,0,.253.018H134.35c.282,0,.565,0,.847,0,.362,0,.47-.1.486-.457.009-.2.006-.409.005-.613,0-.608-.061-.667-.66-.667H121.439" transform="translate(307.435 1362.89)" fill="#00574f"/>
    <path id="Trazado_245704" data-name="Trazado 245704" d="M305.56,346.875c0,.8,0,1.592,0,2.388a1.023,1.023,0,0,1-.367.84.941.941,0,0,1-.971.172.965.965,0,0,1-.652-.766,1.7,1.7,0,0,1-.023-.315c0-1.564,0-3.128,0-4.692a1.061,1.061,0,0,1,.52-.995.991.991,0,0,1,1.462.666,3.937,3.937,0,0,1,.03.631c0,.691,0,1.381,0,2.071Z" transform="translate(140.185 1193.274)" fill="#00574f"/>
    <path id="Trazado_245705" data-name="Trazado 245705" d="M344.162,346.819c0-.832-.005-1.664,0-2.5a.972.972,0,0,1,.67-.932.94.94,0,0,1,1.081.322,1.266,1.266,0,0,1,.228.661c.019,1.614.014,3.229.008,4.843a.992.992,0,0,1-1.037,1.08.966.966,0,0,1-.95-.941c-.008-.846,0-1.692,0-2.538" transform="translate(106.626 1193.307)" fill="#00574f"/>
    <path id="Trazado_245706" data-name="Trazado 245706" d="M323.883,346.817q0-1.227,0-2.454a.972.972,0,0,1,.452-.858.934.934,0,0,1,1-.052.993.993,0,0,1,.536.96c-.006,1.276-.013,2.552-.016,3.828,0,.352.023.7.019,1.057a1,1,0,1,1-2-.029q0-1.227,0-2.454Z" transform="translate(123.382 1193.311)" fill="#00574f"/>
    <path id="Trazado_245707" data-name="Trazado 245707" d="M146.686,342.245a8.25,8.25,0,1,1,8.273-8.186,8.213,8.213,0,0,1-8.273,8.186m-.017-2a6.254,6.254,0,0,0,.107-12.507,6.254,6.254,0,1,0-.107,12.507" transform="translate(276.611 1207.843)" fill="#00574f"/>
    <path id="Trazado_245710" data-name="Trazado 245710" d="M157.113,349.374A5.022,5.022,0,1,1,162.1,354.4a5.023,5.023,0,0,1-4.985-5.027m2,.025a3.02,3.02,0,1,0,2.96-3.042,3.021,3.021,0,0,0-2.96,3.042" transform="translate(261.181 1192.46)" fill="#00574f"/>
    <text id="Sector_agropecuario" data-name="Sector
agropecuario" transform="translate(439 1603.7)" fill="#12263f" font-size="16" font-family="Roboto-Regular, Roboto"><tspan x="-22.977" y="0">Sector</tspan><tspan x="-46.918" y="16">agropecuario</tspan></text>
    <path id="Trazado_245698" data-name="Trazado 245698" d="M726.078,103.57a51.785,51.785,0,0,1-36.618-88.4A51.785,51.785,0,1,1,762.7,88.4a51.446,51.446,0,0,1-36.617,15.167m0-96.621a44.836,44.836,0,1,0,44.836,44.836A44.887,44.887,0,0,0,726.078,6.949" transform="translate(-104.293 1477)" fill="#00574f"/>
    <path id="Trazado_245699" data-name="Trazado 245699" d="M872.011,187.846c1.306.5,1.532.832,1.533,2.287,0,.6.01,1.192,0,1.788a1.632,1.632,0,0,1-1.756,1.765q-19.393.007-38.786,0a1.642,1.642,0,0,1-1.785-1.806c-.009-.619,0-1.238,0-1.857,0-1.337.282-1.731,1.568-2.179V164.612c-.184.14-.323.233-.447.342a3.06,3.06,0,1,1-4.188-4.461q5.161-5.049,10.348-10.073,5.718-5.562,11.438-11.123c1.653-1.6,3.255-1.6,4.92.02q3.9,3.783,7.791,7.573c.1.093.2.175.374.324v-3.257c-.139-.036-.308-.076-.474-.125a1.545,1.545,0,0,1-1.215-1.554c-.024-.825-.022-1.651,0-2.475a1.593,1.593,0,0,1,1.694-1.678q3.851-.02,7.7,0a1.616,1.616,0,0,1,1.726,1.723c.015.664,0,1.329,0,1.994,0,1.353-.351,1.789-1.754,2.118,0,.567,0,1.155,0,1.744,0,.538-.249.906-.8.913s-.808-.371-.819-.9c-.012-.571,0-1.143,0-1.766h-4.377a30.916,30.916,0,0,1-.023,3.209,3.209,3.209,0,0,0,1.243,2.967,37.478,37.478,0,0,1,2.784,3.043l.3-.207a3.647,3.647,0,0,0,.066-.482c.007-.917,0-1.834.009-2.751.007-.528.247-.9.817-.9s.8.373.805.907c0,1.467-.024,2.935.022,4.4a1.607,1.607,0,0,0,.421,1c1.8,1.8,3.635,3.561,5.459,5.335a3,3,0,0,1,.883,3.138,3.046,3.046,0,0,1-4.769,1.585c-.217-.164-.414-.354-.7-.6Zm-1.693.028V187.1q0-11.758.009-23.515a1.438,1.438,0,0,0-.475-1.139q-7.086-6.865-14.148-13.755c-1.1-1.066-2.2-2.128-3.312-3.21-.166.147-.288.246-.4.355q-8.576,8.34-17.138,16.7a1.557,1.557,0,0,0-.4,1.012q-.033,11.826-.015,23.653c0,.221.026.441.041.664h2.657v-.878q0-10.314,0-20.627c0-.252-.009-.505.01-.756a1.415,1.415,0,0,1,1.408-1.406c.137-.012.275-.009.412-.009,1.077,0,2.154,0,3.232,0,.556,0,.962.24.946.843-.015.563-.407.776-.937.775-.642,0-1.283,0-1.925,0h-1.456v2.289h10.867V165.8c-1.033,0-2.034,0-3.036,0-.937,0-1.323-.245-1.309-.823s.395-.8,1.345-.8q1.306,0,2.613,0c1.647,0,2.058.418,2.059,2.085q0,10.348,0,20.7v.911Zm3.976-23.7a1.5,1.5,0,0,0,1.668-1.277,1.764,1.764,0,0,0-.726-1.478q-10.724-10.423-21.441-20.853c-1.136-1.105-1.7-1.1-2.837,0L831.54,159.455c-.756.735-1.52,1.462-2.261,2.212a1.423,1.423,0,0,0-.088,2.085,1.46,1.46,0,0,0,2.092-.053c.136-.123.266-.252.4-.38l19.812-19.274c.748-.728,1.02-.73,1.772,0q3.009,2.922,6.013,5.849,7,6.808,14,13.608a5.429,5.429,0,0,0,1.012.671m-35.467,23.7h10.849V169.807H838.828ZM832.881,192H871.85v-2.4H832.881Zm30.129-49.791h7.748v-2.417H863.01Z" transform="translate(-230.592 1362.89)" fill="#00574f"/>
    <path id="Trazado_245700" data-name="Trazado 245700" d="M992.448,298.889q0,4.366,0,8.733c0,1.407-.461,1.875-1.838,1.876q-5.295,0-10.589,0c-1.294,0-1.8-.491-1.8-1.781q-.008-8.836,0-17.672c0-1.325.5-1.816,1.841-1.818q5.295-.007,10.589,0c1.29,0,1.792.505,1.794,1.791q.008,4.435,0,8.87m-7.971-5.019h-4.586v6.114h4.586Zm1.71,6.1h4.566v-6.1h-4.566ZM979.9,307.82h4.566v-6.135H979.9Zm10.895-6.106h-4.6V307.8h4.6Zm-.027-11.813H979.9v2.245h10.868Z" transform="translate(-355.287 1238.846)" fill="#00574f"/>
    <path id="Trazado_245701" data-name="Trazado 245701" d="M924.972,356.866a2.436,2.436,0,1,1,2.427-2.453,2.409,2.409,0,0,1-2.427,2.453m.166-3.346-.314,0c-.219.292-.564.559-.628.881a.7.7,0,0,0,.762.836.7.7,0,0,0,.791-.815c-.052-.323-.4-.6-.61-.9" transform="translate(-309.269 1186.152)" fill="#00574f"/>
    <text id="Sector_doméstico" data-name="Sector
doméstico" transform="translate(622 1603.7)" fill="#12263f" font-size="16" font-family="Roboto-Regular, Roboto"><tspan x="-22.977" y="0">Sector</tspan><tspan x="-37.754" y="16">doméstico</tspan></text>
    <path id="Trazado_245695" data-name="Trazado 245695" d="M1677.328,414.935a9.769,9.769,0,0,1,4.426.952,9.632,9.632,0,0,0,7.647.278c.787-.292,1.351-.078,1.491.509.173.727-.277,1.044-.881,1.257a10.617,10.617,0,0,1-8.28-.085,10.61,10.61,0,0,0-8.776-.138c-.592.236-1.152.252-1.458-.441-.251-.568.043-1.09.85-1.312,1.633-.45,3.286-.83,4.93-1.239l.052.218" transform="translate(-867.329 1134.326)" fill="#00574f"/>
    <path id="Trazado_245696" data-name="Trazado 245696" d="M1535.553,418.065c-.5-.145-.81-.216-1.1-.321a8.891,8.891,0,0,0-6.969.258,12.161,12.161,0,0,1-9.789.059c-.6-.226-1.041-.554-.848-1.275.158-.591.712-.777,1.5-.472a10.75,10.75,0,0,0,8.781-.162,10.613,10.613,0,0,1,8.426-.011c.532.2.9.559.7,1.125-.114.329-.487.569-.7.8" transform="translate(-739.576 1133.866)" fill="#00574f"/>
    <path id="Trazado_245693" data-name="Trazado 245693" d="M1400.372,103.57a51.785,51.785,0,0,1-36.617-88.4A51.785,51.785,0,1,1,1436.99,88.4a51.447,51.447,0,0,1-36.618,15.167m0-96.621a44.836,44.836,0,1,0,44.836,44.836,44.887,44.887,0,0,0-44.836-44.836" transform="translate(-600.587 1477)" fill="#00574f"/>
    <path id="Trazado_245694" data-name="Trazado 245694" d="M1614.279,268.43c-1.179,0-2.3,0-3.423,0a1.381,1.381,0,0,1-1.215-2.394q3.181-4.165,6.376-8.318a2.956,2.956,0,0,1,.679-.648,1.006,1.006,0,0,1,1.648.8,6.123,6.123,0,0,1-.231,1.547c-.32,1.407-.668,2.809-1,4.213-.01.044.024.1.057.219,1.08,0,2.18,0,3.28,0,.653,0,1.3.064,1.618.736a1.542,1.542,0,0,1-.37,1.674q-3.082,4.042-6.178,8.072a3.4,3.4,0,0,1-.434.456,1.231,1.231,0,0,1-1.506.309,1.187,1.187,0,0,1-.523-1.443c.317-1.408.677-2.807,1.015-4.21.073-.3.126-.611.207-1.01m-2.7-1.866c1.172,0,2.116-.032,3.057.008a1.469,1.469,0,0,1,1.544,1.991c-.155.758-.341,1.51-.513,2.265l.135.065,3.962-5.181c-1.225,0-2.221.027-3.216-.007-1.234-.043-1.7-.672-1.431-1.866.182-.8.38-1.6.57-2.4l-.135-.062-3.973,5.191" transform="translate(-815.9 1264.767)" fill="#00574f"/>
    <path id="Trazado_245697" data-name="Trazado 245697" d="M1463.288,193.691h1.881c0-3.908.009-7.817-.015-11.726a.907.907,0,0,1,.715-1,9,9,0,0,1,6.172,0c1.374.435,2.755.87,4.161,1.176a9.64,9.64,0,0,0,5.5-.469c.443-.165.894-.311,1.325-.5a9.031,9.031,0,0,1,6.761-.178,39.3,39.3,0,0,0,4.085,1.154,9.674,9.674,0,0,0,5.5-.475c.443-.166.893-.315,1.324-.505a8.909,8.909,0,0,1,6.685-.193c1.093.37,2.194.727,3.311,1.014a10.55,10.55,0,0,0,6.576-.393c.856-.331,1.719-.653,2.6-.919a7.984,7.984,0,0,1,4.806.206.725.725,0,0,1,.415.526c.02,4.075.019,8.155.018,12.288h1.88c0-4.313-.008-8.626.014-12.938a1.358,1.358,0,0,0-1.084-1.48,11.239,11.239,0,0,0-8.45.216,17.756,17.756,0,0,1-2.7.85.88.88,0,0,1-.762-.265c-.917-1.359-1.7-2.746-.405-4.341a2.662,2.662,0,0,0,.433-1.091c.122-.549.425-.673.954-.667,2.838.03,5.676.026,8.513.027,1.273,0,1.516-.258,1.445-1.55a9.182,9.182,0,0,0-2.868-6.3,12.291,12.291,0,0,0-5.883-3.2,2.683,2.683,0,0,1-2.36-2.248c-.153-.7-.862-1.416-.744-2.009.128-.64.925-1.149,1.439-1.707.437-.474.56-.99.053-1.451s-1.014-.261-1.445.2c-.575.613-1.132,1.246-1.739,1.827a1.311,1.311,0,0,0-.257,1.752,25.783,25.783,0,0,1,1.47,3.641,1.825,1.825,0,0,0,1.487,1.372,28.177,28.177,0,0,1,4.227,1.46,7.792,7.792,0,0,1,4.013,3.849,22.9,22.9,0,0,1,.816,2.512H1522c-2.706-.005-5.413,0-8.119-.022a1.235,1.235,0,0,0-1.315.968c-.492,1.324-1.066,2.621-1.675,3.9a1.357,1.357,0,0,0,.047,1.534c.372.531.684,1.1,1.023,1.658l-.115.2-6.049-1.793c0-.015-.011-.051,0-.066.149-.181.3-.364.453-.539a14.59,14.59,0,0,0,3.825-8.881,14.987,14.987,0,0,0-18.237-15.808,14.25,14.25,0,0,0-5.74,2.668c-.619.473-.765,1.017-.384,1.465.487.572,1.008.425,1.519.015.061-.049.126-.095.19-.141a12.854,12.854,0,0,1,7.423-2.489,13.114,13.114,0,0,1,9.344,22.608,4.574,4.574,0,0,1-2.537,1.463,6.079,6.079,0,0,0-1.71.58,10.59,10.59,0,0,1-8.57.117c-1.077-.4-2.223-.607-3.33-.929a3.132,3.132,0,0,1-1.052-.455,13.083,13.083,0,0,1-3.925-15.405c.343-.791.815-1.525,1.227-2.286a.928.928,0,1,0-1.545-1.027c-.111.146-.207.3-.3.46a14.978,14.978,0,0,0,1.581,18.049c.186.206.368.416.617.7-2.615.633-4.912,2.26-7.831,1.615.708-.7,1.312-1.356,1.973-1.947a1.352,1.352,0,0,0,.317-1.867,30.892,30.892,0,0,1-1.483-3.72,1.521,1.521,0,0,0-1.272-1.2,16.11,16.11,0,0,1-2.431-.65c-2.379-.836-4.534-2.024-5.783-4.338a22.327,22.327,0,0,1-1.074-2.873h1.109c2.706,0,5.413-.018,8.119.022a1.34,1.34,0,0,0,1.463-1.095,28.083,28.083,0,0,1,1.542-3.611,1.607,1.607,0,0,0-.067-1.876,14.155,14.155,0,0,1-2.454-6,7.346,7.346,0,0,1,1.6-5.915c.233.221.426.394.608.578,1.93,1.935,3.872,3.858,5.779,5.814a1.339,1.339,0,0,0,1.81.268,22.889,22.889,0,0,1,3.568-1.438,1.767,1.767,0,0,0,1.4-1.543,12.851,12.851,0,0,1,3.41-6.883,7.04,7.04,0,0,1,4.418-2.007c0,.357,0,.641,0,.925q-.005,3.981-.011,7.962c0,1.2.065,1.218,1.156,1.633a37.6,37.6,0,0,1,3.6,1.572,1.644,1.644,0,0,0,1.745-.053,28.92,28.92,0,0,1,4.383-2.1,7.68,7.68,0,0,1,7.664,1.237c-.5.471-.946.875-1.372,1.3a.882.882,0,0,0-.069,1.385.906.906,0,0,0,1.394-.077c.639-.624,1.278-1.249,1.9-1.894.562-.586.543-1.036-.065-1.621a9.16,9.16,0,0,0-6.3-2.672,14.1,14.1,0,0,0-7.794,2.4,1.175,1.175,0,0,1-1.354.043,12.824,12.824,0,0,0-2.308-1c-.6-.186-.73-.492-.724-1.071.034-2.837.028-5.675.029-8.513,0-1.129-.3-1.414-1.408-1.37a9.3,9.3,0,0,0-7.279,3.823,14.748,14.748,0,0,0-2.649,5.836,1.286,1.286,0,0,1-1.009,1.115,12.723,12.723,0,0,0-2.335.931.863.863,0,0,1-1.2-.235c-2.021-2.067-4.068-4.108-6.113-6.15-.7-.7-1.12-.7-1.787,0a9.155,9.155,0,0,0-2.624,6.4,14.273,14.273,0,0,0,2.437,7.7,1.052,1.052,0,0,1,.053,1.207,16.754,16.754,0,0,0-1.066,2.451.829.829,0,0,1-.959.66c-2.811-.03-5.623-.024-8.434-.029-1.355,0-1.617.267-1.531,1.635a9.435,9.435,0,0,0,4.376,7.465,17.738,17.738,0,0,0,5.554,2.36,1.3,1.3,0,0,1,.719.659c.417.9.783,1.833,1.108,2.774a.945.945,0,0,1-.138.788c-.515.594-1.142,1.092-1.646,1.694a1.23,1.23,0,0,1-1.632.365,11.451,11.451,0,0,0-9.336-.019,1.466,1.466,0,0,0-1.051,1.524c.021,4.207.012,8.415.008,12.622" transform="translate(-695.355 1362.89)" fill="#00574f"/>
    <text id="Sector_generación_de_energía" data-name="Sector
generación
de energía" transform="translate(799.729 1603.7)" fill="#12263f" font-size="16" font-family="Roboto-Regular, Roboto"><tspan x="-22.977" y="0">Sector</tspan><tspan x="-39.387" y="16">generación</tspan><tspan x="-37.07" y="32">de energía</tspan></text>
    <path id="Trazado_245691" data-name="Trazado 245691" d="M2074.665,103.57a51.785,51.785,0,0,1-36.617-88.4A51.785,51.785,0,1,1,2111.283,88.4a51.447,51.447,0,0,1-36.618,15.167m0-96.621A44.836,44.836,0,1,0,2119.5,51.785a44.887,44.887,0,0,0-44.836-44.836" transform="translate(-1095.88 1477)" fill="#00574f"/>
    <path id="Trazado_245692" data-name="Trazado 245692" d="M2206.523,165.876v16.217c.769,0,1.506-.007,2.242,0a1.729,1.729,0,0,1,1.926,1.941c.006.834,0,1.668,0,2.579,1.4.063,1.865,1.023,2.157,2.177.232.922.541,1.825.794,2.742.1.362.256.546.67.525.564-.029.979.238.948.849s-.478.795-1.031.781c-.163,0-.325,0-.488,0h-53.25a6.773,6.773,0,0,1-.766-.017c-.487-.055-.836-.368-.73-.826.07-.3.476-.747.72-.74.712.022.828-.4.972-.909q.434-1.541.916-3.069a1.871,1.871,0,0,1,2.011-1.476c1.51-.012,3.02,0,4.531,0h.837v-.81c0-2.416.007-4.833,0-7.249,0-.582.158-1.028.8-1.09.526-.051.844.385.856,1.109,0,.163,0,.325,0,.488v7.5h6.016c0-.825-.006-1.63,0-2.436a1.9,1.9,0,0,1,2.024-2.067c1.1-.034,1.1-.034,1.294-1.145q1.54-8.745,3.075-17.492a2.048,2.048,0,0,1,1.423-1.8c.144-.048.235-.274.333-.429.031-.05.007-.136.006-.206-.017-.857.27-1.925-.137-2.512s-1.5-.693-2.3-.973q-4.472-1.556-8.953-3.086c-.191-.066-.387-.116-.641-.191-.715,2.084-1.422,4.118-2.1,6.162a2.728,2.728,0,0,0-.037.831c0,2.509.008,5.018-.01,7.527a.81.81,0,0,0,.534.894,2.958,2.958,0,0,1,1.635,3.419,3.039,3.039,0,0,1-5.921.029,2.97,2.97,0,0,1,1.6-3.437.776.776,0,0,0,.516-.835q-.032-3.659,0-7.318a.689.689,0,0,0-.569-.784c-.863-.272-1.723-.559-2.565-.891a6.148,6.148,0,0,1-3.677-7.575c1.338-4.128,2.784-8.222,4.223-12.316a2.762,2.762,0,0,1,3.565-1.712q2.35.763,4.676,1.6a2.816,2.816,0,0,1,1.819,3.689c-.467,1.456-.988,2.894-1.507,4.405.235.092.438.18.648.253q16.949,5.846,33.9,11.678c1.359.466,2.475,1.115,2.754,2.635a3.309,3.309,0,0,1-4.2,3.867c-.5-.163-1-.332-1.54-.511M2197.58,186.6h3.035c0-.662.033-1.285-.006-1.9-.111-1.722.322-2.658,2.308-2.645.01,0,.019-.034.054-.1-.161-.135-.326-.286-.5-.421-.737-.565-1.482-1.121-2.216-1.691-.538-.418-.666-.908-.327-1.3.436-.507.889-.353,1.344,0,.734.57,1.476,1.13,2.216,1.69.414.313.832.62,1.293.962a2.977,2.977,0,0,0,.045-.312c0-5.041,0-10.083.014-15.124,0-.417-.172-.553-.521-.671-2.593-.88-5.181-1.776-7.77-2.669q-2.173-.748-4.343-1.5a.794.794,0,0,1-.593-1.08c.172-.511.594-.607,1.08-.488.112.027.22.073.33.11l6.385,2.2c3.006,1.036,6.01,2.078,9.019,3.1a1.5,1.5,0,0,0,2.125-1.055c.341-1.014-.05-1.723-1.193-2.117q-7.141-2.464-14.286-4.919l-5.858-2.019c.07.78.182,1.546.2,2.315.033,1.37,0,2.741.023,4.112a.73.73,0,0,0,.312.569,2.113,2.113,0,0,1,1.444,1.863q1.513,8.714,3.064,17.422c.2,1.111.193,1.112,1.35,1.16a1.9,1.9,0,0,1,1.969,2.052c.009.807,0,1.613,0,2.458m14.486,5.4c-.3-1.013-.613-1.914-.822-2.839-.157-.694-.485-.881-1.194-.88q-22.928.035-45.857.018a1.876,1.876,0,0,0-.554.014c-.172.055-.407.174-.453.317-.354,1.1-.669,2.2-1.014,3.37Zm-33.75-5.412h17.6c0-.73-.036-1.426.011-2.115.04-.593-.185-.742-.753-.739-3.786.022-7.572.011-11.358.011-1.626,0-3.252.016-4.878-.009-.491-.007-.656.159-.635.642.032.717.008,1.437.008,2.21m-9.027-27.264,2.657-7.721h-7.153a.927.927,0,0,0-.345.011.851.851,0,0,0-.415.285,4.635,4.635,0,0,0,2.071,6.245c.994.474,2.073.774,3.185,1.18m15.544-2.692a2.592,2.592,0,0,1,1.693-2.91l-12.115-4.175-1.077,3.12,11.5,3.965m-18.251-12.149-1.879,5.473c2.607,0,5.081,0,7.554-.011a.474.474,0,0,0,.343-.262c.345-.949.664-1.907,1.006-2.9l-7.023-2.295m16.571,29.763c1.313.946,2.473,1.8,3.654,2.615a.651.651,0,0,0,.591.024c1.2-.83,2.375-1.692,3.656-2.616l-3.949-3.612-3.951,3.588m-9.005-29.03c.28-.818.56-1.554.781-2.307a1.111,1.111,0,0,0-.746-1.451q-2.355-.857-4.738-1.635a1.1,1.1,0,0,0-1.446.631c-.322.787-.575,1.6-.878,2.463l7.026,2.3m13.025,22.432c.534-.5,1.121-1.13,1.791-1.656a1.817,1.817,0,0,0,.624-2.186c-.118-.4-.251-.577-.689-.566-1.111.028-2.224-.009-3.335.022-.28.008-.776.137-.8.267-.092.6-.614,1.262-.063,1.828.79.812,1.659,1.547,2.469,2.291m15.141,18.938h6.66v-2.782h-2.488c0,.475.015.893,0,1.308-.024.537-.286.9-.859.88a.778.778,0,0,1-.792-.871c-.011-.434,0-.869,0-1.336h-2.514Zm-11.171-4.542c-1.35-.973-2.529-1.83-3.72-2.669-.124-.087-.381-.153-.476-.086-1.243.867-2.468,1.76-3.847,2.755Zm-5.439-3.918-3.162-2.278-.915,5.216,4.077-2.938m6.909,2.937c-.326-1.838-.616-3.471-.924-5.208l-3.15,2.274,4.074,2.933m-4.833-19.5c0-1.81,0-3.548,0-5.286,0-.46-.1-.888-.636-.9-.584-.016-.693.425-.691.916.005,1.6,0,3.205.005,4.808a3.282,3.282,0,0,0,.069.465Zm-16.551,10.862a1.4,1.4,0,0,0-2.791-.05,1.4,1.4,0,1,0,2.791.05m12.1-1.041,2.553-2.293-1.841-1.767-.712,4.059m4.906-2.364,2.67,2.383-.744-4.192-1.926,1.809" transform="translate(-1208.334 1362.89)" fill="#00574f"/>
    <text id="Sector_hidrocarburos_petroleo" data-name="Sector
hidrocarburos
petroleo" transform="translate(979 1603.7)" fill="#12263f" font-size="16" font-family="Roboto-Regular, Roboto"><tspan x="-22.977" y="0">Sector</tspan><tspan x="-49.512" y="16">hidrocarburos</tspan><tspan x="-29.273" y="32">petroleo</tspan></text>
    <path id="Trazado_245689" data-name="Trazado 245689" d="M3034.364,409a2.657,2.657,0,0,1-2.619,2.72,2.688,2.688,0,0,1-2.772-2.648,2.7,2.7,0,1,1,5.391-.071m-2.666-1.022a1.066,1.066,0,0,0-1.08,1.016,1.041,1.041,0,0,0,1,1.085,1.026,1.026,0,0,0,1.107-1.04,1.048,1.048,0,0,0-1.026-1.062" transform="translate(-1862.781 1141.252)" fill="#00574f"/>
    <path id="Trazado_245711" data-name="Trazado 245711" d="M3034.364,409a2.657,2.657,0,0,1-2.619,2.72,2.688,2.688,0,0,1-2.772-2.648,2.7,2.7,0,1,1,5.391-.071m-2.666-1.022a1.066,1.066,0,0,0-1.08,1.016,1.041,1.041,0,0,0,1,1.085,1.026,1.026,0,0,0,1.107-1.04,1.048,1.048,0,0,0-1.026-1.062" transform="translate(-1886.781 1141.252)" fill="#00574f"/>
    <path id="Trazado_245687" data-name="Trazado 245687" d="M2728.51,103.57a51.785,51.785,0,0,1-36.618-88.4A51.785,51.785,0,1,1,2765.128,88.4a51.447,51.447,0,0,1-36.617,15.167m0-96.621a44.836,44.836,0,1,0,44.836,44.836A44.887,44.887,0,0,0,2728.51,6.949" transform="translate(-1571.725 1477)" fill="#00574f"/>
    <path id="Trazado_245688" data-name="Trazado 245688" d="M2865.265,168.56h-20.456c-.011.242-.032.484-.032.725,0,2.255,0,4.509,0,6.764,0,1.15-.442,1.587-1.58,1.592-.736,0-1.472.006-2.208,0a1.3,1.3,0,0,1-1.474-1.487c-.009-2.37,0-4.74,0-7.109,0-.136-.016-.272-.028-.462h-20.432c.123.609.237,1.205.365,1.8q.349,1.618.713,3.232c.122.542.011.973-.569,1.149-.5.152-.883-.154-1.032-.824-.339-1.526-.695-3.049-.985-4.585-.117-.623-.328-.971-1.016-.831a2.026,2.026,0,0,1-.413,0c-1.272-.011-1.849-.584-1.856-1.855,0-.644-.014-1.289,0-1.933a1.549,1.549,0,0,1,1.61-1.61c1.055-.02,2.111,0,3.17,0,.541-2.55,2.2-3.474,4.6-3.3a.922.922,0,0,0,.123-.2,3.6,3.6,0,0,1,3.845-3.049c.533,0,.788-.1.935-.687a3.5,3.5,0,0,1,3.239-2.562c.388-.02.777,0,1.185,0,.066-.22.122-.39.168-.562a3.607,3.607,0,0,1,3.565-2.713c.913-.022,1.827,0,2.776,0V148.1c-1.156-.222-1.332-1.111-1.216-2.316-1.562.2-3.04.323-4.5.579a18.284,18.284,0,0,0-6.727,2.741c-.135.087-.272.173-.408.259a1.138,1.138,0,0,1-1.466-.066,1.154,1.154,0,0,1-.278-1.5,11.635,11.635,0,0,1,2.919-3.806,17.975,17.975,0,0,1,9.273-3.925c.361-.056.722-.111,1.111-.17.022-.172.044-.327.061-.483a1.288,1.288,0,0,1,1.341-1.291q2.553-.035,5.108,0a1.279,1.279,0,0,1,1.349,1.282c.018.156.035.312.037.328,1.92.5,3.8.861,5.588,1.484a13.079,13.079,0,0,1,7.482,6.083c.077.141.154.282.226.426a1.216,1.216,0,0,1-1.765,1.614c-.888-.528-1.772-1.072-2.7-1.528a20.866,20.866,0,0,0-8.867-1.929,2.511,2.511,0,0,1-.016.822c-.155.406-.324.985-.641,1.115-.635.26-.632.671-.611,1.182.013.316,0,.633,0,1.038h2.252c2.464,0,3.577.831,4.291,3.275.325,0,.684-.01,1.042,0a3.531,3.531,0,0,1,3.423,2.692c.116.468.322.555.75.56,2.293.025,3.437.935,4.063,3.247,2.385-.162,4.11.708,4.643,3.312.99,0,1.976,0,2.961,0a1.606,1.606,0,0,1,1.829,1.813c.006.644.011,1.289,0,1.933a1.562,1.562,0,0,1-1.637,1.656c-1.459.051-1.458.051-1.773,1.5q-1.5,6.906-3.011,13.813c-.053.246-.092.495-.156.845,1.34-.061,2.639-.034,2.58,1.907a8.687,8.687,0,0,1,.879.005c.56.058.781-.141.762-.732-.039-1.2-.014-2.392-.01-3.589,0-.755.271-1.138.792-1.151.546-.014.838.388.841,1.181,0,1.242.008,2.485,0,3.727a1.978,1.978,0,0,1-2.228,2.2c-.319,0-.638,0-1.006,0-.017.171-.031.3-.042.428a1.394,1.394,0,0,1-1.517,1.436c-1.311.022-2.623.024-3.934,0a.847.847,0,0,0-.929.507.784.784,0,0,1-1.184.446c-.565-.327-.479-.789-.2-1.3a4.634,4.634,0,0,0-3.773-6.978,4.433,4.433,0,0,0-4.312,2.453,4.358,4.358,0,0,0,.365,4.938,4.521,4.521,0,0,0,4.7,1.786c.091-.015.177-.048.267-.069.523-.122.979-.073,1.169.524.16.5-.138.893-.787,1.074a6.225,6.225,0,0,1-6.939-2.757,1.146,1.146,0,0,0-1.148-.622q-5.729.032-11.458,0a.935.935,0,0,0-.925.523,6.246,6.246,0,0,1-10.762-.014.914.914,0,0,0-.929-.508c-1.173.028-2.347.011-3.52.009-1.449,0-1.85-.367-1.974-1.872-.4,0-.8.009-1.211,0a1.918,1.918,0,0,1-2.02-1.986c-.026-1.38-.008-2.761-.007-4.141,0-.561.236-.975.834-.966s.805.432.8.992c-.007,1.2.039,2.395-.017,3.588-.033.71.2.978.9.876a4.592,4.592,0,0,1,.664-.005c.338-1.719.338-1.719,2.665-1.966-.276-1.3-.548-2.589-.826-3.878-.189-.876-.389-1.75-.578-2.627-.147-.678.046-1.1.551-1.212.523-.121.886.156,1.036.83.467,2.11.938,4.219,1.373,6.335.1.472.279.6.764.633a1.743,1.743,0,0,0,1.772-.895,6.215,6.215,0,0,1,10.4.255,1.152,1.152,0,0,0,1.14.63q5.729-.033,11.458,0a.988.988,0,0,0,.975-.55,6.225,6.225,0,0,1,10.526-.244,1.413,1.413,0,0,0,1.539.789,5.9,5.9,0,0,1,.781-.005l3.516-16.119m-25.818-5.461V151.684c-1.025,0-1.991-.033-2.954.009a1.918,1.918,0,0,0-1.821,1.681c-.2,1.292-.5,1.563-1.788,1.568-.23,0-.46,0-.69,0a1.985,1.985,0,0,0-2.2,1.963,1.283,1.283,0,0,1-1.409,1.281c-.3.009-.6,0-.9,0a2.04,2.04,0,0,0-2.35,2.042,1.27,1.27,0,0,1-1.327,1.222c-.482.02-.967-.012-1.448.017a1.766,1.766,0,0,0-1.728,1.627Zm5.389-11.415v11.385h18.651a1.865,1.865,0,0,0-1.767-1.6c-.481-.029-.966,0-1.448-.018a1.271,1.271,0,0,1-1.328-1.221,2.039,2.039,0,0,0-2.349-2.043c-.253,0-.506,0-.759,0-1.043-.015-1.427-.366-1.558-1.421a1.957,1.957,0,0,0-1.982-1.821c-.321-.014-.644,0-.966-.006-1.2-.008-1.553-.322-1.71-1.5a1.919,1.919,0,0,0-1.829-1.749c-.962-.043-1.928-.009-2.954-.009m-3.647,24.261h1.893V148.1h-1.893Zm-25.263-9.119h23.529V164.82h-23.529Zm52.4-2.02h-23.51v2.04h23.51Zm-38.3,27.222a4.638,4.638,0,1,0-4.625-4.66,4.628,4.628,0,0,0,4.625,4.66m14.361-52.251h-4.465v6.632h4.465Zm-8.1,48.656H2848V186.37h-11.716Zm1.923-46.883c-4.257.583-8.073,1.824-10.785,5.329a23.673,23.673,0,0,1,10.785-2.652Zm7.871,2.684a22.716,22.716,0,0,1,10.858,2.773c-1.576-2.772-7.8-5.783-10.858-5.329Zm-26.154,44.176h3.835v-2.029h-3.835Zm44.427-2.047h-3.818v2.068h3.818Z" transform="translate(-1685.356 1362.89)" fill="#00574f"/>
    <text id="Sector_minero" data-name="Sector
minero" transform="translate(1155.009 1603.7)" fill="#12263f" font-size="16" font-family="Roboto-Regular, Roboto"><tspan x="-22.977" y="0">Sector</tspan><tspan x="-24.797" y="16">minero</tspan></text>
    <path id="Trazado_245677" data-name="Trazado 245677" d="M3623.719,336.411c0-.663-.012-1.327,0-1.989a1.45,1.45,0,0,1,1.487-1.541q1.817-.037,3.635,0a1.457,1.457,0,0,1,1.494,1.539q.028,1.989,0,3.978a1.437,1.437,0,0,1-1.493,1.536q-1.816.053-3.635,0a1.43,1.43,0,0,1-1.489-1.536c-.016-.663,0-1.326,0-1.989m4.939-1.861h-3.271v3.743h3.271Z" transform="translate(-3093.215 1396.961)" fill="#00574f"/>
    <path id="Trazado_245678" data-name="Trazado 245678" d="M3560.985,336.442c0-.686-.026-1.373.006-2.057a1.448,1.448,0,0,1,1.535-1.495c1.166-.018,2.332-.016,3.5,0a1.481,1.481,0,0,1,1.589,1.525q.048,2.022,0,4.046a1.43,1.43,0,0,1-1.479,1.485q-1.85.053-3.7,0A1.393,1.393,0,0,1,3561,338.5c-.036-.684-.007-1.371-.007-2.057h0m1.662,1.853h3.3v-3.743h-3.3Z" transform="translate(-3041.376 1396.949)" fill="#00574f"/>
    <path id="Trazado_245679" data-name="Trazado 245679" d="M3498.165,336.387c0-.64-.021-1.281,0-1.92a1.5,1.5,0,0,1,1.614-1.574q1.715-.02,3.429,0a1.45,1.45,0,0,1,1.588,1.516q.059,2.022,0,4.046a1.423,1.423,0,0,1-1.529,1.5q-1.782.045-3.566,0a1.476,1.476,0,0,1-1.537-1.578c-.025-.662,0-1.326,0-1.989m4.965-1.825h-3.294V338.3h3.294Z" transform="translate(-2989.469 1396.944)" fill="#00574f"/>
    <path id="Trazado_245675" data-name="Trazado 245675" d="M3522.1,234.931c.267.02.468.031.667.05a1.6,1.6,0,0,1,1.516,1.575c.024.526.02,1.054,0,1.581a1.6,1.6,0,0,1-1.659,1.644c-1.26.019-2.521.005-3.781.005h-19.867c-.206,0-.466.074-.607-.023-.289-.2-.653-.454-.733-.754-.122-.458.239-.759.7-.844a3.789,3.789,0,0,1,.686-.017h23.593v-1.48h-52.188v1.48h23.535a4.784,4.784,0,0,1,.687.013.81.81,0,0,1-.02,1.618,5.171,5.171,0,0,1-.55.008h-23.3c-1.475,0-2.04-.562-2.042-2.024v-.412c0-1.853.314-2.216,2.19-2.434v-.79c0-5.752.013-11.5-.013-17.255a1.921,1.921,0,0,1,1.208-1.939c2.98-1.465,5.938-2.973,8.906-4.463,1.385-.7,2.41-.057,2.42,1.5.005.825.005,1.65.01,2.475a1.2,1.2,0,0,0,.062.215c.208-.1.408-.179.6-.276q3.9-1.956,7.8-3.915c1.392-.7,2.409-.065,2.414,1.5,0,.869,0,1.738,0,2.726.292-.132.513-.223.726-.33q3.867-1.941,7.733-3.886c1.4-.7,2.419-.09,2.429,1.471.008,1.188,0,2.376,0,3.629h2.147c.038-.256.093-.54.119-.826q.728-7.835,1.436-15.671a1.667,1.667,0,0,0-.268-.75c-.135-.282-.415-.539-.437-.822a17.293,17.293,0,0,1-.011-2.4,1.232,1.232,0,0,1,1.242-1.16c2.268-.033,4.536-.037,6.8,0a1.3,1.3,0,0,1,1.279,1.359,16.184,16.184,0,0,1-.009,1.992,1.3,1.3,0,0,1-.343.86,1.2,1.2,0,0,0-.389,1.265c.285,2.918.544,5.839.821,8.758.053.555-.1.992-.694,1.065s-.864-.3-.917-.865c-.071-.748-.152-1.495-.232-2.272h-5.842l-.89,9.466h7.619c-.085-.957-.164-1.906-.255-2.854-.076-.788.15-1.208.7-1.262.521-.051.824.289.9,1.04.09.843.189,1.685.238,2.531.026.455.163.66.652.621s1.008-.015,1.512-.007c1.2.019,1.7.521,1.7,1.738q.005,8.352,0,16.705Zm-18.573.02v-23c-.263.125-.449.209-.632.3-2.658,1.336-5.309,2.685-7.979,4a.934.934,0,0,0-.6.992c.019,5.655.012,11.311.012,16.966v.747Zm-10.89-.007v-23c-.253.119-.438.2-.619.292-2.657,1.337-5.307,2.687-7.975,4a.933.933,0,0,0-.613.985c.019,5.654.012,11.309.012,16.964v.756Zm-10.854-23c-.289.132-.475.209-.654.3-2.659,1.337-5.311,2.689-7.982,4a.936.936,0,0,0-.6.994c.018,5.66.011,11.32.013,16.981,0,.241.023.482.033.7h9.192Zm25.318,23a2.578,2.578,0,0,0,.067-.411q.006-4.913,0-9.826a.792.792,0,0,0-.054-.4c-.63-.973-.341-2.05-.325-3.082a1.234,1.234,0,0,1,1.3-1.241c3.161-.02,6.322-.037,9.481.025.41.008,1.121.437,1.159.739a20.259,20.259,0,0,1,.021,3.24c-.011.324-.223.642-.225.964-.018,3.092-.011,6.184-.011,9.276v.7h1.895V217.318h-15.153v17.626Zm1.309-11.907h8.854v-1.379h-8.854Zm1.961-21.771h4.956c-.085-.887-.164-1.717-.244-2.555h-4.464l-.248,2.555m-1.535,24.712h8.012v-1.217h-8.012Zm8,1.742h-7.992V229h7.992Zm-7.993,7.209h8.006V233.65h-8.006Zm-.01-3h8V230.69h-8Zm1-34.953h6.018v-1.392h-6.018Zm.257,7.407h5.544l-.174-1.4h-5.247c-.042.473-.081.918-.123,1.4" transform="translate(-2964.736 1511.767)" fill="#00574f"/>
    <path id="Trazado_245676" data-name="Trazado 245676" d="M3629.194,138.929c2.282-1.342,4.011-1.061,5.767.883a.933.933,0,0,0,.583.229,3.094,3.094,0,0,1,2.826,2.05,2.989,2.989,0,0,1-.821,3.2,3.064,3.064,0,0,1-3.458.441,1.026,1.026,0,0,0-.739-.011,4.112,4.112,0,0,1-3.763-.219.819.819,0,0,0-.646-.073,56.125,56.125,0,0,1-10.275-.852,3.983,3.983,0,0,1,.03-5.015c1.343-1.615,3.322-1.847,5.591-.649a4.1,4.1,0,0,1,4.9.014m-7.328,5.633a9.681,9.681,0,0,0,1.4-.643c.824-.543,1.184-.575,1.979,0a2.329,2.329,0,0,0,2.983,0,1.335,1.335,0,0,1,1.972.009,2.274,2.274,0,0,0,2.638.2,1.562,1.562,0,0,1,1.9.06,1.37,1.37,0,0,0,2.066-1.608,1.26,1.26,0,0,0-1.4-.876,1.6,1.6,0,0,1-1.752-.881,2.323,2.323,0,0,0-3.368-.633c-.96.673-1.2.675-2.137.017a2.351,2.351,0,0,0-2.82-.008c-.944.666-1.193.665-2.136,0a2.382,2.382,0,0,0-2.822.014,2.349,2.349,0,0,0-.817,2.64,2.658,2.658,0,0,0,2.315,1.708" transform="translate(-3087.9 1557.891)" fill="#00574f"/>
    <path id="Trazado_245680" data-name="Trazado 245680" d="M3382.356,103.57a51.785,51.785,0,0,1-36.617-88.4A51.785,51.785,0,1,1,3418.974,88.4a51.447,51.447,0,0,1-36.618,15.167m0-96.621a44.836,44.836,0,1,0,44.836,44.836,44.887,44.887,0,0,0-44.836-44.836" transform="translate(-2850.571 1672)" fill="#00574f"/>
    <text id="Sector_industrial" data-name="Sector
industrial" transform="translate(532 1798.7)" fill="#12263f" font-size="16" font-family="Roboto-Regular, Roboto"><tspan x="-22.977" y="0">Sector</tspan><tspan x="-32.957" y="16">industrial</tspan></text>
    <path id="Trazado_245667" data-name="Trazado 245667" d="M4212.16,270.326c-4.921,4.823-10.408,8.825-17.141,11.1.664.5,1.289.932,1.859,1.424a15.623,15.623,0,0,1,1.524,1.513c.657.749.5,1.356-.4,1.743a11.407,11.407,0,0,1-13.107-2.849,2.379,2.379,0,0,0-1.3-.693c-6.558-.98-12.17-4-17.265-8.063-1.871-1.493-3.58-3.195-5.321-4.845-.977-.926-.963-1.253-.053-2.2,5.214-5.393,11.123-9.736,18.384-11.973,1.443-.445,2.958-.652,4.431-1.007a1.957,1.957,0,0,0,.96-.5,11.307,11.307,0,0,1,12.951-3.154c1.312.49,1.5,1.106.5,2.108-.947.953-2.005,1.794-3.064,2.728a45.145,45.145,0,0,1,17.019,11.081c.708-.987,1.319-2,2.087-2.878,2.44-2.792,5.653-3.694,9.233-3.577.807.026,1.144.594.833,1.4a11.512,11.512,0,0,1-5.686,6.607c-.1.048-.2.1-.291.151-.018.01-.024.042-.066.121l.624.332a11.613,11.613,0,0,1,5.378,6.368c.4,1.014.032,1.525-1.089,1.534-4.616.038-8.255-1.7-10.551-5.855-.106-.192-.222-.38-.336-.568-.011-.018-.043-.023-.117-.06m-36.3,7.913a1.651,1.651,0,0,0,.247.19,24.2,24.2,0,0,0,16.276,1.842,36.568,36.568,0,0,0,14.184-7.417c1.643-1.327,3.167-2.8,4.761-4.223-.2-.241-.286-.349-.381-.445a44.769,44.769,0,0,0-13.006-9.408,24.952,24.952,0,0,0-13.577-2.506,28.223,28.223,0,0,0-8.756,2.6c3.95,6.438,4.015,12.9.252,19.363m-1.735-.768c3.713-6,3.452-12.255-.223-17.733a46.64,46.64,0,0,0-11.44,8.8,47.019,47.019,0,0,0,11.664,8.932m39.9-9.927c3.525-.044,7.052-2.433,7.97-5.357a8.73,8.73,0,0,0-7.97,5.357m.024,2.028c1.041,3,5.069,5.669,7.955,5.271a8.668,8.668,0,0,0-7.955-5.271m-26.8-15.341c1.3.147,2.535.219,3.745.44,2.276.416,3.6-1.1,5.225-2.3a8.6,8.6,0,0,0-8.969,1.859m8.954,30.438a12.849,12.849,0,0,0-1.587-1.212,6.484,6.484,0,0,0-2.606-1.124,31.952,31.952,0,0,0-4.714.53c2.03,2.211,6.284,3.1,8.908,1.807" transform="translate(-3474.277 1465.435)" fill="#00574f"/>
    <path id="Trazado_245668" data-name="Trazado 245668" d="M4123.134,150.595a6.235,6.235,0,0,1-4.232-2.135c-.58-.591-1.118-1.227-1.726-1.787a4.5,4.5,0,0,0-6.586.125c-.668.66-1.292,1.365-1.976,2.006a6.375,6.375,0,0,1-8.963-.064c-.715-.69-1.373-1.44-2.1-2.118a4.43,4.43,0,0,0-6.216-.1c-.7.619-1.3,1.348-1.97,2.008a6.422,6.422,0,0,1-9.453.044c-.592-.578-1.129-1.213-1.724-1.788a4.526,4.526,0,0,0-6.711.014c-.73.714-1.407,1.485-2.163,2.169a6.365,6.365,0,0,1-8.715-.168c-.793-.768-1.521-1.607-2.344-2.338a4.346,4.346,0,0,0-5.827-.09c-.84.709-1.565,1.554-2.351,2.328a6.272,6.272,0,0,1-4.206,1.89c-.639.032-1.208-.084-1.247-.86-.036-.72.464-.939,1.086-.953a4.819,4.819,0,0,0,3.392-1.681,27.867,27.867,0,0,1,2.108-2.1,6.24,6.24,0,0,1,8.262.089c.668.572,1.248,1.248,1.865,1.879,2.424,2.475,5.006,2.481,7.417.014.559-.572,1.1-1.167,1.683-1.713a6.334,6.334,0,0,1,8.77-.031c.688.636,1.31,1.344,1.978,2a4.524,4.524,0,0,0,6.828.047c.635-.612,1.2-1.3,1.842-1.9a6.342,6.342,0,0,1,9.076.018c.619.589,1.183,1.237,1.792,1.838a4.539,4.539,0,0,0,6.886-.006c.645-.643,1.253-1.325,1.918-1.946a6.335,6.335,0,0,1,8.891.042c.561.531,1.085,1.1,1.617,1.662,2.313,2.435,5.011,2.442,7.364.029.731-.75,1.459-1.508,2.246-2.2a5.682,5.682,0,0,1,3.42-1.308c.62-.048,1.216.026,1.3.8s-.416,1-1.082,1.025a4.871,4.871,0,0,0-3.39,1.689c-.708.734-1.407,1.482-2.169,2.157a6.4,6.4,0,0,1-4.594,1.417" transform="translate(-3378.717 1553.45)" fill="#00574f"/>
    <path id="Trazado_245669" data-name="Trazado 245669" d="M4161.335,298.434a2.213,2.213,0,0,1-4.425-.094,2.213,2.213,0,1,1,4.425.094" transform="translate(-3471.498 1427.31)" fill="#00574f"/>
    <path id="Trazado_245670" data-name="Trazado 245670" d="M4182.872,264.247c-.062.718-.383,1.12-1.04,1.141a1.031,1.031,0,1,1-.054-2.062,1.017,1.017,0,0,1,1.094.921" transform="translate(-3491.211 1454.419)" fill="#00574f"/>
    <path id="Trazado_245671" data-name="Trazado 245671" d="M4166.776,232.109c-.295-.444-.6-.7-.576-.922.027-.235.367-.435.57-.65.228.225.576.42.64.684.043.181-.31.458-.634.888" transform="translate(-3479.172 1481.511)" fill="#00574f"/>
    <path id="Trazado_245672" data-name="Trazado 245672" d="M4293.923,344.621a12.725,12.725,0,0,1-6.975-2.37c-.846-.588-.83-1.236-.011-1.849a11.383,11.383,0,0,1,13.729-.087c.929.671.938,1.284,0,1.937a12.449,12.449,0,0,1-6.743,2.368m4.778-3.3c-2.969-1.976-7.781-1.914-9.644.08a9.01,9.01,0,0,0,9.644-.08" transform="translate(-3578.426 1392.671)" fill="#00574f"/>
    <path id="Trazado_245673" data-name="Trazado 245673" d="M4207.482,345.9a2.267,2.267,0,1,1-2.25-2.269,2.268,2.268,0,0,1,2.25,2.269" transform="translate(-3509.539 1388.062)" fill="#00574f"/>
    <path id="Trazado_245674" data-name="Trazado 245674" d="M4056.649,103.57a51.785,51.785,0,0,1-36.617-88.4A51.785,51.785,0,0,1,4093.267,88.4a51.446,51.446,0,0,1-36.618,15.167m0-96.621a44.836,44.836,0,1,0,44.836,44.836,44.887,44.887,0,0,0-44.836-44.836" transform="translate(-3345.863 1672)" fill="#00574f"/>
    <text id="Sector_piscicola" data-name="Sector
piscicola" transform="translate(711 1798.7)" fill="#12263f" font-size="16" font-family="Roboto-Regular, Roboto"><tspan x="-22.977" y="0">Sector</tspan><tspan x="-31.727" y="16">piscicola</tspan></text>
    <g id="Grupo_244362" data-name="Grupo 244362" transform="translate(-260.847 170.7)">
      <path id="Trazado_245681" data-name="Trazado 245681" d="M4891.077,148.956h-2.195a3.457,3.457,0,0,0-3.453,3.453v.025a5.72,5.72,0,0,0-4.381,2.73h-4.354a8.612,8.612,0,0,0-1.006-1.146,1.907,1.907,0,0,0,1.228-1.779v-2.151a1.909,1.909,0,0,0-1.907-1.907h-2.056v-3.042h3.6a4.19,4.19,0,1,0,3.071-7.039,4.161,4.161,0,0,0-3.465,1.837h-3.24a4.187,4.187,0,0,0-6.931,0h-3.241a4.191,4.191,0,1,0-3.465,6.546,4.208,4.208,0,0,0,3.071-1.344h3.6v3.042H4863.9a1.908,1.908,0,0,0-1.906,1.907v2.151a1.909,1.909,0,0,0,1.716,1.9,8.641,8.641,0,0,0-.885,1.028h-4.074a11.13,11.13,0,0,0-11.117,11.117v1.8a2.408,2.408,0,0,0-1.06,1.995v3.52a2.412,2.412,0,0,0,2.409,2.41h7.269a2.412,2.412,0,0,0,2.41-2.41v-3.52a2.41,2.41,0,0,0-1.243-2.106V167.4a3.1,3.1,0,0,1,3.1-3.1h1.676a8.587,8.587,0,0,0,15.1.072h3.7a6.9,6.9,0,0,0,4.443,3.026,3.456,3.456,0,0,0,3.451,3.359h2.195a.9.9,0,0,0,.9-.9V149.854a.9.9,0,0,0-.9-.9m-29.146-5.614a.9.9,0,0,0-.724.366,2.372,2.372,0,0,1-1.927.979,2.395,2.395,0,1,1,2.145-3.453.9.9,0,0,0,.806.5h4.27a.9.9,0,0,0,.806-.5,2.389,2.389,0,0,1,4.29,0,.9.9,0,0,0,.805.5h4.27a.9.9,0,0,0,.806-.5,2.4,2.4,0,1,1,.218,2.474.9.9,0,0,0-.724-.366h-4.87a.9.9,0,0,0-.724.366l-.013.017c-.007.009-.016.016-.023.025a2.378,2.378,0,0,1-1.751.933q-.069,0-.139,0t-.139,0a2.378,2.378,0,0,1-1.751-.933c-.007-.009-.016-.017-.023-.025l-.013-.017a.9.9,0,0,0-.723-.366Zm5.817,2.779a4.192,4.192,0,0,0,3.407,0v2.06h-3.407Zm-3.962,3.966a.109.109,0,0,1,.109-.11h11.112a.11.11,0,0,1,.11.11v2.151a.11.11,0,0,1-.11.11H4863.9a.11.11,0,0,1-.109-.11ZM4856.86,173.6a.614.614,0,0,1-.613.613h-7.269a.613.613,0,0,1-.612-.613v-3.52a.612.612,0,0,1,.467-.593h7.559a.612.612,0,0,1,.468.593Zm28.549-8.033a5.561,5.561,0,0,1-3.13-2.511.9.9,0,0,0-.792-.475h-4.751a.9.9,0,0,0-.814.52,6.792,6.792,0,0,1-12.359-.063.9.9,0,0,0-.819-.528h-2.233a4.9,4.9,0,0,0-4.892,4.892v.27h-6.191v-1.385a9.331,9.331,0,0,1,9.32-9.32h4.545a.9.9,0,0,0,.754-.41,6.825,6.825,0,0,1,2.69-2.405h6.04a6.824,6.824,0,0,1,2.69,2.405.92.92,0,0,0,.767.41h5.325a.9.9,0,0,0,.789-.468,4.094,4.094,0,0,1,3.062-2.252Zm4.769,3.4h-1.3a1.658,1.658,0,0,1-1.656-1.656v-14.9a1.658,1.658,0,0,1,1.656-1.656h1.3Z" transform="translate(-3719.642 1387.19)" fill="#00574f"/>
      <path id="Trazado_245682" data-name="Trazado 245682" d="M4859.086,371.971l-4.269-7.189a.9.9,0,0,0-1.545,0L4849,371.971l-.013.023a6.2,6.2,0,0,0,.1,5.965,5.928,5.928,0,0,0,9.905,0,6.2,6.2,0,0,0,.1-5.965l-.013-.023m-1.637,5.076a4.138,4.138,0,0,1-6.809,0,4.348,4.348,0,0,1-.085-4.171l3.489-5.876,3.489,5.876a4.349,4.349,0,0,1-.085,4.171" transform="translate(-3721.051 1200.25)" fill="#00574f"/>
      <path id="Trazado_245683" data-name="Trazado 245683" d="M4730.943,103.57a51.785,51.785,0,0,1-36.618-88.4A51.785,51.785,0,1,1,4767.561,88.4a51.446,51.446,0,0,1-36.617,15.167m0-96.621a44.836,44.836,0,1,0,44.836,44.836,44.887,44.887,0,0,0-44.836-44.836" transform="translate(-3581.312 1501.3)" fill="#00574f"/>
    </g>
    <text id="Sector_servicios" data-name="Sector
servicios" transform="translate(889 1798.7)" fill="#12263f" font-size="16" font-family="Roboto-Regular, Roboto"><tspan x="-22.977" y="0">Sector</tspan><tspan x="-31.773" y="16">servicios</tspan></text>
    <path id="Trazado_245685" data-name="Trazado 245685" d="M5771.662,449.257a8.051,8.051,0,0,1-.961-.007.865.865,0,0,1-.845-.91.829.829,0,0,1,.841-.9,19.283,19.283,0,0,1,1.989,0,.832.832,0,0,1,.846.9.865.865,0,0,1-.842.913,8.531,8.531,0,0,1-1.028.007" transform="translate(-4677.538 1302.31)" fill="#00574f"/>
    <path id="Trazado_245684" data-name="Trazado 245684" d="M5474.178,191.843c-2.774-2.7-3.817-5.779-2.5-9.307,1.5-4.016,4.644-5.681,8.967-5.51-1.149-1.241-2.209-2.4-3.292-3.539a1.025,1.025,0,0,0-.557-.187,3.271,3.271,0,0,1-2.876-3.449,3.231,3.231,0,0,1,3.244-3.016c.432-.012.863,0,1.322,0a4.792,4.792,0,0,1,4.637-4.685,7.145,7.145,0,0,1,7.037-6.44c.495-1.748.987-3.507,1.49-5.263.475-1.659,1.268-2.094,2.918-1.623.724.207,1.451.4,2.245.626.457-1.523.9-3.008,1.348-4.493.439-1.466.876-2.933,1.333-4.467-.561-.165-1.084-.311-1.6-.474-.672-.211-.966-.659-.815-1.216a.961.961,0,0,1,1.314-.638c1.717.491,3.427,1.009,5.137,1.526a.875.875,0,0,1,.718,1.079.9.9,0,0,1-1.173.676c-.58-.108-1.144-.3-1.785-.474l-2.69,8.962c.826.242,1.611.468,2.394.7a1.864,1.864,0,0,1,1.414,2.584c-.47,1.673-.95,3.344-1.442,5.07a6.668,6.668,0,0,1,3.277,4.023,4.766,4.766,0,0,1,3.972.849,4.666,4.666,0,0,1,1.834,3.594c1.143.082,2.232.171,3.324.22.114.005.275-.209.351-.354.46-.9.9-1.8,1.349-2.7a.56.56,0,0,1,.057-.125c.935-1.028,1.832-2.1,2.834-3.054a2.21,2.21,0,0,1,1.359-.359c1.511-.043,3.025-.034,4.538-.013a2.744,2.744,0,0,1,2.841,2.737,2.782,2.782,0,0,1-2.862,2.8c-1.329.015-2.659-.025-3.987.012a3.105,3.105,0,0,1-2.976-1.424c-.616,1.239-1.2,2.386-1.749,3.55a.8.8,0,0,0,.1.557,3.24,3.24,0,0,1-2.292,4.685,1.25,1.25,0,0,0-.726.575q-1.455,2.8-2.828,5.652a2.661,2.661,0,0,0-.26,1.107c-.021,3.048-.012,6.1-.012,9.145v2.081h10.55a4.847,4.847,0,0,1,.686.023.85.85,0,0,1,.792.887.876.876,0,0,1-.772.913,3.041,3.041,0,0,1-.617.022H5472.5c-.138,0-.275.005-.413,0a.909.909,0,0,1-.949-.892.893.893,0,0,1,.956-.941c.636-.024,1.273-.006,2.079-.006m5.664-18.507a2.032,2.032,0,0,0,.159.261q4.067,4.388,8.15,8.759a.97.97,0,0,0,.768.2q9.078-1.725,18.146-3.51a1.245,1.245,0,0,0,.732-.589c.638-1.19,1.221-2.41,1.822-3.62.238-.48.474-.962.738-1.5Zm.614-6.555H5508.1a2.652,2.652,0,0,0-3.815-2.449c-1.009.458-1.5.2-1.683-.877a4.652,4.652,0,0,0-3.769-3.958,4.785,4.785,0,0,0-3.648.851,1.256,1.256,0,0,1-1.108.1c-.251-.152-.269-.677-.41-1.03a1.759,1.759,0,0,0-.361-.7,5.071,5.071,0,0,0-8.154,2.884c-.1.478-.284.945.323,1.319a1,1,0,0,1,.154.966,1.522,1.522,0,0,1-.931.509c-.208.05-.469-.14-.71-.211a2.711,2.711,0,0,0-3.529,2.6m4.315,25.011h17.955c.01-.067.024-.094.015-.108-1.652-2.853-3.3-5.709-4.972-8.551a.64.64,0,0,0-.541-.208q-4.5.818-8.979,1.7a.705.705,0,0,0-.428.52,8.6,8.6,0,0,1-3.049,6.652m9.943-20.35h4.6q6.426,0,12.853,0a1.39,1.39,0,0,0,1.556-1.37,1.423,1.423,0,0,0-1.554-1.39c-.114,0-.229,0-.344,0q-17.08,0-34.161,0a3.726,3.726,0,0,0-.885.071,1.365,1.365,0,0,0,.2,2.67,6.543,6.543,0,0,0,.755.021h16.978m-9.167,11.754a6.452,6.452,0,0,0-7.983-4.038,6.348,6.348,0,0,0-4.361,7.545,6.487,6.487,0,0,0,7.8,4.613c2.848-.67,5.308-3.807,4.818-6.176-.178.021-.357.052-.537.06-.813.035-1.209.34-1.385,1.255a4.477,4.477,0,0,1-4.568,3.507,4.63,4.63,0,0,1-1.737-8.867,4.476,4.476,0,0,1,5.594,1.574,1.3,1.3,0,0,0,1.8.676c.171-.059.351-.092.563-.147m14.035-.8a1.409,1.409,0,0,0,.071.27q2.511,4.3,5.032,8.6a1.553,1.553,0,0,0,1.841.525c.633-.176.74-.668.739-1.237q-.007-4.4,0-8.8v-.841l-7.681,1.485m-6.015-31.965c-.486,1.723-.948,3.369-1.414,5.015-.1.355.063.487.374.664.906.515,1.764,1.112,2.648,1.665.153.1.377.239.505.192a6.862,6.862,0,0,1,3.6-.343l1.483-5.192-2.625-.75c-.255.846-.486,1.631-.729,2.412-.224.721-.729,1.06-1.3.89-.549-.162-.745-.671-.534-1.413.222-.78.452-1.559.686-2.364-.461-.138-.831-.252-1.2-.359-.46-.133-.921-.259-1.486-.417m-11.741,33.492a2.669,2.669,0,0,0-3.341-1.182,2.77,2.77,0,0,0,1.368,5.326,2.48,2.48,0,0,0,2.261-2.272c-.723.141-1.436.284-2.149.419-.8.151-1.293-.1-1.407-.689s.247-1.016,1.039-1.173c.737-.147,1.475-.284,2.23-.429m39.832-21.73c-.731,0-1.464-.008-2.195,0-.656.01-1.072.357-1.095.888-.023.552.409.956,1.094.963q2.161.022,4.32,0a.941.941,0,0,0,1.055-.927c0-.543-.4-.91-1.054-.922-.708-.014-1.417,0-2.125,0" transform="translate(-4431.119 1557.89)" fill="#00574f"/>
    <path id="Trazado_245686" data-name="Trazado 245686" d="M5384.787,103.57a51.785,51.785,0,0,1-36.618-88.4A51.785,51.785,0,1,1,5421.4,88.4a51.446,51.446,0,0,1-36.618,15.167m0-96.621a44.836,44.836,0,1,0,44.837,44.836,44.887,44.887,0,0,0-44.837-44.836" transform="translate(-4317.002 1672)" fill="#00574f"/>
    <text id="Sector_construcción" data-name="Sector
construcción" transform="translate(1068 1798.7)" fill="#12263f" font-size="16" font-family="Roboto-Regular, Roboto"><tspan x="-22.977" y="0">Sector</tspan><tspan x="-46.313" y="16">construcción</tspan></text>
  </g>
</svg>
