<svg xmlns="http://www.w3.org/2000/svg" width="867.395" height="58.477" viewBox="0 0 867.395 58.477">
  <g id="Grupo_245501" data-name="Grupo 245501" transform="translate(2987 15.266)">
    <g id="Grupo_245500" data-name="Grupo 245500">
      <path id="Trazado_247028" data-name="Trazado 247028" d="M1170.4,824H323a10,10,0,0,1-10-10V775.521a10,10,0,0,1,10-10h847.4a10,10,0,0,1,10,10V814a10,10,0,0,1-10,10" transform="translate(-3300 -780.787)" fill="#fff"/>
      <g id="Grupo_245492" data-name="Grupo 245492">
        <text id="f_v_p_" data-name="f v (p) =" transform="translate(-2689.925 19.063)" font-size="15.467" font-family="TimesNewRomanPS-BoldItalicMT, Times New Roman" font-weight="700" font-style="italic"><tspan x="0" y="0">f v (p) =</tspan></text>
        <text id="_precio_p_peso_p_" data-name="( precio (p) * peso (p)" transform="translate(-2561.689 33.462)" font-size="15.467" font-family="TimesNewRomanPS-BoldItalicMT, Times New Roman" font-weight="700" font-style="italic"><tspan x="0" y="0">( precio (p) * peso (p)</tspan></text>
        <text id="precio_p_peso_p_" data-name="precio (p) * peso (p)" transform="translate(-2589.02 0.332)" font-size="15.467" font-family="TimesNewRomanPS-BoldItalicMT, Times New Roman" font-weight="700" font-style="italic"><tspan x="0" y="0">precio (p) * peso (p)</tspan></text>
        <line id="Línea_724" data-name="Línea 724" x2="218.178" transform="translate(-2632.384 13.592)" fill="#fff"/>
        <line id="Línea_725" data-name="Línea 725" x2="218.178" transform="translate(-2632.384 13.592)" fill="none" stroke="#000" stroke-miterlimit="10" stroke-width="0.967"/>
        <text id="z" transform="translate(-2606.318 29.532)" font-size="10.01" font-family="TimesNewRomanPS-BoldItalicMT, Times New Roman" font-weight="700" font-style="italic"><tspan x="0" y="0">z</tspan></text>
        <text id="p_" data-name="p " transform="translate(-2606.318 37.39)" font-size="10.01" font-family="TimesNewRomanPS-BoldItalicMT, Times New Roman" font-weight="700" font-style="italic"><tspan x="0" y="0">p </tspan></text>
        <text id="_1" data-name="∑   = 1" transform="translate(-2619.476 35.493)" font-size="15.467" font-family="TimesNewRomanPS-BoldItalicMT, Times New Roman" font-weight="700" font-style="italic"><tspan x="0" y="0" xml:space="preserve">∑   = 1</tspan></text>
      </g>
    </g>
  </g>
</svg>
