<svg id="Grupo_244352" data-name="Grupo 244352" xmlns="http://www.w3.org/2000/svg" xmlns:xlink="http://www.w3.org/1999/xlink" width="294.154" height="299.929" viewBox="0 0 294.154 299.929">
  <defs>
    <clipPath id="clip-path">
      <rect id="Rectángulo_316993" data-name="Rectángulo 316993" width="294.154" height="299.929" fill="none"/>
    </clipPath>
    <clipPath id="clip-path-2">
      <path id="Trazado_245607" data-name="Trazado 245607" d="M131.255.752c-.943.1-2.019.207-3.461.4C68.817,8.857,31.907,63.569,27.524,70.266c-36.966,56.479-39.319,147.655,9.058,191.362,21.29,19.235,45.889,28.917,75.243,34.38,18.195,3.386,77.224,7.466,128.7-26.908a113.189,113.189,0,0,0,19.878-16.136c23.587-24.313,33.725-58.623,33.744-93.953v-.218c-.02-33.195-8.965-67.271-24.073-94.773-8.724-15.881-20.467-25.181-27.066-30.71C208.558,4.442,168.275,0,146.313,0a142.31,142.31,0,0,0-15.058.752" transform="translate(0 0)" fill="none"/>
    </clipPath>
    <linearGradient id="linear-gradient" x1="0.172" y1="0.844" x2="0.173" y2="0.844" gradientUnits="objectBoundingBox">
      <stop offset="0" stop-color="#dae3fe"/>
      <stop offset="1" stop-color="#e9effd"/>
    </linearGradient>
    <clipPath id="clip-path-3">
      <rect id="Rectángulo_316970" data-name="Rectángulo 316970" width="294.153" height="299.929" fill="none"/>
    </clipPath>
    <clipPath id="clip-path-4">
      <rect id="Rectángulo_316964" data-name="Rectángulo 316964" width="48.642" height="181.355" fill="none"/>
    </clipPath>
    <clipPath id="clip-path-5">
      <rect id="Rectángulo_316965" data-name="Rectángulo 316965" width="24.243" height="107.577" fill="none"/>
    </clipPath>
    <clipPath id="clip-path-6">
      <rect id="Rectángulo_316966" data-name="Rectángulo 316966" width="44.251" height="66.463" fill="none"/>
    </clipPath>
    <clipPath id="clip-path-7">
      <rect id="Rectángulo_316967" data-name="Rectángulo 316967" width="46.056" height="69.295" fill="none"/>
    </clipPath>
    <clipPath id="clip-path-8">
      <rect id="Rectángulo_316968" data-name="Rectángulo 316968" width="18.208" height="46.035" fill="none"/>
    </clipPath>
    <clipPath id="clip-path-9">
      <rect id="Rectángulo_316969" data-name="Rectángulo 316969" width="30.745" height="30.309" fill="none"/>
    </clipPath>
    <clipPath id="clip-path-10">
      <path id="Trazado_245627" data-name="Trazado 245627" d="M505.063,44.563c-21.909,32.943-88.241,136.491-88.241,182.625,0,55.261,42.61,100.058,95.171,100.058s95.171-44.8,95.171-100.058c0-46.134-66.332-149.682-88.241-182.625a8.321,8.321,0,0,0-13.859,0" transform="translate(-416.822 -40.848)" fill="none"/>
    </clipPath>
    <linearGradient id="linear-gradient-2" x1="0.05" y1="1.162" x2="0.05" y2="1.162" gradientUnits="objectBoundingBox">
      <stop offset="0" stop-color="#4f52ff"/>
      <stop offset="1" stop-color="#4042e2"/>
    </linearGradient>
    <clipPath id="clip-path-12">
      <path id="Trazado_245633" data-name="Trazado 245633" d="M1612.6,318.468c11.611,1.942,20.616,11.719,22.141,23.937a1.337,1.337,0,0,0,1.279,1.175l56.16,1.882.441-.428c-.172-46.981-33.86-87.231-78.985-92.559Z" transform="translate(-1612.597 -252.476)" fill="none"/>
    </clipPath>
    <linearGradient id="linear-gradient-3" x1="-1.252" y1="2.403" x2="-1.251" y2="2.403" gradientUnits="objectBoundingBox">
      <stop offset="0" stop-color="#ff928e"/>
      <stop offset="1" stop-color="#fe7062"/>
    </linearGradient>
    <clipPath id="clip-path-13">
      <path id="Trazado_245634" data-name="Trazado 245634" d="M508.856,1374.8c-.5,1.525-4.264,1.722-4.636,4.722a3.443,3.443,0,0,1-2.881,3.026c-3.842.589-9.764,2.584-10.711,9.255-.723,5.092,1.873,7.023,4.6,7.691a3.859,3.859,0,0,1,2.926,4.457c-.388,1.938.191,4.177,3.547,5.949,7.522,3.969,15.034-9.4,15.034-9.4l1.539-23.349-5.388-5.9s-3.4,1.655-4.028,3.556" transform="translate(-490.506 -1371.24)" fill="none"/>
    </clipPath>
    <linearGradient id="linear-gradient-4" x1="-0.826" y1="3.605" x2="-0.824" y2="3.605" gradientUnits="objectBoundingBox">
      <stop offset="0" stop-color="#09005d"/>
      <stop offset="1" stop-color="#1a0f91"/>
    </linearGradient>
    <clipPath id="clip-path-14">
      <path id="Trazado_245635" data-name="Trazado 245635" d="M772.884,1348.219s3.48,9.912,6.166,11.046c0,0,21.972-18.333,27.619-36.015l-.906-3.376s-15.019,23.756-32.879,28.344" transform="translate(-772.884 -1319.875)" fill="none"/>
    </clipPath>
    <linearGradient id="linear-gradient-5" x1="-1.437" y1="3.235" x2="-1.435" y2="3.235" gradientUnits="objectBoundingBox">
      <stop offset="0" stop-color="#febbba"/>
      <stop offset="1" stop-color="#ff928e"/>
    </linearGradient>
    <clipPath id="clip-path-15">
      <path id="Trazado_245636" data-name="Trazado 245636" d="M334.683,2715.611a14.572,14.572,0,0,0-2.684,5.228,1.416,1.416,0,0,0,1.189,1.836,25.6,25.6,0,0,0,5.356-.083,1.654,1.654,0,0,0,1.45-1.447l.487-4a1.368,1.368,0,0,0-1.357-1.533Z" transform="translate(-331.932 -2715.611)" fill="none"/>
    </clipPath>
    <linearGradient id="linear-gradient-6" x1="-4.019" y1="1.001" x2="-4.007" y2="1.001" xlink:href="#linear-gradient-4"/>
    <clipPath id="clip-path-16">
      <path id="Trazado_245637" data-name="Trazado 245637" d="M657.712,2298.44l-2.294,4.309a8.736,8.736,0,0,0-.994,4.832l2.378,28.471-1.815,2.5.221,1.353,11.088,6.543-4.363-7.085a7.964,7.964,0,0,1-1.179-4.527c.446-10.166,2.955-35.581,2.955-35.581l-.749-4.407Z" transform="translate(-654.394 -2294.843)" fill="none"/>
    </clipPath>
    <linearGradient id="linear-gradient-7" x1="-4.169" y1="1.012" x2="-4.163" y2="1.012" xlink:href="#linear-gradient-5"/>
    <clipPath id="clip-path-17">
      <path id="Trazado_245638" data-name="Trazado 245638" d="M651.845,2689.592l1.044,6.5h.825s-.188-5.23,1.283-5.132c1.093.073,3.378,2.87,4.481,4.3a2.131,2.131,0,0,0,1.691.829h3.538a.936.936,0,0,0,.174-1.855,5.053,5.053,0,0,0-1.438-.039s-5.6-3.939-7.42-5.04a5.439,5.439,0,0,1-2.16-3.587,3.847,3.847,0,0,0-2.019,4.021" transform="translate(-651.796 -2685.57)" fill="none"/>
    </clipPath>
    <linearGradient id="linear-gradient-8" x1="-4.858" y1="1" x2="-4.85" y2="1" xlink:href="#linear-gradient-4"/>
    <clipPath id="clip-path-18">
      <path id="Trazado_245639" data-name="Trazado 245639" d="M365.368,2299.1c-6.13,4.688-7.721,9.778-9.128,14.47s-3.974,18.187-5.167,21.165c-1,2.494-3.7,7.993-4.548,9.714a1.571,1.571,0,0,0,.06,1.521,2.585,2.585,0,0,0,2.4,1.1c2.694,0,3.672-.754,3.72-1.54a61.162,61.162,0,0,1,3.186-12.179c2.337-6.366,17.035-34.248,17.035-34.248a4.361,4.361,0,0,0-3.452-1.832,6.757,6.757,0,0,0-4.111,1.832" transform="translate(-346.357 -2297.271)" fill="none"/>
    </clipPath>
    <linearGradient id="linear-gradient-9" x1="-1.142" y1="1.029" x2="-1.139" y2="1.029" xlink:href="#linear-gradient-5"/>
    <clipPath id="clip-path-19">
      <path id="Trazado_245640" data-name="Trazado 245640" d="M625.171,1586.82s9.605,9.087,5.814,25.154a14.664,14.664,0,0,0,13.17,1.283s6.674-17.634,7.407-21.168c1.25-6.03-9.287-13.733-9.287-13.733s-11.043,2.647-17.1,8.465" transform="translate(-625.171 -1578.355)" fill="none"/>
    </clipPath>
    <linearGradient id="linear-gradient-10" x1="-1.295" y1="3.316" x2="-1.292" y2="3.316" xlink:href="#linear-gradient-3"/>
    <clipPath id="clip-path-20">
      <path id="Trazado_245641" data-name="Trazado 245641" d="M527.347,1898.274c-1.543,4.649-2.894,27.443-8.909,38.121,0,0,14.523,3.839,23.966,1.925,0,0,5.993-31.6,6.948-36.511a26.415,26.415,0,0,0-.429-10.206,14.663,14.663,0,0,1-13.17-1.283s-6.863,3.306-8.406,7.954" transform="translate(-518.438 -1890.32)" fill="none"/>
    </clipPath>
    <linearGradient id="linear-gradient-11" x1="-0.719" y1="1.772" x2="-0.717" y2="1.772" gradientUnits="objectBoundingBox">
      <stop offset="0" stop-color="#e1473d"/>
      <stop offset="1" stop-color="#e9605a"/>
    </linearGradient>
    <clipPath id="clip-path-21">
      <path id="Trazado_245642" data-name="Trazado 245642" d="M694.039,1468.9l-3.083,13.847c-.3,1.219.817,1.02,2.05.788,2.019-.381,4.622-1.165,5.492-2.736a1.491,1.491,0,0,0,.158-.522l1.324-9.6a1.725,1.725,0,0,0-1.01-1.813l-2.556-1.133a1.723,1.723,0,0,0-2.376,1.171" transform="translate(-690.908 -1467.578)" fill="none"/>
    </clipPath>
    <linearGradient id="linear-gradient-12" x1="-6.329" y1="8.128" x2="-6.32" y2="8.128" xlink:href="#linear-gradient-5"/>
    <clipPath id="clip-path-22">
      <path id="Trazado_245643" data-name="Trazado 245643" d="M555.79,1674.6s.492-3.723-.15-3.659c-13.993,1.4-19.846,4.6-8.471-6.43.4-.39.278-1.862.019-2.359-.788-1.513-2.589-4.518-4.8-5.249,0,0-29.755,29.455,13.4,17.7" transform="translate(-532.395 -1656.905)" fill="none"/>
    </clipPath>
    <linearGradient id="linear-gradient-13" x1="-0.651" y1="2.923" x2="-0.649" y2="2.923" xlink:href="#linear-gradient-5"/>
    <clipPath id="clip-path-23">
      <path id="Trazado_245644" data-name="Trazado 245644" d="M700.931,1369.144a10.9,10.9,0,0,0,8.706,4.91c2.349.124,4.641-1.905,3.231-7.563s-4.692-7.879-4.692-7.879a3.081,3.081,0,0,0-1.671-.493c-3.968,0-8.156,7.475-5.574,11.025" transform="translate(-700.136 -1358.119)" fill="none"/>
    </clipPath>
    <linearGradient id="linear-gradient-14" x1="-3.554" y1="7.699" x2="-3.549" y2="7.699" xlink:href="#linear-gradient-5"/>
    <clipPath id="clip-path-24">
      <path id="Trazado_245645" data-name="Trazado 245645" d="M666.088,1317.806c-2.8,5.105-3.815,8.693-1.469,11.866s4.111.452,4.111.452-1.076-2.746-.183-3.924,2.045.685,2.045.685l.463-.134s-1.2-8.107,5.528-6.867l1.361,1.417s3.294-3.71-.351-6.515a7.5,7.5,0,0,0-4.571-1.624c-2.6,0-5.2,1.479-6.933,4.643" transform="translate(-663.314 -1313.163)" fill="none"/>
    </clipPath>
    <linearGradient id="linear-gradient-15" x1="-2.479" y1="6.082" x2="-2.475" y2="6.082" xlink:href="#linear-gradient-4"/>
    <clipPath id="clip-path-25">
      <path id="Trazado_245646" data-name="Trazado 245646" d="M695.025,1416.282c-2.13,1.192.768,3.9,1.93,4.816l.794-1.838s-.454-3.193-1.995-3.193a1.5,1.5,0,0,0-.729.214" transform="translate(-694.264 -1416.068)" fill="none"/>
    </clipPath>
    <linearGradient id="linear-gradient-16" x1="-11.781" y1="23.519" x2="-11.764" y2="23.519" xlink:href="#linear-gradient-5"/>
    <clipPath id="clip-path-26">
      <path id="Trazado_245647" data-name="Trazado 245647" d="M1056.292,1244.744c-.7.617-.979,4.589-1.138,5.5.58,2.089,2.4,1.75,2.357,1.26a3.811,3.811,0,0,0,3.155-1.049c.8-.735,1.679-1.7,2.335-2.453a3.858,3.858,0,0,0,.975-2.7,13.336,13.336,0,0,0-.9-3.447l3.3-2.225a1.351,1.351,0,0,0,.23-1.871,73.4,73.4,0,0,0-10.308,6.983" transform="translate(-1055.154 -1237.761)" fill="none"/>
    </clipPath>
    <linearGradient id="linear-gradient-17" x1="-5.823" y1="9.15" x2="-5.818" y2="9.15" xlink:href="#linear-gradient-5"/>
    <clipPath id="clip-path-27">
      <path id="Trazado_245648" data-name="Trazado 245648" d="M1074.985,1288.945l-1.255,1.965.459.294,1.178-1.845,2.668-1.427a.548.548,0,0,1,.169.339,1.157,1.157,0,0,1-.418.773c-.765.8-2.347,4.644-2.414,4.807l.5.207a26.864,26.864,0,0,1,2.305-4.637,1.62,1.62,0,0,0,.568-1.183,1.182,1.182,0,0,0-.5-.849l-.141-.115Z" transform="translate(-1073.73 -1287.274)" fill="none"/>
    </clipPath>
    <linearGradient id="linear-gradient-18" x1="-22.951" y1="23.76" x2="-22.93" y2="23.76" xlink:href="#linear-gradient-5"/>
    <clipPath id="clip-path-28">
      <path id="Trazado_245649" data-name="Trazado 245649" d="M750.375,1625.372c-4.365.369-8.145.8-9.45.949a.733.733,0,0,0-.62.528L733.1,1652a.736.736,0,0,0,.7.938l16.707.155a.737.737,0,0,0,.594-.291c4.274-5.594,12.808-22.669,14.883-26.866a.736.736,0,0,0-.6-1.059c-.946-.079-2.056-.114-3.274-.114-3.482,0-7.843.283-11.738.613" transform="translate(-733.075 -1624.759)" fill="none"/>
    </clipPath>
    <linearGradient id="linear-gradient-19" x1="-1.953" y1="3.634" x2="-1.95" y2="3.634" xlink:href="#linear-gradient-4"/>
    <clipPath id="clip-path-29">
      <path id="Trazado_245650" data-name="Trazado 245650" d="M900.521,1602.1l-5.221.87a.375.375,0,0,0-.3.284l-.32,1.367a.375.375,0,0,0,.414.457l5.024-.671a.375.375,0,0,0,.306-.254l.517-1.566a.374.374,0,0,0-.417-.487" transform="translate(-894.667 -1602.092)" fill="none"/>
    </clipPath>
    <linearGradient id="linear-gradient-20" x1="-22.312" y1="18.693" x2="-22.287" y2="18.693" gradientUnits="objectBoundingBox">
      <stop offset="0" stop-color="#53d8ff"/>
      <stop offset="1" stop-color="#3840f7"/>
    </linearGradient>
    <clipPath id="clip-path-30">
      <path id="Trazado_245651" data-name="Trazado 245651" d="M875.621,1616.612l-10.545,1.07a.517.517,0,0,0-.456.418l-.43,2.24a.518.518,0,0,0,.534.615l10.3-.519a.518.518,0,0,0,.477-.4l.67-2.792a.518.518,0,0,0-.5-.639.5.5,0,0,0-.054,0" transform="translate(-864.18 -1616.609)" fill="none"/>
    </clipPath>
    <linearGradient id="linear-gradient-21" x1="-15.244" y1="10.241" x2="-15.227" y2="10.241" xlink:href="#linear-gradient-20"/>
    <clipPath id="clip-path-31">
      <path id="Trazado_245652" data-name="Trazado 245652" d="M743.139,1744.547c-.4,1.463.6,5.588.6,5.588a3.794,3.794,0,0,0,3.432-1.2c.788-.773,1.255-1.545,1.894-1.129a1.335,1.335,0,0,0,1.955-.449l-1.145-1.264c1.677.815,1.854-.711,1.854-.711l-1.231-.953a1.5,1.5,0,0,0,2.142-1.291,38.229,38.229,0,0,0-5.7-1.519,4.461,4.461,0,0,0-.706-.059c-2.055,0-2.73,1.664-3.1,2.986" transform="translate(-743.042 -1741.561)" fill="none"/>
    </clipPath>
    <linearGradient id="linear-gradient-22" x1="-8.055" y1="12.736" x2="-8.045" y2="12.736" xlink:href="#linear-gradient-5"/>
  </defs>
  <g id="Grupo_244351" data-name="Grupo 244351" clip-path="url(#clip-path)">
    <g id="Grupo_244286" data-name="Grupo 244286" transform="translate(0)">
      <g id="Grupo_244285" data-name="Grupo 244285" clip-path="url(#clip-path-2)">
        <rect id="Rectángulo_316963" data-name="Rectángulo 316963" width="430.772" height="430.662" transform="matrix(0.729, -0.685, 0.685, 0.729, -163.236, 142.263)" fill="url(#linear-gradient)"/>
      </g>
    </g>
    <g id="Grupo_244306" data-name="Grupo 244306">
      <g id="Grupo_244305" data-name="Grupo 244305" clip-path="url(#clip-path-3)">
        <path id="Trazado_245608" data-name="Trazado 245608" d="M140.173,168.652c-.353-1.5,1.762-2.5,3.056-1.452,13.149,10.663,44.743,42.593,36.87,98.393-9.879,70.01,7.01,95.556,28.033,111.139,0,0-28.871-7.328-47.036-33.25-44.6-63.644-14.644-148.1-20.923-174.83" transform="translate(-121.419 -148.794)" fill="#91b3fa"/>
        <g id="Grupo_244289" data-name="Grupo 244289" transform="translate(28.753 41.24)" style="mix-blend-mode: soft-light;isolation: isolate">
          <g id="Grupo_244288" data-name="Grupo 244288">
            <g id="Grupo_244287" data-name="Grupo 244287" clip-path="url(#clip-path-4)">
              <path id="Trazado_245609" data-name="Trazado 245609" d="M266.825,383.175c1.645,7.794,3.111,15.612,4.244,23.464q1.771,11.769,2.7,23.607c.584,7.888,1,15.784,1.02,23.684.065,7.9-.264,15.792-.626,23.715a214.519,214.519,0,0,0-.1,23.933,70.948,70.948,0,0,0,5.607,23.688c.837,1.89,1.718,3.773,2.718,5.594.961,1.837,2.017,3.638,3.11,5.421a85.566,85.566,0,0,0,7.459,10.261,94.094,94.094,0,0,0,19.64,17.188,1.966,1.966,0,0,0,2.487-.283,1.393,1.393,0,0,0-.286-2.119l-.005,0c-1.757-1.234-3.495-2.483-5.162-3.8-.846-.645-1.657-1.32-2.483-1.983-.8-.688-1.622-1.351-2.392-2.059a85.354,85.354,0,0,1-21.43-29.4,69.237,69.237,0,0,1-3.718-11.164,76.206,76.206,0,0,1-1.794-11.562,212.179,212.179,0,0,1-.1-23.619c.233-7.924.4-15.889.194-23.846q-.138-5.968-.524-11.928c-.115-1.987-.275-3.971-.431-5.955q-.267-2.974-.577-5.945-1.28-11.879-3.407-23.664c-1.464-7.845-3.168-15.654-5.218-23.393a.482.482,0,0,0-.57-.309.417.417,0,0,0-.362.474" transform="translate(-266.818 -382.691)" fill="#fff"/>
            </g>
          </g>
        </g>
        <path id="Trazado_245610" data-name="Trazado 245610" d="M374.477,479.045a3.31,3.31,0,0,1-5.417-.923c-5.352-11.815-17.462-46.588,2.539-86.648,16.89-33.829,22.833-53.778,24.9-63.021a2.076,2.076,0,0,1,3.925-.381c8.92,20.218,32.472,88.988-25.95,150.973" transform="translate(-321.66 -291.612)" fill="#bdd0fb"/>
        <g id="Grupo_244292" data-name="Grupo 244292" transform="translate(48.808 78.624)" style="mix-blend-mode: soft-light;isolation: isolate">
          <g id="Grupo_244291" data-name="Grupo 244291">
            <g id="Grupo_244290" data-name="Grupo 244290" clip-path="url(#clip-path-5)">
              <path id="Trazado_245611" data-name="Trazado 245611" d="M453.994,837.149a.919.919,0,0,1-1.08-.918c.009-.575,1.127-58,22.486-106.1a.918.918,0,0,1,1.678.745c-21.2,47.748-22.32,104.812-22.329,105.383a.918.918,0,0,1-.755.889" transform="translate(-452.913 -729.587)" fill="#fff"/>
            </g>
          </g>
        </g>
        <g id="Grupo_244295" data-name="Grupo 244295" transform="translate(207.399 225.751)" opacity="0.3">
          <g id="Grupo_244294" data-name="Grupo 244294">
            <g id="Grupo_244293" data-name="Grupo 244293" clip-path="url(#clip-path-6)">
              <path id="Trazado_245612" data-name="Trazado 245612" d="M2018.591,2095.007a1.027,1.027,0,0,1,1.351.249c.707.919,1.385,1.883,2.015,2.864a1.027,1.027,0,0,1-.31,1.419l-.017.01a1.027,1.027,0,0,1-1.4-.32c-.6-.932-1.242-1.848-1.914-2.721a1.026,1.026,0,0,1,.188-1.44.98.98,0,0,1,.089-.062m4.63,7.654a1.051,1.051,0,0,1,.108-.058,1.026,1.026,0,0,1,1.363.5c.489,1.057.938,2.145,1.334,3.235a1.027,1.027,0,1,1-1.93.7c-.377-1.036-.8-2.069-1.268-3.074a1.027,1.027,0,0,1,.393-1.305m2.829,8.483a1.027,1.027,0,0,1,1.542.662c.241,1.137.437,2.3.579,3.453a1.027,1.027,0,1,1-2.038.252c-.136-1.1-.321-2.2-.55-3.279a1.027,1.027,0,0,1,.466-1.088m.862,8.9a1.027,1.027,0,0,1,1.564.892c-.019,1.163-.089,2.339-.207,3.5a1.027,1.027,0,1,1-2.043-.209c.112-1.1.178-2.215.2-3.321a1.027,1.027,0,0,1,.49-.858m-1.146,8.873a1.027,1.027,0,0,1,1.535,1.119c-.276,1.127-.6,2.258-.975,3.362a1.027,1.027,0,1,1-1.946-.655c.353-1.049.665-2.124.927-3.195a1.024,1.024,0,0,1,.459-.631m-3.08,8.4a1.027,1.027,0,0,1,1.458,1.333c-.519,1.04-1.089,2.071-1.7,3.063a1.027,1.027,0,0,1-1.753-1.07c.576-.943,1.117-1.922,1.611-2.91a1.02,1.02,0,0,1,.38-.415m-30.767,21.793a1.026,1.026,0,0,1,.41-.144c1.094-.137,2.2-.324,3.279-.556a1.027,1.027,0,0,1,.43,2.008c-1.139.244-2.3.441-3.453.586a1.027,1.027,0,0,1-.666-1.894m25.906-14.292a1.027,1.027,0,0,1,1.332,1.526c-.737.9-1.523,1.776-2.335,2.607a1.027,1.027,0,1,1-1.47-1.434c.771-.79,1.517-1.623,2.217-2.476a1.042,1.042,0,0,1,.255-.223M2000.612,2157a1.04,1.04,0,0,1,.186-.09c1.037-.379,2.071-.808,3.073-1.275a1.027,1.027,0,1,1,.866,1.862c-1.055.491-2.143.942-3.234,1.342a1.027,1.027,0,0,1-.892-1.838m10.8-5.956a1.027,1.027,0,0,1,1.165,1.688c-.919.71-1.881,1.389-2.859,2.019l-.018.012a1.027,1.027,0,0,1-1.094-1.738c.929-.6,1.843-1.244,2.716-1.919.03-.022.06-.043.091-.062" transform="translate(-1984.224 -2094.855)" fill="#91b3fa"/>
              <path id="Trazado_245613" data-name="Trazado 245613" d="M1925.052,2692.147a1.022,1.022,0,0,1,.595-.15c.529.03,1.066.049,1.6.058a1.027,1.027,0,0,1-.032,2.053c-.56-.009-1.126-.029-1.682-.06a1.027,1.027,0,0,1-.479-1.9" transform="translate(-1924.562 -2627.645)" fill="#91b3fa"/>
            </g>
          </g>
        </g>
        <g id="Grupo_244298" data-name="Grupo 244298" transform="translate(169.669 210.259)" opacity="0.3">
          <g id="Grupo_244297" data-name="Grupo 244297">
            <g id="Grupo_244296" data-name="Grupo 244296" clip-path="url(#clip-path-7)">
              <path id="Trazado_245614" data-name="Trazado 245614" d="M1664.434,2563.866a1.027,1.027,0,0,1,1.316.206c.345.4.7.8,1.068,1.191a1.027,1.027,0,1,1-1.5,1.4c-.383-.41-.761-.832-1.125-1.254a1.027,1.027,0,0,1,.109-1.448,1.061,1.061,0,0,1,.133-.1" transform="translate(-1654.299 -2497.696)" fill="#91b3fa"/>
              <path id="Trazado_245615" data-name="Trazado 245615" d="M1593.889,1957.455q.6-.371,1.224-.725a1.027,1.027,0,0,1,1.017,1.785c-.955.544-1.886,1.125-2.776,1.735a1.027,1.027,0,0,1-1.16-1.694c.551-.377,1.121-.748,1.7-1.1m6.107-3.079a1.044,1.044,0,0,1,.156-.078c1.063-.427,2.156-.814,3.248-1.15a1.027,1.027,0,1,1,.6,1.963c-1.037.319-2.076.687-3.086,1.092a1.027,1.027,0,0,1-.922-1.827m-12.038,7.535a1.027,1.027,0,0,1,1.227,1.635c-.8.729-1.586,1.5-2.326,2.3a1.027,1.027,0,0,1-1.5-1.4c.78-.839,1.6-1.654,2.45-2.423a1.024,1.024,0,0,1,.154-.115m20.519-9.9a1.025,1.025,0,0,1,.373-.138c1.13-.183,2.281-.32,3.422-.407a1.027,1.027,0,0,1,.156,2.047c-1.083.083-2.176.213-3.249.387a1.027,1.027,0,0,1-.7-1.889m-26.335,16.5a1.027,1.027,0,0,1,1.379,1.464c-.623.887-1.216,1.815-1.763,2.755a1.027,1.027,0,0,1-1.775-1.033c.576-.99,1.2-1.966,1.856-2.9a1.025,1.025,0,0,1,.3-.285m-4.227,7.717a1.027,1.027,0,0,1,1.488,1.266c-.415,1.005-.792,2.04-1.121,3.075a1.027,1.027,0,1,1-1.957-.622c.346-1.089.743-2.178,1.179-3.236a1.023,1.023,0,0,1,.411-.483m-2.444,8.455a1.027,1.027,0,0,1,1.549,1.05c-.186,1.073-.329,2.164-.424,3.246a1.027,1.027,0,0,1-2.046-.181c.1-1.138.251-2.287.446-3.416a1.025,1.025,0,0,1,.474-.7m-.542,8.786a1.027,1.027,0,0,1,1.562.825c.053,1.087.153,2.183.3,3.259a1.027,1.027,0,1,1-2.035.273c-.152-1.133-.258-2.288-.313-3.432a1.027,1.027,0,0,1,.489-.925m1.4,8.694a1.028,1.028,0,0,1,1.527.6c.291,1.046.63,2.092,1.008,3.112a1.027,1.027,0,0,1-1.926.714c-.4-1.073-.755-2.175-1.061-3.276a1.027,1.027,0,0,1,.451-1.15m3.274,8.168.055-.031a1.026,1.026,0,0,1,1.389.422c.377.706.78,1.409,1.2,2.089q.227.37.462.732a1.027,1.027,0,0,1-.306,1.419,1.015,1.015,0,0,1-1.419-.306q-.246-.382-.485-.77c-.44-.716-.865-1.455-1.261-2.2a1.027,1.027,0,0,1,.367-1.358" transform="translate(-1574.439 -1951.425)" fill="#91b3fa"/>
              <path id="Trazado_245616" data-name="Trazado 245616" d="M1968.07,1951.252a1.024,1.024,0,0,1,.6-.15c.555.034,1.119.081,1.678.138a1.027,1.027,0,1,1-.21,2.043c-.531-.055-1.067-.1-1.594-.131a1.027,1.027,0,0,1-.474-1.9" transform="translate(-1925.213 -1951.1)" fill="#91b3fa"/>
            </g>
          </g>
        </g>
        <path id="Trazado_245617" data-name="Trazado 245617" d="M1712.46,2053.156a.48.48,0,0,0-.535.156l-3.613,4.589a25.434,25.434,0,0,0-8.229.473l-4.115-4.139a.48.48,0,0,0-.549-.094l-6.307,3.05a.48.48,0,0,0-.268.489l.689,5.8a25.446,25.446,0,0,0-5.48,6.157l-5.841-.017a.48.48,0,0,0-.455.322l-2.3,6.616a.479.479,0,0,0,.156.535l4.589,3.613a25.435,25.435,0,0,0,.473,8.229l-4.139,4.115a.481.481,0,0,0-.094.549l3.05,6.307a.48.48,0,0,0,.489.268l5.8-.689a25.435,25.435,0,0,0,6.157,5.48l-.017,5.841a.48.48,0,0,0,.322.455l6.617,2.3a.479.479,0,0,0,.535-.156l3.613-4.589a25.434,25.434,0,0,0,8.23-.473l4.115,4.139a.481.481,0,0,0,.549.094l6.307-3.051a.48.48,0,0,0,.268-.489l-.69-5.8a25.439,25.439,0,0,0,5.481-6.157l5.84.017a.48.48,0,0,0,.455-.322l2.3-6.616a.48.48,0,0,0-.156-.535l-4.589-3.613a25.437,25.437,0,0,0-.473-8.229l4.139-4.115a.48.48,0,0,0,.094-.549l-3.05-6.307a.479.479,0,0,0-.489-.268l-5.8.689a25.445,25.445,0,0,0-6.157-5.48l.017-5.841a.48.48,0,0,0-.322-.455Z" transform="translate(-1494.877 -1831.875)" fill="#91b3fa"/>
        <path id="Trazado_245618" data-name="Trazado 245618" d="M1893.974,2269.359a7.047,7.047,0,1,1-.839.605,7.142,7.142,0,0,1,.839-.605m6.505,10.607a5.461,5.461,0,0,0,.65-.468,5.381,5.381,0,1,0-.65.468" transform="translate(-1686.879 -2023.877)" fill="#bdd0fb"/>
        <path id="Trazado_245619" data-name="Trazado 245619" d="M1803.057,2180.771a17.658,17.658,0,0,1,1.561-.854q.254-.123.512-.238a17.447,17.447,0,0,1,2.615-.922l.036-.01.1-.027.2-.05a.411.411,0,0,1,.194.8,16.514,16.514,0,0,0-12.5,14.136,16.392,16.392,0,0,0,1.531,9.081,16.7,16.7,0,0,0,.815,1.489A16.495,16.495,0,0,0,1827,2188.323a16.5,16.5,0,0,0-5.792-6.607.411.411,0,1,1,.451-.687,17.317,17.317,0,1,1-24.24,23.577,17.7,17.7,0,0,1-.856-1.563,17.319,17.319,0,0,1,6.489-22.273" transform="translate(-1601.413 -1943.876)" fill="#bdd0fb"/>
        <g id="Grupo_244301" data-name="Grupo 244301" transform="translate(249.01 184.405)" opacity="0.3">
          <g id="Grupo_244300" data-name="Grupo 244300">
            <g id="Grupo_244299" data-name="Grupo 244299" clip-path="url(#clip-path-8)">
              <path id="Trazado_245620" data-name="Trazado 245620" d="M2386.371,1711.28a.634.634,0,0,1,.757.07c.4.36.794.738,1.172,1.122a.634.634,0,1,1-.9.889c-.36-.366-.736-.726-1.117-1.07a.634.634,0,0,1,.093-1.011" transform="translate(-2377.946 -1711.187)" fill="#91b3fa"/>
              <path id="Trazado_245621" data-name="Trazado 245621" d="M2322.425,1744.557a.634.634,0,0,1,.835.155,27.558,27.558,0,0,1,1.58,2.3q.153.249.3.5a.657.657,0,0,1-.226.868.635.635,0,0,1-.868-.226q-.142-.243-.288-.481a26.378,26.378,0,0,0-1.507-2.193.634.634,0,0,1,.118-.889c.018-.013.036-.026.054-.037m3.33,5.68a.672.672,0,0,1,.081-.043.635.635,0,0,1,.834.33,27.435,27.435,0,0,1,1.149,3.174.634.634,0,0,1-1.217.357,26.292,26.292,0,0,0-1.1-3.028.634.634,0,0,1,.249-.791m1.853,6.318a.644.644,0,0,1,.231-.086.634.634,0,0,1,.728.525,27.385,27.385,0,0,1,.333,3.361.634.634,0,0,1-1.267.047,26.143,26.143,0,0,0-.318-3.2.635.635,0,0,1,.294-.642m.243,6.581a.634.634,0,0,1,.964.6,27.467,27.467,0,0,1-.5,3.339.634.634,0,0,1-1.241-.265,26.184,26.184,0,0,0,.476-3.184.633.633,0,0,1,.3-.486m-1.371,6.441a.634.634,0,0,1,.932.747,27.828,27.828,0,0,1-1.295,3.116.634.634,0,1,1-1.139-.557,26.456,26.456,0,0,0,1.235-2.974.634.634,0,0,1,.267-.333m-2.893,5.911a.634.634,0,0,1,.864.887,27.279,27.279,0,0,1-2.015,2.706.634.634,0,0,1-.968-.819,26.053,26.053,0,0,0,1.921-2.58.628.628,0,0,1,.2-.194m-4.249,5.024a.634.634,0,0,1,.761,1.007,27.48,27.48,0,0,1-2.619,2.13.635.635,0,0,1-.739-1.032,26.05,26.05,0,0,0,2.5-2.031.659.659,0,0,1,.1-.074m-8.344,5.227a.639.639,0,0,1,.1-.05,26.264,26.264,0,0,0,2.546-1.166c.126-.065.249-.13.371-.2a.634.634,0,0,1,.861.253.628.628,0,0,1-.253.86c-.13.071-.26.141-.393.209a27.567,27.567,0,0,1-2.667,1.22.634.634,0,0,1-.565-1.13" transform="translate(-2310.692 -1740.877)" fill="#91b3fa"/>
            </g>
          </g>
        </g>
        <g id="Grupo_244304" data-name="Grupo 244304" transform="translate(212.448 177.542)" opacity="0.3">
          <g id="Grupo_244303" data-name="Grupo 244303">
            <g id="Grupo_244302" data-name="Grupo 244302" clip-path="url(#clip-path-9)">
              <path id="Trazado_245622" data-name="Trazado 245622" d="M1984.14,1652.223a.634.634,0,0,1,.671,1.076,26.182,26.182,0,0,0-2.568,1.852.634.634,0,0,1-.8-.982,27.585,27.585,0,0,1,2.693-1.942l.007,0m2.841-1.568a.588.588,0,0,1,.061-.033,27.723,27.723,0,0,1,3.078-1.246.634.634,0,0,1,.4,1.2,26.519,26.519,0,0,0-2.938,1.188.634.634,0,0,1-.606-1.112m-7.852,5.668a.634.634,0,0,1,.791.978,26.255,26.255,0,0,0-2.045,2.419.634.634,0,0,1-1.017-.759,27.509,27.509,0,0,1,2.144-2.536.631.631,0,0,1,.127-.1m13.995-7.728a.637.637,0,0,1,.205-.081,27.234,27.234,0,0,1,3.29-.465.634.634,0,1,1,.1,1.264,26.076,26.076,0,0,0-3.136.444.634.634,0,0,1-.459-1.161m-17.866,12.918a.634.634,0,0,1,.883.855,26.07,26.07,0,0,0-1.4,2.839.634.634,0,0,1-1.169-.492,27.579,27.579,0,0,1,1.471-2.977.633.633,0,0,1,.218-.225m-2.514,5.967a.634.634,0,0,1,.943.714,26.45,26.45,0,0,0-.684,3.093.634.634,0,1,1-1.252-.2,27.7,27.7,0,0,1,.717-3.243.631.631,0,0,1,.277-.366m-1.012,6.4a.628.628,0,0,1,.354-.093.634.634,0,0,1,.611.657,25.925,25.925,0,0,0,.078,3.167.634.634,0,0,1-1.264.108,27.421,27.421,0,0,1-.083-3.321.634.634,0,0,1,.3-.517" transform="translate(-1971.412 -1647.987)" fill="#91b3fa"/>
              <path id="Trazado_245623" data-name="Trazado 245623" d="M2230.576,1647.59a.632.632,0,0,1,.359-.093c.542.024,1.086.063,1.617.118a.634.634,0,0,1-.13,1.262c-.506-.052-1.025-.09-1.543-.113a.634.634,0,0,1-.3-1.174" transform="translate(-2202.377 -1647.497)" fill="#91b3fa"/>
            </g>
          </g>
        </g>
        <path id="Trazado_245624" data-name="Trazado 245624" d="M2063.573,1715.534a.321.321,0,0,0-.358.1l-2.417,3.071a17.02,17.02,0,0,0-5.507.316l-2.754-2.77a.321.321,0,0,0-.367-.063l-4.22,2.041a.322.322,0,0,0-.179.327l.461,3.879a17.023,17.023,0,0,0-3.667,4.12l-3.908-.011a.321.321,0,0,0-.3.216l-1.541,4.427a.321.321,0,0,0,.1.358l3.071,2.418a17.019,17.019,0,0,0,.316,5.507l-2.77,2.754a.321.321,0,0,0-.063.367l2.041,4.22a.321.321,0,0,0,.327.179l3.878-.462a17.022,17.022,0,0,0,4.12,3.667l-.011,3.908a.322.322,0,0,0,.216.3l4.427,1.541a.321.321,0,0,0,.358-.1l2.418-3.071a17.017,17.017,0,0,0,5.506-.317l2.754,2.77a.321.321,0,0,0,.367.063l4.22-2.041a.321.321,0,0,0,.179-.327l-.462-3.878a17.015,17.015,0,0,0,3.667-4.12l3.908.011a.321.321,0,0,0,.3-.216l1.541-4.427a.321.321,0,0,0-.1-.358l-3.071-2.418a17.019,17.019,0,0,0-.317-5.507l2.77-2.754a.321.321,0,0,0,.063-.367l-2.041-4.22a.321.321,0,0,0-.327-.179l-3.878.461a17.032,17.032,0,0,0-4.12-3.667l.011-3.908a.321.321,0,0,0-.215-.3Z" transform="translate(-1819.083 -1530.644)" fill="#91b3fa"/>
        <path id="Trazado_245625" data-name="Trazado 245625" d="M2184.272,1859.41a4.81,4.81,0,1,1-.577.416,4.916,4.916,0,0,1,.577-.416m4.352,7.1a3.576,3.576,0,0,0,.42-.3,3.529,3.529,0,1,0-.42.3" transform="translate(-1946.84 -1658.402)" fill="#bdd0fb"/>
        <path id="Trazado_245626" data-name="Trazado 245626" d="M2121.1,1797.642a12.14,12.14,0,0,1,1.065-.583,12,12,0,0,1,2.287-.833l.106-.026a.634.634,0,1,1,.3,1.232,10.719,10.719,0,0,0-2.14.769h0l-.112.055a10.575,10.575,0,0,0-3.971,3.4,10.732,10.732,0,0,0-1.321,2.554l-.008.022-.024.069a10.611,10.611,0,0,0,.472,8.159,10.908,10.908,0,0,0,.527.964,10.679,10.679,0,1,0,14.949-14.539.623.623,0,0,1-.192-.2.634.634,0,0,1,.888-.863,11.915,11.915,0,0,1,3.612,3.721,12.079,12.079,0,0,1,.583,1.064,11.947,11.947,0,0,1-20.918,11.481,12.264,12.264,0,0,1-.591-1.078,11.964,11.964,0,0,1,4.488-15.373" transform="translate(-1887.456 -1602.617)" fill="#bdd0fb"/>
      </g>
    </g>
    <g id="Grupo_244308" data-name="Grupo 244308" transform="translate(44.919 4.402)">
      <g id="Grupo_244307" data-name="Grupo 244307" clip-path="url(#clip-path-10)">
        <rect id="Rectángulo_316971" data-name="Rectángulo 316971" width="311.2" height="230.258" transform="translate(-41.518 280.247) rotate(-81.573)" fill="url(#linear-gradient-2)"/>
      </g>
    </g>
    <g id="Grupo_244310" data-name="Grupo 244310">
      <g id="Grupo_244309" data-name="Grupo 244309" clip-path="url(#clip-path-3)">
        <path id="Trazado_245628" data-name="Trazado 245628" d="M1038.817,547.994a27.372,27.372,0,0,1,21.071-14.927l.62-39.256a.6.6,0,0,0-.6-.608c-25.575.277-48.143,16.195-58.675,39.772a.656.656,0,0,0,.367.879Z" transform="translate(-893.284 -440.053)" fill="#bdd0fb"/>
        <path id="Trazado_245629" data-name="Trazado 245629" d="M1354.747,1176.158a1.172,1.172,0,0,0-1.152.821c-.439,1.4-1.242,4.1-1.373,4.437a35.979,35.979,0,0,1-2.266,4.817,26.523,26.523,0,0,1-6.274,7.568c-6.505,5.268-15.857,6.247-23.658,3.64-.222-.074-.443-.154-.662-.236a.872.872,0,0,0-1.071.4l-19.669,35.869c9.551,4.789,18.538,6.042,29.814,5.319,32.761-2.1,58.487-28.7,61.342-61.688Z" transform="translate(-1158.678 -1049.41)" fill="#7d97f4"/>
        <path id="Trazado_245630" data-name="Trazado 245630" d="M1343.916,1176.162c-2.132,13.09-11.806,23.318-24.952,23.764a29.909,29.909,0,0,1-11.354-2.047.735.735,0,0,0-.909.317l-20.217,34.779a61.432,61.432,0,0,0,31.612,6.411c32.761-2.1,58.487-29.508,61.342-62.495Z" transform="translate(-1147.846 -1049.414)" fill="#91b3fa"/>
        <path id="Trazado_245631" data-name="Trazado 245631" d="M983.348,1014.009l19.575-35.11a.592.592,0,0,0-.138-.742c-6.026-5.075-10.844-11.88-10.844-20.7,0-2.176-.965-5.344-.523-7.386L954.6,936.9a71.564,71.564,0,0,0-3.147,21.053c0,23.7,12.592,44.54,29.88,56.52a1.393,1.393,0,0,0,2.009-.468" transform="translate(-848.925 -835.939)" fill="#91b3fa"/>
        <path id="Trazado_245632" data-name="Trazado 245632" d="M981.39,998.293l20.286-34.676a1.066,1.066,0,0,0-.214-1.339,28.481,28.481,0,0,1-9.521-21.492,29.944,29.944,0,0,1,.677-6.34l-37.461-14a.552.552,0,0,0-.722.357,71.588,71.588,0,0,0-2.976,20.489c0,24.274,11.994,45.176,29.932,57" transform="translate(-848.925 -821.221)" fill="#7d97f4"/>
      </g>
    </g>
    <g id="Grupo_244312" data-name="Grupo 244312" transform="translate(173.781 27.208)">
      <g id="Grupo_244311" data-name="Grupo 244311" clip-path="url(#clip-path-12)">
        <rect id="Rectángulo_316973" data-name="Rectángulo 316973" width="122.058" height="118.859" transform="matrix(0.573, -0.82, 0.82, 0.573, -43.662, 62.47)" fill="url(#linear-gradient-3)"/>
      </g>
    </g>
    <g id="Grupo_244314" data-name="Grupo 244314" transform="translate(52.859 147.771)">
      <g id="Grupo_244313" data-name="Grupo 244313" clip-path="url(#clip-path-13)">
        <rect id="Rectángulo_316974" data-name="Rectángulo 316974" width="50.1" height="42.135" transform="translate(-15.263 36.781) rotate(-68.265)" fill="url(#linear-gradient-4)"/>
      </g>
    </g>
    <g id="Grupo_244316" data-name="Grupo 244316" transform="translate(83.289 142.236)">
      <g id="Grupo_244315" data-name="Grupo 244315" clip-path="url(#clip-path-14)">
        <rect id="Rectángulo_316975" data-name="Rectángulo 316975" width="51.717" height="50.461" transform="translate(-18.706 25.858) rotate(-54.117)" fill="url(#linear-gradient-5)"/>
      </g>
    </g>
    <g id="Grupo_244318" data-name="Grupo 244318" transform="translate(35.77 292.646)">
      <g id="Grupo_244317" data-name="Grupo 244317" clip-path="url(#clip-path-15)">
        <rect id="Rectángulo_316976" data-name="Rectángulo 316976" width="8.849" height="7.277" transform="translate(-0.203 0)" fill="url(#linear-gradient-6)"/>
      </g>
    </g>
    <g id="Grupo_244320" data-name="Grupo 244320" transform="translate(70.52 247.302)">
      <g id="Grupo_244319" data-name="Grupo 244319" clip-path="url(#clip-path-16)">
        <rect id="Rectángulo_316977" data-name="Rectángulo 316977" width="16.366" height="52.436" transform="translate(-4.492 0.375) rotate(-4.89)" fill="url(#linear-gradient-7)"/>
      </g>
    </g>
    <g id="Grupo_244322" data-name="Grupo 244322" transform="translate(70.24 289.409)">
      <g id="Grupo_244321" data-name="Grupo 244321" clip-path="url(#clip-path-17)">
        <rect id="Rectángulo_316978" data-name="Rectángulo 316978" width="14.416" height="10.52" transform="translate(-0.214 0)" fill="url(#linear-gradient-8)"/>
      </g>
    </g>
    <g id="Grupo_244324" data-name="Grupo 244324" transform="translate(37.325 247.564)">
      <g id="Grupo_244323" data-name="Grupo 244323" clip-path="url(#clip-path-18)">
        <rect id="Rectángulo_316979" data-name="Rectángulo 316979" width="30.795" height="51.889" transform="translate(-4.302 0.362) rotate(-4.89)" fill="url(#linear-gradient-9)"/>
      </g>
    </g>
    <g id="Grupo_244326" data-name="Grupo 244326" transform="translate(67.371 170.091)">
      <g id="Grupo_244325" data-name="Grupo 244325" clip-path="url(#clip-path-19)">
        <rect id="Rectángulo_316980" data-name="Rectángulo 316980" width="45.235" height="39.4" transform="translate(-12.699 32.924) rotate(-68.908)" fill="url(#linear-gradient-10)"/>
      </g>
    </g>
    <g id="Grupo_244328" data-name="Grupo 244328" transform="translate(55.869 203.709)">
      <g id="Grupo_244327" data-name="Grupo 244327" clip-path="url(#clip-path-20)">
        <rect id="Rectángulo_316981" data-name="Rectángulo 316981" width="58.895" height="56.036" transform="translate(-24.33 30.516) rotate(-51.435)" fill="url(#linear-gradient-11)"/>
      </g>
    </g>
    <g id="Grupo_244330" data-name="Grupo 244330" transform="translate(74.455 158.153)">
      <g id="Grupo_244329" data-name="Grupo 244329" clip-path="url(#clip-path-21)">
        <rect id="Rectángulo_316982" data-name="Rectángulo 316982" width="11.557" height="17.512" transform="translate(-2.446 0.301) rotate(-7.784)" fill="url(#linear-gradient-12)"/>
      </g>
    </g>
    <g id="Grupo_244332" data-name="Grupo 244332" transform="translate(57.373 178.555)">
      <g id="Grupo_244331" data-name="Grupo 244331" clip-path="url(#clip-path-22)">
        <rect id="Rectángulo_316983" data-name="Rectángulo 316983" width="51.63" height="44.016" transform="matrix(0.923, -0.386, 0.386, 0.923, -30.243, 4.387)" fill="url(#linear-gradient-13)"/>
      </g>
    </g>
    <g id="Grupo_244334" data-name="Grupo 244334" transform="translate(75.45 146.357)">
      <g id="Grupo_244333" data-name="Grupo 244333" clip-path="url(#clip-path-23)">
        <rect id="Rectángulo_316984" data-name="Rectángulo 316984" width="20.135" height="20.218" transform="translate(-6.534 1.554) rotate(-18.127)" fill="url(#linear-gradient-14)"/>
      </g>
    </g>
    <g id="Grupo_244336" data-name="Grupo 244336" transform="translate(71.482 141.512)">
      <g id="Grupo_244335" data-name="Grupo 244335" clip-path="url(#clip-path-24)">
        <rect id="Rectángulo_316985" data-name="Rectángulo 316985" width="26.83" height="26.618" transform="translate(-10.023 13.863) rotate(-57.061)" fill="url(#linear-gradient-15)"/>
      </g>
    </g>
    <g id="Grupo_244338" data-name="Grupo 244338" transform="translate(74.817 152.602)">
      <g id="Grupo_244337" data-name="Grupo 244337" clip-path="url(#clip-path-25)">
        <rect id="Rectángulo_316986" data-name="Rectángulo 316986" width="6.178" height="6.291" transform="matrix(0.95, -0.311, 0.311, 0.95, -2.857, 0.487)" fill="url(#linear-gradient-16)"/>
      </g>
    </g>
    <g id="Grupo_244340" data-name="Grupo 244340" transform="translate(113.708 133.387)">
      <g id="Grupo_244339" data-name="Grupo 244339" clip-path="url(#clip-path-26)">
        <rect id="Rectángulo_316987" data-name="Rectángulo 316987" width="18.946" height="18.412" transform="matrix(0.586, -0.81, 0.81, 0.586, -6.918, 9.563)" fill="url(#linear-gradient-17)"/>
      </g>
    </g>
    <g id="Grupo_244342" data-name="Grupo 244342" transform="translate(115.71 138.722)">
      <g id="Grupo_244341" data-name="Grupo 244341" clip-path="url(#clip-path-27)">
        <rect id="Rectángulo_316988" data-name="Rectángulo 316988" width="5.042" height="6.785" transform="translate(0 0)" fill="url(#linear-gradient-18)"/>
      </g>
    </g>
    <g id="Grupo_244344" data-name="Grupo 244344" transform="translate(78.999 175.091)">
      <g id="Grupo_244343" data-name="Grupo 244343" clip-path="url(#clip-path-28)">
        <rect id="Rectángulo_316989" data-name="Rectángulo 316989" width="38.943" height="35.31" transform="matrix(0.972, -0.233, 0.233, 0.972, -6.534, 1.543)" fill="url(#linear-gradient-19)"/>
      </g>
    </g>
    <g id="Grupo_244346" data-name="Grupo 244346" transform="translate(96.413 172.649)">
      <g id="Grupo_244345" data-name="Grupo 244345" clip-path="url(#clip-path-29)">
        <rect id="Rectángulo_316990" data-name="Rectángulo 316990" width="4.365" height="6.913" transform="translate(-0.703 2.869) rotate(-77.171)" fill="url(#linear-gradient-20)"/>
      </g>
    </g>
    <g id="Grupo_244348" data-name="Grupo 244348" transform="translate(93.128 174.213)">
      <g id="Grupo_244347" data-name="Grupo 244347" clip-path="url(#clip-path-30)">
        <rect id="Rectángulo_316991" data-name="Rectángulo 316991" width="6.297" height="12.682" transform="translate(-0.761 4.244) rotate(-80.538)" fill="url(#linear-gradient-21)"/>
      </g>
    </g>
    <g id="Grupo_244350" data-name="Grupo 244350" transform="translate(80.074 187.678)">
      <g id="Grupo_244349" data-name="Grupo 244349" clip-path="url(#clip-path-31)">
        <rect id="Rectángulo_316992" data-name="Rectángulo 316992" width="9.902" height="8.814" transform="translate(-0.308 0)" fill="url(#linear-gradient-22)"/>
      </g>
    </g>
  </g>
</svg>
