<svg xmlns="http://www.w3.org/2000/svg" xmlns:xlink="http://www.w3.org/1999/xlink" width="183.177" height="186.773" viewBox="0 0 183.177 186.773">
  <defs>
    <clipPath id="clip-path">
      <path id="Trazado_247029" data-name="Trazado 247029" d="M186.738,85.9c-.587.063-1.257.129-2.155.247-36.727,4.8-59.712,38.871-62.44,43.042-23.021,35.171-24.486,91.948,5.64,119.165,13.258,11.978,28.576,18.007,46.856,21.409,11.33,2.109,48.089,4.65,80.147-16.756a70.441,70.441,0,0,0,12.379-10.048c28.517-29.394,25.465-82.267,6.023-117.66-5.433-9.889-12.745-15.681-16.855-19.124-21.455-17.975-46.54-20.743-60.217-20.743a88.563,88.563,0,0,0-9.378.468" fill="none"/>
    </clipPath>
    <linearGradient id="linear-gradient" x1="-0.219" y1="2.977" x2="-0.215" y2="2.977" gradientUnits="objectBoundingBox">
      <stop offset="0" stop-color="#dae3fe"/>
      <stop offset="1" stop-color="#e9effd"/>
    </linearGradient>
    <clipPath id="clip-path-2">
      <rect id="Rectángulo_317651" data-name="Rectángulo 317651" width="30.29" height="112.935" transform="translate(122.908 111.117)" fill="none"/>
    </clipPath>
    <clipPath id="clip-path-3">
      <rect id="Rectángulo_317652" data-name="Rectángulo 317652" width="15.097" height="66.991" transform="translate(135.396 134.397)" fill="none"/>
    </clipPath>
    <clipPath id="clip-path-4">
      <rect id="Rectángulo_317653" data-name="Rectángulo 317653" width="27.556" height="41.388" transform="translate(234.155 226.017)" fill="none"/>
    </clipPath>
    <clipPath id="clip-path-5">
      <rect id="Rectángulo_317654" data-name="Rectángulo 317654" width="28.68" height="43.151" transform="translate(210.659 216.37)" fill="none"/>
    </clipPath>
    <clipPath id="clip-path-6">
      <rect id="Rectángulo_317655" data-name="Rectángulo 317655" width="11.339" height="28.667" transform="translate(260.067 200.27)" fill="none"/>
    </clipPath>
    <clipPath id="clip-path-7">
      <rect id="Rectángulo_317656" data-name="Rectángulo 317656" width="19.145" height="18.875" transform="translate(237.299 195.995)" fill="none"/>
    </clipPath>
    <clipPath id="clip-path-8">
      <path id="Trazado_247056" data-name="Trazado 247056" d="M149.346,179.671c-.312.95-2.655,1.073-2.886,2.94a2.146,2.146,0,0,1-1.794,1.885c-2.393.367-6.08,1.609-6.671,5.763-.45,3.171,1.167,4.373,2.863,4.79a2.4,2.4,0,0,1,1.822,2.776c-.242,1.206.118,2.6,2.209,3.7,4.685,2.472,9.362-5.856,9.362-5.856l.959-14.54-3.356-3.676s-2.118,1.03-2.508,2.214" fill="none"/>
    </clipPath>
    <linearGradient id="linear-gradient-2" x1="-4.192" y1="25.891" x2="-4.16" y2="25.891" gradientUnits="objectBoundingBox">
      <stop offset="0" stop-color="#09005d"/>
      <stop offset="1" stop-color="#1a0f91"/>
    </linearGradient>
    <clipPath id="clip-path-9">
      <path id="Trazado_247057" data-name="Trazado 247057" d="M156.869,191.661s2.166,6.172,3.839,6.878c0,0,13.683-11.417,17.2-22.428l-.565-2.1s-9.353,14.793-20.474,17.651" fill="none"/>
    </clipPath>
    <linearGradient id="linear-gradient-3" x1="-4.698" y1="21.842" x2="-4.666" y2="21.842" gradientUnits="objectBoundingBox">
      <stop offset="0" stop-color="#febbba"/>
      <stop offset="1" stop-color="#ff928e"/>
    </linearGradient>
    <clipPath id="clip-path-10">
      <path id="Trazado_247058" data-name="Trazado 247058" d="M128.991,267.674a9.051,9.051,0,0,0-1.672,3.256.881.881,0,0,0,.74,1.143,16.007,16.007,0,0,0,3.336-.052,1.028,1.028,0,0,0,.9-.9l.3-2.491a.853.853,0,0,0-.846-.955Z" fill="none"/>
    </clipPath>
    <linearGradient id="linear-gradient-4" x1="-23.072" y1="130.048" x2="-22.891" y2="130.048" xlink:href="#linear-gradient-2"/>
    <clipPath id="clip-path-11">
      <path id="Trazado_247059" data-name="Trazado 247059" d="M150.983,241.677l-1.428,2.684a5.44,5.44,0,0,0-.619,3.008l1.481,17.73-1.13,1.554.136.843,6.9,4.074-2.716-4.412a4.957,4.957,0,0,1-.734-2.82c.278-6.33,1.84-22.156,1.84-22.156l-.467-2.745Z" fill="none"/>
    </clipPath>
    <linearGradient id="linear-gradient-5" x1="-14.473" y1="18.919" x2="-14.375" y2="18.919" xlink:href="#linear-gradient-3"/>
    <clipPath id="clip-path-12">
      <path id="Trazado_247060" data-name="Trazado 247060" d="M148.774,268.162l.649,4.047h.514s-.117-3.257.8-3.2c.681.046,2.1,1.787,2.79,2.68a1.329,1.329,0,0,0,1.053.516h2.205a.583.583,0,0,0,.108-1.155,3.186,3.186,0,0,0-.9-.024s-3.486-2.453-4.62-3.138a3.388,3.388,0,0,1-1.346-2.234,2.4,2.4,0,0,0-1.256,2.5" fill="none"/>
    </clipPath>
    <linearGradient id="linear-gradient-6" x1="-16.556" y1="90.255" x2="-16.445" y2="90.255" xlink:href="#linear-gradient-2"/>
    <clipPath id="clip-path-13">
      <path id="Trazado_247061" data-name="Trazado 247061" d="M140.084,240.74c-3.817,2.92-4.808,6.09-5.684,9.012s-2.475,11.326-3.218,13.18c-.623,1.553-2.3,4.978-2.832,6.049a.976.976,0,0,0,.037.947,1.61,1.61,0,0,0,1.5.683c1.678,0,2.287-.469,2.317-.958a38.071,38.071,0,0,1,1.985-7.585c1.455-3.964,10.608-21.328,10.608-21.328a2.718,2.718,0,0,0-2.15-1.14,4.21,4.21,0,0,0-2.56,1.14" fill="none"/>
    </clipPath>
    <linearGradient id="linear-gradient-7" x1="-6.618" y1="19.125" x2="-6.566" y2="19.125" xlink:href="#linear-gradient-3"/>
    <clipPath id="clip-path-14">
      <path id="Trazado_247064" data-name="Trazado 247064" d="M153.317,184.744l-1.92,8.622c-.183.76.509.636,1.277.491,1.258-.237,2.878-.726,3.42-1.7a.921.921,0,0,0,.1-.325l.825-5.98a1.074,1.074,0,0,0-.629-1.128l-1.592-.706a1.074,1.074,0,0,0-1.479.73" fill="none"/>
    </clipPath>
    <linearGradient id="linear-gradient-8" x1="-20.922" y1="61.749" x2="-20.783" y2="61.749" xlink:href="#linear-gradient-3"/>
    <clipPath id="clip-path-15">
      <path id="Trazado_247065" data-name="Trazado 247065" d="M155.3,207.647s.306-2.318-.094-2.278c-8.714.869-12.359,2.864-5.275-4.005.25-.242.173-1.16.012-1.468-.491-.943-1.612-2.814-2.986-3.269,0,0-18.529,18.342,8.343,11.02" fill="none"/>
    </clipPath>
    <linearGradient id="linear-gradient-9" x1="-3.917" y1="24.256" x2="-3.886" y2="24.256" xlink:href="#linear-gradient-3"/>
    <clipPath id="clip-path-16">
      <path id="Trazado_247066" data-name="Trazado 247066" d="M152.482,183.442A6.788,6.788,0,0,0,157.9,186.5c1.463.078,2.89-1.186,2.012-4.709a8.509,8.509,0,0,0-2.922-4.906,1.919,1.919,0,0,0-1.04-.308c-2.472,0-5.079,4.655-3.472,6.866" fill="none"/>
    </clipPath>
    <linearGradient id="linear-gradient-10" x1="-11.929" y1="54.139" x2="-11.849" y2="54.139" xlink:href="#linear-gradient-3"/>
    <clipPath id="clip-path-17">
      <path id="Trazado_247067" data-name="Trazado 247067" d="M151.243,176.451c-1.743,3.179-2.376,5.413-.915,7.389s2.56.281,2.56.281-.67-1.71-.114-2.444,1.274.427,1.274.427l.288-.083s-.749-5.048,3.442-4.276l.848.882s2.051-2.31-.22-4.056a4.664,4.664,0,0,0-2.846-1.012,4.976,4.976,0,0,0-4.317,2.892" fill="none"/>
    </clipPath>
    <linearGradient id="linear-gradient-11" x1="-8.764" y1="41.354" x2="-8.704" y2="41.354" xlink:href="#linear-gradient-2"/>
    <clipPath id="clip-path-18">
      <path id="Trazado_247068" data-name="Trazado 247068" d="M152.067,180.6c-1.327.742.478,2.426,1.2,3l.494-1.145s-.282-1.989-1.241-1.989a.931.931,0,0,0-.454.134" fill="none"/>
    </clipPath>
    <linearGradient id="linear-gradient-12" x1="-39.076" y1="172.721" x2="-38.816" y2="172.721" xlink:href="#linear-gradient-3"/>
    <clipPath id="clip-path-19">
      <path id="Trazado_247069" data-name="Trazado 247069" d="M176.52,172.848c-.433.384-.61,2.857-.709,3.422.361,1.3,1.5,1.091,1.467.786a2.379,2.379,0,0,0,1.966-.654c.495-.458,1.046-1.06,1.454-1.527a2.4,2.4,0,0,0,.607-1.68,8.252,8.252,0,0,0-.563-2.145l2.054-1.386a.842.842,0,0,0,.143-1.165,45.666,45.666,0,0,0-6.419,4.349" fill="none"/>
    </clipPath>
    <linearGradient id="linear-gradient-13" x1="-14.723" y1="60.148" x2="-14.639" y2="60.148" xlink:href="#linear-gradient-3"/>
    <clipPath id="clip-path-20">
      <path id="Trazado_247070" data-name="Trazado 247070" d="M177.839,172.862l-.781,1.223.286.184.734-1.149,1.661-.889a.346.346,0,0,1,.1.212.716.716,0,0,1-.261.481,17.568,17.568,0,0,0-1.5,2.994l.313.129a16.9,16.9,0,0,1,1.436-2.889,1,1,0,0,0,.354-.736.741.741,0,0,0-.31-.529l-.088-.071Z" fill="none"/>
    </clipPath>
    <linearGradient id="linear-gradient-14" x1="-56.406" y1="162.156" x2="-56.087" y2="162.156" xlink:href="#linear-gradient-3"/>
    <clipPath id="clip-path-21">
      <path id="Trazado_247071" data-name="Trazado 247071" d="M164.971,194.851c-2.719.23-5.073.5-5.885.591a.454.454,0,0,0-.386.329l-4.485,15.66a.458.458,0,0,0,.436.584l10.4.1a.458.458,0,0,0,.37-.18c2.662-3.484,7.976-14.117,9.269-16.731a.459.459,0,0,0-.375-.659c-.589-.05-1.281-.071-2.04-.071-2.168,0-4.883.176-7.308.381" fill="none"/>
    </clipPath>
    <linearGradient id="linear-gradient-15" x1="-6.283" y1="30.227" x2="-6.241" y2="30.227" xlink:href="#linear-gradient-2"/>
    <clipPath id="clip-path-22">
      <path id="Trazado_247072" data-name="Trazado 247072" d="M168.687,192.951l-3.252.542a.237.237,0,0,0-.189.177l-.2.852a.234.234,0,0,0,.259.284l3.128-.417a.234.234,0,0,0,.191-.159l.322-.975a.234.234,0,0,0-.221-.307.256.256,0,0,0-.039,0" fill="none"/>
    </clipPath>
    <linearGradient id="linear-gradient-16" x1="-60.931" y1="154.485" x2="-60.563" y2="154.485" gradientUnits="objectBoundingBox">
      <stop offset="0" stop-color="#53d8ff"/>
      <stop offset="1" stop-color="#3840f7"/>
    </linearGradient>
    <clipPath id="clip-path-23">
      <path id="Trazado_247073" data-name="Trazado 247073" d="M170.12,193.924l-6.567.667a.322.322,0,0,0-.284.259l-.268,1.4a.323.323,0,0,0,.333.383l6.417-.323a.326.326,0,0,0,.3-.247l.416-1.739a.32.32,0,0,0-.312-.4h-.033" fill="none"/>
    </clipPath>
    <linearGradient id="linear-gradient-17" x1="-42.006" y1="84.284" x2="-41.751" y2="84.284" xlink:href="#linear-gradient-16"/>
    <clipPath id="clip-path-24">
      <path id="Trazado_247074" data-name="Trazado 247074" d="M154.926,204.167a11.394,11.394,0,0,0,.373,3.48,2.358,2.358,0,0,0,2.136-.746c.491-.481.781-.963,1.18-.7a.832.832,0,0,0,1.218-.279l-.714-.787c1.045.508,1.155-.443,1.155-.443l-.768-.593a.931.931,0,0,0,1.334-.8,23.868,23.868,0,0,0-3.547-.946,2.8,2.8,0,0,0-.439-.037c-1.28,0-1.7,1.036-1.928,1.859" fill="none"/>
    </clipPath>
    <linearGradient id="linear-gradient-18" x1="-25.085" y1="119.261" x2="-24.923" y2="119.261" xlink:href="#linear-gradient-3"/>
  </defs>
  <g id="Grupo_245489" data-name="Grupo 245489" transform="translate(3194.998 695.351)">
    <g id="Grupo_245432" data-name="Grupo 245432" transform="translate(-3300 -780.787)">
      <g id="Grupo_245431" data-name="Grupo 245431" clip-path="url(#clip-path)">
        <rect id="Rectángulo_317650" data-name="Rectángulo 317650" width="273.721" height="273.321" transform="matrix(0.729, -0.685, 0.685, 0.729, 3.351, 174.027)" fill="url(#linear-gradient)"/>
      </g>
    </g>
    <path id="Trazado_247030" data-name="Trazado 247030" d="M116.681,97.8c-.22-.936,1.1-1.558,1.9-.9,8.189,6.639,27.863,26.523,22.96,61.272-6.152,43.6,4.365,59.505,17.457,69.208,0,0-17.979-4.563-29.291-20.705-27.772-39.633-9.119-92.226-13.029-108.871" transform="translate(-3300 -780.787)" fill="#91b3fa"/>
    <g id="Grupo_245435" data-name="Grupo 245435" transform="translate(-3300 -780.787)" style="mix-blend-mode: soft-light;isolation: isolate">
      <g id="Grupo_245434" data-name="Grupo 245434">
        <g id="Grupo_245433" data-name="Grupo 245433" clip-path="url(#clip-path-2)">
          <path id="Trazado_247031" data-name="Trazado 247031" d="M122.913,111.419c1.024,4.853,1.937,9.722,2.643,14.612q1.1,7.329,1.684,14.7c.364,4.912.62,9.83.635,14.749.04,4.919-.164,9.834-.39,14.768a133.671,133.671,0,0,0-.059,14.9,44.167,44.167,0,0,0,3.492,14.751c.521,1.177,1.069,2.35,1.692,3.484.6,1.144,1.256,2.265,1.937,3.376a53.226,53.226,0,0,0,4.645,6.389,58.572,58.572,0,0,0,12.23,10.7,1.223,1.223,0,0,0,1.548-.176.866.866,0,0,0-.178-1.319l0,0c-1.094-.769-2.176-1.547-3.214-2.364-.527-.4-1.032-.822-1.547-1.235-.495-.428-1.01-.84-1.489-1.282a53.12,53.12,0,0,1-13.345-18.308,43.052,43.052,0,0,1-2.316-6.952,47.53,47.53,0,0,1-1.117-7.2,132.09,132.09,0,0,1-.063-14.708c.145-4.935.251-9.894.121-14.85q-.087-3.717-.327-7.428c-.072-1.237-.171-2.473-.268-3.708s-.23-2.469-.36-3.7q-.8-7.4-2.121-14.736c-.912-4.886-1.973-9.749-3.25-14.568a.3.3,0,0,0-.355-.192.259.259,0,0,0-.225.295" fill="#fff"/>
        </g>
      </g>
    </g>
    <path id="Trazado_247032" data-name="Trazado 247032" d="M137.893,202.155a2.062,2.062,0,0,1-3.374-.574,62.859,62.859,0,0,1,1.581-53.958c10.518-21.067,14.219-33.489,15.508-39.245a1.293,1.293,0,0,1,2.444-.237c5.555,12.59,20.222,55.414-16.159,94.014" transform="translate(-3300 -780.787)" fill="#bdd0fb"/>
    <g id="Grupo_245438" data-name="Grupo 245438" transform="translate(-3300 -780.787)" style="mix-blend-mode: soft-light;isolation: isolate">
      <g id="Grupo_245437" data-name="Grupo 245437">
        <g id="Grupo_245436" data-name="Grupo 245436" clip-path="url(#clip-path-3)">
          <path id="Trazado_247033" data-name="Trazado 247033" d="M136.069,201.379a.662.662,0,0,1-.11.009.572.572,0,0,1-.563-.58c.006-.358.7-36.12,14-66.071a.572.572,0,1,1,1.045.464c-13.2,29.733-13.9,65.269-13.9,65.624a.571.571,0,0,1-.47.554" fill="#fff"/>
        </g>
      </g>
    </g>
    <g id="Grupo_245441" data-name="Grupo 245441" transform="translate(-3300 -780.787)" opacity="0.3">
      <g id="Grupo_245440" data-name="Grupo 245440">
        <g id="Grupo_245439" data-name="Grupo 245439" clip-path="url(#clip-path-4)">
          <path id="Trazado_247034" data-name="Trazado 247034" d="M255.556,226.111a.639.639,0,0,1,.841.155c.441.572.863,1.172,1.255,1.783a.641.641,0,0,1-.193.884l-.011.006a.638.638,0,0,1-.872-.2c-.373-.58-.774-1.15-1.192-1.694a.639.639,0,0,1,.117-.9c.018-.014.036-.026.055-.038m2.883,4.766a.711.711,0,0,1,.067-.036.64.64,0,0,1,.849.312c.3.658.584,1.336.831,2.014a.639.639,0,0,1-1.2.437c-.234-.645-.5-1.289-.79-1.914a.641.641,0,0,1,.245-.813m1.762,5.282a.642.642,0,0,1,.961.412c.15.708.271,1.432.36,2.15a.639.639,0,1,1-1.269.158c-.084-.683-.2-1.37-.342-2.042a.639.639,0,0,1,.29-.678m.537,5.545a.631.631,0,0,1,.344-.094.639.639,0,0,1,.629.65c-.012.724-.055,1.456-.128,2.176a.64.64,0,1,1-1.273-.13c.07-.684.112-1.379.123-2.067a.638.638,0,0,1,.3-.535m-.714,5.525a.64.64,0,0,1,.956.7c-.172.7-.376,1.406-.607,2.093a.639.639,0,1,1-1.212-.408c.22-.653.414-1.322.577-1.989a.641.641,0,0,1,.286-.393m-1.918,5.23a.639.639,0,0,1,.908.83c-.323.647-.678,1.289-1.056,1.907a.639.639,0,1,1-1.091-.667c.358-.587.7-1.2,1-1.812a.634.634,0,0,1,.236-.258M238.947,266.03a.637.637,0,0,1,.255-.09c.682-.085,1.369-.2,2.042-.346a.639.639,0,1,1,.268,1.25c-.709.152-1.433.275-2.15.365a.64.64,0,0,1-.415-1.179m16.133-8.9a.639.639,0,0,1,.829.95c-.459.56-.948,1.106-1.454,1.624a.639.639,0,0,1-.915-.893c.48-.492.944-1.011,1.38-1.542a.656.656,0,0,1,.16-.139m-10.72,7.587a.652.652,0,0,1,.116-.056c.646-.236,1.289-.5,1.914-.794a.639.639,0,0,1,.539,1.159c-.657.306-1.334.587-2.013.836a.64.64,0,0,1-.556-1.145m6.725-3.709a.639.639,0,0,1,.725,1.051c-.572.442-1.171.865-1.78,1.258l-.012.007a.639.639,0,0,1-.681-1.082c.579-.373,1.148-.775,1.691-1.2q.028-.021.057-.039" fill="#91b3fa"/>
          <path id="Trazado_247035" data-name="Trazado 247035" d="M234.46,266.184a.632.632,0,0,1,.37-.093c.329.018.664.03,1,.035a.64.64,0,0,1-.02,1.279c-.349-.006-.7-.018-1.047-.038a.639.639,0,0,1-.3-1.183" fill="#91b3fa"/>
        </g>
      </g>
    </g>
    <g id="Grupo_245444" data-name="Grupo 245444" transform="translate(-3300 -780.787)" opacity="0.3">
      <g id="Grupo_245443" data-name="Grupo 245443">
        <g id="Grupo_245442" data-name="Grupo 245442" clip-path="url(#clip-path-5)">
          <path id="Trazado_247036" data-name="Trazado 247036" d="M216.971,257.575a.639.639,0,0,1,.819.128c.215.25.439.5.665.742a.639.639,0,1,1-.934.873c-.238-.255-.474-.518-.7-.781a.64.64,0,0,1,.067-.9.789.789,0,0,1,.083-.06" fill="#91b3fa"/>
          <path id="Trazado_247037" data-name="Trazado 247037" d="M222.771,220.125q.377-.231.763-.452a.64.64,0,0,1,.633,1.112c-.6.339-1.174.7-1.729,1.08a.639.639,0,1,1-.723-1.055c.343-.235.7-.465,1.056-.685m3.8-1.918a.639.639,0,0,1,.1-.049c.661-.266,1.342-.507,2.022-.716a.639.639,0,0,1,.376,1.222c-.646.2-1.293.428-1.922.681a.64.64,0,0,1-.574-1.138m-7.5,4.692a.64.64,0,0,1,.764,1.019c-.5.454-.987.936-1.448,1.432a.639.639,0,0,1-.937-.87c.485-.523,1-1.031,1.525-1.509a.668.668,0,0,1,.1-.072m12.778-6.164a.647.647,0,0,1,.232-.086c.7-.114,1.421-.2,2.131-.253a.639.639,0,1,1,.1,1.275c-.674.051-1.355.132-2.023.24a.639.639,0,0,1-.437-1.176m-16.4,10.274a.64.64,0,0,1,.859.912c-.388.553-.757,1.13-1.1,1.716a.639.639,0,0,1-1.1-.644c.359-.616.748-1.224,1.156-1.806a.636.636,0,0,1,.188-.178m-2.632,4.806a.639.639,0,0,1,.926.788c-.258.626-.493,1.27-.7,1.915a.64.64,0,0,1-1.219-.388c.215-.678.462-1.356.734-2.015a.64.64,0,0,1,.256-.3M211.3,237.08a.638.638,0,0,1,.964.653c-.115.668-.2,1.348-.264,2.022a.639.639,0,1,1-1.273-.113c.062-.709.156-1.424.278-2.127a.633.633,0,0,1,.295-.435m-.338,5.471a.629.629,0,0,1,.3-.094.639.639,0,0,1,.669.607c.033.677.1,1.36.185,2.03a.639.639,0,1,1-1.267.17c-.1-.706-.16-1.425-.195-2.137a.638.638,0,0,1,.3-.576m.872,5.413a.689.689,0,0,1,.164-.071.641.641,0,0,1,.788.445c.181.651.392,1.3.627,1.938a.639.639,0,1,1-1.2.445c-.248-.669-.47-1.355-.66-2.041a.641.641,0,0,1,.28-.716m2.039,5.087.034-.02a.64.64,0,0,1,.865.263c.235.44.486.877.747,1.3q.141.231.287.456a.639.639,0,1,1-1.074.694c-.1-.159-.2-.318-.3-.48-.274-.446-.539-.906-.785-1.369a.638.638,0,0,1,.228-.845" fill="#91b3fa"/>
          <path id="Trazado_247038" data-name="Trazado 247038" d="M237.347,216.464a.628.628,0,0,1,.374-.093c.345.021.7.05,1.045.085a.639.639,0,0,1-.131,1.272c-.331-.033-.665-.061-.993-.081a.639.639,0,0,1-.295-1.183" fill="#91b3fa"/>
        </g>
      </g>
    </g>
    <path id="Trazado_247039" data-name="Trazado 247039" d="M240.5,223.233a.3.3,0,0,0-.333.1l-2.25,2.858a15.815,15.815,0,0,0-5.125.295l-2.562-2.578a.3.3,0,0,0-.342-.058l-3.928,1.9a.3.3,0,0,0-.167.3l.43,3.61a15.819,15.819,0,0,0-3.413,3.834l-3.637-.01a.3.3,0,0,0-.283.2l-1.434,4.12a.3.3,0,0,0,.1.333l2.858,2.25a15.841,15.841,0,0,0,.294,5.125l-2.577,2.563a.3.3,0,0,0-.059.342l1.9,3.927a.3.3,0,0,0,.3.167l3.61-.429a15.817,15.817,0,0,0,3.834,3.412l-.011,3.637a.3.3,0,0,0,.2.283l4.12,1.434a.3.3,0,0,0,.333-.1l2.25-2.857a15.872,15.872,0,0,0,5.125-.3l2.563,2.578a.3.3,0,0,0,.342.058l3.927-1.9a.3.3,0,0,0,.167-.3l-.43-3.609a15.824,15.824,0,0,0,3.413-3.835l3.637.011a.3.3,0,0,0,.283-.2l1.434-4.12a.3.3,0,0,0-.1-.333l-2.858-2.25a15.835,15.835,0,0,0-.294-5.124l2.577-2.563a.3.3,0,0,0,.059-.342l-1.9-3.928a.3.3,0,0,0-.3-.166l-3.609.429a15.844,15.844,0,0,0-3.835-3.413l.011-3.637a.3.3,0,0,0-.2-.283Z" transform="translate(-3300 -780.787)" fill="#91b3fa"/>
    <path id="Trazado_247040" data-name="Trazado 247040" d="M233.965,238.3a4.385,4.385,0,1,1-.522.376,4.438,4.438,0,0,1,.522-.376m4.051,6.6a3.364,3.364,0,1,0-2.05.481,3.347,3.347,0,0,0,2.05-.481" transform="translate(-3300 -780.787)" fill="#bdd0fb"/>
    <path id="Trazado_247041" data-name="Trazado 247041" d="M230.571,232.956q.47-.288.972-.532c.1-.051.212-.1.319-.148a10.817,10.817,0,0,1,1.628-.574l.023-.006.065-.017.126-.031a.256.256,0,0,1,.278.114.281.281,0,0,1,.03.074.255.255,0,0,1-.188.309,10.28,10.28,0,0,0-6.833,14.458,10.272,10.272,0,0,0,13.718,4.775,10.274,10.274,0,0,0,1.169-17.833.248.248,0,0,1-.078-.08.256.256,0,0,1,.358-.348,10.754,10.754,0,0,1,3.26,3.359,10.775,10.775,0,0,1-4.486,15.362,10.787,10.787,0,0,1-13.869-4.039q-.288-.47-.533-.973a10.786,10.786,0,0,1,4.041-13.87" transform="translate(-3300 -780.787)" fill="#bdd0fb"/>
    <g id="Grupo_245447" data-name="Grupo 245447" transform="translate(-3300 -780.787)" opacity="0.3">
      <g id="Grupo_245446" data-name="Grupo 245446">
        <g id="Grupo_245445" data-name="Grupo 245445" clip-path="url(#clip-path-6)">
          <path id="Trazado_247042" data-name="Trazado 247042" d="M265.314,200.328a.4.4,0,0,1,.471.043c.249.225.495.46.73.7a.395.395,0,1,1-.563.554c-.224-.228-.458-.452-.7-.666a.394.394,0,0,1,.058-.63" fill="#91b3fa"/>
          <path id="Trazado_247043" data-name="Trazado 247043" d="M267.373,202.561a.394.394,0,0,1,.52.1,17.279,17.279,0,0,1,.985,1.431c.063.1.126.208.188.314a.41.41,0,0,1-.141.541.4.4,0,0,1-.54-.141q-.089-.151-.18-.3a16.094,16.094,0,0,0-.939-1.365.4.4,0,0,1,.074-.554l.033-.023m2.074,3.537.05-.026a.4.4,0,0,1,.52.206,17.068,17.068,0,0,1,.715,1.976.4.4,0,0,1-.758.223,16.326,16.326,0,0,0-.682-1.886.4.4,0,0,1,.155-.493m1.154,3.935a.389.389,0,0,1,.144-.053.4.4,0,0,1,.453.326,17.069,17.069,0,0,1,.207,2.093.395.395,0,0,1-.789.029,16.257,16.257,0,0,0-.2-1.995.4.4,0,0,1,.183-.4m.152,4.1a.395.395,0,0,1,.6.371,17.282,17.282,0,0,1-.311,2.079.4.4,0,1,1-.773-.165,16.3,16.3,0,0,0,.3-1.983.393.393,0,0,1,.187-.3m-.854,4.011a.39.39,0,0,1,.336-.037.4.4,0,0,1,.244.5,17.385,17.385,0,0,1-.806,1.94.395.395,0,1,1-.71-.346,16.529,16.529,0,0,0,.769-1.852.388.388,0,0,1,.167-.207m-1.8,3.681a.395.395,0,0,1,.538.552,17.051,17.051,0,0,1-1.255,1.685.395.395,0,0,1-.6-.51,16.336,16.336,0,0,0,1.2-1.607.381.381,0,0,1,.123-.12m-2.646,3.128a.395.395,0,0,1,.474.627,17.1,17.1,0,0,1-1.631,1.327.4.4,0,0,1-.459-.643A16.191,16.191,0,0,0,265.39,225a.442.442,0,0,1,.061-.046m-5.2,3.255a.327.327,0,0,1,.062-.031,16.492,16.492,0,0,0,1.586-.726l.231-.123a.4.4,0,0,1,.536.157.391.391,0,0,1-.158.536c-.081.044-.162.088-.244.13a16.981,16.981,0,0,1-1.661.76.395.395,0,0,1-.352-.7" fill="#91b3fa"/>
        </g>
      </g>
    </g>
    <g id="Grupo_245450" data-name="Grupo 245450" transform="translate(-3300 -780.787)" opacity="0.3">
      <g id="Grupo_245449" data-name="Grupo 245449">
        <g id="Grupo_245448" data-name="Grupo 245448" clip-path="url(#clip-path-7)">
          <path id="Trazado_247044" data-name="Trazado 247044" d="M245.225,198.633a.395.395,0,0,1,.418.67,16.259,16.259,0,0,0-1.6,1.153.395.395,0,1,1-.5-.611,17.211,17.211,0,0,1,1.676-1.209l.005,0m1.769-.976c.012-.008.024-.014.037-.021a17.459,17.459,0,0,1,1.917-.775.4.4,0,0,1,.252.749,16.334,16.334,0,0,0-1.829.739.395.395,0,0,1-.377-.692m-4.89,3.529a.395.395,0,0,1,.492.609,16.44,16.44,0,0,0-1.273,1.507.4.4,0,1,1-.633-.473,17.146,17.146,0,0,1,1.335-1.579.434.434,0,0,1,.079-.064m8.715-4.812a.39.39,0,0,1,.128-.051,17.048,17.048,0,0,1,2.048-.29.4.4,0,0,1,.063.788,16.246,16.246,0,0,0-1.953.276.395.395,0,0,1-.286-.723m-11.126,8.044a.395.395,0,0,1,.55.532,16.387,16.387,0,0,0-.873,1.768.395.395,0,0,1-.728-.306,16.8,16.8,0,0,1,.916-1.854.4.4,0,0,1,.135-.14m-1.565,3.716a.395.395,0,0,1,.587.444,16.57,16.57,0,0,0-.426,1.927.395.395,0,0,1-.78-.124,17.486,17.486,0,0,1,.446-2.019.393.393,0,0,1,.173-.228m-.63,3.984a.395.395,0,0,1,.6.351,16.213,16.213,0,0,0,.049,1.972.395.395,0,1,1-.787.067,16.975,16.975,0,0,1-.051-2.068.394.394,0,0,1,.188-.322" fill="#91b3fa"/>
          <path id="Trazado_247045" data-name="Trazado 247045" d="M254.859,196.054a.4.4,0,0,1,.224-.058c.337.015.676.04,1.007.073a.4.4,0,0,1-.081.786c-.315-.032-.638-.056-.961-.07a.395.395,0,0,1-.189-.731" fill="#91b3fa"/>
        </g>
      </g>
    </g>
    <path id="Trazado_247046" data-name="Trazado 247046" d="M257.252,200.571a.2.2,0,0,0-.223.065l-1.5,1.912a10.625,10.625,0,0,0-3.43.2l-1.714-1.724a.2.2,0,0,0-.229-.039l-2.628,1.271a.2.2,0,0,0-.112.2l.287,2.415a10.59,10.59,0,0,0-2.283,2.566l-2.434-.007a.2.2,0,0,0-.189.134l-.96,2.757a.2.2,0,0,0,.065.223l1.912,1.506a10.619,10.619,0,0,0,.2,3.429l-1.724,1.715a.2.2,0,0,0-.039.229l1.271,2.628a.2.2,0,0,0,.2.111l2.415-.287a10.615,10.615,0,0,0,2.566,2.284l-.007,2.434a.2.2,0,0,0,.134.189l2.757.96a.2.2,0,0,0,.223-.066l1.506-1.912a10.591,10.591,0,0,0,3.429-.2l1.715,1.725a.2.2,0,0,0,.229.039l2.628-1.271a.2.2,0,0,0,.111-.2l-.287-2.415a10.614,10.614,0,0,0,2.284-2.566l2.433.007a.2.2,0,0,0,.19-.134l.959-2.757a.2.2,0,0,0-.065-.223l-1.912-1.505a10.6,10.6,0,0,0-.2-3.43l1.725-1.714a.2.2,0,0,0,.039-.229l-1.271-2.628a.2.2,0,0,0-.2-.112l-2.415.287a10.589,10.589,0,0,0-2.566-2.283l.007-2.434a.2.2,0,0,0-.134-.189Z" transform="translate(-3300 -780.787)" fill="#91b3fa"/>
    <path id="Trazado_247047" data-name="Trazado 247047" d="M252.857,210.609a2.987,2.987,0,0,1,3.479,4.837,2.987,2.987,0,1,1-3.479-4.837m2.71,4.42a2.253,2.253,0,0,0,.262-.189,2.2,2.2,0,1,0-.262.189" transform="translate(-3300 -780.787)" fill="#bdd0fb"/>
    <path id="Trazado_247048" data-name="Trazado 247048" d="M250.5,206.883a7.545,7.545,0,0,1,2.088-.882l.066-.016a.393.393,0,0,1,.429.176.384.384,0,0,1,.048.114.4.4,0,0,1-.291.477,6.621,6.621,0,0,0-1.332.479l-.07.034a6.586,6.586,0,0,0-2.473,2.119,6.672,6.672,0,0,0-.822,1.59l-.006.014c0,.015-.01.029-.014.043a6.607,6.607,0,0,0,.293,5.081,6.679,6.679,0,0,0,.329.6,6.649,6.649,0,0,0,11.643-6.39,6.4,6.4,0,0,0-.324-.593,6.633,6.633,0,0,0-2.01-2.071.38.38,0,0,1-.12-.123.395.395,0,0,1,.553-.537,7.423,7.423,0,0,1,2.249,2.317,7.439,7.439,0,0,1-12.663,7.812,7.62,7.62,0,0,1-.368-.671,7.451,7.451,0,0,1,2.795-9.573" transform="translate(-3300 -780.787)" fill="#bdd0fb"/>
    <path id="Trazado_247049" data-name="Trazado 247049" d="M196.555,90.491a5.181,5.181,0,0,0-8.63,0c-13.644,20.514-54.95,85-54.95,113.725,0,34.412,26.534,62.309,59.265,62.309s59.265-27.9,59.265-62.309c0-28.729-41.306-93.211-54.95-113.725" transform="translate(-3300 -780.787)" fill="#144677"/>
    <path id="Trazado_247050" data-name="Trazado 247050" d="M195.629,152.653a17.048,17.048,0,0,1,13.122-9.3l.386-24.445a.373.373,0,0,0-.375-.379c-15.927.173-29.98,10.085-36.538,24.767a.408.408,0,0,0,.229.548Z" transform="translate(-3300 -780.787)" fill="#fff59d"/>
    <path id="Trazado_247051" data-name="Trazado 247051" d="M227.1,164.365a.728.728,0,0,0-.717.511c-.274.874-.773,2.551-.855,2.764a22.581,22.581,0,0,1-1.411,3,16.527,16.527,0,0,1-3.907,4.713c-4.051,3.28-9.875,3.89-14.732,2.266-.139-.046-.276-.1-.413-.147a.543.543,0,0,0-.667.247L192.15,200.055c5.948,2.982,11.544,3.762,18.566,3.312,20.4-1.307,36.422-17.872,38.2-38.414Z" transform="translate(-3300 -780.787)" fill="#7d97f4"/>
    <path id="Trazado_247052" data-name="Trazado 247052" d="M227.1,164.365c-1.328,8.151-7.352,14.52-15.538,14.8a18.6,18.6,0,0,1-7.071-1.275.458.458,0,0,0-.566.2l-12.59,21.657a38.253,38.253,0,0,0,19.686,3.993c20.4-1.308,36.421-18.376,38.2-38.918Z" transform="translate(-3300 -780.787)" fill="#fff59d"/>
    <path id="Trazado_247053" data-name="Trazado 247053" d="M188.711,196.324,200.9,174.46a.368.368,0,0,0-.086-.462c-3.753-3.16-6.753-7.4-6.753-12.892,0-1.356-.6-3.328-.326-4.6l-22.924-8.2a44.578,44.578,0,0,0-1.96,13.11,43.266,43.266,0,0,0,18.608,35.2.868.868,0,0,0,1.251-.292" transform="translate(-3300 -780.787)" fill="#91b3fa"/>
    <path id="Trazado_247054" data-name="Trazado 247054" d="M187.492,195.7l12.632-21.593a.663.663,0,0,0-.133-.834,17.735,17.735,0,0,1-5.929-13.384,18.667,18.667,0,0,1,.421-3.948l-23.328-8.72a.343.343,0,0,0-.449.223,44.561,44.561,0,0,0-1.854,12.759,42.205,42.205,0,0,0,18.64,35.5" transform="translate(-3300 -780.787)" fill="#fff59d"/>
    <path id="Trazado_247055" data-name="Trazado 247055" d="M213.22,143.474a17.021,17.021,0,0,1,13.788,14.906.833.833,0,0,0,.8.732l34.973,1.172.274-.266c-.107-29.256-21.085-54.321-49.185-57.639Z" transform="translate(-3300 -780.787)" fill="#baeaff"/>
    <g id="Grupo_245454" data-name="Grupo 245454" transform="translate(-3300 -780.787)">
      <g id="Grupo_245453" data-name="Grupo 245453" clip-path="url(#clip-path-8)">
        <rect id="Rectángulo_317658" data-name="Rectángulo 317658" width="31.198" height="26.239" transform="translate(128.414 200.361) rotate(-68.265)" fill="url(#linear-gradient-2)"/>
      </g>
    </g>
    <g id="Grupo_245456" data-name="Grupo 245456" transform="translate(-3300 -780.787)">
      <g id="Grupo_245455" data-name="Grupo 245455" clip-path="url(#clip-path-9)">
        <rect id="Rectángulo_317659" data-name="Rectángulo 317659" width="32.205" height="31.423" transform="matrix(0.586, -0.81, 0.81, 0.586, 145.22, 190.112)" fill="url(#linear-gradient-3)"/>
      </g>
    </g>
    <g id="Grupo_245458" data-name="Grupo 245458" transform="translate(-3300 -780.787)">
      <g id="Grupo_245457" data-name="Grupo 245457" clip-path="url(#clip-path-10)">
        <rect id="Rectángulo_317660" data-name="Rectángulo 317660" width="5.511" height="4.531" transform="translate(127.151 267.674)" fill="url(#linear-gradient-4)"/>
      </g>
    </g>
    <g id="Grupo_245460" data-name="Grupo 245460" transform="translate(-3300 -780.787)">
      <g id="Grupo_245459" data-name="Grupo 245459" clip-path="url(#clip-path-11)">
        <rect id="Rectángulo_317661" data-name="Rectángulo 317661" width="10.191" height="32.654" transform="translate(146.12 239.671) rotate(-4.89)" fill="url(#linear-gradient-5)"/>
      </g>
    </g>
    <g id="Grupo_245462" data-name="Grupo 245462" transform="translate(-3300 -780.787)">
      <g id="Grupo_245461" data-name="Grupo 245461" clip-path="url(#clip-path-12)">
        <rect id="Rectángulo_317662" data-name="Rectángulo 317662" width="8.976" height="6.551" transform="translate(148.61 265.658)" fill="url(#linear-gradient-6)"/>
      </g>
    </g>
    <g id="Grupo_245464" data-name="Grupo 245464" transform="translate(-3300 -780.787)">
      <g id="Grupo_245463" data-name="Grupo 245463" clip-path="url(#clip-path-13)">
        <rect id="Rectángulo_317663" data-name="Rectángulo 317663" width="19.176" height="32.313" transform="translate(125.567 239.825) rotate(-4.89)" fill="url(#linear-gradient-7)"/>
      </g>
    </g>
    <path id="Trazado_247062" data-name="Trazado 247062" d="M150.576,212.291c2.361-10.005-3.62-15.664-3.62-15.664,3.774-3.623,10.65-5.271,10.65-5.271s6.562,4.8,5.784,8.552c-.457,2.2-4.613,13.182-4.613,13.182a9.129,9.129,0,0,1-8.2-.8" transform="translate(-3300 -780.787)" fill="#fff59d"/>
    <path id="Trazado_247063" data-name="Trazado 247063" d="M145.341,217.244c.961-2.9,5.235-4.953,5.235-4.953a9.133,9.133,0,0,0,8.2.8,16.442,16.442,0,0,1,.267,6.355c-.594,3.062-4.326,22.737-4.326,22.737-5.881,1.191-14.925-1.2-14.925-1.2,3.746-6.65,4.587-20.844,5.548-23.739" transform="translate(-3300 -780.787)" fill="#fff59d"/>
    <g id="Grupo_245468" data-name="Grupo 245468" transform="translate(-3300 -780.787)">
      <g id="Grupo_245467" data-name="Grupo 245467" clip-path="url(#clip-path-14)">
        <rect id="Rectángulo_317665" data-name="Rectángulo 317665" width="7.196" height="10.905" transform="translate(149.845 184.109) rotate(-7.783)" fill="url(#linear-gradient-8)"/>
      </g>
    </g>
    <g id="Grupo_245470" data-name="Grupo 245470" transform="translate(-3300 -780.787)">
      <g id="Grupo_245469" data-name="Grupo 245469" clip-path="url(#clip-path-15)">
        <rect id="Rectángulo_317666" data-name="Rectángulo 317666" width="32.151" height="27.41" transform="translate(121.897 199.359) rotate(-22.701)" fill="url(#linear-gradient-9)"/>
      </g>
    </g>
    <g id="Grupo_245472" data-name="Grupo 245472" transform="translate(-3300 -780.787)">
      <g id="Grupo_245471" data-name="Grupo 245471" clip-path="url(#clip-path-16)">
        <rect id="Rectángulo_317667" data-name="Rectángulo 317667" width="12.538" height="12.591" transform="translate(147.918 177.544) rotate(-18.128)" fill="url(#linear-gradient-10)"/>
      </g>
    </g>
    <g id="Grupo_245474" data-name="Grupo 245474" transform="translate(-3300 -780.787)">
      <g id="Grupo_245473" data-name="Grupo 245473" clip-path="url(#clip-path-17)">
        <rect id="Rectángulo_317668" data-name="Rectángulo 317668" width="16.707" height="16.576" transform="matrix(0.544, -0.839, 0.839, 0.544, 143.274, 182.191)" fill="url(#linear-gradient-11)"/>
      </g>
    </g>
    <g id="Grupo_245476" data-name="Grupo 245476" transform="translate(-3300 -780.787)">
      <g id="Grupo_245475" data-name="Grupo 245475" clip-path="url(#clip-path-18)">
        <rect id="Rectángulo_317669" data-name="Rectángulo 317669" width="3.847" height="3.919" transform="matrix(0.95, -0.311, 0.311, 0.95, 149.813, 180.767)" fill="url(#linear-gradient-12)"/>
      </g>
    </g>
    <g id="Grupo_245478" data-name="Grupo 245478" transform="translate(-3300 -780.787)">
      <g id="Grupo_245477" data-name="Grupo 245477" clip-path="url(#clip-path-19)">
        <rect id="Rectángulo_317670" data-name="Rectángulo 317670" width="11.798" height="11.465" transform="matrix(0.586, -0.81, 0.81, 0.586, 171.503, 174.454)" fill="url(#linear-gradient-13)"/>
      </g>
    </g>
    <g id="Grupo_245480" data-name="Grupo 245480" transform="translate(-3300 -780.787)">
      <g id="Grupo_245479" data-name="Grupo 245479" clip-path="url(#clip-path-20)">
        <rect id="Rectángulo_317671" data-name="Rectángulo 317671" width="3.139" height="4.225" transform="translate(177.058 171.822)" fill="url(#linear-gradient-14)"/>
      </g>
    </g>
    <g id="Grupo_245482" data-name="Grupo 245482" transform="translate(-3300 -780.787)">
      <g id="Grupo_245481" data-name="Grupo 245481" clip-path="url(#clip-path-21)">
        <rect id="Rectángulo_317672" data-name="Rectángulo 317672" width="24.251" height="21.988" transform="translate(150.128 195.431) rotate(-13.496)" fill="url(#linear-gradient-15)"/>
      </g>
    </g>
    <g id="Grupo_245484" data-name="Grupo 245484" transform="translate(-3300 -780.787)">
      <g id="Grupo_245483" data-name="Grupo 245483" clip-path="url(#clip-path-22)">
        <rect id="Rectángulo_317673" data-name="Rectángulo 317673" width="2.719" height="4.306" transform="translate(164.603 194.735) rotate(-77.171)" fill="url(#linear-gradient-16)"/>
      </g>
    </g>
    <g id="Grupo_245486" data-name="Grupo 245486" transform="translate(-3300 -780.787)">
      <g id="Grupo_245485" data-name="Grupo 245485" clip-path="url(#clip-path-23)">
        <rect id="Rectángulo_317674" data-name="Rectángulo 317674" width="3.923" height="7.897" transform="translate(162.521 196.567) rotate(-80.538)" fill="url(#linear-gradient-17)"/>
      </g>
    </g>
    <g id="Grupo_245488" data-name="Grupo 245488" transform="translate(-3300 -780.787)">
      <g id="Grupo_245487" data-name="Grupo 245487" clip-path="url(#clip-path-24)">
        <rect id="Rectángulo_317675" data-name="Rectángulo 317675" width="6.166" height="5.489" transform="translate(154.674 202.308)" fill="url(#linear-gradient-18)"/>
      </g>
    </g>
  </g>
</svg>
