<svg xmlns="http://www.w3.org/2000/svg" width="867.395" height="58.477" viewBox="0 0 867.395 58.477">
  <g id="Grupo_245497" data-name="Grupo 245497" transform="translate(2987 935.299)">
    <path id="Trazado_246998" data-name="Trazado 246998" d="M1170.4,545.759H323a10,10,0,0,1-10-10V497.282a10,10,0,0,1,10-10h847.4a10,10,0,0,1,10,10v38.477a10,10,0,0,1-10,10" transform="translate(-3300 -1422.581)" fill="#fff"/>
    <g id="Grupo_245494" data-name="Grupo 245494">
      <text id="HHP" transform="translate(-2663.655 -902.049)" font-size="17.654" font-family="TimesNewRomanPS-BoldItalicMT, Times New Roman" font-weight="700" font-style="italic"><tspan x="0" y="0">HHP</tspan></text>
      <text id="_" data-name=" " transform="translate(-2626.07 -902.049)" font-size="17.654" font-family="TimesNewRomanPS-BoldItalicMT, Times New Roman" font-weight="700" font-style="italic"><tspan x="0" y="0"> </tspan></text>
      <text id="_2" data-name="=" transform="translate(-2621.304 -902.049)" font-size="17.654" font-family="TimesNewRomanPS-BoldItalicMT, Times New Roman" font-weight="700" font-style="italic"><tspan x="0" y="0">=</tspan></text>
      <text id="HH_prod_i_" data-name="HH prod (i)" transform="translate(-2533.58 -915.378)" font-size="17.654" font-family="TimesNewRomanPS-BoldItalicMT, Times New Roman" font-weight="700" font-style="italic"><tspan x="0" y="0">HH prod (i)</tspan></text>
      <text id="Fp_p_i_" data-name="Fp (p,i) " transform="translate(-2517.604 -887.485)" font-size="17.654" font-family="TimesNewRomanPS-BoldItalicMT, Times New Roman" font-weight="700" font-style="italic"><tspan x="0" y="0">Fp (p,i) </tspan></text>
      <text id="HHP-2" data-name="HHP" transform="translate(-2598.477 -902.049)" font-size="17.654" font-family="TimesNewRomanPS-BoldItalicMT, Times New Roman" font-weight="700" font-style="italic"><tspan x="0" y="0">HHP</tspan></text>
      <text id="_3" data-name=" " transform="translate(-2560.892 -902.049)" font-size="17.654" font-family="TimesNewRomanPS-BoldItalicMT, Times New Roman" font-weight="700" font-style="italic"><tspan x="0" y="0"> </tspan></text>
      <text id="_4" data-name="+" transform="translate(-2556.125 -902.049)" font-size="17.654" font-family="TimesNewRomanPS-BoldItalicMT, Times New Roman" font-weight="700" font-style="italic"><tspan x="0" y="0">+</tspan></text>
      <line id="Línea_718" data-name="Línea 718" x2="94.076" transform="translate(-2536.457 -907.076)"/>
      <line id="Línea_719" data-name="Línea 719" x2="94.076" transform="translate(-2536.457 -907.076)" fill="none" stroke="#000" stroke-miterlimit="10" stroke-width="1.103"/>
    </g>
  </g>
</svg>
