<svg id="Grupo_244839" data-name="Grupo 244839" xmlns="http://www.w3.org/2000/svg" xmlns:xlink="http://www.w3.org/1999/xlink" width="61.767" height="61.771" viewBox="0 0 61.767 61.771">
  <defs>
    <clipPath id="clip-path">
      <rect id="Rectángulo_317327" data-name="Rectángulo 317327" width="61.767" height="61.771" fill="none"/>
    </clipPath>
  </defs>
  <g id="Grupo_244838" data-name="Grupo 244838" clip-path="url(#clip-path)">
    <path id="Trazado_246267" data-name="Trazado 246267" d="M37.015,10.34h-8.15V22.568c2.272.363,3.248,1.785,3.02,4.13a3.29,3.29,0,0,1,3.154,3.176c.333,0,.652-.006.971,0a2.973,2.973,0,0,1,3.024,2.45c.1.525.307.66.8.644,1.032-.033,2.066-.014,3.1-.021a1.231,1.231,0,0,0,.275-.079V24.706a16.275,16.275,0,0,0-1.987.03c-.206.025-.391.39-.548.624a3.088,3.088,0,0,1-5.378-3.006,3.005,3.005,0,0,1,3.916-1.519,4.207,4.207,0,0,1,1.5,1.3,1.046,1.046,0,0,0,.986.517c.6-.023,1.2-.006,1.794-.005,1.622,0,1.8.171,1.8,1.756q0,3.752,0,7.5v1.027c1.189,0,2.342.013,3.494-.016.141,0,.3-.216.41-.362q2.553-3.386,5.086-6.786a1.34,1.34,0,0,0,.265-.735c.016-2.746.008-5.492,0-8.238a1.5,1.5,0,0,0-.085-.307c-.935,0-1.882-.04-2.821.028-.235.017-.49.348-.659.589a3.088,3.088,0,0,1-5.591-.916,2.941,2.941,0,0,1,1.048-3.14,3,3,0,0,1,4.526.755,1.12,1.12,0,0,0,1.164.614c1.086-.035,2.175-.021,3.262-.006.865.012,1.247.381,1.25,1.25.012,3.29.021,6.58-.017,9.869a2.213,2.213,0,0,1-.472,1.166c-1.346,1.844-2.729,3.661-4.1,5.49-.155.208-.294.428-.525.767,1.325,0,2.511.016,3.695-.021.144,0,.358-.279.407-.463a3.077,3.077,0,0,1,3.335-2.6c.571,0,1.142-.007,1.713,0a.985.985,0,0,1,1.083,1.057c.008.19.005.381.005.571q0,12.765,0,25.529c0,1.444-.207,1.649-1.648,1.651-.517,0-1.034.015-1.549-.01a2.963,2.963,0,0,1-2.876-2.431c-.1-.529-.32-.645-.8-.644-5.03.012-10.06,0-15.089.026a.883.883,0,0,0-.691.42c-.6,1.929-1.433,2.585-3.478,2.641-.187.005-.373.032-.548.048-.6,2.376-1.46,3.035-3.915,3.035q-13.743,0-27.487,0C1.107,61.77,0,60.671,0,58.111Q0,44.286,0,30.46c0-2.307.738-3.23,2.835-3.717a9.677,9.677,0,0,1,.893-2.785,9.393,9.393,0,0,1,2.4-1.71V6.292a10.059,10.059,0,0,1-1.532-.577A2.807,2.807,0,0,1,3.107,3.33c-.039-.732-.036-1.468-.012-2.2C3.121.334,3.454.018,4.28.009,5.856-.006,7.433,0,9.01,0Q19.654,0,30.3,0c1.4,0,1.6.2,1.6,1.609q0,.245,0,.489c0,2.727-.452,3.353-3.049,4.179V8.219h.893q3.956,0,7.911,0c1.141,0,1.455.316,1.47,1.444,0,.353.023.709,0,1.06a2.394,2.394,0,0,0,1.039,2.519,2.907,2.907,0,0,1,.159,4.342,3.091,3.091,0,0,1-4.453,0,2.873,2.873,0,0,1,.158-4.332c1.194-.8,1.106-1.732.99-2.913M32.84,44.224q0-6.809,0-13.618c0-1.5-.193-1.716-1.671-1.717q-13.822-.01-27.645,0c-1.145,0-1.438.3-1.441,1.459-.006,2.773,0,5.545,0,8.318q0,9.745,0,19.49c0,1.154.3,1.531,1.3,1.532q13.945.013,27.889,0c1.307,0,1.564-.3,1.564-1.6q0-6.932,0-13.863m6.418,9.209H55.44V35.119H39.259ZM8.3,22.513a2.682,2.682,0,0,0,.379.062c5.652,0,11.3-.018,16.955.016.9.005,1.054-.35,1.049-1.148-.031-4.673-.015-9.347-.016-14.021,0-1.142,0-1.143-1.149-1.182-.136,0-.272,0-.408,0q-7.988,0-15.977,0c-.264,0-.529.026-.833.042ZM5.217,2.081C5.01,3.726,5.323,4.1,6.836,4.1q10.711,0,21.422,0c1.421,0,1.891-.664,1.433-2.02ZM29.778,26.726c.192-1.653-.115-2.01-1.649-2.01H6.787c-1.475,0-1.845.477-1.534,2.01ZM35.077,32V56.581c1.664.134,1.978-.144,1.978-1.69q0-10.63,0-21.259c0-1.525-.382-1.848-1.978-1.632m24.6,0c-1.628-.219-2.007.1-2.007,1.628q0,10.671,0,21.342c0,1.484.454,1.843,2.007,1.555ZM39.083,15.381a.992.992,0,0,0-1.982.049.992.992,0,1,0,1.982-.049m10.312.075a.967.967,0,0,0-.953-1.009.947.947,0,0,0-1.046.918.979.979,0,0,0,.982,1.068.991.991,0,0,0,1.017-.977m-10.316,8.3a.978.978,0,0,0-.969-1.061.939.939,0,0,0-1.009.946.972.972,0,0,0,1.01,1.03.942.942,0,0,0,.968-.916" transform="translate(0 0)"/>
    <path id="Trazado_246268" data-name="Trazado 246268" d="M43.5,192.373q0,6.931,0,13.863c0,1.3-.257,1.6-1.564,1.6q-13.945.017-27.889,0c-1,0-1.3-.378-1.3-1.531q0-9.745,0-19.49c0-2.773,0-5.545,0-8.318,0-1.157.3-1.458,1.441-1.459q13.822-.006,27.645,0c1.478,0,1.671.217,1.671,1.717q0,6.809,0,13.619M25.543,204.836a7.89,7.89,0,0,0,4.388-1.587c3.125-2.293,4.161-5.919,2.75-9.8A71.3,71.3,0,0,0,26.11,180.74,1.124,1.124,0,0,0,24,180.8c-1.829,3.268-3.647,6.543-5.382,9.861a27.841,27.841,0,0,0-1.445,3.713c-1.665,4.741,2.133,10.444,8.375,10.466m5.566-20.653a4.425,4.425,0,0,0,2.6,3.83,4.151,4.151,0,0,0,4.6-.878,3.655,3.655,0,0,0,.833-4.409,37.089,37.089,0,0,0-2.9-4.3,1.024,1.024,0,0,0-1.745.011c-.981,1.295-1.915,2.63-2.785,4a7.684,7.684,0,0,0-.6,1.748m-14.34-5.12H14.812v2.029c2.448.128,2.089.343,2.04-1.893,0-.023-.026-.045-.083-.136M41.539,203.7c-.605,0-1.167-.027-1.723.019a.56.56,0,0,0-.368.4c-.044.553-.018,1.111-.018,1.664h2.109Z" transform="translate(-10.662 -148.15)" fill="#00d7df"/>
    <path id="Trazado_246269" data-name="Trazado 246269" d="M240.624,215.249h16.182v18.314H240.624Zm8.8,8.879c1.094-1.074,2.178-2.065,3.156-3.151a1.286,1.286,0,0,0,.108-1.233c-1.04-1.125-2.189-2.148-3.191-3.1l-1.545,1.276,1.249,1.327h-3.556v2.126h3.536l-1.218,1.279,1.463,1.479m-1.508,8.175,1.585-1.4-1.2-1.315H251.8v-2.168h-3.373l-.18-.3,1.334-.831-1.564-1.637c-1.1,1.088-2.155,2.1-3.168,3.152a.988.988,0,0,0,.035,1.466c1,1.031,2.028,2.03,3.028,3.024" transform="translate(-201.366 -180.131)" fill="#57a4ff"/>
    <path id="Trazado_246270" data-name="Trazado 246270" d="M50.889,54.5V38.263c.3-.016.569-.042.833-.042q7.989,0,15.977,0c.136,0,.272,0,.408,0,1.146.039,1.149.04,1.149,1.182,0,4.674-.016,9.347.016,14.021.005.8-.146,1.153-1.049,1.148-5.652-.034-11.3-.015-16.955-.016a2.688,2.688,0,0,1-.379-.062M63.106,43.3v3.516L61.911,45.7l-1.555,1.384c1.086,1.1,2.094,2.206,3.2,3.2a1.269,1.269,0,0,0,1.236.028c1.107-1.024,2.112-2.158,3.11-3.206l-1.318-1.485-1.325,1.208V43.3ZM57.064,49.48V45.969L58.2,47.031l1.609-1.371c-1.058-1.068-2.043-2.075-3.044-3.066A.991.991,0,0,0,55.3,42.48c-1.079,1.021-2.1,2.108-3.164,3.194l1.469,1.47,1.287-1.192V49.48Z" transform="translate(-42.586 -31.984)" fill="#57a4ff"/>
    <path id="Trazado_246271" data-name="Trazado 246271" d="M31.683,12.754H56.158c.458,1.356-.013,2.019-1.433,2.02q-10.711,0-21.422,0c-1.513,0-1.826-.375-1.619-2.02" transform="translate(-26.466 -10.673)" fill="#ffeb99"/>
    <path id="Trazado_246272" data-name="Trazado 246272" d="M56.2,153.5H31.675c-.311-1.533.059-2.01,1.534-2.01H54.55c1.535,0,1.842.357,1.649,2.01" transform="translate(-26.422 -126.772)" fill="#ffeb99"/>
    <path id="Trazado_246273" data-name="Trazado 246273" d="M214.995,195.816c1.6-.216,1.978.107,1.978,1.632q0,10.63,0,21.259c0,1.547-.314,1.824-1.978,1.691Z" transform="translate(-179.918 -163.818)" fill="#ffeb99"/>
    <path id="Trazado_246274" data-name="Trazado 246274" d="M355.477,195.829v24.525c-1.553.288-2.006-.071-2.007-1.555q0-10.671,0-21.342c0-1.526.379-1.846,2.007-1.628" transform="translate(-295.801 -163.828)" fill="#ffeb99"/>
    <path id="Trazado_246275" data-name="Trazado 246275" d="M229.377,89.482a.992.992,0,1,1-1.982.049.992.992,0,0,1,1.982-.049" transform="translate(-190.294 -74.101)" fill="#ffeb99"/>
    <path id="Trazado_246276" data-name="Trazado 246276" d="M292.466,89.546a.991.991,0,0,1-1.017.977.979.979,0,0,1-.982-1.068.947.947,0,0,1,1.046-.918.967.967,0,0,1,.953,1.009" transform="translate(-243.07 -74.09)" fill="#ffeb99"/>
    <path id="Trazado_246277" data-name="Trazado 246277" d="M229.362,140.149a.942.942,0,0,1-.968.916.972.972,0,0,1-1.01-1.03.939.939,0,0,1,1.009-.946.978.978,0,0,1,.969,1.061" transform="translate(-190.283 -116.396)" fill="#ffeb99"/>
    <path id="Trazado_246278" data-name="Trazado 246278" d="M46.244,220.184c-6.242-.022-10.04-5.725-8.375-10.466a27.841,27.841,0,0,1,1.445-3.713c1.735-3.318,3.553-6.593,5.382-9.861a1.125,1.125,0,0,1,2.114-.057A71.3,71.3,0,0,1,53.382,208.8c1.411,3.877.375,7.5-2.75,9.8a7.888,7.888,0,0,1-4.388,1.587m-.439-21.705c-.686,1.175-1.243,2.075-1.748,3a48.335,48.335,0,0,0-4.15,8.921,5.6,5.6,0,0,0,1.023,5.221,6.067,6.067,0,0,0,7.172,1.917,5.845,5.845,0,0,0,3.606-6.519,28.5,28.5,0,0,0-2.061-5.292c-1.152-2.387-2.475-4.692-3.842-7.25" transform="translate(-31.363 -163.498)"/>
    <path id="Trazado_246279" data-name="Trazado 246279" d="M125.327,188.835a7.684,7.684,0,0,1,.6-1.748c.87-1.372,1.8-2.707,2.785-4a1.024,1.024,0,0,1,1.744-.011,37.072,37.072,0,0,1,2.905,4.3,3.655,3.655,0,0,1-.833,4.409,4.152,4.152,0,0,1-4.6.878,4.425,4.425,0,0,1-2.6-3.83m4.414-3.4-.341.023c-.563.951-1.185,1.873-1.669,2.863a1.734,1.734,0,0,0,.694,2.147,1.973,1.973,0,0,0,2.356-.032,1.723,1.723,0,0,0,.666-2.085c-.5-1.007-1.131-1.947-1.706-2.916" transform="translate(-104.88 -152.802)"/>
    <path id="Trazado_246280" data-name="Trazado 246280" d="M27.394,189.475c.056.091.082.113.083.136.049,2.237.409,2.021-2.039,1.893v-2.029Z" transform="translate(-21.287 -158.562)"/>
    <path id="Trazado_246281" data-name="Trazado 246281" d="M178.394,340.453v2.078h-2.109c0-.553-.026-1.111.018-1.664a.56.56,0,0,1,.368-.4c.556-.046,1.118-.019,1.723-.019" transform="translate(-147.517 -284.901)"/>
    <path id="Trazado_246282" data-name="Trazado 246282" d="M275.17,231.267l-1.463-1.479,1.218-1.279h-3.536v-2.126h3.556l-1.248-1.327,1.545-1.276c1,.954,2.151,1.978,3.191,3.1a1.286,1.286,0,0,1-.107,1.233c-.978,1.086-2.062,2.077-3.156,3.151" transform="translate(-227.111 -187.27)"/>
    <path id="Trazado_246283" data-name="Trazado 246283" d="M268.025,280.573c-1-.995-2.031-1.993-3.028-3.024a.988.988,0,0,1-.035-1.466c1.012-1.053,2.069-2.064,3.168-3.152l1.564,1.637-1.334.831.18.3h3.373v2.168h-3.505l1.2,1.315-1.585,1.4" transform="translate(-221.474 -228.401)"/>
    <path id="Trazado_246284" data-name="Trazado 246284" d="M111.667,69.367h2.153V72.9l1.325-1.208,1.318,1.485c-1,1.049-2,2.182-3.11,3.206a1.269,1.269,0,0,1-1.236-.028c-1.106-.992-2.114-2.093-3.2-3.2l1.555-1.384,1.195,1.114Z" transform="translate(-91.147 -58.05)"/>
    <path id="Trazado_246285" data-name="Trazado 246285" d="M63.47,69.934H61.3V66.406L60.013,67.6l-1.469-1.47c1.068-1.086,2.085-2.172,3.164-3.194a.991.991,0,0,1,1.463.114c1,.99,1.986,2,3.044,3.066l-1.609,1.371L63.47,66.422Z" transform="translate(-48.992 -52.437)"/>
    <path id="Trazado_246286" data-name="Trazado 246286" d="M56.941,214.409c1.367,2.558,2.69,4.863,3.842,7.25a28.5,28.5,0,0,1,2.061,5.292,5.845,5.845,0,0,1-3.606,6.519,6.067,6.067,0,0,1-7.172-1.917,5.6,5.6,0,0,1-1.023-5.221,48.335,48.335,0,0,1,4.15-8.921c.505-.928,1.062-1.828,1.748-3" transform="translate(-42.499 -179.428)" fill="#57a4ff"/>
    <path id="Trazado_246287" data-name="Trazado 246287" d="M141.3,200c.575.969,1.208,1.909,1.706,2.916a1.723,1.723,0,0,1-.666,2.085,1.973,1.973,0,0,1-2.356.032,1.734,1.734,0,0,1-.694-2.147c.484-.99,1.106-1.912,1.669-2.863Z" transform="translate(-116.44 -167.366)" fill="#57a4ff"/>
  </g>
</svg>
