<svg xmlns="http://www.w3.org/2000/svg" width="867.395" height="58.851" viewBox="0 0 867.395 58.851">
  <g id="Grupo_245498" data-name="Grupo 245498" transform="translate(2987 498.242)">
    <path id="Trazado_247026" data-name="Trazado 247026" d="M1170.4,341.209H323a10,10,0,0,1-10-10V292.732a10,10,0,0,1,10-10h847.4a10,10,0,0,1,10,10v38.477a10,10,0,0,1-10,10" transform="translate(-3300 -780.787)" fill="#fff"/>
    <g id="Grupo_245493" data-name="Grupo 245493">
      <text id="HHP" transform="translate(-2739.618 -463.666)" font-size="15.467" font-family="TimesNewRomanPS-BoldItalicMT, Times New Roman" font-weight="700" font-style="italic"><tspan x="0" y="0">HHP</tspan></text>
      <text id="_" data-name=" " transform="translate(-2706.689 -463.666)" font-size="15.467" font-family="TimesNewRomanPS-BoldItalicMT, Times New Roman" font-weight="700" font-style="italic"><tspan x="0" y="0"> </tspan></text>
      <text id="_2" data-name="=" transform="translate(-2702.513 -463.666)" font-size="15.467" font-family="TimesNewRomanPS-BoldItalicMT, Times New Roman" font-weight="700" font-style="italic"><tspan x="0" y="0">=</tspan></text>
      <text id="_f_v_p_" data-name="* f v (p)" transform="translate(-2415.883 -465.027)" font-size="15.467" font-family="TimesNewRomanPS-BoldItalicMT, Times New Roman" font-weight="700" font-style="italic"><tspan x="0" y="0">* f v (p)</tspan></text>
      <text id="HH_prod_P_" data-name="HH prod (P) +" transform="translate(-2673.899 -465.027)" font-size="15.467" font-family="TimesNewRomanPS-BoldItalicMT, Times New Roman" font-weight="700" font-style="italic"><tspan x="0" y="0">HH prod (P) +</tspan></text>
      <text id="Fp_p_i_" data-name="Fp (p,i) " transform="translate(-2529.007 -454.154)" font-size="15.467" font-family="TimesNewRomanPS-BoldItalicMT, Times New Roman" font-weight="700" font-style="italic"><tspan x="0" y="0">Fp (p,i) </tspan></text>
      <line id="Línea_720" data-name="Línea 720" x2="147.379" transform="translate(-2577.279 -469.466)" fill="#fff"/>
      <line id="Línea_721" data-name="Línea 721" x2="147.379" transform="translate(-2577.279 -469.466)" fill="none" stroke="#000" stroke-miterlimit="10" stroke-width="0.967"/>
      <text id="HH_prod_s_" data-name="HH prod (s)" transform="translate(-2514.686 -479.007)" font-size="15.467" font-family="TimesNewRomanPS-BoldItalicMT, Times New Roman" font-weight="700" font-style="italic"><tspan x="0" y="0">HH prod (s)</tspan></text>
      <text id="y" transform="translate(-2555.974 -485.967)" font-size="11.6" font-family="TimesNewRomanPS-BoldItalicMT, Times New Roman" font-weight="700" font-style="italic"><tspan x="0" y="0">y</tspan></text>
      <text id="i" transform="translate(-2555.974 -474.367)" font-size="11.6" font-family="TimesNewRomanPS-BoldItalicMT, Times New Roman" font-weight="700" font-style="italic"><tspan x="0" y="0">i</tspan></text>
      <text id="_1" data-name="∑   = 1" transform="translate(-2568.576 -479.007)" font-size="15.467" font-family="TimesNewRomanPS-BoldItalicMT, Times New Roman" font-weight="700" font-style="italic"><tspan x="0" y="0" xml:space="preserve">∑   = 1</tspan></text>
      <text id="_3" data-name="(" transform="translate(-2417.829 -482.392) rotate(180)" font-size="48.334" font-family="TimesNewRomanPSMT, Times New Roman"><tspan x="0" y="0">(</tspan></text>
      <text id="_4" data-name="(" transform="translate(-2687.222 -455.242)" font-size="48.334" font-family="TimesNewRomanPSMT, Times New Roman"><tspan x="0" y="0">(</tspan></text>
    </g>
  </g>
</svg>
