<svg id="Grupo_244204" data-name="Grupo 244204" xmlns="http://www.w3.org/2000/svg" xmlns:xlink="http://www.w3.org/1999/xlink" width="160.959" height="162.562" viewBox="0 0 160.959 162.562">
  <defs>
    <clipPath id="clip-path">
      <rect id="Rectángulo_316923" data-name="Rectángulo 316923" width="160.959" height="162.562" fill="none"/>
    </clipPath>
  </defs>
  <g id="Grupo_244203" data-name="Grupo 244203" transform="translate(0 0)" clip-path="url(#clip-path)">
    <path id="Trazado_245510" data-name="Trazado 245510" d="M185.384,123.489a62.315,62.315,0,1,1-62.315-62.315,62.315,62.315,0,0,1,62.315,62.315" transform="translate(-41.182 -41.467)" fill="#b4dd7f"/>
    <path id="Trazado_245511" data-name="Trazado 245511" d="M.015,126.008v-4.9H28.43c-13.378-19.109-16.215-39.446-9.071-61.392l-5.375.513.881-8.9L6.293,48.8l4.267-7.852L3.626,35.285l6.939-5.629L6.305,21.818l8.57-2.589c-.3-2.916-.593-5.755-.916-8.876l8.884.912L25.4,2.689l7.864,4.274L38.909,0l5.619,6.973,7.88-4.285c.7,2.423,1.442,4.633,1.971,6.892.332,1.423.993,1.791,2.389,1.574,2.289-.357,4.606-.531,7.056-.8-.311,3.122-.593,5.96-.9,9.058,19.28-4.723,37.273-2.318,53.656,8.725,16.368,11.034,25.688,26.6,28.432,46.232.524,0,1.039.036,1.547-.005,7.591-.614,13.961,4.679,14.387,11.966a12.9,12.9,0,0,1-12.978,13.863q-20.623.182-41.249.108A13.1,13.1,0,0,1,93.388,85.945c.808-7.792,7.948-12.952,15.9-11.489.326.06.648.141,1.115.244a18.42,18.42,0,0,1,27.5-7.537c-.814-15.627-22.536-38.332-39.8-41.941.2,2.113.378,4.283.619,6.446a17.351,17.351,0,0,1-3.82,12.922c-2.741,3.606-1.692,7,2.33,9.05,5.9,3,8.248,8.414,5.809,13.737a13.952,13.952,0,0,1-2.671,3.72c-3.3,3.431-6.721,6.748-10.074,10.129-2.305,2.325-2.689,4.445-.691,6.967a17.2,17.2,0,0,1,3.914,13.288,10.645,10.645,0,0,0,2.012,7.214c4.743,7.263,4.035,13.839-2.1,19.951a26.528,26.528,0,0,0-3.614,4.569,8.5,8.5,0,0,0-1.332,3.689c-.272,3.3.78,4.14,4,3.5,1.759-.351,3.5-.781,5.439-1.218l1.474,5.163c-3.462.7-6.8,1.725-10.2,1.978-5.062.376-10.165.177-15.249.3a2.552,2.552,0,0,0-1.886.792c-2.29,3.839-5.478,5.469-9.133,4.495-3.783-1.009-5.915-4.115-5.845-8.535.007-.455.075-.909.124-1.477h5.09c0,.8-.029,1.505.005,2.212.091,1.826,1.128,2.889,2.7,2.806a2.692,2.692,0,0,0,2.44-3.275,7.813,7.813,0,0,0-7.653-6.926q-6.033-.145-12.069-.155-22.437-.026-44.875-.007H.093V131.4H56.981c0-1.382.047-2.436-.008-3.484a11.307,11.307,0,0,1,3.881-9.318c1.33-1.227,2.5-2.637,3.867-3.813a7.529,7.529,0,0,0,2.7-6.6c-.13-2.273.131-4.573-.063-6.836a9.142,9.142,0,0,1,3.459-8.336,9.976,9.976,0,0,0,1.575-2.376,17.758,17.758,0,0,0-2.924-.7,6.607,6.607,0,0,0-5.629,2.144c-3.756,4.164-14.922,4.132-18.608.073a7.628,7.628,0,0,0-6.009-2.271,9.311,9.311,0,0,1-9.276-6.647c-1.019-2.884-1.99-3.6-5-3.649-1.26-.021-2.52,0-4.375,0,.444,4.7.578,9.179,1.342,13.551a56.894,56.894,0,0,0,10.94,24.785,7.078,7.078,0,0,0,9.4,2.193,7.48,7.48,0,0,0,4.257-5.965c.271-1.936-.652-3.27-2.254-3.375-1.531-.1-2.539.966-2.657,2.857-.041.661-.006,1.327-.006,2.146h-5.23c-.551-3.293-.037-6.264,2.629-8.525a7.381,7.381,0,0,1,8.451-1.137,7.557,7.557,0,0,1,4.521,7.441A12.9,12.9,0,0,1,39.2,126.27c-12.808.149-25.619-.02-38.43-.063a3.814,3.814,0,0,1-.751-.2M72.975,22.915a4.843,4.843,0,0,0,1.7,5.447c2,1.616,3.562,3.673,3.249,6.368-.435,3.741.964,6.672,3.055,9.621,3.373,4.757,2.81,9.488-1.242,13.628-2.319,2.369-2.462,4.064-.6,6.895,1.031,1.568,2.138,3.1,3.05,4.731A6.565,6.565,0,0,1,77.2,79.432c-3.477.454-6.418-.312-8.867-3.076-2.238-2.525-4.328-2.6-7.136-.772a17.514,17.514,0,0,0-1.5,1.006c-6.42,5.212-12.94,3.168-15.517-4.088-1-2.827-2.75-3.79-5.623-3.373a13.774,13.774,0,0,1-10.383-2.84c-1.327-.966-2.825-1.7-4.562-2.724L21.216,74.194c1.532,0,2.656-.009,3.781,0,5.2.049,8.255,2.222,9.984,7.1.819,2.312,1.976,3.24,4.492,3.226A13.1,13.1,0,0,1,48.8,88.09c2.633,2.407,8.672,2.536,11.236.1,3.311-3.148,7.207-3.881,11.507-3.635a6.27,6.27,0,0,1,5.937,4.066,5.586,5.586,0,0,1-1.529,6.791,8.285,8.285,0,0,0-3.182,8.264c.063.461-.044.945.017,1.406.842,6.479-1.256,11.758-6.506,15.679-3.673,2.743-4.615,6.373-3.668,10.808a13.476,13.476,0,0,1,9.5,8.835,1.245,1.245,0,0,0,.794.748c3.561.246,7.128.428,11.049.647-2.155-5.843-.239-10.187,3.317-14.109.854-.942,1.5-2.094,2.414-2.959,4.253-4.007,4.528-8.276,1.338-13.1a15.669,15.669,0,0,1-2.857-10.668c.433-3.594-.731-6.582-2.83-9.512-3.692-5.154-3.114-9.708,1.379-14.217,3.409-3.421,6.865-6.8,10.226-10.262,2.624-2.706,2.044-6.26-1.216-8.075-.585-.326-1.2-.6-1.8-.9a10.082,10.082,0,0,1-5.774-9.407,12.648,12.648,0,0,1,2.384-7.323,18.173,18.173,0,0,0,2.71-5.478c.463-1.97.156-4.136.086-6.212-.065-1.925-2.812-6.324-4.141-6.517a56.885,56.885,0,0,0-16.21-.135M67.37,24.257c-13.8.165-37.376,19.77-41.438,34.309.423.28.874.561,1.307.868,4.291,3.045,8.789,5.163,14.333,4.41,2.671-.363,4.73,1.215,6.014,3.6.825,1.533,1.547,3.121,2.372,4.654,1.128,2.1,2.815,2.537,4.853,1.269,1.308-.814,2.561-1.715,3.855-2.552a10.147,10.147,0,0,1,13.072,1.276c.531.511.991,1.365,1.593,1.477a23.356,23.356,0,0,0,3.977.114,12.057,12.057,0,0,0-.724-2.843c-.781-1.473-1.833-2.8-2.721-4.219a9.475,9.475,0,0,1,1.259-11.627c3.3-3.345,3.592-4.808.825-8.51-2.529-3.384-3.9-6.935-3.471-11.187a3.177,3.177,0,0,0-.821-2.311c-2.52-2.415-4.875-4.849-4.286-8.729m73.242,58.468c-1.221-7.784-4.764-13.283-12.949-13.51-8.726-.242-12.532,5.4-13.881,13.481-1.23-.766-2.224-1.423-3.253-2.019A7.739,7.739,0,0,0,99.12,89.8a7.625,7.625,0,0,0,7.411,5.159q20.727.041,41.455,0a7.568,7.568,0,0,0,7.346-5.24A7.731,7.731,0,0,0,144,80.618c-1.037.592-2.03,1.26-3.387,2.107M20.049,16.465c.2,1.917.3,3.447.531,4.956a1.727,1.727,0,0,1-1.533,2.273c-1.553.356-3.068.88-4.808,1.392.886,1.626,1.6,3.134,2.5,4.523.719,1.112.447,1.757-.535,2.473-1.333.971-2.575,2.067-3.979,3.209L17.4,39.555l-3.1,5.959c1.846.548,3.365,1.069,4.92,1.436a1.553,1.553,0,0,1,1.364,2.006c-.212,1.685-.325,3.383-.48,5.075l.619.257c2.529-1.416,2.716-4.582,4.577-6.47-.231-.38-.351-.618-.507-.83C18.58,38.6,19.283,28.481,26.55,21.768a18.3,18.3,0,0,1,25.293.51c1.146,1.135,5.249-.341,5.529-1.979.2-1.168.237-2.364.372-3.828-1.723.168-3.305.26-4.867.492-1.369.2-2.1-.177-2.395-1.632-.313-1.533-.9-3.01-1.41-4.634l-5.936,3.117L38.924,8.6l-4.31,5.2-5.939-3.14c-.54,1.833-1.054,3.421-1.466,5.034a1.45,1.45,0,0,1-1.85,1.287c-1.639-.222-3.295-.327-5.309-.516m27.456,9.561c-4.2-4.759-12.55-4.744-17.457-.086-4.742,4.5-5.415,12.9-1.276,16.846a67.116,67.116,0,0,1,18.732-16.76" transform="translate(-0.01 -0.001)"/>
    <path id="Trazado_245512" data-name="Trazado 245512" d="M337.4,384.37h-5.141v-9.221l-3.5,3.27-3.71-3.744c2.1-2.03,4.18-3.992,6.2-6.015a4.353,4.353,0,0,0-.682-6.279,18.491,18.491,0,0,1-2.059-1.89c-.721-.679-1.36-1.817-2.169-1.953-1.8-.3-3.651-.39-5.083,1.424-1.564,1.981-3.442,3.715-5.216,5.591l-3.912-3.752,2.9-3.145h-8.888v-5.369h8.36l.249-.471-2.734-2.932,4.089-3.448c1.671,1.665,3.711,3.483,5.484,5.531,1.582,1.828,3.6.962,5.43,1.263.207.034.516-.529.774-.818,1.253-1.406,2.5-2.813,4.345-4.882.415-1.917-.245-4.306-2.731-6.2a59.4,59.4,0,0,1-4.489-4.182l4.213-4.145,2.235,3.155.609-.291v-8.531h5.459v8.9l3.263-3.048,3.617,3.883c-2,1.968-4.064,3.951-6.07,5.99-1.648,1.674-1.209,4.961.669,6.332a10.678,10.678,0,0,1,2.373,2.41c1.262,1.78,4.559,2.218,6.168.646,2.054-2.007,4.056-4.067,6.108-6.133l3.6,3.711-3.027,3.183h9v5.177H354.01l3.23,3.391-3.836,3.576c-1.777-1.816-3.708-3.818-5.673-5.786a4.325,4.325,0,0,0-6.56.57,19.635,19.635,0,0,1-1.923,2.031c-.638.672-1.725,1.3-1.807,2.041-.188,1.708-.531,3.526,1.213,4.972,1.9,1.576,3.537,3.471,5.283,5.234a.918.918,0,0,1,.151.288l-3.61,3.5-3.076-2.872Zm-.061-27.957q.01-.483.019-.965c-.846-.629-1.625-1.634-2.553-1.8-1.45-.257-2.4.812-2.375,2.278.021,1.351.914,2.409,2.281,2.174.945-.163,1.756-1.1,2.627-1.688" transform="translate(-207.523 -221.888)"/>
    <path id="Trazado_245513" data-name="Trazado 245513" d="M0,445.232v-5.005c.581-.059,1.1-.158,1.619-.158,8.848-.009,17.7-.064,26.544.013,7.464.065,13.146,5.516,13.281,12.555a7.768,7.768,0,0,1-15.508.945c-.094-.976-.014-1.968-.014-3.054h5.064c.052.951.049,1.812.158,2.659a2.4,2.4,0,0,0,2.684,2.393,2.432,2.432,0,0,0,2.416-2.668c.148-4.147-3.5-7.647-8.129-7.668-8.58-.038-17.16-.012-25.74-.012H0" transform="translate(0 -298.283)"/>
    <path id="Trazado_245514" data-name="Trazado 245514" d="M398.46,33.926c2.5-2.564,4.846-5.858,9.463-5.721,1.443.043,2.246-1.054,2.317-2.544a36.41,36.41,0,0,1,.2-3.809,7.629,7.629,0,0,1,6.74-6.471c2.841-.357,3.174-.676,3.524-3.371.645-4.966,4.458-7.583,10.234-6.91,0,1.554,0,3.128,0,4.7-.1.08-.2.215-.317.226-4.023.411-4.024.41-4.921,4.333a7.875,7.875,0,0,1-6.915,6.1c-2.75.393-3.273.985-3.307,3.744-.076,6.15-2.14,8.418-8.357,9.346a4.168,4.168,0,0,0-2.053,1.1c-1.073,1-2.006,2.155-3.162,3.428l-3.444-4.157" transform="translate(-270.097 -3.385)"/>
    <path id="Trazado_245515" data-name="Trazado 245515" d="M448.953,78.522l2.241,4.382a9.638,9.638,0,0,1-1.359.854,3.656,3.656,0,0,0-2.379,3.777c-.052,5.267-2.739,8.087-7.932,8.828a6.884,6.884,0,0,0-3.027,1.693,23.093,23.093,0,0,0-2.445,2.7l-3.7-3.869c2.542-2.691,4.921-5.781,9.373-5.886,1.835-.043,2.609-1.471,2.55-3.238-.16-4.743,2.215-7.646,6.68-9.245" transform="translate(-291.714 -53.226)"/>
    <path id="Trazado_245516" data-name="Trazado 245516" d="M361.387,30.114l-3.582-3.547a9.348,9.348,0,0,1,.839-.984c1.874-1.752,3.337-3.525,3.635-6.386a7.2,7.2,0,0,1,7.179-6.15c2.842.012,4.836-.76,5.653-3.873l4.579,2.239c-1.593,4.656-4.149,6.59-8.752,6.74-2.8.091-3.481.668-3.773,3.529-.4,3.952-3.385,6.032-5.778,8.433" transform="translate(-242.539 -6.218)"/>
    <path id="Trazado_245517" data-name="Trazado 245517" d="M117.587,70.042a56.873,56.873,0,0,1,16.21.135c1.329.193,4.076,4.592,4.141,6.517.07,2.077.377,4.242-.086,6.212a18.174,18.174,0,0,1-2.71,5.478,12.648,12.648,0,0,0-2.384,7.323,10.082,10.082,0,0,0,5.774,9.407c.6.307,1.211.579,1.8.9,3.261,1.814,3.84,5.369,1.216,8.075-3.361,3.467-6.817,6.841-10.226,10.262-4.493,4.509-5.071,9.063-1.379,14.217,2.1,2.931,3.263,5.918,2.83,9.512a15.668,15.668,0,0,0,2.857,10.668c3.19,4.827,2.915,9.1-1.338,13.1-.918.865-1.56,2.017-2.414,2.959-3.557,3.923-5.472,8.266-3.317,14.109-3.922-.218-7.488-.4-11.049-.647a1.244,1.244,0,0,1-.794-.748,13.476,13.476,0,0,0-9.5-8.835c-.947-4.435,0-8.065,3.668-10.808,5.25-3.921,7.348-9.2,6.505-15.679-.06-.462.047-.945-.016-1.406a8.284,8.284,0,0,1,3.182-8.264,5.586,5.586,0,0,0,1.529-6.791,6.27,6.27,0,0,0-5.937-4.066c-4.3-.246-8.2.487-11.507,3.635-2.564,2.438-8.6,2.31-11.236-.1a13.1,13.1,0,0,0-9.322-3.566c-2.517.014-3.673-.914-4.492-3.226-1.729-4.88-4.781-7.053-9.984-7.1-1.125-.01-2.249,0-3.781,0l2.391-10.628c1.737,1.026,3.235,1.758,4.562,2.724a13.772,13.772,0,0,0,10.383,2.839c2.873-.417,4.619.546,5.623,3.373,2.576,7.255,9.1,9.3,15.517,4.087a17.512,17.512,0,0,1,1.5-1.006c2.808-1.83,4.9-1.753,7.136.772,2.449,2.763,5.39,3.53,8.867,3.076a6.565,6.565,0,0,0,4.986-9.827c-.912-1.636-2.02-3.163-3.05-4.731-1.861-2.831-1.717-4.526.6-6.895,4.052-4.14,4.615-8.872,1.242-13.628-2.091-2.949-3.49-5.879-3.055-9.621.313-2.694-1.253-4.752-3.249-6.368a4.843,4.843,0,0,1-1.7-5.447" transform="translate(-44.622 -47.128)" fill="#69d6f4"/>
    <path id="Trazado_245518" data-name="Trazado 245518" d="M121.9,75.3c-.589,3.88,1.766,6.314,4.286,8.729a3.18,3.18,0,0,1,.821,2.311c-.43,4.251.942,7.8,3.471,11.187,2.767,3.7,2.471,5.165-.825,8.51A9.475,9.475,0,0,0,128.4,117.66c.887,1.42,1.939,2.747,2.721,4.219a12.054,12.054,0,0,1,.723,2.843,23.358,23.358,0,0,1-3.977-.114c-.6-.112-1.062-.966-1.593-1.477a10.147,10.147,0,0,0-13.072-1.276c-1.294.837-2.547,1.738-3.855,2.552-2.039,1.268-3.726.827-4.854-1.269-.824-1.533-1.546-3.122-2.371-4.654-1.284-2.386-3.343-3.963-6.014-3.6-5.543.753-10.042-1.366-14.332-4.41-.433-.307-.884-.588-1.307-.868C84.527,95.066,108.107,75.461,121.9,75.3" transform="translate(-54.543 -51.04)" fill="#b4dd7f"/>
    <path id="Trazado_245519" data-name="Trazado 245519" d="M348.229,228.348c1.357-.848,2.35-1.515,3.387-2.107a7.731,7.731,0,0,1,11.333,9.1,7.567,7.567,0,0,1-7.346,5.239q-20.727.048-41.455,0a7.626,7.626,0,0,1-7.411-5.159,7.739,7.739,0,0,1,11.41-9.126c1.029.6,2.023,1.253,3.253,2.019,1.349-8.083,5.155-13.723,13.881-13.481,8.185.227,11.728,5.727,12.949,13.51" transform="translate(-207.627 -145.623)" fill="#e6e9ed"/>
    <path id="Trazado_245520" data-name="Trazado 245520" d="M45.735,34.56c2.015.189,3.67.294,5.309.516A1.451,1.451,0,0,0,52.9,33.788c.412-1.613.926-3.2,1.466-5.034l5.939,3.14,4.31-5.2,4.212,5.213,5.936-3.117c.507,1.624,1.1,3.1,1.411,4.634.3,1.455,1.025,1.835,2.395,1.632,1.562-.231,3.144-.324,4.867-.492-.136,1.464-.173,2.66-.372,3.828-.28,1.637-4.383,3.113-5.529,1.979a18.3,18.3,0,0,0-25.293-.51c-7.267,6.713-7.97,16.83-1.755,25.221.156.211.276.449.507.83-1.861,1.887-2.048,5.054-4.577,6.47l-.619-.257c.155-1.692.268-3.39.48-5.075a1.553,1.553,0,0,0-1.363-2.006c-1.555-.367-3.074-.888-4.92-1.436l3.1-5.959-5.176-4.265c1.4-1.142,2.646-2.238,3.979-3.209.983-.716,1.254-1.362.536-2.473-.9-1.389-1.612-2.9-2.5-4.523,1.739-.512,3.254-1.036,4.807-1.392a1.727,1.727,0,0,0,1.534-2.273c-.231-1.51-.333-3.039-.532-4.957" transform="translate(-25.697 -18.096)" fill="#ffc729"/>
    <path id="Trazado_245521" data-name="Trazado 245521" d="M102.268,73.264a67.116,67.116,0,0,0-18.732,16.76c-4.139-3.948-3.466-12.344,1.276-16.846,4.907-4.659,13.256-4.674,17.456.086" transform="translate(-54.773 -47.239)" fill="#fcd770"/>
    <path id="Trazado_245522" data-name="Trazado 245522" d="M392.649,411.694c-.871.59-1.683,1.525-2.627,1.688-1.367.236-2.26-.822-2.281-2.174-.023-1.466.925-2.534,2.375-2.278.928.164,1.707,1.169,2.553,1.8q-.01.483-.019.965" transform="translate(-262.831 -277.169)" fill="#9e4b57"/>
  </g>
</svg>
