<svg xmlns="http://www.w3.org/2000/svg" width="119.127" height="119.128" viewBox="0 0 119.127 119.128">
  <g id="Grupo_245334" data-name="Grupo 245334" transform="translate(-168.372 -26)">
    <path id="Trazado_246179" data-name="Trazado 246179" d="M259.5,59.564A59.563,59.563,0,1,1,199.935,0,59.564,59.564,0,0,1,259.5,59.564" transform="translate(28 26)" fill="#144677"/>
    <path id="Trazado_246180" data-name="Trazado 246180" d="M217.5,62.288s-18.362-2.928-15.465,15.465C220.425,80.65,217.5,62.288,217.5,62.288Z" transform="translate(28 26)" fill="none" stroke="#fff" stroke-linecap="round" stroke-linejoin="round" stroke-width="2"/>
    <line id="Línea_643" data-name="Línea 643" x1="10.667" y2="10.667" transform="translate(230.032 93.086)" fill="none" stroke="#fff" stroke-linecap="round" stroke-linejoin="round" stroke-width="2"/>
    <path id="Trazado_246181" data-name="Trazado 246181" d="M185.946,62.288s18.362-2.928,15.465,15.465C183.018,80.65,185.946,62.288,185.946,62.288Z" transform="translate(28 26)" fill="none" stroke="#fff" stroke-linecap="round" stroke-linejoin="round" stroke-width="2"/>
    <line id="Línea_644" data-name="Línea 644" x2="10.667" y2="10.667" transform="translate(218.744 93.086)" fill="none" stroke="#fff" stroke-linecap="round" stroke-linejoin="round" stroke-width="2"/>
    <line id="Línea_645" data-name="Línea 645" y1="11.966" transform="translate(229.721 103.518)" fill="none" stroke="#fff" stroke-linecap="round" stroke-linejoin="round" stroke-width="2"/>
    <rect id="Rectángulo_317292" data-name="Rectángulo 317292" width="58.594" height="36.14" transform="translate(198.923 78.736)" fill="none" stroke="#fff" stroke-linecap="round" stroke-linejoin="round" stroke-width="2"/>
    <path id="Trazado_246182" data-name="Trazado 246182" d="M223.349,23.655H210.7V31.8l12.646,9.833Z" transform="translate(28 26)" fill="none" stroke="#fff" stroke-linecap="round" stroke-linejoin="round" stroke-width="2"/>
    <path id="Trazado_246183" data-name="Trazado 246183" d="M200.22,23.65,162.811,52.736h74.818Z" transform="translate(28 26)" fill="none" stroke="#fff" stroke-linecap="round" stroke-linejoin="round" stroke-width="2"/>
    <line id="Línea_646" data-name="Línea 646" x2="75.077" transform="translate(190.681 114.876)" fill="none" stroke="#fff" stroke-linecap="round" stroke-linejoin="round" stroke-width="2"/>
  </g>
</svg>
