<svg xmlns="http://www.w3.org/2000/svg" width="119.128" height="119.128" viewBox="0 0 119.128 119.128">
  <g id="Grupo_245335" data-name="Grupo 245335" transform="translate(-591.431 -26)">
    <path id="Trazado_246185" data-name="Trazado 246185" d="M682.559,59.564A59.564,59.564,0,1,1,622.995,0a59.564,59.564,0,0,1,59.564,59.564" transform="translate(28 26)" fill="#144677"/>
    <path id="Trazado_246186" data-name="Trazado 246186" d="M608.589,80.4l-9.373-5.671a6.2,6.2,0,0,0-8.533,2.027,3.539,3.539,0,0,0,1.156,4.868l7.892,4.877,10.458,6.444a28.88,28.88,0,0,0,26.858,1.172,29.373,29.373,0,0,1,16.689-2.873V72.625L646.652,68.7c-7.9-4.418-18.005,3.09-18.005,3.09a29.921,29.921,0,0,1-11.578,5.024c-1.666.317-3.72.294-5.247.971a6.416,6.416,0,0,0-3.908,4.349,4.117,4.117,0,0,0,1.55,4.124c1.7,1.148,4.257.744,6.149.5a56.471,56.471,0,0,0,13.627-3.609l.17-.068" transform="translate(28 26)" fill="none" stroke="#fff" stroke-linecap="round" stroke-linejoin="round" stroke-width="2"/>
    <path id="Trazado_246187" data-name="Trazado 246187" d="M612.244,77.622l-10.176-5.966a5.484,5.484,0,0,0-7.545,1.792l-.278.6" transform="translate(28 26)" fill="none" stroke="#fff" stroke-linecap="round" stroke-linejoin="round" stroke-width="2"/>
    <path id="Trazado_246188" data-name="Trazado 246188" d="M618.128,76.613l-11.647-6.872a5.485,5.485,0,0,0-7.046,1.105" transform="translate(28 26)" fill="none" stroke="#fff" stroke-linecap="round" stroke-linejoin="round" stroke-width="2"/>
    <path id="Trazado_246189" data-name="Trazado 246189" d="M601.706,42.243A21.56,21.56,0,1,1,623.265,63.8,21.559,21.559,0,0,1,601.706,42.243Z" transform="translate(28 26)" fill="none" stroke="#fff" stroke-linecap="round" stroke-linejoin="round" stroke-width="2"/>
    <line id="Línea_647" data-name="Línea 647" y2="43.119" transform="translate(651.265 46.684)" fill="none" stroke="#fff" stroke-linecap="round" stroke-linejoin="round" stroke-width="2"/>
    <path id="Trazado_246190" data-name="Trazado 246190" d="M618.693,21.157s-16.7,20.644,0,42.171" transform="translate(28 26)" fill="none" stroke="#fff" stroke-linecap="round" stroke-linejoin="round" stroke-width="2"/>
    <path id="Trazado_246191" data-name="Trazado 246191" d="M627.838,21.157s16.7,20.644,0,42.171" transform="translate(28 26)" fill="none" stroke="#fff" stroke-linecap="round" stroke-linejoin="round" stroke-width="2"/>
    <path id="Trazado_246192" data-name="Trazado 246192" d="M601.706,41.874c.017-.01,18.612,10.148,43.083-.426" transform="translate(28 26)" fill="none" stroke="#fff" stroke-linecap="round" stroke-linejoin="round" stroke-width="2"/>
    <path id="Trazado_246193" data-name="Trazado 246193" d="M605.992,29.339s14.795,7.869,34.547,0" transform="translate(28 26)" fill="none" stroke="#fff" stroke-linecap="round" stroke-linejoin="round" stroke-width="2"/>
    <path id="Trazado_246194" data-name="Trazado 246194" d="M605.992,54.87s14.795,7.869,34.547,0" transform="translate(28 26)" fill="none" stroke="#fff" stroke-linecap="round" stroke-linejoin="round" stroke-width="2"/>
  </g>
</svg>
