<svg id="Grupo_244568" data-name="Grupo 244568" xmlns="http://www.w3.org/2000/svg" xmlns:xlink="http://www.w3.org/1999/xlink" width="228.942" height="379" viewBox="0 0 228.942 379">
  <defs>
    <clipPath id="clip-path">
      <rect id="Rectángulo_317098" data-name="Rectángulo 317098" width="228.942" height="379" fill="none"/>
    </clipPath>
    <clipPath id="clip-path-3">
      <rect id="Rectángulo_317078" data-name="Rectángulo 317078" width="48.878" height="95.762" fill="none"/>
    </clipPath>
    <clipPath id="clip-path-4">
      <rect id="Rectángulo_317079" data-name="Rectángulo 317079" width="15.073" height="14.685" fill="none"/>
    </clipPath>
    <clipPath id="clip-path-5">
      <rect id="Rectángulo_317080" data-name="Rectángulo 317080" width="32.358" height="22.19" fill="none"/>
    </clipPath>
    <clipPath id="clip-path-6">
      <rect id="Rectángulo_317081" data-name="Rectángulo 317081" width="3.817" height="3.706" fill="none"/>
    </clipPath>
    <clipPath id="clip-path-7">
      <rect id="Rectángulo_317082" data-name="Rectángulo 317082" width="11.343" height="14.536" fill="none"/>
    </clipPath>
    <clipPath id="clip-path-8">
      <rect id="Rectángulo_317083" data-name="Rectángulo 317083" width="22.62" height="27.055" fill="none"/>
    </clipPath>
    <clipPath id="clip-path-9">
      <rect id="Rectángulo_317084" data-name="Rectángulo 317084" width="4.269" height="2.013" fill="none"/>
    </clipPath>
    <clipPath id="clip-path-10">
      <rect id="Rectángulo_317085" data-name="Rectángulo 317085" width="12.562" height="9.786" fill="none"/>
    </clipPath>
    <clipPath id="clip-path-11">
      <rect id="Rectángulo_317086" data-name="Rectángulo 317086" width="26.663" height="11.081" fill="none"/>
    </clipPath>
    <clipPath id="clip-path-12">
      <rect id="Rectángulo_317087" data-name="Rectángulo 317087" width="1.859" height="3.459" fill="none"/>
    </clipPath>
    <clipPath id="clip-path-13">
      <rect id="Rectángulo_317088" data-name="Rectángulo 317088" width="15.339" height="14.943" fill="none"/>
    </clipPath>
    <clipPath id="clip-path-14">
      <rect id="Rectángulo_317089" data-name="Rectángulo 317089" width="32.928" height="22.58" fill="none"/>
    </clipPath>
    <clipPath id="clip-path-15">
      <rect id="Rectángulo_317090" data-name="Rectángulo 317090" width="3.885" height="3.772" fill="none"/>
    </clipPath>
    <clipPath id="clip-path-16">
      <rect id="Rectángulo_317091" data-name="Rectángulo 317091" width="13.28" height="17.015" fill="none"/>
    </clipPath>
    <clipPath id="clip-path-17">
      <rect id="Rectángulo_317092" data-name="Rectángulo 317092" width="26.481" height="31.674" fill="none"/>
    </clipPath>
    <clipPath id="clip-path-18">
      <rect id="Rectángulo_317093" data-name="Rectángulo 317093" width="4.997" height="2.356" fill="none"/>
    </clipPath>
    <clipPath id="clip-path-19">
      <rect id="Rectángulo_317094" data-name="Rectángulo 317094" width="14.706" height="11.456" fill="none"/>
    </clipPath>
    <clipPath id="clip-path-20">
      <rect id="Rectángulo_317095" data-name="Rectángulo 317095" width="31.213" height="12.973" fill="none"/>
    </clipPath>
    <clipPath id="clip-path-21">
      <rect id="Rectángulo_317096" data-name="Rectángulo 317096" width="2.175" height="4.049" fill="none"/>
    </clipPath>
  </defs>
  <g id="Grupo_244567" data-name="Grupo 244567" clip-path="url(#clip-path)">
    <g id="Grupo_244566" data-name="Grupo 244566">
      <g id="Grupo_244565" data-name="Grupo 244565" clip-path="url(#clip-path)">
        <path id="Trazado_245825" data-name="Trazado 245825" d="M101.666,0c6.561,5.831,13.086,11.772,18.548,18.643S130.073,33.4,131.82,42.006c2.958,14.564-1.853,29.46-6.6,43.542A58.869,58.869,0,0,1,93.68,47.171C89.524,30.573,91.45,13.726,101.666,0" transform="translate(30.187)" fill="#455a64"/>
        <path id="Trazado_245826" data-name="Trazado 245826" d="M96.866,146.995c-9.985-6.353-19.721-13.312-27.658-22.091S55.179,105.35,53.534,93.628c-1.993-14.213,2.388-29.791-4.476-42.394,13.511,7.148,27.5,14.7,36.518,27.042,6.886,9.424,10.326,21.01,11.631,32.61s.6,23.32-.114,34.971" transform="translate(16.162 16.878)" fill="#455a64"/>
        <g id="Grupo_244510" data-name="Grupo 244510" transform="translate(65.219 68.111)" opacity="0.3">
          <g id="Grupo_244509" data-name="Grupo 244509">
            <g id="Grupo_244508" data-name="Grupo 244508" clip-path="url(#clip-path-3)">
              <path id="Trazado_245827" data-name="Trazado 245827" d="M96.866,146.995c-9.985-6.353-19.721-13.312-27.658-22.091S55.179,105.35,53.534,93.628c-1.993-14.213,2.388-29.791-4.476-42.394,13.511,7.148,27.5,14.7,36.518,27.042,6.886,9.424,10.326,21.01,11.631,32.61s.6,23.32-.114,34.971" transform="translate(-49.058 -51.233)"/>
            </g>
          </g>
        </g>
        <path id="Trazado_245828" data-name="Trazado 245828" d="M9.166,352.309c.6-1.466,25.957-34.428,29.426-41.56S75.1,229.364,75.1,229.364s-2.11,9.391,2.583-6.352,17.195-43.685,26.667-55.778,18.4-49.458,23.3-65.69,21.615-40.75,21.615-40.75l4.466,1.816S137.35,83.283,133.237,100.4,118.744,151.448,112,165.221s-10.3,19.728-16.534,30.858-25.524,61.368-26.119,62.835-12.765,39.793-21.276,55.122S19.95,358.972,19.95,358.972Z" transform="translate(3.02 20.028)" fill="#455a64"/>
        <path id="Trazado_245829" data-name="Trazado 245829" d="M116.05,167.752c-3.47-6.529-9.022-11.457-15.133-15.632-3.239-11.058-15.633-19.152-27.154-18.913-11.544.241-22.284,6.654-30.106,15.146S30.529,167.307,25.58,177.739Q12.411,205.506,1.7,234.353c8.971-.73,17.241-4.923,25.892-7.413,11.231-3.233,23.055-3.576,34.72-4.3s23.548-1.906,34.232-6.647,20.126-13.641,22.715-25.039a34.576,34.576,0,0,0-3.209-23.2" transform="translate(0.56 43.882)" fill="#455a64"/>
        <path id="Trazado_245830" data-name="Trazado 245830" d="M97.333,137.38c4.412,11.336,5.557,23.625,7.628,35.613s5.323,24.249,13.088,33.613c4.548,5.485,10.417,9.692,15.6,14.576,6.286,5.919,11.553,12.817,16.791,19.68a107.346,107.346,0,0,1,9.758,14.33c4.939,9.262,7.041,19.729,9.084,30.025q6.419-24.215,12.837-48.431c2.893-10.916,5.81-22.062,5.113-33.333-.6-9.653-3.835-18.968-7.915-27.737-3.684-7.917-8.171-15.625-14.544-21.594-7.95-7.445-18.418-11.759-29.083-13.966s-21.625-2.443-32.514-2.673" transform="translate(32.065 45.258)" fill="#455a64"/>
        <path id="Trazado_245831" data-name="Trazado 245831" d="M148.912,98.089c-9.622,1-18.746,4.984-26.864,10.246-7.949,5.152-15.025,11.516-21.976,17.951a63.885,63.885,0,0,0,95.9-16.323c-14.943-6.707-30.771-13.57-47.063-11.875" transform="translate(32.967 32.228)" fill="#455a64"/>
        <path id="Trazado_245832" data-name="Trazado 245832" d="M93.817,130.18c-13.03-5.29-23.122-18.043-23.8-32.09-.778-16.174,9.953-30.406,14.565-45.928a133.319,133.319,0,0,1,15.633,37.583c1.676,6.832,2.814,13.887,2.174,20.893s-3.188,14-8.082,19.057" transform="translate(23.054 17.184)" fill="#455a64"/>
        <path id="Trazado_245833" data-name="Trazado 245833" d="M89.943,113.359c-7.4-12.549-18.243-23.43-31.746-28.9C39.971,77.08,19.4,80.2,0,83.435c2.317,9.847,4.657,19.759,8.756,29.007s10.11,17.893,18.484,23.564c10.638,7.206,23.954,8.976,36.758,10.052s26.012,1.747,37.634,7.224l3.2.911c-2.939-14.268-7.49-28.286-14.891-40.834" transform="translate(0 26.332)" fill="#455a64"/>
        <path id="Trazado_245834" data-name="Trazado 245834" d="M4.376,227.4a1.1,1.1,0,0,1,.181-.27l.588-.751q.846-1.039,2.308-2.841c1-1.236,2.247-2.729,3.748-4.416s3.161-3.653,5.116-5.719c1.922-2.1,4.048-4.371,6.407-6.742,2.312-2.417,4.9-4.879,7.592-7.5,5.463-5.168,11.626-10.683,18.316-16.21,6.715-5.5,13.313-10.489,19.416-14.882,6.133-4.35,11.75-8.135,16.561-11.163,2.382-1.551,4.592-2.869,6.517-4.047s3.6-2.17,4.981-2.954l3.18-1.812.836-.456a1.109,1.109,0,0,1,.3-.134c.007.011-.082.076-.261.2l-.8.516-3.112,1.922c-1.36.82-3.016,1.836-4.916,3.052s-4.093,2.553-6.456,4.128c-4.771,3.079-10.351,6.9-16.453,11.271-6.073,4.412-12.647,9.407-19.349,14.9-6.678,5.516-12.84,11.006-18.316,16.138-2.7,2.606-5.3,5.049-7.623,7.445-2.373,2.348-4.515,4.6-6.457,6.671-1.974,2.041-3.667,3.972-5.185,5.642s-2.8,3.125-3.831,4.335l-2.406,2.755-.639.706c-.148.157-.227.234-.237.226" transform="translate(1.441 48.591)" fill="#263238"/>
        <path id="Trazado_245835" data-name="Trazado 245835" d="M173.945,283.006a2.639,2.639,0,0,1,.077-.495c.073-.358.171-.832.3-1.434.275-1.258.683-3.11,1.09-5.52a132.765,132.765,0,0,0,2-20.558c.035-4.363-.1-9.144-.564-14.253a131.527,131.527,0,0,0-2.611-16.154,124.152,124.152,0,0,0-13.641-34.783,127.969,127.969,0,0,0-23.233-29.284,108.2,108.2,0,0,0-24.8-17.809,60.079,60.079,0,0,0-10.957-4.2,45.985,45.985,0,0,0-8.737-1.466,41.218,41.218,0,0,0-5.609.072l-1.456.137a2.617,2.617,0,0,1-.5.024,2.526,2.526,0,0,1,.491-.093l1.452-.207a37.2,37.2,0,0,1,5.637-.2,44.9,44.9,0,0,1,8.821,1.363,59.491,59.491,0,0,1,11.076,4.137,107.271,107.271,0,0,1,25.017,17.781,127.389,127.389,0,0,1,23.4,29.4,123.629,123.629,0,0,1,13.663,34.989,130.238,130.238,0,0,1,2.561,16.24,140.934,140.934,0,0,1,.481,14.317,125.692,125.692,0,0,1-2.223,20.6c-.448,2.408-.9,4.254-1.219,5.5-.152.6-.271,1.066-.362,1.42a2.586,2.586,0,0,1-.146.477" transform="translate(28.101 45.052)" fill="#263238"/>
        <path id="Trazado_245836" data-name="Trazado 245836" d="M192.807,108.728a6.419,6.419,0,0,1-1.089.064l-3.123.051-11.484.122c-9.681.172-23.111.439-37.713,2.715s-27.389,6.634-36.01,11.016a94.581,94.581,0,0,0-9.94,5.689c-1.149.718-1.986,1.356-2.587,1.742a6.24,6.24,0,0,1-.925.58,6.638,6.638,0,0,1,.843-.693c.574-.423,1.389-1.1,2.518-1.852a83.728,83.728,0,0,1,9.871-5.9c8.608-4.517,21.449-8.99,36.122-11.264a249.609,249.609,0,0,1,37.818-2.519c4.851-.009,8.776.045,11.488.1l3.123.08a6.45,6.45,0,0,1,1.089.076" transform="translate(29.628 35.735)" fill="#263238"/>
        <path id="Trazado_245837" data-name="Trazado 245837" d="M92.873,149.649a5.3,5.3,0,0,1-.229-.961c-.13-.7-.3-1.626-.52-2.781-.432-2.417-1.02-5.923-1.688-10.263-1.351-8.679-3.014-20.7-4.644-34S82.9,76.272,82.122,67.523c-.4-4.374-.667-7.917-.831-10.368-.068-1.171-.121-2.11-.162-2.824a5.223,5.223,0,0,1-.011-.988,5.289,5.289,0,0,1,.149.977c.074.71.172,1.645.292,2.813.257,2.518.613,6.032,1.05,10.342.9,8.733,2.253,20.786,3.87,34.087s3.215,25.318,4.442,34.01c.612,4.289,1.111,7.787,1.469,10.293.162,1.163.292,2.094.392,2.8a5.228,5.228,0,0,1,.09.985" transform="translate(26.718 17.573)" fill="#263238"/>
        <path id="Trazado_245838" data-name="Trazado 245838" d="M8.8,87.211a1.132,1.132,0,0,1,.3.086l.865.318,3.3,1.287c2.86,1.137,6.993,2.793,12.057,4.951,10.1,4.319,24.057,10.641,37.873,20.294a173.986,173.986,0,0,1,18.455,14.862,171.868,171.868,0,0,1,13.41,13.944c3.607,4.166,6.25,7.763,8.083,10.233l2.019,2.914.51.767a1.049,1.049,0,0,1,.154.275c-.009.007-.081-.073-.213-.234l-.565-.729q-.782-1.041-2.123-2.833c-1.9-2.418-4.592-5.96-8.236-10.073a181.337,181.337,0,0,0-13.474-13.8A179.489,179.489,0,0,0,62.8,114.715C49.047,105.1,35.169,98.733,25.128,94.3L13.164,89.15,9.912,87.744l-.84-.382a1.032,1.032,0,0,1-.275-.152" transform="translate(2.898 28.73)" fill="#263238"/>
        <path id="Trazado_245839" data-name="Trazado 245839" d="M64.729,135.063a9.935,9.935,0,0,1,1.625.662,26.1,26.1,0,0,1,4.186,2.49A29.072,29.072,0,0,1,80.5,151.474l-.156-.193a40.109,40.109,0,0,1,6.392,4.553,39.467,39.467,0,0,1,7.776,9.313,36.676,36.676,0,0,1,3.909,9.1,31.9,31.9,0,0,1,1.074,6.59c0,.721,0,1.319-.005,1.815a2.192,2.192,0,0,1-.049.632,16.853,16.853,0,0,1-.214-2.428,36.538,36.538,0,0,0-1.276-6.476,37.982,37.982,0,0,0-3.983-8.906,40.038,40.038,0,0,0-7.688-9.121,40.577,40.577,0,0,0-6.264-4.491L79.9,151.8l-.047-.13a28.263,28.263,0,0,0-4.428-7.969,30.261,30.261,0,0,0-5.142-5.145,54.4,54.4,0,0,0-5.554-3.494" transform="translate(21.324 44.494)" fill="#263238"/>
        <path id="Trazado_245840" data-name="Trazado 245840" d="M117.421,108.288a13.434,13.434,0,0,0-11.078-1.851,22.78,22.78,0,0,0-9.907,5.786c-3.216,3.022-5.912,6.784-6.839,11.1s.177,9.218,3.49,12.134l1.985,1.344a19.5,19.5,0,0,0,27.162-14.682c.828-5.069-.675-10.784-4.813-13.829" transform="translate(29.413 34.919)" fill="#ff725e"/>
        <g id="Grupo_244513" data-name="Grupo 244513" transform="translate(126.512 147.202)" opacity="0.3">
          <g id="Grupo_244512" data-name="Grupo 244512">
            <g id="Grupo_244511" data-name="Grupo 244511" clip-path="url(#clip-path-4)">
              <path id="Trazado_245841" data-name="Trazado 245841" d="M104.92,110.732a7.47,7.47,0,0,0-4.708,1.534,11.476,11.476,0,0,0-4.7,6.415,5.944,5.944,0,0,0,.072,4.242,4.656,4.656,0,0,0,3.333,2.381,7.8,7.8,0,0,0,4.165-.492,11.938,11.938,0,0,0,5.774-4.656,6.946,6.946,0,0,0,1.106-5.867,5.637,5.637,0,0,0-5.047-3.558" transform="translate(-95.162 -110.725)" fill="#fff"/>
            </g>
          </g>
        </g>
        <path id="Trazado_245842" data-name="Trazado 245842" d="M103.881,112.881a1.59,1.59,0,0,0-1.92.491,2.485,2.485,0,0,0,.671,3.014,1.793,1.793,0,0,0,2.232-.005,1.906,1.906,0,0,0,.328-1.823,2.485,2.485,0,0,0-1.312-1.676" transform="translate(33.517 37.143)" fill="#fff"/>
        <path id="Trazado_245843" data-name="Trazado 245843" d="M101.884,113.253c.008-.012.021-.019.029-.031l.007-.023Z" transform="translate(33.564 37.292)" fill="#fff"/>
        <g id="Grupo_244516" data-name="Grupo 244516" transform="translate(119.506 151.173)" opacity="0.3">
          <g id="Grupo_244515" data-name="Grupo 244515">
            <g id="Grupo_244514" data-name="Grupo 244514" clip-path="url(#clip-path-5)">
              <path id="Trazado_245844" data-name="Trazado 245844" d="M121.95,113.712h0a54.368,54.368,0,0,1-2.321,7.3,18.528,18.528,0,0,1-4.553,6.173,18.833,18.833,0,0,1-9.422,4.537,22.092,22.092,0,0,1-8.314.172,15.471,15.471,0,0,1-7.448-3.515,10.89,10.89,0,0,0,2.993,4.539l1.986,1.344a19.5,19.5,0,0,0,27.162-14.681,16.813,16.813,0,0,0-.082-5.864" transform="translate(-89.892 -113.712)"/>
            </g>
          </g>
        </g>
        <g id="Grupo_244519" data-name="Grupo 244519" transform="translate(141.392 146.093)" opacity="0.3">
          <g id="Grupo_244518" data-name="Grupo 244518">
            <g id="Grupo_244517" data-name="Grupo 244517" clip-path="url(#clip-path-6)">
              <path id="Trazado_245845" data-name="Trazado 245845" d="M106.355,110.144a6.181,6.181,0,0,0,2.947,3.316.7.7,0,0,0,.7.066c.233-.164.193-.52.089-.784a6.1,6.1,0,0,0-1.908-2.268,2.617,2.617,0,0,0-.791-.522.883.883,0,0,0-.895.138" transform="translate(-106.355 -109.891)"/>
            </g>
          </g>
        </g>
        <path id="Trazado_245846" data-name="Trazado 245846" d="M110.71,113.95c0,.086-.409.211-1.09.117a4.164,4.164,0,0,1-3.5-3.616c-.072-.683.068-1.094.154-1.086.194-.017.186,1.663,1.485,3s2.971,1.391,2.947,1.585" transform="translate(34.955 36.029)" fill="#263238"/>
        <path id="Trazado_245847" data-name="Trazado 245847" d="M79.569,111.827a11.88,11.88,0,0,1,9.479,2.978,20.137,20.137,0,0,1,5.5,8.532,19.515,19.515,0,0,1,.951,11.5c-1,3.774-3.831,7.2-7.614,8.173l-2.1.266a17.255,17.255,0,0,1-15.548-22.463c1.377-4.33,4.855-8.237,9.338-8.982" transform="translate(22.877 36.797)" fill="#ff725e"/>
        <g id="Grupo_244522" data-name="Grupo 244522" transform="translate(102.245 155.556)" opacity="0.3">
          <g id="Grupo_244521" data-name="Grupo 244521">
            <g id="Grupo_244520" data-name="Grupo 244520" clip-path="url(#clip-path-7)">
              <path id="Trazado_245848" data-name="Trazado 245848" d="M83.84,117.465a6.606,6.606,0,0,1,3.1,3.1,10.151,10.151,0,0,1,1.135,6.941,5.262,5.262,0,0,1-1.756,3.318,4.117,4.117,0,0,1-3.583.542,6.888,6.888,0,0,1-3.088-2.055,10.556,10.556,0,0,1-2.691-5.986,6.146,6.146,0,0,1,1.478-5.072,4.988,4.988,0,0,1,5.406-.784" transform="translate(-76.909 -117.009)" fill="#fff"/>
            </g>
          </g>
        </g>
        <path id="Trazado_245849" data-name="Trazado 245849" d="M81.158,118.684a1.4,1.4,0,0,1,1.317,1.155,2.2,2.2,0,0,1-1.736,2.11,1.588,1.588,0,0,1-1.759-.9,1.687,1.687,0,0,1,.471-1.57,2.2,2.2,0,0,1,1.707-.8" transform="translate(26.001 39.098)" fill="#fff"/>
        <path id="Trazado_245850" data-name="Trazado 245850" d="M81.608,119.594c0-.013-.009-.024-.011-.036l0-.021Z" transform="translate(26.881 39.38)" fill="#fff"/>
        <g id="Grupo_244525" data-name="Grupo 244525" transform="translate(92.321 153.013)" opacity="0.3">
          <g id="Grupo_244524" data-name="Grupo 244524">
            <g id="Grupo_244523" data-name="Grupo 244523" clip-path="url(#clip-path-8)">
              <path id="Trazado_245851" data-name="Trazado 245851" d="M72.645,115.1h0a48.292,48.292,0,0,0-1.091,6.686,16.412,16.412,0,0,0,1.119,6.694,16.67,16.67,0,0,0,5.616,7.353,19.538,19.538,0,0,0,6.492,3.466,13.677,13.677,0,0,0,7.283.21,9.637,9.637,0,0,1-4.178,2.382l-2.106.265a17.253,17.253,0,0,1-15.548-22.462,14.888,14.888,0,0,1,2.414-4.593" transform="translate(-69.444 -115.096)"/>
            </g>
          </g>
        </g>
        <g id="Grupo_244528" data-name="Grupo 244528" transform="translate(101.212 152.702)" opacity="0.3">
          <g id="Grupo_244527" data-name="Grupo 244527">
            <g id="Grupo_244526" data-name="Grupo 244526" clip-path="url(#clip-path-9)">
              <path id="Trazado_245852" data-name="Trazado 245852" d="M80.4,115.44a5.471,5.471,0,0,1-3.655,1.436c-.217,0-.473-.036-.576-.227-.118-.222.056-.488.243-.655a5.38,5.38,0,0,1,2.413-1.024,2.287,2.287,0,0,1,.834-.1.781.781,0,0,1,.651.467" transform="translate(-76.132 -114.862)"/>
            </g>
          </g>
        </g>
        <path id="Trazado_245853" data-name="Trazado 245853" d="M75.713,116.623c.072-.181,1.412.428,2.947-.108s2.219-1.832,2.386-1.734c.081.032.036.416-.291.936a3.674,3.674,0,0,1-4.236,1.462c-.577-.207-.851-.481-.807-.557" transform="translate(24.941 37.812)" fill="#263238"/>
        <path id="Trazado_245854" data-name="Trazado 245854" d="M111.829,134.85a10.158,10.158,0,0,0-7.2-4.511,17.227,17.227,0,0,0-8.6,1.162,16.693,16.693,0,0,0-8,5.764,9.641,9.641,0,0,0-1.089,9.488l1,1.516a14.751,14.751,0,0,0,23.236-2.362c2.051-3.3,2.662-7.728.657-11.057" transform="translate(28.377 42.889)" fill="#ff725e"/>
        <g id="Grupo_244531" data-name="Grupo 244531" transform="translate(121.602 176.985)" opacity="0.3">
          <g id="Grupo_244530" data-name="Grupo 244530">
            <g id="Grupo_244529" data-name="Grupo 244529" clip-path="url(#clip-path-10)">
              <path id="Trazado_245855" data-name="Trazado 245855" d="M101.533,133.608a5.641,5.641,0,0,0-3.733-.3,8.675,8.675,0,0,0-5.144,3.116,4.5,4.5,0,0,0-1.182,2.983,3.519,3.519,0,0,0,1.635,2.631,5.883,5.883,0,0,0,3.052.867,9.025,9.025,0,0,0,5.386-1.574,5.256,5.256,0,0,0,2.477-3.777,4.264,4.264,0,0,0-2.491-3.95" transform="translate(-91.469 -133.128)" fill="#fff"/>
            </g>
          </g>
        </g>
        <path id="Trazado_245856" data-name="Trazado 245856" d="M99.544,135.309a1.2,1.2,0,0,0-1.484-.215,1.882,1.882,0,0,0-.407,2.3,1.356,1.356,0,0,0,1.561.645,1.438,1.438,0,0,0,.759-1.178,1.877,1.877,0,0,0-.429-1.551" transform="translate(32.091 44.449)" fill="#fff"/>
        <path id="Trazado_245857" data-name="Trazado 245857" d="M97.878,135.069c.009-.007.02-.007.029-.013l.012-.013Z" transform="translate(32.245 44.488)" fill="#fff"/>
        <g id="Grupo_244534" data-name="Grupo 244534" transform="translate(114.534 184.677)" opacity="0.3">
          <g id="Grupo_244533" data-name="Grupo 244533">
            <g id="Grupo_244532" data-name="Grupo 244532" clip-path="url(#clip-path-11)">
              <path id="Trazado_245858" data-name="Trazado 245858" d="M112.814,138.914h0a41.261,41.261,0,0,1-3.741,4.422,14.017,14.017,0,0,1-4.973,2.987,14.241,14.241,0,0,1-7.9.432,16.712,16.712,0,0,1-5.857-2.3,11.7,11.7,0,0,1-4.18-4.618,8.223,8.223,0,0,0,.771,4.039l1,1.516a14.751,14.751,0,0,0,23.237-2.361,12.729,12.729,0,0,0,1.646-4.12" transform="translate(-86.153 -138.914)"/>
            </g>
          </g>
        </g>
        <g id="Grupo_244537" data-name="Grupo 244537" transform="translate(135.491 178.32)" opacity="0.3">
          <g id="Grupo_244536" data-name="Grupo 244536">
            <g id="Grupo_244535" data-name="Grupo 244535" clip-path="url(#clip-path-12)">
              <path id="Trazado_245859" data-name="Trazado 245859" d="M101.92,134.163a4.682,4.682,0,0,0,1.1,3.173c.121.141.286.288.468.247.21-.047.286-.306.291-.521a4.615,4.615,0,0,0-.674-2.138,1.951,1.951,0,0,0-.4-.6.669.669,0,0,0-.665-.163" transform="translate(-101.916 -134.132)"/>
            </g>
          </g>
        </g>
        <path id="Trazado_245860" data-name="Trazado 245860" d="M103.959,138.112c-.031.084-.366.069-.831-.187a3.117,3.117,0,0,1-1.415-3.6c.166-.5.4-.742.481-.7.179.07-.261,1.228.245,2.5s1.6,1.82,1.52,1.994" transform="translate(33.463 44.018)" fill="#263238"/>
        <path id="Trazado_245861" data-name="Trazado 245861" d="M143.592,43.258a13.668,13.668,0,0,0-11.272-1.882,23.158,23.158,0,0,0-10.081,5.887c-3.273,3.075-6.016,6.9-6.96,11.294s.179,9.379,3.551,12.346l2.021,1.368A19.842,19.842,0,0,0,148.49,57.33c.842-5.158-.687-10.975-4.9-14.072" transform="translate(37.872 13.482)" fill="#ff725e"/>
        <g id="Grupo_244540" data-name="Grupo 244540" transform="translate(160.785 60.806)" opacity="0.3">
          <g id="Grupo_244539" data-name="Grupo 244539">
            <g id="Grupo_244538" data-name="Grupo 244538" clip-path="url(#clip-path-13)">
              <path id="Trazado_245862" data-name="Trazado 245862" d="M130.873,45.745a7.6,7.6,0,0,0-4.79,1.562,11.665,11.665,0,0,0-4.778,6.526,6.054,6.054,0,0,0,.073,4.317,4.737,4.737,0,0,0,3.391,2.424,7.94,7.94,0,0,0,4.238-.5,12.156,12.156,0,0,0,5.876-4.737,7.072,7.072,0,0,0,1.125-5.97,5.735,5.735,0,0,0-5.136-3.62" transform="translate(-120.942 -45.738)" fill="#fff"/>
            </g>
          </g>
        </g>
        <path id="Trazado_245863" data-name="Trazado 245863" d="M129.814,47.932a1.614,1.614,0,0,0-1.953.5,2.528,2.528,0,0,0,.682,3.066,1.823,1.823,0,0,0,2.272-.005,1.939,1.939,0,0,0,.335-1.855,2.53,2.53,0,0,0-1.336-1.706" transform="translate(42.048 15.746)" fill="#fff"/>
        <path id="Trazado_245864" data-name="Trazado 245864" d="M127.782,48.311c.008-.012.021-.019.031-.032l.007-.023Z" transform="translate(42.096 15.897)" fill="#fff"/>
        <g id="Grupo_244543" data-name="Grupo 244543" transform="translate(153.656 64.846)" opacity="0.3">
          <g id="Grupo_244542" data-name="Grupo 244542">
            <g id="Grupo_244541" data-name="Grupo 244541" clip-path="url(#clip-path-14)">
              <path id="Trazado_245865" data-name="Trazado 245865" d="M148.2,48.777h0a55.591,55.591,0,0,1-2.361,7.425,18.852,18.852,0,0,1-4.634,6.28A19.153,19.153,0,0,1,131.62,67.1a22.452,22.452,0,0,1-8.461.174A15.733,15.733,0,0,1,115.58,63.7a11.09,11.09,0,0,0,3.046,4.618l2.021,1.368a19.843,19.843,0,0,0,27.639-14.94,17.107,17.107,0,0,0-.084-5.967" transform="translate(-115.58 -48.777)"/>
            </g>
          </g>
        </g>
        <g id="Grupo_244546" data-name="Grupo 244546" transform="translate(175.927 59.677)" opacity="0.3">
          <g id="Grupo_244545" data-name="Grupo 244545">
            <g id="Grupo_244544" data-name="Grupo 244544" clip-path="url(#clip-path-15)">
              <path id="Trazado_245866" data-name="Trazado 245866" d="M132.332,45.147a6.292,6.292,0,0,0,3,3.374.712.712,0,0,0,.71.068c.237-.168.2-.529.092-.8a6.2,6.2,0,0,0-1.942-2.307,2.631,2.631,0,0,0-.8-.532.9.9,0,0,0-.911.14" transform="translate(-132.332 -44.889)"/>
            </g>
          </g>
        </g>
        <path id="Trazado_245867" data-name="Trazado 245867" d="M136.764,49.02c0,.086-.417.211-1.109.114a4.243,4.243,0,0,1-3.555-3.676c-.073-.7.066-1.111.153-1.1.2-.017.183,1.694,1.506,3.058s3.03,1.415,3,1.609" transform="translate(43.512 14.612)" fill="#263238"/>
        <path id="Trazado_245868" data-name="Trazado 245868" d="M103.848,47.082a13.916,13.916,0,0,1,11.1,3.486,23.582,23.582,0,0,1,6.436,9.989c1.553,4.3,2.279,9.038,1.113,13.457s-4.487,8.43-8.913,9.569l-2.465.311a20.2,20.2,0,0,1-18.2-26.3c1.614-5.07,5.682-9.644,10.931-10.516" transform="translate(30.307 15.46)" fill="#ff725e"/>
        <g id="Grupo_244549" data-name="Grupo 244549" transform="translate(133.92 70.658)" opacity="0.3">
          <g id="Grupo_244548" data-name="Grupo 244548">
            <g id="Grupo_244547" data-name="Grupo 244547" clip-path="url(#clip-path-16)">
              <path id="Trazado_245869" data-name="Trazado 245869" d="M108.849,53.682a7.729,7.729,0,0,1,3.628,3.625,11.885,11.885,0,0,1,1.329,8.126,6.162,6.162,0,0,1-2.057,3.883,4.819,4.819,0,0,1-4.194.637,8.08,8.08,0,0,1-3.616-2.408,12.368,12.368,0,0,1-3.149-7.007,7.191,7.191,0,0,1,1.731-5.937,5.838,5.838,0,0,1,6.328-.919" transform="translate(-100.734 -53.149)" fill="#fff"/>
            </g>
          </g>
        </g>
        <path id="Trazado_245870" data-name="Trazado 245870" d="M105.71,55.109a1.644,1.644,0,0,1,1.542,1.353,2.573,2.573,0,0,1-2.033,2.469,1.855,1.855,0,0,1-2.058-1.053,1.972,1.972,0,0,1,.55-1.837,2.575,2.575,0,0,1,2-.932" transform="translate(33.964 18.154)" fill="#fff"/>
        <path id="Trazado_245871" data-name="Trazado 245871" d="M106.235,56.174c0-.015-.011-.028-.013-.043l.005-.024Z" transform="translate(34.993 18.484)" fill="#fff"/>
        <g id="Grupo_244552" data-name="Grupo 244552" transform="translate(122.302 67.68)" opacity="0.3">
          <g id="Grupo_244551" data-name="Grupo 244551">
            <g id="Grupo_244550" data-name="Grupo 244550" clip-path="url(#clip-path-17)">
              <path id="Trazado_245872" data-name="Trazado 245872" d="M95.744,50.909h0a56.384,56.384,0,0,0-1.278,7.826,19.172,19.172,0,0,0,1.311,7.836,19.489,19.489,0,0,0,6.574,8.608,22.841,22.841,0,0,0,7.6,4.057,16,16,0,0,0,8.526.247,11.275,11.275,0,0,1-4.892,2.788l-2.463.311a20.2,20.2,0,0,1-18.2-26.3,17.445,17.445,0,0,1,2.826-5.376" transform="translate(-91.995 -50.909)"/>
            </g>
          </g>
        </g>
        <g id="Grupo_244555" data-name="Grupo 244555" transform="translate(132.71 67.317)" opacity="0.3">
          <g id="Grupo_244554" data-name="Grupo 244554">
            <g id="Grupo_244553" data-name="Grupo 244553" clip-path="url(#clip-path-18)">
              <path id="Trazado_245873" data-name="Trazado 245873" d="M104.821,51.312a6.406,6.406,0,0,1-4.278,1.68c-.254,0-.554-.041-.674-.266-.138-.261.065-.57.285-.767a6.318,6.318,0,0,1,2.826-1.2,2.674,2.674,0,0,1,.974-.112.914.914,0,0,1,.762.546" transform="translate(-99.825 -50.636)"/>
            </g>
          </g>
        </g>
        <path id="Trazado_245874" data-name="Trazado 245874" d="M99.335,52.7c.064-.185,1.639.565,3.469-.07s2.611-2.191,2.776-2.086c.078.032.012.475-.375,1.07a4.321,4.321,0,0,1-4.916,1.7c-.671-.23-1-.537-.953-.612" transform="translate(32.723 16.648)" fill="#263238"/>
        <path id="Trazado_245875" data-name="Trazado 245875" d="M142.918,71.574a11.9,11.9,0,0,0-8.429-5.281,20.164,20.164,0,0,0-10.068,1.36,19.536,19.536,0,0,0-9.366,6.748c-2.225,3.212-2.991,7.6-1.274,11.107l1.165,1.775a17.271,17.271,0,0,0,27.2-2.765c2.4-3.863,3.115-9.048.768-12.945" transform="translate(37.175 21.781)" fill="#ff725e"/>
        <g id="Grupo_244558" data-name="Grupo 244558" transform="translate(158.313 92.473)" opacity="0.3">
          <g id="Grupo_244557" data-name="Grupo 244557">
            <g id="Grupo_244556" data-name="Grupo 244556" clip-path="url(#clip-path-19)">
              <path id="Trazado_245876" data-name="Trazado 245876" d="M130.865,70.12a6.613,6.613,0,0,0-4.371-.347,10.167,10.167,0,0,0-6.021,3.648,5.267,5.267,0,0,0-1.384,3.492A4.122,4.122,0,0,0,121,79.994a6.9,6.9,0,0,0,3.572,1.014,10.569,10.569,0,0,0,6.3-1.843,6.151,6.151,0,0,0,2.9-4.42,4.99,4.99,0,0,0-2.915-4.625" transform="translate(-119.083 -69.558)" fill="#fff"/>
            </g>
          </g>
        </g>
        <path id="Trazado_245877" data-name="Trazado 245877" d="M128.537,72.112a1.407,1.407,0,0,0-1.736-.251,2.2,2.2,0,0,0-.477,2.692,1.588,1.588,0,0,0,1.828.754,1.684,1.684,0,0,0,.888-1.377,2.2,2.2,0,0,0-.5-1.817" transform="translate(41.522 23.608)" fill="#fff"/>
        <path id="Trazado_245878" data-name="Trazado 245878" d="M126.586,71.831c.011-.008.024-.008.035-.015l.013-.017Z" transform="translate(41.702 23.653)" fill="#fff"/>
        <g id="Grupo_244561" data-name="Grupo 244561" transform="translate(150.039 101.479)" opacity="0.3">
          <g id="Grupo_244560" data-name="Grupo 244560">
            <g id="Grupo_244559" data-name="Grupo 244559" clip-path="url(#clip-path-20)">
              <path id="Trazado_245879" data-name="Trazado 245879" d="M144.072,76.332h0a48.187,48.187,0,0,1-4.379,5.175,16.393,16.393,0,0,1-5.823,3.5,16.662,16.662,0,0,1-9.246.505,19.537,19.537,0,0,1-6.856-2.688,13.685,13.685,0,0,1-4.895-5.407,9.646,9.646,0,0,0,.9,4.73l1.166,1.773a17.27,17.27,0,0,0,27.2-2.764,14.943,14.943,0,0,0,1.926-4.823" transform="translate(-112.859 -76.332)"/>
            </g>
          </g>
        </g>
        <g id="Grupo_244564" data-name="Grupo 244564" transform="translate(174.572 94.035)" opacity="0.3">
          <g id="Grupo_244563" data-name="Grupo 244563">
            <g id="Grupo_244562" data-name="Grupo 244562" clip-path="url(#clip-path-21)">
              <path id="Trazado_245880" data-name="Trazado 245880" d="M131.317,70.77a5.474,5.474,0,0,0,1.283,3.714c.141.166.335.338.546.291.246-.056.335-.36.342-.612a5.418,5.418,0,0,0-.79-2.5,2.291,2.291,0,0,0-.469-.7.776.776,0,0,0-.778-.191" transform="translate(-131.313 -70.733)"/>
            </g>
          </g>
        </g>
        <path id="Trazado_245881" data-name="Trazado 245881" d="M133.691,75.393c-.029.082-.416.053-.948-.253a3.67,3.67,0,0,1-1.639-4.174c.182-.585.444-.869.522-.83.183.064-.37,1.429.23,2.943s1.925,2.142,1.835,2.313" transform="translate(43.142 23.104)" fill="#263238"/>
        <path id="Trazado_245882" data-name="Trazado 245882" d="M122.666,212.245c-.017.016-.181-.134-.477-.44a9.787,9.787,0,0,1-1.157-1.458,15.949,15.949,0,0,1-2.406-6.388,27.141,27.141,0,0,1,.445-10.117c.762-3.746,2.11-7.715,3.1-11.956a58.454,58.454,0,0,0,.691-22.164,62.106,62.106,0,0,0-1.43-6.619,20.821,20.821,0,0,1-.629-2.413,2.234,2.234,0,0,1,.267.59c.145.4.386.976.621,1.746a50.319,50.319,0,0,1,1.654,6.614,56.081,56.081,0,0,1-.5,22.4c-1,4.291-2.364,8.241-3.148,11.933a27.427,27.427,0,0,0-.586,9.91,16.635,16.635,0,0,0,2.15,6.317c.828,1.359,1.46,2,1.407,2.043" transform="translate(38.984 49.643)" fill="#263238"/>
        <path id="Trazado_245883" data-name="Trazado 245883" d="M170.34,200.373c-.062,0-.021-.468-.2-1.259a7.358,7.358,0,0,0-1.587-3,27.005,27.005,0,0,0-3.749-3.522,56.241,56.241,0,0,0-5.118-3.732,58.306,58.306,0,0,0-10.243-5.237c-2.752-1.072-4.519-1.573-4.49-1.682a4.634,4.634,0,0,1,1.278.222c.81.193,1.97.521,3.382,1a49.284,49.284,0,0,1,15.6,8.939,24.425,24.425,0,0,1,3.726,3.71,6.986,6.986,0,0,1,1.468,3.25,2.536,2.536,0,0,1-.069,1.307" transform="translate(47.754 59.935)" fill="#263238"/>
        <path id="Trazado_245884" data-name="Trazado 245884" d="M136.792,99.033a8.047,8.047,0,0,0-3.139,1.668,83.706,83.706,0,0,0-6.022,6.4c-2.259,2.6-4.182,5.053-5.557,6.845a23.6,23.6,0,0,1-2.291,2.864,16.283,16.283,0,0,1,1.894-3.151,78.391,78.391,0,0,1,5.429-7.011,56.309,56.309,0,0,1,6.24-6.328,6.494,6.494,0,0,1,2.442-1.232,1.812,1.812,0,0,1,1-.053" transform="translate(39.459 32.612)" fill="#263238"/>
        <path id="Trazado_245885" data-name="Trazado 245885" d="M162.214,129.166a6.974,6.974,0,0,1-1.562-.311c-1-.235-2.42-.65-4.161-1.222a85.951,85.951,0,0,1-13.12-5.693c-4.935-2.635-9.194-5.367-12.236-7.392-1.521-1.016-2.737-1.856-3.568-2.453a7,7,0,0,1-1.251-.984,7.016,7.016,0,0,1,1.4.759q1.492.915,3.685,2.265c3.106,1.917,7.392,4.573,12.3,7.192a105.921,105.921,0,0,0,12.958,5.843c1.71.626,3.1,1.111,4.075,1.424a7.051,7.051,0,0,1,1.486.57" transform="translate(41.613 36.603)" fill="#263238"/>
        <path id="Trazado_245886" data-name="Trazado 245886" d="M150.52,236.728c-8.944,5.915-18.007,11.755-27.834,16.048s-20.524,7.006-31.228,6.368c-18.126-1.082-34.2-11.438-49.338-21.466A71.925,71.925,0,0,1,97.332,212.49c20.9.3,40.188,7.868,53.188,24.238" transform="translate(13.876 70)" fill="#455a64"/>
        <path id="Trazado_245887" data-name="Trazado 245887" d="M95.606,83.493c.037-.009.158.271.235.812a6.228,6.228,0,0,1-.133,2.307c-.4,1.949-1.861,4.274-3.584,6.6-1.7,2.365-3.268,4.483-4.431,5.994a13.766,13.766,0,0,1-2,2.365,13.842,13.842,0,0,1,1.6-2.651c1.061-1.585,2.567-3.748,4.266-6.111a22.081,22.081,0,0,0,3.673-6.32,12.922,12.922,0,0,0,.371-3" transform="translate(28.228 27.506)" fill="#263238"/>
        <path id="Trazado_245888" data-name="Trazado 245888" d="M73.089,71.3c.122-.031.346,1.286,1.393,3.1A25.357,25.357,0,0,0,79.878,80.5a44.023,44.023,0,0,1,5.957,5.815,8.322,8.322,0,0,1,1.714,3.006c-.1.055-.706-1.118-2.091-2.695a62.131,62.131,0,0,0-6.038-5.608,22.174,22.174,0,0,1-5.367-6.393,9.99,9.99,0,0,1-.871-2.4,2.168,2.168,0,0,1-.092-.932" transform="translate(24.071 23.488)" fill="#263238"/>
        <path id="Trazado_245889" data-name="Trazado 245889" d="M74.244,117.012a12.087,12.087,0,0,1-2,.56l-5.512,1.271c-4.661,1.045-11.107,2.441-18.237,3.94l-10.057,2.089c-3.095.618-5.867,1.247-8.262,1.537a16.432,16.432,0,0,1-5.687-.149,9.179,9.179,0,0,1-1.476-.477c-.324-.146-.488-.233-.479-.254.024-.061.707.234,2.009.468a17.768,17.768,0,0,0,5.569-.073c2.341-.346,5.11-1.024,8.2-1.678l10.047-2.14c7.13-1.5,13.592-2.82,18.277-3.742l5.556-1.056a12.02,12.02,0,0,1,2.057-.3" transform="translate(7.422 38.545)" fill="#263238"/>
        <path id="Trazado_245890" data-name="Trazado 245890" d="M35.881,81.151c.171-.084,3.946,7.271,8.427,16.425s7.979,16.646,7.808,16.731-3.944-7.269-8.429-16.427-7.978-16.646-7.806-16.73" transform="translate(11.818 26.734)" fill="#263238"/>
        <path id="Trazado_245891" data-name="Trazado 245891" d="M80,154.967a14.639,14.639,0,0,1-2.287-.257c-.731-.113-1.626-.242-2.67-.344s-2.227-.279-3.544-.358c-2.628-.238-5.771-.359-9.257-.335a103.5,103.5,0,0,0-11.3.811,103.97,103.97,0,0,0-11.129,2.162c-3.373.885-6.375,1.821-8.85,2.736-1.252.42-2.35.891-3.329,1.268s-1.811.729-2.487,1.028a14.743,14.743,0,0,1-2.14.844,14.365,14.365,0,0,1,2.029-1.089c.661-.338,1.477-.733,2.449-1.139s2.059-.919,3.308-1.371a85.766,85.766,0,0,1,8.859-2.894,95.749,95.749,0,0,1,11.2-2.231,95.673,95.673,0,0,1,11.392-.763,85.761,85.761,0,0,1,9.307.487c1.321.11,2.506.314,3.55.46s1.936.308,2.662.463a14.68,14.68,0,0,1,2.243.522" transform="translate(7.578 50.415)" fill="#263238"/>
        <path id="Trazado_245892" data-name="Trazado 245892" d="M38.866,213.267a32.31,32.31,0,0,0,5.392-5.722A34.219,34.219,0,0,0,48.2,200a58.091,58.091,0,0,0,2.748-10.1c1.284-7.341,1.956-14.116,3.159-18.9a46.212,46.212,0,0,1,1.654-5.584c.227-.649.457-1.133.6-1.466a1.672,1.672,0,0,1,.257-.491,14.912,14.912,0,0,1-.6,2.043c-.409,1.3-.927,3.213-1.43,5.6-1.074,4.771-1.663,11.518-2.957,18.915a55.455,55.455,0,0,1-2.834,10.2,32.867,32.867,0,0,1-4.141,7.6,22.571,22.571,0,0,1-4.024,4.226,13.319,13.319,0,0,1-1.284.932c-.3.2-.467.3-.48.277" transform="translate(12.803 53.851)" fill="#263238"/>
        <path id="Trazado_245893" data-name="Trazado 245893" d="M74.567,197.375a20.743,20.743,0,0,1-3.907,1.278,92.206,92.206,0,0,1-9.7,2.061,94.355,94.355,0,0,1-9.866,1.029,21,21,0,0,1-4.111,0,28.334,28.334,0,0,1,4.075-.487c2.517-.245,5.986-.624,9.794-1.223s7.224-1.308,9.694-1.852a28.882,28.882,0,0,1,4.023-.8" transform="translate(15.477 65.017)" fill="#263238"/>
        <path id="Trazado_245894" data-name="Trazado 245894" d="M99.946,1.179a4.3,4.3,0,0,1,.015.888c-.021.58-.025,1.434-.019,2.535a57.872,57.872,0,0,0,.921,9.253,88.338,88.338,0,0,0,3.6,13.318c1.69,4.922,3.879,10.217,6.068,15.828a175.069,175.069,0,0,1,8.643,29.6c.81,3.862,1.405,7,1.8,9.169.181,1.029.326,1.86.439,2.5a4.433,4.433,0,0,1,.106.883,4.275,4.275,0,0,1-.243-.855c-.145-.635-.334-1.457-.566-2.477-.495-2.235-1.179-5.33-2.018-9.119a190.551,190.551,0,0,0-8.809-29.454c-2.186-5.6-4.361-10.916-6.026-15.873a83.933,83.933,0,0,1-3.479-13.442A51.678,51.678,0,0,1,99.673,4.6c.035-1.106.081-1.964.149-2.542a4.311,4.311,0,0,1,.124-.88" transform="translate(32.833 0.388)" fill="#263238"/>
        <path id="Trazado_245895" data-name="Trazado 245895" d="M114.467,14.392a26.808,26.808,0,0,1-.282,4.5c-.281,2.768-.762,6.582-1.436,10.774s-1.416,7.966-2.018,10.682a26.767,26.767,0,0,1-1.143,4.358,31.725,31.725,0,0,1,.663-4.454c.479-2.736,1.141-6.513,1.815-10.7s1.228-7.975,1.633-10.725a31.717,31.717,0,0,1,.768-4.436" transform="translate(36.096 4.741)" fill="#263238"/>
        <path id="Trazado_245896" data-name="Trazado 245896" d="M108.069,25.876a10.382,10.382,0,0,1-2.658-1.186A48.455,48.455,0,0,1,99.5,20.917a48.59,48.59,0,0,1-5.32-4.575,10.353,10.353,0,0,1-1.9-2.2c.15-.149,3.266,2.991,7.634,6.22,4.35,3.249,8.257,5.328,8.159,5.515" transform="translate(30.398 4.657)" fill="#263238"/>
        <path id="Trazado_245897" data-name="Trazado 245897" d="M150.519,232.377a6.836,6.836,0,0,1-1.1-.185l-3.124-.662c-1.351-.308-3.009-.661-4.947-1.009-1.934-.364-4.128-.819-6.579-1.182l-3.837-.618-4.177-.553c-2.882-.42-5.985-.667-9.24-1.005-6.526-.524-13.72-.847-21.274-.771s-14.742.626-21.252,1.315c-3.252.38-6.34.75-9.213,1.226-2.886.4-5.548.923-7.985,1.369-2.442.412-4.618.953-6.546,1.347s-3.575.8-4.919,1.135l-3.107.738a6.821,6.821,0,0,1-1.1.211,6.822,6.822,0,0,1,1.06-.347q1.145-.321,3.075-.864c1.337-.374,2.975-.822,4.9-1.25s4.1-1.006,6.54-1.45c2.436-.48,5.1-1.029,7.989-1.456,2.877-.5,5.973-.893,9.232-1.294,6.525-.725,13.733-1.288,21.315-1.372s14.8.267,21.339.827c3.264.356,6.372.626,9.26,1.072l4.181.593,3.839.665c2.451.395,4.644.884,6.575,1.284s3.585.778,4.93,1.126l3.1.79a6.587,6.587,0,0,1,1.068.32" transform="translate(13.877 74.351)" fill="#263238"/>
        <path id="Trazado_245898" data-name="Trazado 245898" d="M94.837,212.508c.043.1-1.777.915-4.637,2.382a97.64,97.64,0,0,0-20.646,14.129c-2.4,2.134-3.819,3.535-3.9,3.458a5.523,5.523,0,0,1,.888-1.089c.6-.675,1.514-1.611,2.679-2.729A78.678,78.678,0,0,1,89.985,214.45c1.465-.682,2.668-1.194,3.515-1.509a5.47,5.47,0,0,1,1.337-.433" transform="translate(21.628 70.006)" fill="#263238"/>
        <path id="Trazado_245899" data-name="Trazado 245899" d="M113.45,246.68a6.5,6.5,0,0,1-1.516-.207,37.3,37.3,0,0,1-4.044-1.005,51.233,51.233,0,0,1-23.018-14.555,37.045,37.045,0,0,1-2.643-3.223,6.541,6.541,0,0,1-.838-1.28c.1-.076,1.413,1.656,3.837,4.169A56.87,56.87,0,0,0,108.039,245c3.309,1.113,5.437,1.557,5.411,1.679" transform="translate(26.812 74.587)" fill="#263238"/>
      </g>
    </g>
  </g>
</svg>
