<svg id="Grupo_244609" data-name="Grupo 244609" xmlns="http://www.w3.org/2000/svg" xmlns:xlink="http://www.w3.org/1999/xlink" width="400" height="337.379" viewBox="0 0 400 337.379">
  <defs>
    <clipPath id="clip-path">
      <rect id="Rectángulo_317178" data-name="Rectángulo 317178" width="400" height="337.379" fill="none"/>
    </clipPath>
    <clipPath id="clip-path-4">
      <rect id="Rectángulo_317147" data-name="Rectángulo 317147" width="203.765" height="316.787" fill="none"/>
    </clipPath>
    <clipPath id="clip-path-7">
      <rect id="Rectángulo_317173" data-name="Rectángulo 317173" width="108.146" height="138.666" fill="none"/>
    </clipPath>
    <clipPath id="clip-path-8">
      <rect id="Rectángulo_317176" data-name="Rectángulo 317176" width="77.913" height="101.115" fill="none"/>
    </clipPath>
  </defs>
  <g id="Grupo_244608" data-name="Grupo 244608" clip-path="url(#clip-path)">
    <g id="Grupo_244592" data-name="Grupo 244592">
      <g id="Grupo_244591" data-name="Grupo 244591" clip-path="url(#clip-path)">
        <path id="Trazado_246015" data-name="Trazado 246015" d="M400,314.292c0,11.373-89.543,20.592-200,20.592S0,325.664,0,314.292,89.544,293.7,200,293.7s200,9.22,200,20.593" transform="translate(0 2.496)" fill="#ebebeb"/>
      </g>
    </g>
    <rect id="Rectángulo_317144" data-name="Rectángulo 317144" width="203.764" height="316.788" transform="translate(145.066)" fill="#ffc727"/>
    <rect id="Rectángulo_317145" data-name="Rectángulo 317145" width="203.764" height="316.788" transform="translate(130.301)" fill="#ffc727"/>
    <g id="Grupo_244597" data-name="Grupo 244597">
      <g id="Grupo_244596" data-name="Grupo 244596" clip-path="url(#clip-path)">
        <g id="Grupo_244595" data-name="Grupo 244595" transform="translate(130.301)" opacity="0.1">
          <g id="Grupo_244594" data-name="Grupo 244594">
            <g id="Grupo_244593" data-name="Grupo 244593" clip-path="url(#clip-path-4)">
              <rect id="Rectángulo_317146" data-name="Rectángulo 317146" width="203.764" height="316.788" transform="translate(0.001 -0.001)"/>
            </g>
          </g>
        </g>
      </g>
    </g>
    <rect id="Rectángulo_317149" data-name="Rectángulo 317149" width="39.181" height="39.181" transform="translate(145.994 80.823)" fill="#fff"/>
    <rect id="Rectángulo_317150" data-name="Rectángulo 317150" width="39.181" height="39.181" transform="translate(190.394 80.823)" fill="#fff"/>
    <rect id="Rectángulo_317151" data-name="Rectángulo 317151" width="39.181" height="39.181" transform="translate(234.793 80.823)" fill="#ffc727"/>
    <rect id="Rectángulo_317152" data-name="Rectángulo 317152" width="39.181" height="39.181" transform="translate(279.192 80.823)" fill="#ffc727"/>
    <rect id="Rectángulo_317153" data-name="Rectángulo 317153" width="39.181" height="39.181" transform="translate(145.994 125.763)" fill="#37474f"/>
    <rect id="Rectángulo_317154" data-name="Rectángulo 317154" width="39.181" height="39.181" transform="translate(190.394 125.763)" fill="#37474f"/>
    <rect id="Rectángulo_317155" data-name="Rectángulo 317155" width="39.181" height="39.181" transform="translate(234.793 125.763)" fill="#37474f"/>
    <rect id="Rectángulo_317156" data-name="Rectángulo 317156" width="39.181" height="39.181" transform="translate(279.192 126.045)" fill="#fff"/>
    <rect id="Rectángulo_317157" data-name="Rectángulo 317157" width="39.181" height="39.181" transform="translate(145.994 170.702)" fill="#37474f"/>
    <rect id="Rectángulo_317158" data-name="Rectángulo 317158" width="39.181" height="39.181" transform="translate(190.394 170.702)" fill="#37474f"/>
    <rect id="Rectángulo_317159" data-name="Rectángulo 317159" width="39.181" height="39.181" transform="translate(234.793 170.702)" fill="#37474f"/>
    <rect id="Rectángulo_317160" data-name="Rectángulo 317160" width="39.181" height="39.181" transform="translate(279.192 170.702)" fill="#fff"/>
    <rect id="Rectángulo_317161" data-name="Rectángulo 317161" width="39.181" height="39.181" transform="translate(145.994 215.64)" fill="#37474f"/>
    <rect id="Rectángulo_317162" data-name="Rectángulo 317162" width="39.181" height="39.181" transform="translate(190.394 215.64)" fill="#37474f"/>
    <rect id="Rectángulo_317163" data-name="Rectángulo 317163" width="39.181" height="39.181" transform="translate(234.793 215.64)" fill="#37474f"/>
    <rect id="Rectángulo_317164" data-name="Rectángulo 317164" width="39.181" height="39.181" transform="translate(279.192 215.64)" fill="#fff"/>
    <rect id="Rectángulo_317165" data-name="Rectángulo 317165" width="39.181" height="39.181" transform="translate(145.994 260.58)" fill="#37474f"/>
    <rect id="Rectángulo_317166" data-name="Rectángulo 317166" width="39.181" height="39.181" transform="translate(190.394 260.58)" fill="#37474f"/>
    <rect id="Rectángulo_317167" data-name="Rectángulo 317167" width="39.181" height="39.181" transform="translate(234.793 260.58)" fill="#fff"/>
    <rect id="Rectángulo_317168" data-name="Rectángulo 317168" width="39.181" height="39.181" transform="translate(279.192 260.58)" fill="#fff"/>
    <g id="Grupo_244599" data-name="Grupo 244599">
      <g id="Grupo_244598" data-name="Grupo 244598" clip-path="url(#clip-path)">
        <path id="Trazado_246016" data-name="Trazado 246016" d="M158.417,95.816v-.033a2.753,2.753,0,0,1,2.708-2.92A2.718,2.718,0,0,1,163.8,95.75v.032a2.7,2.7,0,1,1-5.383.033m3.931,0v-.033c0-.914-.521-1.664-1.256-1.664-.766,0-1.223.75-1.223,1.632v.032c0,.93.521,1.664,1.256,1.664.767,0,1.223-.75,1.223-1.631m-2.055,7.617,7.487-10.227a.624.624,0,0,1,.555-.293.64.64,0,0,1,.652.635.744.744,0,0,1-.146.425L161.353,104.2a.668.668,0,0,1-.571.293.626.626,0,0,1-.635-.635.741.741,0,0,1,.146-.425m5.024-1.778v-.032a2.7,2.7,0,1,1,5.382-.033v.033a2.762,2.762,0,0,1-2.708,2.92,2.727,2.727,0,0,1-2.675-2.887m3.931,0v-.032c0-.914-.522-1.664-1.257-1.664-.766,0-1.222.75-1.222,1.631v.033c0,.93.521,1.663,1.256,1.663.766,0,1.223-.749,1.223-1.631" transform="translate(1.346 0.789)" fill="#37474f"/>
        <path id="Trazado_246017" data-name="Trazado 246017" d="M242.392,98.54a5.989,5.989,0,0,1,5.987-5.872,6.1,6.1,0,0,1,3.768,1.273A.937.937,0,0,1,251,95.425a4.065,4.065,0,0,0-2.625-.9,4.32,4.32,0,0,0-2.938,1.175,4.026,4.026,0,0,0-1.19,2.838,3.967,3.967,0,0,0,1.19,2.838,4.32,4.32,0,0,0,2.938,1.175,4.1,4.1,0,0,0,2.625-.9.99.99,0,0,1,1.3.18.963.963,0,0,1-.162,1.3,6.1,6.1,0,0,1-3.768,1.273,5.968,5.968,0,0,1-5.987-5.872" transform="translate(2.06 0.788)" fill="#37474f"/>
        <path id="Trazado_246018" data-name="Trazado 246018" d="M255.361,103.513V93.889a.885.885,0,0,1,.9-.9h5.334a.905.905,0,0,1,.9.9.919.919,0,0,1-.9.914h-4.421v2.985h3.8a.905.905,0,0,1,0,1.81h-3.8v3h4.421a.906.906,0,0,1,0,1.811h-5.286c-.033,0-.033-.016-.033-.016l-.015.016a.9.9,0,0,1-.9-.9" transform="translate(2.17 0.79)" fill="#37474f"/>
        <path id="Trazado_246019" data-name="Trazado 246019" d="M291.211,98.54a5.989,5.989,0,0,1,5.987-5.872,6.1,6.1,0,0,1,3.768,1.273.937.937,0,0,1-1.143,1.485,4.065,4.065,0,0,0-2.625-.9,4.316,4.316,0,0,0-2.937,1.175,4.022,4.022,0,0,0-1.191,2.838,3.964,3.964,0,0,0,1.191,2.838,4.316,4.316,0,0,0,2.937,1.175,4.1,4.1,0,0,0,2.625-.9.989.989,0,0,1,1.3.18.963.963,0,0,1-.162,1.3,6.1,6.1,0,0,1-3.768,1.273,5.968,5.968,0,0,1-5.987-5.872" transform="translate(2.475 0.788)" fill="#37474f"/>
        <path id="Trazado_246020" data-name="Trazado 246020" d="M167.8,139.679l-4.077,9.641a.861.861,0,0,1-.833.538.9.9,0,0,1-.342-.066.925.925,0,0,1-.489-1.175l3.523-8.368h-4.207a.919.919,0,0,1-.9-.914.894.894,0,0,1,.9-.9h5.594a.619.619,0,0,1,.163.016,1.513,1.513,0,0,1,.343.131l.048.048a.132.132,0,0,1,.066.065c.016.034.048.049.065.067a.243.243,0,0,0,.049.065.18.18,0,0,1,.033.082.3.3,0,0,0,.065.082c0,.016.016.066.016.081.016.034.016.049.032.082a1.266,1.266,0,0,1,0,.36c-.016.065-.032.114-.048.162" transform="translate(1.364 1.177)" fill="#fff"/>
        <path id="Trazado_246021" data-name="Trazado 246021" d="M211.807,145.974a3.9,3.9,0,1,1-6.051-3.245,2.631,2.631,0,0,1-.539-1.615,2.691,2.691,0,0,1,5.382,0,2.637,2.637,0,0,1-.538,1.615,3.916,3.916,0,0,1,1.745,3.245m-1.778,0a2.123,2.123,0,0,0-2.1-2.12,2.112,2.112,0,1,0,0,4.225,2.109,2.109,0,0,0,2.1-2.1M207,141.115a.914.914,0,1,0,1.827,0,.914.914,0,0,0-1.827,0" transform="translate(1.734 1.177)" fill="#fff"/>
        <path id="Trazado_246022" data-name="Trazado 246022" d="M248.116,142.387a3.958,3.958,0,0,1,7.895-.407c0,.015,0,.015.017.032.016.31.032.619.032.93a9.557,9.557,0,0,1-.571,3.343,5.711,5.711,0,0,1-2.1,2.79,4.682,4.682,0,0,1-2.448.767.91.91,0,0,1-.945-.865.943.943,0,0,1,.88-.946,2.991,2.991,0,0,0,1.533-.457,3.34,3.34,0,0,0,1.028-1.142,3.553,3.553,0,0,0,.213-.425,3.837,3.837,0,0,1-1.566.327,3.954,3.954,0,0,1-3.964-3.947m1.81,0a2.145,2.145,0,1,0,4.29,0,2.145,2.145,0,0,0-4.29,0" transform="translate(2.109 1.177)" fill="#fff"/>
        <path id="Trazado_246023" data-name="Trazado 246023" d="M292.79,144.425a.979.979,0,0,1,.962-.979h5.084a.971.971,0,0,1,0,1.941h-5.084a.974.974,0,0,1-.962-.962" transform="translate(2.488 1.219)" fill="#37474f"/>
        <path id="Trazado_246024" data-name="Trazado 246024" d="M168.6,191.1a.9.9,0,0,1-.914.9h-.163v1.239a.9.9,0,1,1-1.794,0V192h-5.138a.8.8,0,0,1-.555-.2.874.874,0,0,1-.146-1.257l6.035-7.5c.016,0,.016-.017.033-.033a.23.23,0,0,0,.048-.066.177.177,0,0,0,.082-.048c.016-.017.048-.032.065-.049a.18.18,0,0,1,.1-.032c.016-.032.032-.049.065-.049.017-.015.049-.015.1-.032a.1.1,0,0,0,.066-.017h.277a.14.14,0,0,0,.082.017c.016.017.066.017.1.032.016,0,.049.017.066.017.032.032.065.048.081.065.033.017.049.032.082.049a.016.016,0,0,1,.016.016c.017,0,.049.016.049.032l.066.066c.016.016.032.048.048.066a.386.386,0,0,1,.066.082.126.126,0,0,0,.032.065.692.692,0,0,1,.032.1c0,.017.017.049.017.066a.178.178,0,0,1,.016.1c0,.032.016.049.016.082v6.639h.163a.909.909,0,0,1,.914.9m-2.871-4.927-3.246,4.029h3.246Z" transform="translate(1.357 1.553)" fill="#fff"/>
        <path id="Trazado_246025" data-name="Trazado 246025" d="M210.393,187.221a4,4,0,0,1,1.191,2.871,4.059,4.059,0,0,1-1.191,2.854,3.984,3.984,0,0,1-2.855,1.19h-.032a3.947,3.947,0,0,1-2.838-1.19.9.9,0,0,1,0-1.3.925.925,0,0,1,1.3,0,2.185,2.185,0,0,0,3.115,0,2.214,2.214,0,0,0,.652-1.549,2.13,2.13,0,0,0-.652-1.566,2.1,2.1,0,0,0-1.55-.636,2.168,2.168,0,0,0-1.565.636.927.927,0,0,1-1.3,0c-.066-.066-.114-.147-.18-.213,0-.032,0-.048-.016-.048a.126.126,0,0,0-.032-.082c0-.049-.017-.082-.017-.114,0-.017-.016-.017-.016-.032a.8.8,0,0,1,0-.278l.489-4.224a.994.994,0,0,1,.408-.654c.032-.015.048-.015.066-.032s.032-.017.048-.032a.9.9,0,0,1,.424-.1h4.813a.922.922,0,1,1,0,1.844h-4.013l-.2,1.616a4.157,4.157,0,0,1,1.092-.147,3.985,3.985,0,0,1,2.855,1.191" transform="translate(1.737 1.553)" fill="#fff"/>
        <path id="Trazado_246026" data-name="Trazado 246026" d="M256.028,190.19a3.959,3.959,0,0,1-7.9.407c0-.015,0-.015-.016-.032-.016-.311-.032-.619-.032-.93a9.552,9.552,0,0,1,.57-3.343,5.721,5.721,0,0,1,2.1-2.79,4.687,4.687,0,0,1,2.447-.766.91.91,0,0,1,.947.865.944.944,0,0,1-.88.945,3,3,0,0,0-1.534.457,3.366,3.366,0,0,0-1.029,1.143,3.462,3.462,0,0,0-.212.424,3.85,3.85,0,0,1,1.566-.326,3.955,3.955,0,0,1,3.964,3.947m-1.811,0a2.145,2.145,0,1,0-4.29,0,2.145,2.145,0,0,0,4.29,0" transform="translate(2.108 1.553)" fill="#fff"/>
        <path id="Trazado_246027" data-name="Trazado 246027" d="M293.135,189.233a.848.848,0,0,1,0-1.7h6.59a.848.848,0,1,1,0,1.7Zm4.42-4.289v.081a1.125,1.125,0,0,1-2.25,0v-.081a1.126,1.126,0,0,1,2.25,0m0,6.8v.082a1.126,1.126,0,0,1-2.25,0v-.082a1.125,1.125,0,0,1,2.25,0" transform="translate(2.484 1.563)" fill="#37474f"/>
        <path id="Trazado_246028" data-name="Trazado 246028" d="M165.928,228.177V237.8a.908.908,0,0,1-.914.9.884.884,0,0,1-.9-.9v-8.025l-.652.374a.809.809,0,0,1-.457.131.914.914,0,0,1-.473-1.68l2.006-1.191c.017-.016.049-.016.066-.032.032,0,.048-.032.082-.049.032,0,.065-.016.1-.016a.1.1,0,0,1,.066-.016.264.264,0,0,1,.114-.017h.18a.094.094,0,0,0,.066.017.173.173,0,0,1,.1.032.1.1,0,0,1,.066.017c.049.032.066.048.1.048a.225.225,0,0,0,.066.048c.016.017.048.033.066.049.032.016.048.048.065.066a.242.242,0,0,1,.049.065l.066.067.016.032c0,.015.016.032.016.048.016.032.032.049.032.082.017.032.017.065.033.082a.775.775,0,0,0,.016.082.138.138,0,0,0,.032.114Z" transform="translate(1.378 1.932)" fill="#fff"/>
        <path id="Trazado_246029" data-name="Trazado 246029" d="M211.87,237.8a.884.884,0,0,1-.9.9h-5.807a.878.878,0,0,1-.669-.293.9.9,0,0,1,.048-1.273l4.829-4.372a2.045,2.045,0,0,0,.686-1.566,2.114,2.114,0,0,0-.539-1.418,2.068,2.068,0,0,0-1.566-.686,2.146,2.146,0,0,0-1.419.538l-.506.458a.888.888,0,0,1-1.272-.066.9.9,0,0,1,.066-1.273l.505-.457a3.858,3.858,0,0,1,2.626-1.012,3.929,3.929,0,0,1,2.9,1.29,3.849,3.849,0,0,1,1.012,2.625,3.93,3.93,0,0,1-1.289,2.9l-3.083,2.79h3.474a.9.9,0,0,1,.9.913" transform="translate(1.736 1.932)" fill="#fff"/>
        <path id="Trazado_246030" data-name="Trazado 246030" d="M254.539,231.765a3.988,3.988,0,0,1,1.192,2.855,4.05,4.05,0,0,1-6.917,2.871.923.923,0,0,1,1.3-1.3,2.175,2.175,0,0,0,1.549.636,2.239,2.239,0,0,0,1.566-.636,2.188,2.188,0,0,0,.653-1.566,2.123,2.123,0,0,0-.653-1.55,2.184,2.184,0,0,0-1.549-.652.806.806,0,0,1-.669-.293c-.017,0-.017,0-.017-.016a.926.926,0,0,1-.032-1.3l1.664-1.7h-2.642a.921.921,0,0,1,0-1.843H254.8a.917.917,0,0,1,.931.913.98.98,0,0,1-.115.442,1.2,1.2,0,0,1-.163.228l-2.055,2.121a3.666,3.666,0,0,1,1.142.8" transform="translate(2.112 1.932)" fill="#fff"/>
        <path id="Trazado_246031" data-name="Trazado 246031" d="M299.051,231.948l-1.941,2.676,1.941,2.692a.862.862,0,0,1-.162,1.174.913.913,0,0,1-.522.18,1.054,1.054,0,0,1-.718-.358l-1.631-2.235-1.632,2.235a.893.893,0,0,1-.669.358.875.875,0,0,1-.522-.18.833.833,0,0,1-.178-1.174l1.958-2.692-1.958-2.676a.817.817,0,0,1,.178-1.157.855.855,0,0,1,1.191.179l1.632,2.185,1.631-2.185a.916.916,0,0,1,1.24-.179.845.845,0,0,1,.162,1.157" transform="translate(2.489 1.96)" fill="#37474f"/>
        <path id="Trazado_246032" data-name="Trazado 246032" d="M164.864,280.865a1.232,1.232,0,0,1,1.222,1.224,1.217,1.217,0,0,1-1.222,1.206,1.2,1.2,0,0,1-1.208-1.206,1.218,1.218,0,0,1,1.208-1.224" transform="translate(1.391 2.387)" fill="#fff"/>
        <path id="Trazado_246033" data-name="Trazado 246033" d="M203.525,277.549a6.981,6.981,0,0,1,1.109-3.9,3.433,3.433,0,0,1,6.052,0,7.5,7.5,0,0,1,0,7.8,3.434,3.434,0,0,1-6.052,0,7.018,7.018,0,0,1-1.109-3.9m6.443,0a5.411,5.411,0,0,0-.783-2.9,1.892,1.892,0,0,0-1.517-.994,1.96,1.96,0,0,0-1.55.994,5.411,5.411,0,0,0-.783,2.9,5.353,5.353,0,0,0,.783,2.887,1.986,1.986,0,0,0,1.55,1.011,1.918,1.918,0,0,0,1.517-1.011,5.353,5.353,0,0,0,.783-2.887" transform="translate(1.73 2.31)" fill="#fff"/>
        <path id="Trazado_246034" data-name="Trazado 246034" d="M248.809,276.308a.96.96,0,0,1,.969-.942h5.008a.937.937,0,0,1,.942.942.92.92,0,0,1-.942.943h-5.008a.942.942,0,0,1-.969-.943m0,3.015a.965.965,0,0,1,.969-.969h5.008a.97.97,0,0,1,0,1.939h-5.008a.965.965,0,0,1-.969-.97" transform="translate(2.115 2.34)" fill="#37474f"/>
        <path id="Trazado_246035" data-name="Trazado 246035" d="M295.5,278.4h-2.317a.9.9,0,0,1-.9-.9.905.905,0,0,1,.9-.9H295.5v-2.267a.919.919,0,0,1,.93-.93.929.929,0,0,1,.93.93v2.267h2.317a.905.905,0,0,1,.9.9.9.9,0,0,1-.9.9h-2.317v2.267a.929.929,0,0,1-.93.93.919.919,0,0,1-.93-.93Z" transform="translate(2.484 2.324)" fill="#37474f"/>
        <path id="Trazado_246036" data-name="Trazado 246036" d="M213.871,94.086a.7.7,0,0,1-.7.7h-2.057c-.857,2.374-3.016,8.574-3.5,10.334a1.283,1.283,0,0,1-.354.55.748.748,0,0,1-.475.186.863.863,0,0,1-.651-.288s-2.178-2.123-2.858-2.876c-.977-1.071-.55-1.583-.409-1.667a.778.778,0,0,1,.39-.13,1.154,1.154,0,0,1,.615.233l.707.735c.2.214.4.409.587.6l.559.559.623.623c.512-1.648,2.812-8.146,3.426-9.765v-.009a.948.948,0,0,1,.2-.233.677.677,0,0,1,.521-.242h2.682a.7.7,0,0,1,.7.7" transform="translate(1.722 0.794)" fill="#37474f"/>
        <rect id="Rectángulo_317169" data-name="Rectángulo 317169" width="172.379" height="41.251" transform="translate(145.994 16.767)" fill="#455a64"/>
        <path id="Trazado_246037" data-name="Trazado 246037" d="M238.582,28.907V44.968a1.516,1.516,0,0,1-1.525,1.5,1.475,1.475,0,0,1-1.5-1.5V31.574l-1.089.626a1.361,1.361,0,0,1-.762.218,1.525,1.525,0,0,1-.79-2.8l3.349-1.988c.026-.027.082-.027.109-.054.054,0,.082-.054.135-.082.055,0,.11-.027.163-.027a.164.164,0,0,1,.109-.027.468.468,0,0,1,.191-.027h.3a.165.165,0,0,0,.109.027.292.292,0,0,1,.163.054.164.164,0,0,1,.109.027c.082.054.109.082.163.082a.376.376,0,0,0,.109.082c.027.027.082.054.109.082.054.027.082.082.109.109a.376.376,0,0,1,.082.109l.109.109.027.054c0,.027.027.054.027.082.027.054.054.082.054.136.027.054.027.109.054.136a1.178,1.178,0,0,0,.027.136.23.23,0,0,0,.054.191Z" transform="translate(1.973 0.233)" fill="#fff"/>
        <path id="Trazado_246038" data-name="Trazado 246038" d="M254.266,44.968a1.476,1.476,0,0,1-1.5,1.5h-9.692a1.469,1.469,0,0,1-1.116-.489,1.5,1.5,0,0,1,.082-2.124l8.058-7.3a3.412,3.412,0,0,0,1.144-2.613,3.526,3.526,0,0,0-.9-2.369,3.457,3.457,0,0,0-2.614-1.144,3.572,3.572,0,0,0-2.368.9l-.843.761a1.482,1.482,0,0,1-2.124-.109,1.5,1.5,0,0,1,.109-2.123l.844-.762a6.427,6.427,0,0,1,4.382-1.688,6.552,6.552,0,0,1,4.846,2.151,6.428,6.428,0,0,1,1.688,4.383,6.556,6.556,0,0,1-2.151,4.846l-5.144,4.654h5.8a1.5,1.5,0,0,1,1.5,1.525" transform="translate(2.053 0.233)" fill="#fff"/>
        <path id="Trazado_246039" data-name="Trazado 246039" d="M268.2,34.9a6.655,6.655,0,0,1,1.988,4.764,6.757,6.757,0,0,1-11.543,4.791,1.54,1.54,0,1,1,2.178-2.178,3.624,3.624,0,0,0,2.586,1.062,3.734,3.734,0,0,0,2.614-1.062,3.649,3.649,0,0,0,1.089-2.613,3.543,3.543,0,0,0-1.089-2.586,3.651,3.651,0,0,0-2.587-1.089,1.342,1.342,0,0,1-1.115-.49c-.028,0-.028,0-.028-.027a1.543,1.543,0,0,1-.053-2.177l2.776-2.832h-4.41a1.538,1.538,0,0,1,0-3.076h8.031a1.528,1.528,0,0,1,1.552,1.525,1.619,1.619,0,0,1-.192.734,1.859,1.859,0,0,1-.271.381l-3.431,3.54A6.168,6.168,0,0,1,268.2,34.9" transform="translate(2.194 0.233)" fill="#fff"/>
        <path id="Trazado_246040" data-name="Trazado 246040" d="M288.924,41.4a1.5,1.5,0,0,1-1.525,1.5h-.271v2.069a1.5,1.5,0,0,1-3,0V42.9h-8.574a1.339,1.339,0,0,1-.926-.326,1.458,1.458,0,0,1-.245-2.1L284.46,27.954c.027,0,.027-.027.054-.054a.359.359,0,0,0,.082-.109.283.283,0,0,0,.136-.082c.027-.027.082-.054.109-.082a.292.292,0,0,1,.163-.054c.028-.054.054-.082.109-.082.027-.027.082-.027.163-.054a.164.164,0,0,0,.109-.027h.463a.245.245,0,0,0,.136.027c.027.027.109.027.163.054.026,0,.082.027.108.027.055.054.11.082.137.109.054.027.081.054.136.082a.026.026,0,0,1,.026.028c.028,0,.082.026.082.053l.11.109c.027.027.053.082.082.109a.808.808,0,0,1,.108.136.208.208,0,0,0,.055.109,1.463,1.463,0,0,1,.054.163c0,.027.027.082.027.109a.3.3,0,0,1,.026.163c0,.054.028.082.028.136V39.9h.271a1.517,1.517,0,0,1,1.525,1.5m-4.791-8.221L278.716,39.9h5.417Z" transform="translate(2.329 0.233)" fill="#fff"/>
        <path id="Trazado_246041" data-name="Trazado 246041" d="M302.33,34.922a6.677,6.677,0,0,1,1.988,4.792,6.766,6.766,0,0,1-1.988,4.763,6.655,6.655,0,0,1-4.764,1.988h-.054a6.6,6.6,0,0,1-4.737-1.988,1.5,1.5,0,0,1,0-2.178,1.547,1.547,0,0,1,2.178,0,3.645,3.645,0,0,0,5.2,0,3.7,3.7,0,0,0,1.088-2.585,3.562,3.562,0,0,0-1.088-2.614,3.519,3.519,0,0,0-2.587-1.062,3.621,3.621,0,0,0-2.613,1.062,1.545,1.545,0,0,1-2.178,0c-.109-.109-.191-.244-.3-.353,0-.055,0-.082-.027-.082a.206.206,0,0,0-.054-.137c0-.081-.027-.135-.027-.191,0-.026-.026-.026-.026-.053a1.274,1.274,0,0,1,0-.463l.816-7.051a1.651,1.651,0,0,1,.681-1.088c.054-.027.082-.027.108-.054s.055-.027.083-.054a1.507,1.507,0,0,1,.708-.163h8.031a1.538,1.538,0,1,1,0,3.076h-6.7l-.326,2.7a6.956,6.956,0,0,1,1.823-.246,6.654,6.654,0,0,1,4.764,1.987" transform="translate(2.484 0.233)" fill="#fff"/>
      </g>
    </g>
    <g id="Grupo_244607" data-name="Grupo 244607">
      <g id="Grupo_244606" data-name="Grupo 244606" clip-path="url(#clip-path)">
        <path id="Trazado_246042" data-name="Trazado 246042" d="M261.359,4.314s-.151.03-.4.1a.242.242,0,0,1,.071-.121h.01c.2.02.323.02.323.02" transform="translate(2.218 0.036)" fill="#263238"/>
        <path id="Trazado_246043" data-name="Trazado 246043" d="M292.386,52.929v-.005" transform="translate(2.485 0.45)" fill="none" stroke="#ff98b9" stroke-linecap="round" stroke-linejoin="round" stroke-width="0"/>
        <path id="Trazado_246044" data-name="Trazado 246044" d="M292.386,52.929v-.005" transform="translate(2.485 0.45)" fill="none" stroke="#ff98b9" stroke-linecap="round" stroke-linejoin="round" stroke-width="0"/>
        <path id="Trazado_246045" data-name="Trazado 246045" d="M272.868,293.215a1.106,1.106,0,0,0-.182.02V293.1a1.767,1.767,0,0,1,.182.111" transform="translate(2.318 2.491)" fill="#dd6a57"/>
        <path id="Trazado_246046" data-name="Trazado 246046" d="M92.753,89.53c1.3,9.657,8.5,32.594,13.869,34.052,5,1.357,26.993-5.195,29.822-9.559,1.516-2.337,7.513-23.787,4.826-22.5-3.394,1.62-28.29,14.208-29.315,13.95-2.159-.543-6.377-9.059-10.02-13.821-7.947-10.384-9.79-6.627-9.181-2.117" transform="translate(0.787 0.722)" fill="#774442"/>
        <path id="Trazado_246047" data-name="Trazado 246047" d="M107.781,99.133,96.506,109.461s-3.99-14.757-4.44-21.585,5.139-6.059,15.715,11.257" transform="translate(0.782 0.713)" fill="#263238"/>
        <path id="Trazado_246048" data-name="Trazado 246048" d="M65.36,194.014s-10.9,18.541-22.935,10.086,1.7-25,1.7-25Z" transform="translate(0.319 1.522)" fill="#dd6a57"/>
        <rect id="Rectángulo_317171" data-name="Rectángulo 317171" width="151.227" height="25.944" transform="translate(43.959 181.319) rotate(-54.919)" fill="#ffc727"/>
        <g id="Grupo_244602" data-name="Grupo 244602" transform="translate(43.959 57.563)" opacity="0.1">
          <g id="Grupo_244601" data-name="Grupo 244601">
            <g id="Grupo_244600" data-name="Grupo 244600" clip-path="url(#clip-path-7)">
              <rect id="Rectángulo_317172" data-name="Rectángulo 317172" width="151.227" height="25.944" transform="translate(0 123.756) rotate(-54.919)"/>
            </g>
          </g>
        </g>
        <rect id="Rectángulo_317174" data-name="Rectángulo 317174" width="6.011" height="30.294" transform="translate(41.713 180.734) rotate(-54.92)" fill="#455a64"/>
        <rect id="Rectángulo_317175" data-name="Rectángulo 317175" width="6.012" height="30.294" transform="matrix(0.575, -0.818, 0.818, 0.575, 45.532, 175.297)" fill="#455a64"/>
        <path id="Trazado_246049" data-name="Trazado 246049" d="M129.758,57.183l18.717-9.665,6.16-3.208-.881,6.915-2.74,20.886L146.7,73.686s.077-4.48.064-4.559L142.448,70.7s.077-4.48.064-4.56l-4.268,1.607s.03-4.512.017-4.592l-4.268,1.607s.03-4.512.016-4.592l-4.267,1.607s.03-4.513.016-4.593" transform="translate(1.103 0.377)" fill="#ebebeb"/>
        <path id="Trazado_246050" data-name="Trazado 246050" d="M148.317,47.518l6.159-3.208-.881,6.915Z" transform="translate(1.261 0.377)" fill="#37474f"/>
        <g id="Grupo_244605" data-name="Grupo 244605" transform="translate(61.684 72.626)" opacity="0.1">
          <g id="Grupo_244604" data-name="Grupo 244604">
            <g id="Grupo_244603" data-name="Grupo 244603" clip-path="url(#clip-path-8)">
              <path id="Trazado_246051" data-name="Trazado 246051" d="M72.811,173.071q8.058-11.927,16.278-23.739l16.462-23.61,16.621-23.5,8.368-11.709,8.44-11.658-8.1,11.9L122.7,102.6,106.24,126.206,89.617,149.7q-8.353,11.719-16.806,23.368" transform="translate(-61.065 -71.956)"/>
              <path id="Trazado_246052" data-name="Trazado 246052" d="M66.987,169.649q8.058-11.927,16.278-23.739L99.727,122.3l16.621-23.5,8.368-11.709,8.44-11.658-8.1,11.9-8.175,11.845-16.463,23.609-16.622,23.5Q75.439,158,66.987,169.649" transform="translate(-61.115 -71.985)"/>
              <path id="Trazado_246053" data-name="Trazado 246053" d="M61.164,166.228q8.058-11.927,16.278-23.739L93.9,118.879l16.621-23.5,8.368-11.709,8.44-11.658-8.1,11.9-8.175,11.845L94.593,119.363,77.97,142.86q-8.353,11.718-16.806,23.368" transform="translate(-61.164 -72.014)"/>
            </g>
          </g>
        </g>
        <path id="Trazado_246054" data-name="Trazado 246054" d="M140.165,89.872c.409,3.208,2.6,7.743,2.129,10.1a2.756,2.756,0,0,1-2.361,2.291s1.893,1.87,1.113,3.939c-.4,1.064-2.454,1.358-2.454,1.358a3.289,3.289,0,0,1,.645,3.361,3.178,3.178,0,0,1-2.6,1.513s.694,2.15-.429,3.4c-2.276,2.532-15.08-1.659-15.514-7.022-.2-2.5,2.869-1.307,2.869-1.307s-4-2.782-3.206-5.444,4.695-.87,4.695-.87-3.855-2.731-2.751-5.408c1.15-2.785,4.741-.326,4.741-.326s-2.216-2.862-.9-4.718c2.17-3.063,6.158,2.988,9.19,3.241l3.071-4.132Z" transform="translate(1.022 0.764)" fill="#774442"/>
        <path id="Trazado_246055" data-name="Trazado 246055" d="M141.27,94.791c-.122-3.071,4.376-5.342,4.68-8.3.413-4-4.984-1.713-7.691,3.4l-1.4,4.34Z" transform="translate(1.163 0.718)" fill="#774442"/>
        <path id="Trazado_246056" data-name="Trazado 246056" d="M136.3,112.348a.036.036,0,0,1-.009.071,23.375,23.375,0,0,1-12.932-5.1c-.114-.1-.006-.326.141-.243a47.832,47.832,0,0,0,12.8,5.276" transform="translate(1.048 0.91)" fill="#263238"/>
        <path id="Trazado_246057" data-name="Trazado 246057" d="M138.608,107.515c.051.012.031.1-.025.093a21.894,21.894,0,0,1-13.76-6.444c-.125-.134-.1-.379.052-.236,2.608,2.409,9.494,5.59,13.733,6.588" transform="translate(1.06 0.857)" fill="#263238"/>
        <path id="Trazado_246058" data-name="Trazado 246058" d="M126.809,95.046c3.623,3.6,8.036,5.683,12.876,7.168.064.019.029.106-.027.1a19.691,19.691,0,0,1-7.793-2.531,13.47,13.47,0,0,1-5.182-4.615c-.051-.078.048-.2.126-.126" transform="translate(1.077 0.808)" fill="#263238"/>
        <path id="Trazado_246059" data-name="Trazado 246059" d="M145.078,321.179c-1.723.556-50.822-.081-52.675-1.294-.712-.448-1.037-7.608-1.18-16.27,0-.091,0-.182,0-.271-.033-1.785-.056-3.624-.06-5.487,0-.256,0-.512-.009-.768-.069-12.5.129-25.472.129-25.472l32.846.329-.988,25.233-.038,1-.2,5.223-.019.538s18.684,8.65,20.582,10.2c1.883,1.542,3.335,6.495,1.612,7.043" transform="translate(0.775 2.308)" fill="#774442"/>
        <path id="Trazado_246060" data-name="Trazado 246060" d="M145.077,320.964c-1.723.556-50.822-.081-52.675-1.294-.712-.448-1.037-7.608-1.18-16.27,0-.091,0-.182,0-.271-.033-1.785-.056-3.624-.06-5.487,0-.256,0-.512-.009-.768l31.987.09-.038,1-.2,5.223-.019.538s18.684,8.65,20.582,10.2c1.883,1.542,3.335,6.495,1.612,7.043" transform="translate(0.775 2.523)" fill="#ebebeb"/>
        <path id="Trazado_246061" data-name="Trazado 246061" d="M145.078,320.911c-1.067.346-20.084.233-34.979-.188-9.3-.255-16.983-.638-17.7-1.1-.706-.443-1.03-7.406-1.172-15.908,0-.121-.008-.241-.008-.361,0-.09,0-.188-.007-.277l31.682.06-.015.541s18.687,8.646,20.58,10.193,3.335,6.5,1.615,7.045" transform="translate(0.775 2.576)" fill="#ffc727"/>
        <path id="Trazado_246062" data-name="Trazado 246062" d="M144.518,318.871c-8.274-.311-41.676-.783-49.878-.461-.067,0-.068.048,0,.052,8.194.487,41.6.688,49.878.545.174,0,.176-.129,0-.136" transform="translate(0.804 2.705)" fill="#263238"/>
        <path id="Trazado_246063" data-name="Trazado 246063" d="M126.213,303.269c-3.249-.65-7.239-.2-9.758,2.087-.1.089.03.226.136.195a45.7,45.7,0,0,1,9.6-1.87.208.208,0,0,0,.018-.411" transform="translate(0.989 2.575)" fill="#263238"/>
        <path id="Trazado_246064" data-name="Trazado 246064" d="M128.526,304.7c-3.249-.65-7.239-.2-9.758,2.087-.1.089.03.226.136.194a45.761,45.761,0,0,1,9.6-1.869.208.208,0,0,0,.018-.411" transform="translate(1.009 2.587)" fill="#263238"/>
        <path id="Trazado_246065" data-name="Trazado 246065" d="M130.839,306.139c-3.249-.65-7.239-.2-9.758,2.087-.1.089.03.226.136.194a45.761,45.761,0,0,1,9.6-1.869.208.208,0,0,0,.018-.411" transform="translate(1.029 2.6)" fill="#263238"/>
        <path id="Trazado_246066" data-name="Trazado 246066" d="M130.507,296.286c-1.258-1.779-3.651-1.018-5.025.108a17.4,17.4,0,0,0-5.113,7.4.088.088,0,0,0,.076.119.4.4,0,0,0,.505.413c2.7-.961,5.71-1.654,8.038-3.416,1.358-1.029,2.709-2.937,1.52-4.62m-5.758,5.74c-1.319.505-2.653.942-3.951,1.5a52.363,52.363,0,0,1,3.081-4.254,18.768,18.768,0,0,1,1.75-1.843c.98-.869,4.841-2.7,4.222.87-.343,1.967-3.531,3.128-5.1,3.73" transform="translate(1.023 2.509)" fill="#263238"/>
        <path id="Trazado_246067" data-name="Trazado 246067" d="M112.194,302.816c2.67,1.179,5.757,1.161,8.608,1.474a.4.4,0,0,0,.4-.518.088.088,0,0,0,.045-.133,17.377,17.377,0,0,0-6.677-6.021c-1.6-.779-4.1-.969-4.914,1.051-.77,1.912.983,3.458,2.541,4.147m-1.44-2.342c-1.424-3.328,2.753-2.439,3.907-1.817a18.793,18.793,0,0,1,2.128,1.39,52.139,52.139,0,0,1,3.977,3.431c-1.391-.24-2.791-.358-4.188-.547-1.667-.225-5.038-.622-5.823-2.457" transform="translate(0.93 2.525)" fill="#263238"/>
        <path id="Trazado_246068" data-name="Trazado 246068" d="M110.1,320.717c-9.3-.255-16.982-.638-17.7-1.1-.706-.443-1.029-7.405-1.172-15.908,3.816,3.4,13.287,11.852,18.868,17.012" transform="translate(0.775 2.581)" fill="#263238"/>
        <path id="Trazado_246069" data-name="Trazado 246069" d="M81.5,131.371s7.372,82.967,8.573,89.3c.278,1.442.451,9.283.564,19.363.255,21.992,0,64.836,0,64.836h34.611s-.92-71.9-2.452-84.553-11.326-88.947-11.326-88.947Z" transform="translate(0.693 1.117)" fill="#37474f"/>
        <path id="Trazado_246070" data-name="Trazado 246070" d="M123.588,297.43c-5.4-.112-3.849-.156-9.25-.209-2.643-.025-20.014-.177-22.482.233a.057.057,0,0,0,0,.11c2.47.408,19.839.257,22.482.232,5.4-.052,3.849-.1,9.25-.209a.079.079,0,0,0,0-.157" transform="translate(0.78 2.526)" fill="#263238"/>
        <path id="Trazado_246071" data-name="Trazado 246071" d="M97.275,256.342q-.057-7.53-.112-15.06c-.035-4.862-.029-9.729-.26-14.587-.468-9.836-2.464-19.505-3.883-29.23s-2.6-19.494-3.676-29.268c-1.2-10.965-2.265-21.946-3.392-32.919-.008-.075-.124-.073-.118,0,1.631,19.592,3.451,39.18,6.163,58.657q1.012,7.267,2.213,14.5c.807,4.884,1.611,9.771,2,14.711.377,4.835.438,9.687.488,14.534q.077,7.524.149,15.05c.108,11.144.109,31.473.217,42.616a.167.167,0,0,0,.334-.008c-.076-9.94-.043-29.064-.119-39" transform="translate(0.73 1.149)" fill="#263238"/>
        <path id="Trazado_246072" data-name="Trazado 246072" d="M74.26,131.371s14.67,82.967,15.871,89.3c.278,1.442.451,9.283.564,19.363l.007.03,16.5-108.693Z" transform="translate(0.631 1.117)" fill="#263238"/>
        <path id="Trazado_246073" data-name="Trazado 246073" d="M104.684,324.112c-1.758.433-50.689-3.68-52.451-5.021-.679-.5-.5-7.663-.024-16.313.006-.091.011-.18.017-.271.093-1.782.2-3.619.33-5.476.017-.256.034-.512.044-.767.817-12.475,1.933-25.4,1.933-25.4l32.74,2.654-2.773,25.1-.108.994-.568,5.2-.057.534s18.026,9.952,19.809,11.63,2.866,6.716,1.108,7.14" transform="translate(0.44 2.302)" fill="#774442"/>
        <path id="Trazado_246074" data-name="Trazado 246074" d="M104.684,323.9c-1.758.433-50.689-3.68-52.451-5.021-.679-.5-.5-7.663-.024-16.313.006-.091.011-.181.017-.271.093-1.782.2-3.619.33-5.476.017-.256.034-.512.044-.767L84.5,298.4l-.108.994-.568,5.2-.057.535s18.026,9.952,19.809,11.63,2.866,6.716,1.108,7.14" transform="translate(0.44 2.516)" fill="#ebebeb"/>
        <path id="Trazado_246075" data-name="Trazado 246075" d="M104.684,323.845c-1.758.433-50.689-3.68-52.451-5.021-.679-.5-.5-7.663-.024-16.313.006-.091.011-.181.017-.271l31.6,2.3-.057.535s18.026,9.952,19.809,11.63,2.866,6.716,1.108,7.14" transform="translate(0.44 2.569)" fill="#ffc727"/>
        <path id="Trazado_246076" data-name="Trazado 246076" d="M104.266,321.769c-8.231-.9-41.516-3.732-49.721-3.993-.067,0-.071.043,0,.052,8.14,1.066,41.445,3.633,49.714,4.075.174.009.185-.116.011-.135" transform="translate(0.463 2.701)" fill="#263238"/>
        <path id="Trazado_246077" data-name="Trazado 246077" d="M87.114,304.907c-3.195-.878-7.207-.714-9.881,1.39-.1.082.014.228.122.2a45.774,45.774,0,0,1,9.712-1.184.209.209,0,0,0,.047-.409" transform="translate(0.656 2.587)" fill="#263238"/>
        <path id="Trazado_246078" data-name="Trazado 246078" d="M89.32,306.5c-3.195-.878-7.207-.714-9.881,1.39-.1.082.014.228.122.2a45.848,45.848,0,0,1,9.712-1.185.208.208,0,0,0,.047-.408" transform="translate(0.675 2.601)" fill="#263238"/>
        <path id="Trazado_246079" data-name="Trazado 246079" d="M91.525,308.1c-3.195-.878-7.207-.714-9.881,1.39-.1.082.013.228.122.2a45.768,45.768,0,0,1,9.712-1.184.209.209,0,0,0,.047-.409" transform="translate(0.694 2.614)" fill="#263238"/>
        <path id="Trazado_246080" data-name="Trazado 246080" d="M91.895,298.245c-1.128-1.864-3.569-1.274-5.019-.249a17.393,17.393,0,0,0-5.624,7.015.088.088,0,0,0,.067.124c-.011.247.189.527.475.448,2.764-.767,5.814-1.244,8.26-2.838,1.428-.929,2.91-2.737,1.843-4.5m-6.15,5.318c-1.35.41-2.712.752-4.047,1.212a52,52,0,0,1,3.375-4.025,18.629,18.629,0,0,1,1.876-1.713c1.04-.8,5.02-2.347,4.149,1.167-.481,1.936-3.744,2.87-5.353,3.359" transform="translate(0.69 2.525)" fill="#263238"/>
        <path id="Trazado_246081" data-name="Trazado 246081" d="M73.163,303.464c2.58,1.365,5.66,1.566,8.481,2.081.292.053.466-.244.433-.489a.087.087,0,0,0,.055-.129,17.381,17.381,0,0,0-6.235-6.479c-1.537-.889-4.022-1.258-4.977.7-.9,1.853.736,3.52,2.242,4.316m-1.271-2.438c-1.185-3.42,2.92-2.237,4.026-1.537a18.813,18.813,0,0,1,2.024,1.538,52.019,52.019,0,0,1,3.723,3.7c-1.371-.338-2.757-.556-4.139-.842-1.647-.342-4.981-.977-5.634-2.863" transform="translate(0.601 2.53)" fill="#263238"/>
        <path id="Trazado_246082" data-name="Trazado 246082" d="M85.189,305.561l-34.578-1.466s8.907-77.876,9.082-82.54c.454-12.1,8.494-90.211,8.494-90.211h42.235s-2.663,18.031-7.223,29.464a52.974,52.974,0,0,0-8.834,4.033s-2.524,54.587-2.673,61.031c-.292,12.736-6.5,79.689-6.5,79.689" transform="translate(0.43 1.116)" fill="#37474f"/>
        <path id="Trazado_246083" data-name="Trazado 246083" d="M84.254,297.82c-5.39-.341-3.839-.319-9.233-.6-2.64-.137-19.988-1.025-22.472-.72a.057.057,0,0,0-.005.11c2.451.513,19.811,1.1,22.452,1.184,5.4.176,3.851.068,9.251.184a.079.079,0,0,0,.007-.157" transform="translate(0.446 2.519)" fill="#263238"/>
        <path id="Trazado_246084" data-name="Trazado 246084" d="M71.242,135.935c-1.569,19.673-3.178,39.347-4.978,59-1.806,19.72-8.993,87.477-10.694,98.41-.011.073.1.1.114.03,3.483-19.426,5.512-45.524,7.695-65.133s3.958-39.267,5.548-58.93c.9-11.123,1.709-22.254,2.562-33.38.012-.157-.234-.155-.246,0" transform="translate(0.472 1.154)" fill="#263238"/>
        <path id="Trazado_246085" data-name="Trazado 246085" d="M104.339,159.782A65.629,65.629,0,0,0,94,164.6a.117.117,0,0,0,.1.214c3.484-1.5,7.036-2.929,10.434-4.615a.228.228,0,0,0-.188-.415" transform="translate(0.798 1.358)" fill="#263238"/>
        <path id="Trazado_246086" data-name="Trazado 246086" d="M105.409,136.076c-.009-.12-.221-.147-.22-.017A116.069,116.069,0,0,1,104.6,147.7c-.161,1.8-1.606,11.714-4.718,10.991-.52-.121-.787-.634-.868-1.42a12.486,12.486,0,0,1,.413-3.042c.345-2.076.622-4.159.8-6.257a56.958,56.958,0,0,0-.126-11.733.1.1,0,0,0-.2.011,107.632,107.632,0,0,1-.948,16.2c-.389,2.58-1.689,6.463,1.01,6.861,2.748.4,4.526-6.1,4.861-7.881a59.422,59.422,0,0,0,.581-15.351" transform="translate(0.835 1.156)" fill="#263238"/>
        <path id="Trazado_246087" data-name="Trazado 246087" d="M99.964,158.766a16.735,16.735,0,0,0-.7,2.056,4.645,4.645,0,0,0-.29,1.689c.011.11.156.12.215.046a5.939,5.939,0,0,0,.723-1.645c.237-.635.487-1.267.706-1.909a.348.348,0,0,0-.654-.238" transform="translate(0.841 1.348)" fill="#263238"/>
        <path id="Trazado_246088" data-name="Trazado 246088" d="M65.481,146.4c.118.126,49.707-1.109,50.145-1.631.61-.734-12.853-51.655-16.455-59.208-1.534-3.218-9.509-4.017-12.8-1.182-8.236,7.1-14.789,30.919-16.259,38.082-2.44,11.8-5.054,23.484-4.632,23.939" transform="translate(0.556 0.702)" fill="#ffc727"/>
        <path id="Trazado_246089" data-name="Trazado 246089" d="M91.928,100.346a5.722,5.722,0,0,1,.421,1.6,6.4,6.4,0,0,1-1.236-3.037,5.85,5.85,0,0,1,.816,1.438m3.958,19.246a6.37,6.37,0,0,0,1.236,3.036,6.4,6.4,0,0,0-1.236-3.036m4.643,22.483a5.844,5.844,0,0,0,.42,1.6,5.765,5.765,0,0,0,.817,1.437,6.4,6.4,0,0,0-1.236-3.036M78.848,113.958a6.4,6.4,0,0,0,1.236,3.036,5.74,5.74,0,0,0-.421-1.6,5.844,5.844,0,0,0-.816-1.437m-7.832,14.195a5.853,5.853,0,0,0,.421,1.6,5.78,5.78,0,0,0,.816,1.437,5.721,5.721,0,0,0-.421-1.6,5.85,5.85,0,0,0-.816-1.438m19.122,8.918a5.882,5.882,0,0,0,.421,1.6,5.762,5.762,0,0,0,.816,1.437,6.37,6.37,0,0,0-1.236-3.036m15.8-25.692a5.882,5.882,0,0,0,.421,1.6,5.762,5.762,0,0,0,.816,1.437,5.773,5.773,0,0,0-.42-1.6,5.88,5.88,0,0,0-.817-1.437M84.8,107.845a6.4,6.4,0,0,0,3.037-1.236,5.721,5.721,0,0,0-1.6.421,5.849,5.849,0,0,0-1.438.816m-5.273,17.879a6.406,6.406,0,0,0,3.037-1.236,5.737,5.737,0,0,0-1.6.421,5.863,5.863,0,0,0-1.437.816m1.506,20.283c.3,0,.583-.015.878-.019.117-.043.225-.089.342-.132a6.033,6.033,0,0,0,1.438-.815,5.735,5.735,0,0,0-1.6.422,6.285,6.285,0,0,0-1.057.545m19.221-16.248a5.882,5.882,0,0,0,1.6-.421,5.772,5.772,0,0,0,1.438-.817,6.383,6.383,0,0,0-3.037,1.237M85.483,92.225a6.4,6.4,0,0,0,3.037-1.236,5.721,5.721,0,0,0-1.6.421,5.85,5.85,0,0,0-1.438.816M80.942,94.66a5.851,5.851,0,0,0-.834,1.427,5.788,5.788,0,0,0-.439,1.594,5.789,5.789,0,0,0,.833-1.428,5.9,5.9,0,0,0,.44-1.593m-7.635,22.8a5.82,5.82,0,0,0-.833,1.428,5.738,5.738,0,0,0-.44,1.593,5.739,5.739,0,0,0,.833-1.428,5.818,5.818,0,0,0,.44-1.593m-.334,20.817a5.815,5.815,0,0,0-.833,1.427,5.755,5.755,0,0,0-.44,1.594,5.758,5.758,0,0,0,.833-1.428,5.829,5.829,0,0,0,.44-1.593m24.848-29.531a5.857,5.857,0,0,0-.834,1.428,5.772,5.772,0,0,0-.439,1.593,6.4,6.4,0,0,0,1.273-3.021M89.8,127.112a5.872,5.872,0,0,0-.833,1.428,5.772,5.772,0,0,0-.439,1.593,5.783,5.783,0,0,0,.833-1.427,5.859,5.859,0,0,0,.439-1.594m19.242,8.467a5.85,5.85,0,0,0-.834,1.427,5.788,5.788,0,0,0-.439,1.594,6.405,6.405,0,0,0,1.273-3.021M97.6,92.73a6.405,6.405,0,0,0-1.273,3.021,5.774,5.774,0,0,0,.834-1.428A5.843,5.843,0,0,0,97.6,92.73m6.031,11.134a5.848,5.848,0,0,0-1.427-.833,5.755,5.755,0,0,0-1.594-.44,5.757,5.757,0,0,0,1.428.833,5.827,5.827,0,0,0,1.593.44m-21.35,31.7a6.378,6.378,0,0,0-3.021-1.273,5.771,5.771,0,0,0,1.428.833,5.88,5.88,0,0,0,1.593.44m26.856-12.821a6.4,6.4,0,0,0-3.021-1.273,5.774,5.774,0,0,0,1.428.834,5.843,5.843,0,0,0,1.593.439M75.268,104.406a6.327,6.327,0,0,0,1.2.659,5.854,5.854,0,0,0,1.6.439,5.852,5.852,0,0,0-1.431-.833,6.054,6.054,0,0,0-1.32-.393.61.61,0,0,0-.046.129m22.369,31.819a5.839,5.839,0,0,0-1.428-.833,5.738,5.738,0,0,0-1.593-.44,5.739,5.739,0,0,0,1.428.833,5.809,5.809,0,0,0,1.593.44m-6.566-20.6a5.853,5.853,0,0,0-1.428-.833,5.738,5.738,0,0,0-1.593-.44,5.758,5.758,0,0,0,1.428.833,5.818,5.818,0,0,0,1.593.44" transform="translate(0.604 0.773)" fill="#fff"/>
        <path id="Trazado_246090" data-name="Trazado 246090" d="M96.467,92.855c-2.838.449-7.888-4.574-9.517-8.169-.111-.247.441-2.715.969-5.745.313-1.841.618-3.9.762-5.794.027-.389,1.3.427,1.3.427l2.409.779,7.968,2.584a30.348,30.348,0,0,0-1.7,7.2,4.265,4.265,0,0,0,.023.785c0,.036.009.08.008.13.129,1.5.52,7.373-2.223,7.809" transform="translate(0.739 0.621)" fill="#774442"/>
        <path id="Trazado_246091" data-name="Trazado 246091" d="M98.663,84.908c0,.036.008.08.007.13a7.49,7.49,0,0,1-1.227-.027c-8-.784-8.227-11.044-8.227-11.044l3.156.377,7.968,2.584a30.348,30.348,0,0,0-1.7,7.2,4.265,4.265,0,0,0,.023.785" transform="translate(0.758 0.629)" fill="#263238"/>
        <path id="Trazado_246092" data-name="Trazado 246092" d="M87.639,60.527c-1.388,4.2.565,16.467,3.51,19.26,4.27,4.048,11.4,4.591,14.875-.574,3.368-5.006.542-20.949-2.761-23.5-4.864-3.76-13.573-1.389-15.624,4.815" transform="translate(0.741 0.458)" fill="#774442"/>
        <path id="Trazado_246093" data-name="Trazado 246093" d="M90.817,79.443v0" transform="translate(0.772 0.675)" fill="none" stroke="#dc6a57" stroke-linecap="round" stroke-linejoin="round" stroke-width="0"/>
        <path id="Trazado_246094" data-name="Trazado 246094" d="M99.386,68.608c-.011-.03-.058.049-.052.083.154.823.192,1.791-.514,2.181-.022.012-.013.053.014.045.893-.269.83-1.554.553-2.309" transform="translate(0.84 0.583)" fill="#263238"/>
        <path id="Trazado_246095" data-name="Trazado 246095" d="M98.524,67.865c-1.345.1-1.039,2.787.208,2.691,1.227-.095.92-2.778-.208-2.691" transform="translate(0.83 0.577)" fill="#263238"/>
        <path id="Trazado_246096" data-name="Trazado 246096" d="M104.04,67.919c0-.032.07.032.073.067.069.834.287,1.778,1.071,1.968.024.006.027.048,0,.047-.932-.024-1.21-1.28-1.142-2.082" transform="translate(0.884 0.577)" fill="#263238"/>
        <path id="Trazado_246097" data-name="Trazado 246097" d="M104.683,66.974c1.325-.254,1.737,2.415.509,2.65-1.209.233-1.621-2.438-.509-2.65" transform="translate(0.884 0.569)" fill="#263238"/>
        <path id="Trazado_246098" data-name="Trazado 246098" d="M97.334,66.785a10.584,10.584,0,0,0,1-.485,1.788,1.788,0,0,0,.923-.689.571.571,0,0,0-.169-.676,1.415,1.415,0,0,0-1.435.017,2.081,2.081,0,0,0-1.089,1.03.61.61,0,0,0,.774.8" transform="translate(0.82 0.55)" fill="#263238"/>
        <path id="Trazado_246099" data-name="Trazado 246099" d="M105.573,65.531a10.58,10.58,0,0,1-1.1-.154,1.794,1.794,0,0,1-1.09-.372.571.571,0,0,1-.046-.7,1.416,1.416,0,0,1,1.371-.425,2.079,2.079,0,0,1,1.353.645.609.609,0,0,1-.489,1" transform="translate(0.877 0.543)" fill="#263238"/>
        <path id="Trazado_246100" data-name="Trazado 246100" d="M99.142,76.069c.221.171.451.418.755.408a2.216,2.216,0,0,0,.869-.312.029.029,0,0,1,.041.038,1.128,1.128,0,0,1-1,.572.891.891,0,0,1-.737-.661c-.018-.046.043-.072.076-.046" transform="translate(0.842 0.646)" fill="#263238"/>
        <path id="Trazado_246101" data-name="Trazado 246101" d="M99.725,73.582a2.845,2.845,0,0,0,2.033,1.043,3.574,3.574,0,0,0,1.024-.07,1.023,1.023,0,0,0,.192-.044,1.791,1.791,0,0,0,.18-.049.207.207,0,0,0,.145-.2V74.25a.4.4,0,0,0-.017-.084v-.007l-.01-.073c-.055-.641-.229-1.608-.229-1.608.247.09,1.5.49,1.444.157a42.9,42.9,0,0,0-2.078-8.44.077.077,0,0,0-.149.038c.359,2.661,1.183,5.24,1.585,7.907a4.971,4.971,0,0,0-1.383-.252c-.088.036.369,1.862.371,2.152a.145.145,0,0,1,0,.031,3.948,3.948,0,0,1-3.034-.575c-.068-.04-.127.023-.07.084" transform="translate(0.847 0.545)" fill="#263238"/>
        <path id="Trazado_246102" data-name="Trazado 246102" d="M102.369,74.194a3.381,3.381,0,0,1-1.225,1.2,1.521,1.521,0,0,1-.911.161c-.684-.1-.771-.7-.708-1.24a3.64,3.64,0,0,1,.206-.832,4.376,4.376,0,0,0,2.638.715" transform="translate(0.846 0.625)" fill="#263238"/>
        <path id="Trazado_246103" data-name="Trazado 246103" d="M101.144,75.383a1.521,1.521,0,0,1-.911.162c-.684-.1-.771-.706-.708-1.241a1.571,1.571,0,0,1,1.619,1.079" transform="translate(0.846 0.632)" fill="#ff98b9"/>
        <path id="Trazado_246104" data-name="Trazado 246104" d="M105.667,61.131c-3.927,2.94-9.632-1.022-9.632-1.022a4.4,4.4,0,0,1-4.345,2.968s-.51,6.876-2.312,6.937c-2.75.1-3.988-9.2-3.2-11.068a4.909,4.909,0,0,1,3.1-2.437,4.493,4.493,0,0,1,1.757-2.8c1.816-1.516,8.376.15,8.376.15a6.039,6.039,0,0,1,1.566-2.308,1.7,1.7,0,0,1,2.456.122,4.059,4.059,0,0,0-.589,1.715c-.241,2.016,1.4,1.946,1.3.13a2.831,2.831,0,0,0-.716-1.846c.758-1.221,2.06-1.662,2.887-1.06,1.5,1.094,2.609,8.072-.658,10.515" transform="translate(0.73 0.428)" fill="#263238"/>
        <path id="Trazado_246105" data-name="Trazado 246105" d="M90.041,70.428s-2.751-3.959-4.547-2.979.265,6.714,2.368,7.5a2.14,2.14,0,0,0,2.871-1.142Z" transform="translate(0.721 0.572)" fill="#774442"/>
        <path id="Trazado_246106" data-name="Trazado 246106" d="M86.114,69.063c-.033,0-.04.044-.011.056a5.411,5.411,0,0,1,2.787,3.394,1.182,1.182,0,0,0-1.768-.328c-.038.027,0,.087.04.079a1.314,1.314,0,0,1,1.447.464A6.305,6.305,0,0,1,89.3,73.9c.069.132.308.063.257-.09,0-.011-.008-.023-.012-.034.043-1.882-1.412-4.52-3.432-4.715" transform="translate(0.732 0.587)" fill="#263238"/>
        <path id="Trazado_246107" data-name="Trazado 246107" d="M98.865,184.073,79.617,163.991l34.748-15.315,19.247,20.081Z" transform="translate(0.677 1.264)" fill="#ebebeb"/>
        <path id="Trazado_246108" data-name="Trazado 246108" d="M100.171,185.435,80.924,165.354l34.748-15.315,19.247,20.081Z" transform="translate(0.688 1.275)" fill="#c7c7c7"/>
        <path id="Trazado_246109" data-name="Trazado 246109" d="M117.421,152.172a2.466,2.466,0,0,1-1.874.144c-.286-.093-.085-.384.194-.287a1.843,1.843,0,0,0,1.22-.051,1.88,1.88,0,0,0,.187-.091,1.308,1.308,0,0,0,.519-.44.427.427,0,0,0,.069-.281.076.076,0,0,1,0-.024c0-.014-.014-.026-.012-.035a.461.461,0,0,1-.03-.043.343.343,0,0,0-.146-.13.8.8,0,0,0-.369-.088,1.664,1.664,0,0,0-.46.056,2.274,2.274,0,0,0-.233.053l-.046.02a.324.324,0,0,0-.075.025c-.015.007-.036.008-.046.02l-.272-.284a2.864,2.864,0,0,1,.756-.2,1.51,1.51,0,0,1,1.229.3.611.611,0,0,1,.02.842,1.627,1.627,0,0,1-.629.5" transform="translate(0.981 1.279)" fill="#a6a6a6"/>
        <path id="Trazado_246110" data-name="Trazado 246110" d="M118.915,153.73a2.466,2.466,0,0,1-1.874.145c-.286-.094-.085-.385.194-.288a1.843,1.843,0,0,0,1.22-.051,1.869,1.869,0,0,0,.187-.091,1.308,1.308,0,0,0,.519-.44.427.427,0,0,0,.069-.281.076.076,0,0,1,0-.024c0-.014-.014-.026-.011-.035a.363.363,0,0,1-.031-.043.343.343,0,0,0-.146-.13.785.785,0,0,0-.369-.088,1.667,1.667,0,0,0-.46.056,2.335,2.335,0,0,0-.233.053l-.046.02a.325.325,0,0,0-.075.025c-.015.007-.036.008-.045.02l-.273-.284a2.864,2.864,0,0,1,.756-.2,1.51,1.51,0,0,1,1.229.3.611.611,0,0,1,.02.842,1.627,1.627,0,0,1-.629.5" transform="translate(0.994 1.293)" fill="#a6a6a6"/>
        <path id="Trazado_246111" data-name="Trazado 246111" d="M120.408,155.288a2.466,2.466,0,0,1-1.874.145c-.286-.094-.084-.385.194-.288a1.843,1.843,0,0,0,1.22-.051,1.87,1.87,0,0,0,.187-.091,1.314,1.314,0,0,0,.519-.439.431.431,0,0,0,.069-.282.075.075,0,0,1,0-.024c0-.014-.014-.026-.012-.035a.465.465,0,0,1-.03-.043.335.335,0,0,0-.146-.129.774.774,0,0,0-.369-.089,1.668,1.668,0,0,0-.46.057,2.328,2.328,0,0,0-.233.053l-.046.021a.282.282,0,0,0-.075.024c-.015.007-.036.008-.045.02l-.273-.284a2.863,2.863,0,0,1,.756-.2,1.51,1.51,0,0,1,1.229.3.611.611,0,0,1,.02.842,1.62,1.62,0,0,1-.629.5" transform="translate(1.006 1.306)" fill="#a6a6a6"/>
        <path id="Trazado_246112" data-name="Trazado 246112" d="M121.9,156.847a2.466,2.466,0,0,1-1.874.145c-.286-.094-.084-.385.194-.288a1.843,1.843,0,0,0,1.22-.051,1.875,1.875,0,0,0,.187-.091,1.314,1.314,0,0,0,.519-.439.431.431,0,0,0,.069-.282.076.076,0,0,1,0-.024c0-.014-.014-.026-.012-.035a.47.47,0,0,1-.03-.043.343.343,0,0,0-.146-.13.8.8,0,0,0-.369-.088,1.667,1.667,0,0,0-.46.056,2.322,2.322,0,0,0-.233.053l-.046.02a.324.324,0,0,0-.075.025c-.015.007-.035.008-.045.02l-.273-.284a2.863,2.863,0,0,1,.756-.2,1.51,1.51,0,0,1,1.229.3.611.611,0,0,1,.02.842,1.627,1.627,0,0,1-.629.5" transform="translate(1.019 1.319)" fill="#a6a6a6"/>
        <path id="Trazado_246113" data-name="Trazado 246113" d="M123.4,158.4a2.466,2.466,0,0,1-1.874.144c-.285-.093-.084-.384.194-.287a1.843,1.843,0,0,0,1.22-.051,1.879,1.879,0,0,0,.187-.091,1.308,1.308,0,0,0,.519-.44.428.428,0,0,0,.069-.281.077.077,0,0,1,0-.024c0-.014-.014-.026-.012-.035a.464.464,0,0,1-.03-.043.343.343,0,0,0-.146-.13.786.786,0,0,0-.369-.088,1.666,1.666,0,0,0-.46.056,2.335,2.335,0,0,0-.233.053l-.046.02a.325.325,0,0,0-.075.025c-.015.007-.036.008-.045.02l-.273-.284a2.864,2.864,0,0,1,.756-.2,1.513,1.513,0,0,1,1.229.3.613.613,0,0,1,.02.843,1.619,1.619,0,0,1-.629.5" transform="translate(1.032 1.332)" fill="#a6a6a6"/>
        <path id="Trazado_246114" data-name="Trazado 246114" d="M124.889,159.964a2.466,2.466,0,0,1-1.874.144c-.286-.093-.084-.384.194-.287a1.843,1.843,0,0,0,1.22-.051,1.884,1.884,0,0,0,.187-.091,1.308,1.308,0,0,0,.519-.44.427.427,0,0,0,.069-.281.076.076,0,0,1,0-.024c0-.014-.014-.026-.011-.035a.363.363,0,0,1-.031-.043.343.343,0,0,0-.146-.13.786.786,0,0,0-.369-.088,1.666,1.666,0,0,0-.46.056,2.33,2.33,0,0,0-.233.053l-.046.02a.325.325,0,0,0-.075.025c-.015.007-.036.008-.045.02l-.273-.284a2.86,2.86,0,0,1,.756-.2,1.51,1.51,0,0,1,1.229.3.611.611,0,0,1,.02.842,1.619,1.619,0,0,1-.629.5" transform="translate(1.044 1.345)" fill="#a6a6a6"/>
        <path id="Trazado_246115" data-name="Trazado 246115" d="M126.383,161.522a2.471,2.471,0,0,1-1.874.145c-.285-.094-.084-.385.194-.288a1.843,1.843,0,0,0,1.22-.051,1.879,1.879,0,0,0,.187-.091,1.308,1.308,0,0,0,.519-.44.427.427,0,0,0,.069-.281.076.076,0,0,1,0-.024c0-.014-.014-.026-.011-.035a.363.363,0,0,1-.031-.043.335.335,0,0,0-.146-.129.774.774,0,0,0-.369-.089,1.666,1.666,0,0,0-.46.056,2.335,2.335,0,0,0-.233.053l-.046.02a.325.325,0,0,0-.075.025c-.015.007-.036.008-.045.02l-.273-.284a2.864,2.864,0,0,1,.756-.2,1.51,1.51,0,0,1,1.229.3.611.611,0,0,1,.02.842,1.628,1.628,0,0,1-.629.5" transform="translate(1.057 1.359)" fill="#a6a6a6"/>
        <path id="Trazado_246116" data-name="Trazado 246116" d="M127.877,163.081a2.466,2.466,0,0,1-1.874.145c-.286-.094-.085-.385.194-.288a1.843,1.843,0,0,0,1.22-.051,1.877,1.877,0,0,0,.187-.091,1.308,1.308,0,0,0,.519-.44.427.427,0,0,0,.069-.281.076.076,0,0,1,0-.024c0-.014-.014-.026-.012-.035a.465.465,0,0,1-.03-.043.335.335,0,0,0-.146-.129.789.789,0,0,0-.369-.089,1.665,1.665,0,0,0-.46.056,2.269,2.269,0,0,0-.233.053l-.046.021a.282.282,0,0,0-.075.024c-.015.007-.036.008-.045.02l-.273-.284a2.862,2.862,0,0,1,.756-.2,1.51,1.51,0,0,1,1.229.3.611.611,0,0,1,.02.842,1.627,1.627,0,0,1-.629.5" transform="translate(1.07 1.372)" fill="#a6a6a6"/>
        <path id="Trazado_246117" data-name="Trazado 246117" d="M129.371,164.639a2.466,2.466,0,0,1-1.874.144c-.286-.093-.084-.384.194-.287a1.843,1.843,0,0,0,1.22-.051,1.872,1.872,0,0,0,.187-.091,1.308,1.308,0,0,0,.519-.44.427.427,0,0,0,.069-.281.076.076,0,0,1,0-.024c0-.014-.014-.026-.011-.035a.361.361,0,0,1-.031-.043.343.343,0,0,0-.146-.13.785.785,0,0,0-.369-.088,1.666,1.666,0,0,0-.46.056,2.336,2.336,0,0,0-.233.053l-.046.02a.324.324,0,0,0-.075.025c-.015.007-.036.008-.045.02l-.273-.284a2.863,2.863,0,0,1,.756-.2,1.51,1.51,0,0,1,1.229.3.611.611,0,0,1,.02.842,1.619,1.619,0,0,1-.629.5" transform="translate(1.082 1.385)" fill="#a6a6a6"/>
        <path id="Trazado_246118" data-name="Trazado 246118" d="M130.864,166.2a2.466,2.466,0,0,1-1.874.145c-.285-.094-.084-.385.194-.288A1.843,1.843,0,0,0,130.4,166a1.778,1.778,0,0,0,.187-.091,1.3,1.3,0,0,0,.519-.44.427.427,0,0,0,.069-.281.076.076,0,0,1,0-.024c0-.014-.014-.026-.012-.035a.467.467,0,0,1-.03-.043.335.335,0,0,0-.146-.129.774.774,0,0,0-.369-.089,1.666,1.666,0,0,0-.46.056,2.331,2.331,0,0,0-.233.053l-.046.021a.283.283,0,0,0-.075.024c-.015.007-.036.008-.045.02l-.273-.284a2.861,2.861,0,0,1,.756-.2,1.51,1.51,0,0,1,1.229.3.611.611,0,0,1,.02.842,1.612,1.612,0,0,1-.629.5" transform="translate(1.095 1.398)" fill="#a6a6a6"/>
        <path id="Trazado_246119" data-name="Trazado 246119" d="M132.358,167.756a2.466,2.466,0,0,1-1.874.145c-.286-.094-.084-.385.194-.288a1.843,1.843,0,0,0,1.22-.051,1.878,1.878,0,0,0,.187-.091,1.314,1.314,0,0,0,.519-.439.431.431,0,0,0,.069-.282.076.076,0,0,1,0-.024c0-.014-.014-.026-.012-.035a.463.463,0,0,1-.03-.043.343.343,0,0,0-.146-.13.786.786,0,0,0-.369-.088,1.667,1.667,0,0,0-.46.056,2.335,2.335,0,0,0-.233.053l-.046.02a.325.325,0,0,0-.075.025c-.015.007-.036.008-.045.02l-.273-.284a2.861,2.861,0,0,1,.756-.2,1.51,1.51,0,0,1,1.229.3.611.611,0,0,1,.02.842,1.627,1.627,0,0,1-.629.5" transform="translate(1.108 1.412)" fill="#a6a6a6"/>
        <path id="Trazado_246120" data-name="Trazado 246120" d="M133.852,169.314a2.466,2.466,0,0,1-1.874.144c-.285-.093-.084-.384.194-.287a1.843,1.843,0,0,0,1.22-.051,1.873,1.873,0,0,0,.187-.091,1.308,1.308,0,0,0,.519-.44.428.428,0,0,0,.069-.281.076.076,0,0,1,0-.024c0-.014-.014-.026-.012-.035a.461.461,0,0,1-.03-.043.343.343,0,0,0-.146-.13.786.786,0,0,0-.369-.088,1.667,1.667,0,0,0-.46.056,2.333,2.333,0,0,0-.233.053l-.046.02a.325.325,0,0,0-.075.025c-.015.007-.036.008-.045.02l-.273-.284a2.862,2.862,0,0,1,.756-.2,1.51,1.51,0,0,1,1.229.3.611.611,0,0,1,.02.842,1.627,1.627,0,0,1-.629.5" transform="translate(1.121 1.425)" fill="#a6a6a6"/>
        <path id="Trazado_246121" data-name="Trazado 246121" d="M80.785,89.4c-10.735,14.639-17.339,34.482-16.806,38.944.587,4.91,6.694,21.691,13.442,29.271,1.781,2,16.656-13.039,14.842-15.255C88.77,138.1,82.016,125.686,81.82,122.919c-.183-2.559,4.281-18.749,5.688-28.005,1.351-8.892-1.729-12.32-6.723-5.509" transform="translate(0.543 0.729)" fill="#774442"/>
        <path id="Trazado_246122" data-name="Trazado 246122" d="M91.722,141.369s7.529,3.735,12.338,6.411c2.683,1.492,7.054,4.461,8.524,6.458,2.2,2.988,9.482,16.889,6.15,18.729-3.016,1.664-7.758-11.073-7.758-11.073s5.921,12.43,1.92,13.766-7.445-13.768-7.445-13.768,5.8,12.909,1.454,13.634c-3.283.548-7.172-12.956-7.172-12.956s4.905,11.129,1.554,11.839c-3.7.784-8.076-11.457-8.076-11.457-8.822.368-13.174-3.065-15.979-5.877-.679-.68,14.49-15.706,14.49-15.706" transform="translate(0.656 1.202)" fill="#774442"/>
        <path id="Trazado_246123" data-name="Trazado 246123" d="M108.934,157.328c.748,1.435,1.516,2.882,2.134,4.379s1.185,3.016,1.661,4.563a27.687,27.687,0,0,1,1.28,6.2,59.6,59.6,0,0,0-3.357-10.605c-.617-1.494-1.159-3.018-1.775-4.513-.016-.037.039-.055.057-.021" transform="translate(0.925 1.337)" fill="#263238"/>
        <path id="Trazado_246124" data-name="Trazado 246124" d="M103.535,159.444c.875,1.874,1.814,3.7,2.608,5.615s1.373,3.778,2.029,5.731c.05.15-.046.128-.1-.021-.734-1.925-1.561-3.649-2.318-5.565s-1.44-3.863-2.263-5.743c-.013-.029.033-.045.047-.017" transform="translate(0.88 1.355)" fill="#263238"/>
        <path id="Trazado_246125" data-name="Trazado 246125" d="M98.576,160.427a46.271,46.271,0,0,1,3.331,8.89c.043.151-.079.109-.133-.043-1.052-2.976-1.856-5.318-3.3-8.8-.023-.054.066-.11.1-.051" transform="translate(0.837 1.363)" fill="#263238"/>
        <path id="Trazado_246126" data-name="Trazado 246126" d="M70.367,104.453l15.85,3.823S88.649,97.149,88.15,90.3s-4.477-5.709-8.541-.4a156,156,0,0,0-9.242,14.549" transform="translate(0.598 0.727)" fill="#263238"/>
      </g>
    </g>
  </g>
</svg>
