<svg id="Grupo_245331" data-name="Grupo 245331" xmlns="http://www.w3.org/2000/svg" xmlns:xlink="http://www.w3.org/1999/xlink" width="419.934" height="414.233" viewBox="0 0 419.934 414.233">
  <defs>
    <clipPath id="clip-path">
      <rect id="Rectángulo_317573" data-name="Rectángulo 317573" width="419.934" height="414.233" fill="none"/>
    </clipPath>
    <clipPath id="clip-path-4">
      <rect id="Rectángulo_317567" data-name="Rectángulo 317567" width="202.369" height="309.119" fill="none"/>
    </clipPath>
    <clipPath id="clip-path-5">
      <rect id="Rectángulo_317568" data-name="Rectángulo 317568" width="102.792" height="289.952" fill="none"/>
    </clipPath>
    <clipPath id="clip-path-6">
      <rect id="Rectángulo_317570" data-name="Rectángulo 317570" width="3.19" height="3.191" fill="none"/>
    </clipPath>
    <clipPath id="clip-path-7">
      <rect id="Rectángulo_317571" data-name="Rectángulo 317571" width="1.595" height="1.595" fill="none"/>
    </clipPath>
  </defs>
  <g id="Grupo_245330" data-name="Grupo 245330" clip-path="url(#clip-path)">
    <g id="Grupo_245315" data-name="Grupo 245315">
      <g id="Grupo_245314" data-name="Grupo 245314" clip-path="url(#clip-path)">
        <path id="Trazado_246928" data-name="Trazado 246928" d="M310.319,378.082c-20.655-12.272-26.992-37.414-27.9-60.368-.153-3.831-.87-7.829.7-11.318s5.644-6.091,9.184-4.733c2.936,1.126,4.418,4.336,6.207,6.95a22.418,22.418,0,0,0,9.6,7.9c2.526,1.083,5.595,1.634,7.9.131,3.162-2.062,3.216-6.646,2.91-10.445q-.851-10.623-1.7-21.243c-.3-3.8-.6-7.679.313-11.374s3.281-7.239,6.822-8.52,8.168.476,9.206,4.14c.432,1.525.235,3.156.458,4.725s1.086,3.262,2.617,3.591c1.55.334,2.992-.856,4.046-2.053,3.64-4.127,5.937-9.268,8.063-14.368s4.168-10.313,7.42-14.761,7.93-8.13,13.35-8.841,11.47,2.222,13.241,7.465-.95,10.924-4.032,15.514a85.127,85.127,0,0,1-16.422,18.144c-1.135.939-2.367,1.953-2.721,3.4-.639,2.6,1.948,4.935,4.511,5.584,2.9.734,5.955.212,8.945.343s6.3,1.2,7.625,3.918c1.844,3.77-1.1,8.083-4.1,10.987a72.913,72.913,0,0,1-20.595,14.005c-2.721,1.229-5.6,2.344-7.707,4.475s-3.219,5.648-1.659,8.224,5.12,3.179,8.009,2.419,5.393-2.543,8.105-3.8c5.079-2.358,11.851-2.5,15.531,1.773,2.418,2.8,2.916,6.923,2.065,10.541a27.808,27.808,0,0,1-5.07,9.82c-7.647,10.441-17.78,19.139-29.589,24.236s-22.95,7.063-35.319,3.548" transform="translate(36.629 30.821)" fill="#f5f5f5"/>
        <path id="Trazado_246929" data-name="Trazado 246929" d="M310.426,378.843c.159-9.131-1.427-4.071,1.112-15.867a341.383,341.383,0,0,1,10.814-37.669q1.691-4.927,3.341-9.728c1.1-3.191,2.2-6.355,3.461-9.383a170.7,170.7,0,0,1,8.249-16.987c2.886-5.276,5.815-10.178,8.588-14.741s5.459-8.76,8.061-12.484a135.252,135.252,0,0,1,13.57-16.645c1.75-1.834,3.154-3.211,4.118-4.132l1.1-1.039a2.73,2.73,0,0,1,.393-.337,2.73,2.73,0,0,1-.342.389l-1.054,1.09c-.931.952-2.3,2.36-4.021,4.219a143.09,143.09,0,0,0-13.361,16.743c-2.568,3.732-5.213,7.937-7.971,12.5s-5.657,9.478-8.52,14.75a172.7,172.7,0,0,0-8.179,16.937c-1.25,3.013-2.332,6.151-3.436,9.349s-2.21,6.442-3.338,9.724a350.008,350.008,0,0,0-10.845,37.579c-2.566,11.751-1.025,6.641-1.247,15.739" transform="translate(40.259 31.138)" fill="#e0e0e0"/>
        <path id="Trazado_246930" data-name="Trazado 246930" d="M328.131,303.291a7.8,7.8,0,0,1-.491-1.594c-.277-1.036-.628-2.547-1.035-4.42-.817-3.745-1.768-8.956-2.8-14.7s-2.051-10.933-2.922-14.655c-.43-1.862-.794-3.367-1.059-4.4a7.676,7.676,0,0,1-.334-1.634,7.52,7.52,0,0,1,.6,1.557c.346,1.016.784,2.5,1.277,4.358,1,3.7,2.1,8.893,3.132,14.649,1,5.676,1.9,10.81,2.593,14.732.323,1.77.6,3.263.816,4.459a7.592,7.592,0,0,1,.225,1.654" transform="translate(41.48 34.001)" fill="#e0e0e0"/>
        <path id="Trazado_246931" data-name="Trazado 246931" d="M375.334,287.256a10.537,10.537,0,0,1-1.932.377c-1.246.2-3.051.49-5.267.914-4.44.813-10.535,2.152-17.194,3.924s-12.615,3.654-16.884,5.132c-2.141.723-3.857,1.356-5.047,1.785a10.464,10.464,0,0,1-1.872.609,10.625,10.625,0,0,1,1.773-.865c1.16-.508,2.855-1.215,4.98-2,4.239-1.6,10.193-3.556,16.871-5.345a172.8,172.8,0,0,1,17.29-3.731c2.236-.363,4.056-.574,5.317-.694a10.353,10.353,0,0,1,1.966-.1" transform="translate(42.474 37.293)" fill="#e0e0e0"/>
        <path id="Trazado_246932" data-name="Trazado 246932" d="M315.2,354.953a2.522,2.522,0,0,1-.38-.572l-.966-1.706c-.833-1.486-1.981-3.666-3.365-6.379-2.771-5.424-6.363-13.038-10.213-21.493s-7.37-16.094-10.024-21.569c-1.3-2.661-2.367-4.849-3.161-6.476-.341-.706-.621-1.288-.851-1.767a2.523,2.523,0,0,1-.255-.639,2.541,2.541,0,0,1,.38.573c.262.461.58,1.024.966,1.7.833,1.486,1.982,3.666,3.365,6.379,2.772,5.425,6.363,13.038,10.215,21.5s7.368,16.09,10.022,21.566c1.3,2.66,2.368,4.848,3.162,6.474.34.706.62,1.29.851,1.767a2.559,2.559,0,0,1,.254.639" transform="translate(37.131 38.217)" fill="#e0e0e0"/>
        <path id="Trazado_246933" data-name="Trazado 246933" d="M375.24,325.221a2.623,2.623,0,0,1-.625.313l-1.839.772-6.788,2.767c-5.731,2.339-13.609,5.658-22.31,9.337s-16.621,6.933-22.4,9.152c-2.89,1.112-5.238,1.986-6.873,2.558-.756.259-1.379.472-1.886.647a2.617,2.617,0,0,1-.675.18,2.665,2.665,0,0,1,.625-.315l1.839-.769,6.787-2.767c5.732-2.336,13.611-5.658,22.313-9.339s16.616-6.93,22.4-9.151c2.89-1.111,5.238-1.985,6.874-2.557l1.886-.647a2.606,2.606,0,0,1,.674-.18" transform="translate(40.488 42.224)" fill="#e0e0e0"/>
        <path id="Trazado_246934" data-name="Trazado 246934" d="M84.01,286.791h0a1.808,1.808,0,0,0,1.809,1.809h3.217v32.769l-19.763,43.9a7.5,7.5,0,0,0,6.84,10.58H115.4a7.5,7.5,0,0,0,6.831-10.6L101.7,319.962V288.8h2.915a1.909,1.909,0,0,0,0-3.819h-18.8a1.809,1.809,0,0,0-1.809,1.809" transform="translate(8.907 37.001)" fill="#ebebeb"/>
        <path id="Trazado_246935" data-name="Trazado 246935" d="M141.58,373.678H108.338a6.921,6.921,0,0,1-6.921-6.92v-57.1H153.8l-5.3,5.262v51.835a6.92,6.92,0,0,1-6.92,6.92" transform="translate(13.167 40.205)" fill="#f5f5f5"/>
        <path id="Trazado_246936" data-name="Trazado 246936" d="M114.026,323.987a32,32,0,0,1-6.11.294,31.993,31.993,0,0,1-6.111-.294,31.985,31.985,0,0,1,6.111-.294,31.988,31.988,0,0,1,6.11.294" transform="translate(13.218 42.027)" fill="#e0e0e0"/>
        <path id="Trazado_246937" data-name="Trazado 246937" d="M107.229,317.975a6.51,6.51,0,0,1-2.713.294,6.5,6.5,0,0,1-2.712-.294,6.5,6.5,0,0,1,2.712-.294,6.508,6.508,0,0,1,2.713.294" transform="translate(13.218 41.246)" fill="#e0e0e0"/>
        <path id="Trazado_246938" data-name="Trazado 246938" d="M114.026,335.929a31.989,31.989,0,0,1-6.11.294,31.987,31.987,0,0,1-6.111-.294,32,32,0,0,1,6.111-.294,32,32,0,0,1,6.11.294" transform="translate(13.218 43.577)" fill="#e0e0e0"/>
        <path id="Trazado_246939" data-name="Trazado 246939" d="M107.229,329.916a6.508,6.508,0,0,1-2.713.294,6.5,6.5,0,0,1-2.712-.294,6.5,6.5,0,0,1,2.712-.294,6.509,6.509,0,0,1,2.713.294" transform="translate(13.218 42.797)" fill="#e0e0e0"/>
        <path id="Trazado_246940" data-name="Trazado 246940" d="M114.026,347.87a31.989,31.989,0,0,1-6.11.294,31.987,31.987,0,0,1-6.111-.294,31.987,31.987,0,0,1,6.111-.294,31.989,31.989,0,0,1,6.11.294" transform="translate(13.218 45.128)" fill="#e0e0e0"/>
        <path id="Trazado_246941" data-name="Trazado 246941" d="M107.229,341.857a6.508,6.508,0,0,1-2.713.294,6.5,6.5,0,0,1-2.712-.294,6.5,6.5,0,0,1,2.712-.294,6.509,6.509,0,0,1,2.713.294" transform="translate(13.218 44.347)" fill="#e0e0e0"/>
        <path id="Trazado_246942" data-name="Trazado 246942" d="M114.026,359.812a32,32,0,0,1-6.11.294,31.994,31.994,0,0,1-6.111-.294,31.985,31.985,0,0,1,6.111-.294,31.988,31.988,0,0,1,6.11.294" transform="translate(13.218 46.678)" fill="#e0e0e0"/>
        <path id="Trazado_246943" data-name="Trazado 246943" d="M107.229,353.8a6.51,6.51,0,0,1-2.713.294,6.5,6.5,0,0,1-2.712-.294,6.5,6.5,0,0,1,2.712-.294,6.508,6.508,0,0,1,2.713.294" transform="translate(13.218 45.897)" fill="#e0e0e0"/>
      </g>
    </g>
    <g id="Grupo_245329" data-name="Grupo 245329">
      <g id="Grupo_245328" data-name="Grupo 245328" clip-path="url(#clip-path)">
        <path id="Trazado_246944" data-name="Trazado 246944" d="M267.4,143.8l-48.786-2.238c-.275-5.175,2.367-37.2,2.367-37.2s-18.44-2.866-18.668-21.3,2.969-60.774,2.969-60.774c21.343-9.172,47.343-10.73,65.751,3.439l2.733,2.1Z" transform="translate(26.266 1.978)" fill="#b78876"/>
        <path id="Trazado_246945" data-name="Trazado 246945" d="M218.814,94.664s11.652.948,24.036-6.831c0,0-5.682,13.269-24.079,11.608Z" transform="translate(28.404 11.404)" fill="#aa6550"/>
        <path id="Trazado_246946" data-name="Trazado 246946" d="M262.418,47.464c.313-.137,12.667-3.747,12.264,8.858s-12.974,9.6-12.985,9.239.721-18.1.721-18.1" transform="translate(33.977 6.087)" fill="#b78876"/>
        <path id="Trazado_246947" data-name="Trazado 246947" d="M265.242,60.433c.056-.038.215.16.581.342a2.189,2.189,0,0,0,1.639.086c1.348-.445,2.536-2.524,2.67-4.794a7.257,7.257,0,0,0-.514-3.164,2.535,2.535,0,0,0-1.6-1.738,1.117,1.117,0,0,0-1.315.56c-.18.347-.108.6-.175.62-.037.031-.264-.219-.147-.737a1.408,1.408,0,0,1,.522-.774,1.66,1.66,0,0,1,1.225-.282,3.089,3.089,0,0,1,2.231,2.028,7.466,7.466,0,0,1,.649,3.538c-.162,2.536-1.538,4.872-3.377,5.341a2.357,2.357,0,0,1-2-.4c-.381-.323-.437-.608-.393-.629" transform="translate(34.436 6.561)" fill="#aa6550"/>
        <path id="Trazado_246948" data-name="Trazado 246948" d="M208.537,47.319a2.633,2.633,0,0,0,2.539,2.656A2.517,2.517,0,0,0,213.79,47.6a2.633,2.633,0,0,0-2.535-2.659,2.521,2.521,0,0,0-2.717,2.376" transform="translate(27.075 5.835)" fill="#263238"/>
        <path id="Trazado_246949" data-name="Trazado 246949" d="M208.034,44.743c.325.343,2.32-1.133,5.153-1.125,2.83-.033,4.91,1.425,5.218,1.077.15-.153-.181-.773-1.088-1.431a7.225,7.225,0,0,0-4.176-1.288,6.933,6.933,0,0,0-4.1,1.325c-.872.668-1.167,1.289-1.006,1.443" transform="translate(27.005 5.45)" fill="#263238"/>
        <path id="Trazado_246950" data-name="Trazado 246950" d="M233.1,47.908a2.634,2.634,0,0,0,2.539,2.656,2.518,2.518,0,0,0,2.714-2.374,2.635,2.635,0,0,0-2.536-2.659,2.52,2.52,0,0,0-2.716,2.376" transform="translate(30.264 5.911)" fill="#263238"/>
        <path id="Trazado_246951" data-name="Trazado 246951" d="M232.683,45.211c.327.343,2.324-1.132,5.155-1.125,2.83-.033,4.909,1.425,5.216,1.078.151-.154-.179-.773-1.087-1.433a7.228,7.228,0,0,0-4.176-1.288,6.943,6.943,0,0,0-4.1,1.325c-.869.669-1.165,1.289-1.006,1.443" transform="translate(30.205 5.511)" fill="#263238"/>
        <path id="Trazado_246952" data-name="Trazado 246952" d="M224.407,66.2c.012-.162-1.748-.465-4.6-.83-.723-.075-1.408-.218-1.53-.712a3.683,3.683,0,0,1,.482-2.144q1.02-2.627,2.14-5.509c2.971-7.843,5.122-14.294,4.805-14.41s-2.983,6.145-5.954,13.99c-.715,1.934-1.4,3.777-2.05,5.542a4.188,4.188,0,0,0-.375,2.839,1.813,1.813,0,0,0,1.19,1.058,4.927,4.927,0,0,0,1.228.172c2.872.154,4.654.167,4.665.006" transform="translate(28.199 5.53)" fill="#263238"/>
        <path id="Trazado_246953" data-name="Trazado 246953" d="M231.995,65.225c-.461-.027-.467,3.048-3.1,5.231s-5.906,1.845-5.929,2.274c-.043.193.73.6,2.113.635a7.652,7.652,0,0,0,4.951-1.724,6.672,6.672,0,0,0,2.4-4.386c.117-1.286-.226-2.048-.436-2.03" transform="translate(28.949 8.468)" fill="#263238"/>
        <path id="Trazado_246954" data-name="Trazado 246954" d="M232.033,35.31c.278.771,3.107.406,6.431.806,3.333.334,6.014,1.307,6.455.617.2-.331-.27-1.055-1.356-1.8a11.268,11.268,0,0,0-9.816-1.084c-1.221.493-1.835,1.1-1.714,1.463" transform="translate(30.124 4.309)" fill="#263238"/>
        <path id="Trazado_246955" data-name="Trazado 246955" d="M208.958,37.505c.5.643,2.449-.025,4.8-.055,2.346-.114,4.334.432,4.792-.241.2-.328-.112-.972-.981-1.581a6.943,6.943,0,0,0-7.726.238c-.83.662-1.1,1.324-.882,1.638" transform="translate(27.121 4.488)" fill="#263238"/>
        <path id="Trazado_246956" data-name="Trazado 246956" d="M272.411,15.357c-2.434-1.743-5.342-3.54-8.1-2.93.018-4.671-6.884-10.143-12.143-11.8-6.154-1.94-14.261,1.06-20.386,3.091C227.923,5,224.071,6.787,220,6.62A27.537,27.537,0,0,1,212.1,4.605a20.161,20.161,0,0,0-7.977-1.575c-2.724.185-5.528,1.635-6.562,4.161a5,5,0,0,0,1.758,5.848c-3.266-.714-7.122,1.613-7.611,5.011-.441,3.064,1.991,6.055,4.919,6.791A3.426,3.426,0,0,0,194.8,28c.219,2.214,2.227,3.826,4.264,4.719,5.2,2.285,11.262,1.555,16.645-.256s10.374-4.633,15.71-6.578,14.273-5.436,19.629-3.548a9.588,9.588,0,0,1,2.014,1.026h0l.1.079a14.35,14.35,0,0,1,5.333,9.278c.018.129.035.251.051.367.713,5.2.584,10.5,1.348,15.69s2.564,10.48,6.405,14.06c1.581,1.473,4.375,2.486,5.674.76a4.445,4.445,0,0,0,.65-2.384c.972-12.56,4.4-23.705,4.379-36.841a11.073,11.073,0,0,0-4.6-9.013" transform="translate(24.884 0)" fill="#263238"/>
        <path id="Trazado_246957" data-name="Trazado 246957" d="M260.611,12.075c-.034.058-.838-.5-2.455-1.149a18.627,18.627,0,0,0-7.209-1.213,30.016,30.016,0,0,0-10.611,2.327c-3.846,1.495-7.838,3.7-12.186,5.723a61.3,61.3,0,0,1-23.766,5.684,55.233,55.233,0,0,1-7.435-.254c-.876-.072-1.549-.19-2.007-.253a3.138,3.138,0,0,1-.693-.136,3.167,3.167,0,0,1,.706.018c.462.025,1.137.105,2.011.142a65.272,65.272,0,0,0,7.4.067,63.3,63.3,0,0,0,23.537-5.8c4.32-2.01,8.336-4.209,12.236-5.693a29.719,29.719,0,0,1,10.8-2.238,18.028,18.028,0,0,1,7.3,1.417,11.694,11.694,0,0,1,1.792.95,3.2,3.2,0,0,1,.575.411" transform="translate(25.22 1.207)" fill="#455a64"/>
        <path id="Trazado_246958" data-name="Trazado 246958" d="M198.738,11.1a9.208,9.208,0,0,0,2.056,1.66,13.274,13.274,0,0,0,7.022,1.224,51.484,51.484,0,0,0,10.613-1.781,51.877,51.877,0,0,0,6.013-2.073c2.04-.838,4.081-1.879,6.182-2.94,4.175-2.126,8.375-4.074,12.543-4.4A18.262,18.262,0,0,1,259.162,10.1a14.432,14.432,0,0,1,1.056,1.692,3.073,3.073,0,0,1,.3.629c-.058.033-.488-.826-1.537-2.184A18.619,18.619,0,0,0,253.5,5.587a17.763,17.763,0,0,0-10.279-2.254c-4.039.342-8.154,2.257-12.328,4.385-2.1,1.06-4.158,2.106-6.227,2.947a50.822,50.822,0,0,1-6.09,2.064,49.675,49.675,0,0,1-10.74,1.673,13.088,13.088,0,0,1-7.153-1.442,6.888,6.888,0,0,1-1.54-1.286,2.918,2.918,0,0,1-.4-.572" transform="translate(25.803 0.354)" fill="#455a64"/>
        <path id="Trazado_246959" data-name="Trazado 246959" d="M268.283,37.969a5.183,5.183,0,0,1-1.4-.067,17.846,17.846,0,0,1-3.722-.868,20.649,20.649,0,0,1-5.066-2.567,20.947,20.947,0,0,1-2.591-2.15,12.5,12.5,0,0,1-2.275-2.835,17.9,17.9,0,0,1-2.1-6.641,18.661,18.661,0,0,1,.131-5.68,13.455,13.455,0,0,1,1.21-3.632,5.251,5.251,0,0,1,.773-1.171,17.966,17.966,0,0,0-1.573,4.873,19.383,19.383,0,0,0,0,5.54,17.988,17.988,0,0,0,2.07,6.416,12.184,12.184,0,0,0,2.17,2.72,20.909,20.909,0,0,0,7.394,4.736,36.843,36.843,0,0,0,4.979,1.325" transform="translate(32.586 1.605)" fill="#455a64"/>
        <path id="Trazado_246960" data-name="Trazado 246960" d="M268.8,29.2a2.922,2.922,0,0,1-.943-.214,19.983,19.983,0,0,1-2.46-.934,25.731,25.731,0,0,1-3.417-1.9c-.617-.4-1.252-.832-1.9-1.287a14.264,14.264,0,0,1-1.957-1.558A19.13,19.13,0,0,1,253.6,15.9,13.293,13.293,0,0,1,253,13.328a2.7,2.7,0,0,1-.016-.969c.1-.011.212,1.36,1,3.4a20.719,20.719,0,0,0,4.535,7.124,32.178,32.178,0,0,0,3.75,2.813,30.789,30.789,0,0,0,3.3,1.975c1.956.987,3.256,1.427,3.222,1.522" transform="translate(32.843 1.605)" fill="#455a64"/>
        <path id="Trazado_246961" data-name="Trazado 246961" d="M170.226,288.238l3.393,88.571h74.453l-.3-25.373,8.744,25.373h77.1l-24.775-87.633Z" transform="translate(22.101 37.423)" fill="#455a64"/>
        <path id="Trazado_246962" data-name="Trazado 246962" d="M223.292,110h0c-1.885.227-3.29.642-6.426,1.012l-.612.073a46.741,46.741,0,0,0-40.7,49.5l4.841,34.784s-10.018,114.512-9.65,129.791H311.02l.113-64.111L311.1,243.6l-.772-47.336L329.18,145c-3.913-13.158-17.994-27.409-37.559-31.157-6.212-1.19-12.262-3.439-19.565-3.749l-.007.006c-13.715,10.834-34.79,10.4-48.757-.1" transform="translate(22.168 14.282)" fill="#baeaff"/>
        <path id="Trazado_246963" data-name="Trazado 246963" d="M265.782,146.644c0,.163-11.647.507-26.018.769s-26.028.345-26.03.182,11.644-.507,26.02-.771,26.025-.343,26.028-.181" transform="translate(27.75 19.029)" fill="#fafafa"/>
        <path id="Trazado_246964" data-name="Trazado 246964" d="M265.582,153.914c0,.163-11.713.032-26.151-.291s-26.143-.717-26.14-.879,11.711-.033,26.153.291,26.141.716,26.138.879" transform="translate(27.693 19.822)" fill="#fafafa"/>
        <path id="Trazado_246965" data-name="Trazado 246965" d="M67.993,93.034s56.153,67.329,60.6,71.141,70.6-36.088,70.6-36.088v.012c7.259-6.462,13.316-10.215,21.4-12.61l.323-.1v.01a95.387,95.387,0,0,1,15.385-2.877c1-.119,1.917-.221,2.793-.317L230.17,268.778l.456.243s-.194.3-.515.785l-3.243,56.863-.056,0,7.06,75.482H175.587L186,301.468c.31-3.293.6-7.2.864-11.579l7.425-74.757L196.352,198s-56.936,22.728-76.107,21.832c-24.852-1.16-83.516-101.595-83.516-101.595Z" transform="translate(4.769 12.079)" fill="#baeaff"/>
        <path id="Trazado_246966" data-name="Trazado 246966" d="M348.173,260.53,321.481,144.305c-3.911-13.159-17.993-27.41-37.558-31.159-6.213-1.19-13.937-2.838-21.239-3.148l-.327,123.19-2.263-.322-14.336,25.68,16.516,6.323-.123,46.509.443,13.088,10.456,75.484h51.342l-21-114.443.007-4.029,7.181,3.237a27.54,27.54,0,0,0,26.111-1.913,28.132,28.132,0,0,0,10.75-13.3,14.868,14.868,0,0,0,.736-8.974" transform="translate(31.908 14.282)" fill="#baeaff"/>
        <path id="Trazado_246967" data-name="Trazado 246967" d="M67.993,93.034s56.153,67.329,60.6,71.141,70.6-36.088,70.6-36.088v.012c7.259-6.462,13.316-10.215,21.4-12.61l.323-.1v.01a95.387,95.387,0,0,1,15.385-2.877c1-.119,1.917-.221,2.793-.317L230.17,268.778l.456.243s-.194.3-.515.785l-3.243,56.863-.056,0,7.06,75.482H175.587L186,301.468c.31-3.293.6-7.2.864-11.579l7.425-74.757L196.352,198s-56.936,22.728-76.107,21.832c-24.852-1.16-83.516-101.595-83.516-101.595Z" transform="translate(4.769 12.079)" fill="#baeaff"/>
        <path id="Trazado_246968" data-name="Trazado 246968" d="M348.173,260.53,321.481,144.305c-3.911-13.159-17.993-27.41-37.558-31.159-6.213-1.19-13.937-2.838-21.239-3.148l-.327,123.19-2.263-.322-14.336,25.68,16.516,6.323-.123,46.509.443,13.088,10.456,75.484h51.342l-21-114.443.007-4.029,7.181,3.237a27.54,27.54,0,0,0,26.111-1.913,28.132,28.132,0,0,0,10.75-13.3,14.868,14.868,0,0,0,.736-8.974" transform="translate(31.908 14.282)" fill="#baeaff"/>
        <g id="Grupo_245318" data-name="Grupo 245318" transform="translate(41.498 105.113)" opacity="0.8">
          <g id="Grupo_245317" data-name="Grupo 245317">
            <g id="Grupo_245316" data-name="Grupo 245316" clip-path="url(#clip-path-4)">
              <path id="Trazado_246969" data-name="Trazado 246969" d="M67.993,93.034s56.153,67.329,60.6,71.141,70.6-36.088,70.6-36.088v.012c7.259-6.462,13.316-10.215,21.4-12.61l.323-.1v.01a95.387,95.387,0,0,1,15.385-2.877c1-.119,1.917-.221,2.793-.317L230.17,268.778l.456.243s-.194.3-.515.785l-3.243,56.863-.056,0,7.06,75.482H175.587L186,301.468c.31-3.293.6-7.2.864-11.579l7.425-74.757L196.352,198s-56.936,22.728-76.107,21.832c-24.852-1.16-83.516-101.595-83.516-101.595Z" transform="translate(-36.729 -93.034)" fill="#fff"/>
            </g>
          </g>
        </g>
        <g id="Grupo_245321" data-name="Grupo 245321" transform="translate(277.666 124.281)" opacity="0.8">
          <g id="Grupo_245320" data-name="Grupo 245320">
            <g id="Grupo_245319" data-name="Grupo 245319" clip-path="url(#clip-path-5)">
              <path id="Trazado_246970" data-name="Trazado 246970" d="M348.173,260.53,321.481,144.305c-3.911-13.159-17.993-27.41-37.558-31.159-6.213-1.19-13.937-2.838-21.239-3.148l-.327,123.19-2.263-.322-14.336,25.68,16.516,6.323-.123,46.509.443,13.088,10.456,75.484h51.342l-21-114.443.007-4.029,7.181,3.237a27.54,27.54,0,0,0,26.111-1.913,28.132,28.132,0,0,0,10.75-13.3,14.868,14.868,0,0,0,.736-8.974" transform="translate(-245.758 -109.999)" fill="#fff"/>
            </g>
          </g>
        </g>
        <path id="Trazado_246971" data-name="Trazado 246971" d="M270.323,233.533a.953.953,0,0,1,.062-.24c.06-.181.134-.408.228-.689q.33-.958.919-2.657c.8-2.321,1.935-5.712,3.192-10.028a140.434,140.434,0,0,0,3.645-15.6,88.733,88.733,0,0,0,1.3-20.2l.32.261L268.917,186l-1.378.2,1.184-.738a36.41,36.41,0,0,0,8.3-6.4,14.509,14.509,0,0,0,2.074-3,11.626,11.626,0,0,0,1.072-3.408,19.232,19.232,0,0,0-.674-7.019l-3.3-13.2c-2.134-8.407-4.236-15.93-6.2-22.187s-3.78-11.244-5.1-14.666c-.65-1.716-1.184-3.036-1.541-3.933l-.4-1.026a1.773,1.773,0,0,1-.117-.357,1.757,1.757,0,0,1,.173.334c.114.254.262.585.45,1,.393.884.961,2.191,1.644,3.895,1.383,3.4,3.257,8.378,5.28,14.626s4.161,13.773,6.326,22.178c1.064,4.209,2.181,8.625,3.339,13.2a19.742,19.742,0,0,1,.694,7.233,12.184,12.184,0,0,1-1.126,3.591,15.15,15.15,0,0,1-2.158,3.125,36.811,36.811,0,0,1-8.433,6.506l-.194-.536,11.074-1.6.3-.044.016.305a87.966,87.966,0,0,1-1.386,20.318,135.015,135.015,0,0,1-3.78,15.619c-1.306,4.311-2.5,7.69-3.351,9.992-.421,1.154-.774,2.031-1.006,2.628-.112.275-.2.5-.273.672a.918.918,0,0,1-.107.223" transform="translate(34.126 14.317)" fill="#263238"/>
        <path id="Trazado_246972" data-name="Trazado 246972" d="M299.449,229.987c-.162.017-1.742-13.844-3.531-30.954s-3.106-31-2.944-31.02,1.742,13.842,3.53,30.959,3.107,31,2.945,31.015" transform="translate(38.037 21.814)" fill="#263238"/>
        <path id="Trazado_246973" data-name="Trazado 246973" d="M306.086,268.9a1.3,1.3,0,0,1-.279-.086l-.8-.3-3.088-1.207-11.5-4.594-39.387-15.935-.24-.1.073-.249c1.815-6.069,3.754-12.563,5.755-19.257.87-2.9,1.729-5.77,2.54-8.477l.069-.233.241.026,49.94,5.2,14.856,1.609,4.009.462,1.037.134a1.761,1.761,0,0,1,.351.063,1.645,1.645,0,0,1-.357-.008l-1.043-.079-4.019-.359-14.875-1.432-49.959-5.014.311-.207-2.536,8.478c-2.008,6.693-3.954,13.184-5.773,19.252l-.165-.346,39.309,16.127,11.434,4.749,3.053,1.295.783.346a1.262,1.262,0,0,1,.26.133" transform="translate(32.562 28.365)" fill="#263238"/>
        <path id="Trazado_246974" data-name="Trazado 246974" d="M208.287,258.987a1.96,1.96,0,0,1-.178-.339c-.12-.254-.277-.592-.476-1.02-.4-.906-1.047-2.219-1.756-3.97a147.121,147.121,0,0,1-5.405-15.144,155.137,155.137,0,0,1-6.158-53.465l.019-.317.315.046,9.579,1.393,1.494.218-.2.541a43.879,43.879,0,0,1-7.03-5.074,14.352,14.352,0,0,1-4.476-7.12,17.354,17.354,0,0,1,.456-8.112q.951-3.85,1.975-7.49c2.73-9.706,5.763-18.256,8.408-25.381s4.942-12.828,6.516-16.768c.787-1.942,1.4-3.462,1.834-4.527l.49-1.171a2.308,2.308,0,0,1,.186-.392,2.425,2.425,0,0,1-.131.414c-.107.295-.252.689-.436,1.192-.408,1.074-.989,2.608-1.732,4.567-1.509,3.966-3.733,9.692-6.34,16.828s-5.583,15.69-8.276,25.383c-.671,2.422-1.325,4.919-1.95,7.474a16.83,16.83,0,0,0-.442,7.851,13.789,13.789,0,0,0,4.316,6.825,43.435,43.435,0,0,0,6.938,5l1.218.747-1.413-.206-1.494-.217-9.579-1.4.334-.271a157.513,157.513,0,0,0,5.951,53.318,160.356,160.356,0,0,0,5.225,15.174c.678,1.761,1.293,3.088,1.659,4.008.179.437.32.781.426,1.042a1.978,1.978,0,0,1,.128.362" transform="translate(25.149 14.398)" fill="#263238"/>
        <rect id="Rectángulo_317569" data-name="Rectángulo 317569" width="21.769" height="7.316" transform="translate(301.162 205.911)" fill="#455a64"/>
        <path id="Trazado_246975" data-name="Trazado 246975" d="M318.829,218.418c-.032.1-1.246-.289-3.263-.551a22.631,22.631,0,0,0-15.139,3.432c-1.706,1.107-2.633,1.983-2.706,1.9-.028-.029.183-.269.591-.679a14.467,14.467,0,0,1,1.881-1.569,20.677,20.677,0,0,1,15.436-3.5,14.5,14.5,0,0,1,2.374.6,2.662,2.662,0,0,1,.826.358" transform="translate(38.654 28.195)" fill="#263238"/>
        <path id="Trazado_246976" data-name="Trazado 246976" d="M186.814,134.618a5.587,5.587,0,0,1-.079.936q-.127.993-.341,2.663c-.306,2.372-.738,5.7-1.267,9.795-1.043,8.325-2.472,19.73-4.05,32.33-1.584,12.63-3.055,24.06-4.222,32.319-.58,4.13-1.082,7.468-1.452,9.771q-.283,1.663-.451,2.648a5.467,5.467,0,0,1-.2.917,5.693,5.693,0,0,1,.08-.936q.127-.993.34-2.663c.307-2.372.738-5.7,1.267-9.793,1.043-8.326,2.472-19.733,4.052-32.336,1.583-12.626,3.054-24.054,4.221-32.313.581-4.131,1.082-7.468,1.453-9.772q.281-1.663.45-2.648a5.577,5.577,0,0,1,.2-.917" transform="translate(22.689 17.478)" fill="#263238"/>
        <path id="Trazado_246977" data-name="Trazado 246977" d="M63.336,103.064c.037.05-.24.228-.571.681a3.9,3.9,0,0,0-.705,2.205,3.835,3.835,0,0,0,1.3,3.027,3.6,3.6,0,0,0,5.518-3.439,3.835,3.835,0,0,0-2.143-2.5,3.9,3.9,0,0,0-2.29-.339c-.554.1-.835.268-.863.212a1.648,1.648,0,0,1,.811-.435,3.85,3.85,0,0,1,2.509.18,4.186,4.186,0,0,1,2.5,2.765,3.371,3.371,0,0,1-.246,2.279,4.481,4.481,0,0,1-3.987,2.485,3.372,3.372,0,0,1-2.153-.782,4.187,4.187,0,0,1-1.38-3.465,3.843,3.843,0,0,1,.943-2.332,1.636,1.636,0,0,1,.748-.537" transform="translate(8.003 13.287)" fill="#263238"/>
        <path id="Trazado_246978" data-name="Trazado 246978" d="M267.031,219.891l5.855-28.474H197.393l3.827,63.794s58.69-.1,56.824.073Z" transform="translate(25.629 24.853)" fill="#263238"/>
        <path id="Trazado_246979" data-name="Trazado 246979" d="M271.742,205.13h0a6.7,6.7,0,0,0-6.266,4.28c-1.046,2.722-2.575,5.9-4.272,6.828-3.133,1.709-8.544,3.073-11.392,1.679s-14.24-11.647-16.235-10.507-3.7,3.7-1.709,5.981,12.532,9.113,10.538,11.392-24.208-7.751-27.627-6.866-5.411,2.986-3.418,4.357,17.089,7.066,17.944,9.06c0,0-22.785-5.981-23.64-4.558s-2.279,3.7,0,4.558,21.93,5.98,23.64,6.836a41.408,41.408,0,0,0,8.783,2.562,93.83,93.83,0,0,1,9.178,2.912,20.108,20.108,0,0,0,14.17-.38l2.307-.94a9.045,9.045,0,0,0,5.616-8.918l-.467-7.769,2.486-6.41Z" transform="translate(26.543 26.633)" fill="#b78876"/>
        <path id="Trazado_246980" data-name="Trazado 246980" d="M68.782,99.726S57.645,80.89,55.014,78.917s-26.009-10.1-27.983-9.439S-3.021,75.413.268,78.7s22.863-.664,22.863-.664l2.657,1.273S8.871,82.3,5.334,84.419c-3.255,1.955-2.062,5.96,1.039,5.587s17.793-3.47,18.68-2.88S9.085,91.369,7.283,92.475c-2.426,1.488-2.6,5.846.489,5.581,1.82-.156,17.7-4.537,17.7-4.537S12.907,98.6,11.759,99.726c-1.878,1.843-.319,4.571,2.41,3.922C16.043,103.2,24.9,98.8,27.415,98.2c0,0,2.364.591,4.579,5.317S45.976,117.6,45.976,117.6Z" transform="translate(0 9.016)" fill="#b78876"/>
        <path id="Trazado_246981" data-name="Trazado 246981" d="M.287,77.894c-.045.153,1.869.915,5.154,1.333a30.441,30.441,0,0,0,5.806.146c2.148-.276,4.494-.647,6.962-1.029l5.239-.855-.317-.024c6.986,2.359,12.1,3.887,12.206,3.608s-4.849-2.282-11.8-4.805l-.14-.051-.179.027-5.2.79-6.881,1.124a37.327,37.327,0,0,1-5.622.137c-3.211-.168-5.187-.6-5.235-.4" transform="translate(0.037 9.896)" fill="#aa6550"/>
        <path id="Trazado_246982" data-name="Trazado 246982" d="M45.123,59.42h0a2.433,2.433,0,0,1-2.433,2.516h-2.3v61.489a7.049,7.049,0,1,1-14.1,0V62.005l-2.19.025a2.481,2.481,0,1,1-.029-4.961H42.69a2.435,2.435,0,0,1,2.433,2.351" transform="translate(2.804 7.41)" fill="#f5f5f5"/>
        <path id="Trazado_246983" data-name="Trazado 246983" d="M45.146,59.443c-.019,0-.016-.2-.121-.557a2.424,2.424,0,0,0-.957-1.3,2.383,2.383,0,0,0-1.12-.4c-.44-.018-.949,0-1.486,0l-3.725.029-10.191.053-3.077.012A2.694,2.694,0,0,0,23,57.568a2.339,2.339,0,0,0-1,1.115,2.289,2.289,0,0,0,.865,2.792,2.516,2.516,0,0,0,1.6.355l1.845-.026.226,0v.227c.018,15.805.043,36.653.07,59.439a15.59,15.59,0,0,0,.2,3.575,6.623,6.623,0,0,0,1.631,3.019,6.784,6.784,0,0,0,2.869,1.822,6.758,6.758,0,0,0,8.309-3.857,7.729,7.729,0,0,0,.514-3.223q0-1.688,0-3.349c.015-8.855.027-17.119.04-24.566.061-14.843.11-26.411.137-32.928v-.1h.1c1.018-.007,1.939.051,2.683-.009a2.356,2.356,0,0,0,1.565-.96,2.77,2.77,0,0,0,.482-1.443,2.144,2.144,0,0,1-.394,1.5A2.459,2.459,0,0,1,43.124,62c-.794.081-1.679.036-2.708.061l.105-.1c.026,6.517.075,18.084.136,32.928.012,7.447.025,15.711.04,24.566q0,1.661,0,3.349a8.316,8.316,0,0,1-.552,3.441,7.339,7.339,0,0,1-9.015,4.2,7.349,7.349,0,0,1-3.118-1.978,7.209,7.209,0,0,1-1.776-3.282,7.7,7.7,0,0,1-.214-1.878v-1.835c.027-22.787.052-43.634.07-59.439l.226.223-1.845.017a2.954,2.954,0,0,1-1.84-.435,2.705,2.705,0,0,1-1.007-3.306,2.741,2.741,0,0,1,1.186-1.3A3.089,3.089,0,0,1,24.47,56.9l3.077.012,10.191.053L41.463,57c.543.01,1.03,0,1.5.027a2.511,2.511,0,0,1,1.178.454,2.431,2.431,0,0,1,.946,1.391,1.718,1.718,0,0,1,.058.574" transform="translate(2.78 7.387)" fill="#263238"/>
        <path id="Trazado_246984" data-name="Trazado 246984" d="M32.668,125.319h0a5.273,5.273,0,0,0,5.273-5.273V79.1H27.395v40.95a5.274,5.274,0,0,0,5.273,5.273" transform="translate(3.557 10.269)" fill="#baeaff"/>
        <path id="Trazado_246985" data-name="Trazado 246985" d="M27.662,61.57A24.481,24.481,0,0,1,33,61.276a24.479,24.479,0,0,1,5.34.294,24.479,24.479,0,0,1-5.34.294,24.481,24.481,0,0,1-5.338-.294" transform="translate(3.591 7.956)" fill="#263238"/>
        <path id="Trazado_246986" data-name="Trazado 246986" d="M37.943,79.288A1.842,1.842,0,0,0,36.414,77.7a7.057,7.057,0,0,0-2.679.142l-5.174.751a1.731,1.731,0,0,0-.974.354.6.6,0,0,0,0,.911" transform="translate(3.555 10.077)" fill="#baeaff"/>
        <g id="Grupo_245324" data-name="Grupo 245324" transform="translate(36.472 93.796)" opacity="0.21">
          <g id="Grupo_245323" data-name="Grupo 245323">
            <g id="Grupo_245322" data-name="Grupo 245322" clip-path="url(#clip-path-6)">
              <path id="Trazado_246987" data-name="Trazado 246987" d="M32.281,84.612a1.6,1.6,0,1,0,1.6-1.6,1.6,1.6,0,0,0-1.6,1.6" transform="translate(-32.281 -83.017)" fill="#fff"/>
            </g>
          </g>
        </g>
        <g id="Grupo_245327" data-name="Grupo 245327" transform="translate(36.433 101.737)" opacity="0.21">
          <g id="Grupo_245326" data-name="Grupo 245326">
            <g id="Grupo_245325" data-name="Grupo 245325" clip-path="url(#clip-path-7)">
              <path id="Trazado_246988" data-name="Trazado 246988" d="M32.246,90.844a.8.8,0,1,0,.8-.8.8.8,0,0,0-.8.8" transform="translate(-32.246 -90.046)" fill="#fff"/>
            </g>
          </g>
        </g>
        <path id="Trazado_246989" data-name="Trazado 246989" d="M62.175,96.579c-1.546,1.485-4.134,1.168-5.989.093s-3.29-2.745-5.064-3.951c-5.3-3.605-12.836-2.6-17.959-6.458-.714-.538-1.425-1.425-1.053-2.237.346-.751,1.356-.854,2.183-.847l21.234.158" transform="translate(4.156 10.799)" fill="#b78876"/>
        <path id="Trazado_246990" data-name="Trazado 246990" d="M55.6,83.4A8.506,8.506,0,0,0,53.3,83.15c-1.478-.084-3.617-.165-6.26-.24l-9.286-.2-2.683-.04c-.853.052-1.987-.259-3.106.7a1.788,1.788,0,0,0-.314,1.984,3.679,3.679,0,0,0,1.088,1.355,13.852,13.852,0,0,0,2.692,1.6c3.856,1.707,7.776,1.966,11.049,2.962a15.989,15.989,0,0,1,4.389,1.911c1.247.818,2.3,1.822,3.359,2.646,2.065,1.766,4.483,2.369,6,2.012,1.565-.33,2.064-1.19,2.012-1.192a6.21,6.21,0,0,1-2.08.725,7.24,7.24,0,0,1-5.392-2.209c-.993-.834-2.01-1.885-3.34-2.816A16.475,16.475,0,0,0,46.8,90.2c-3.394-1.084-7.307-1.4-10.866-3A12.988,12.988,0,0,1,33.5,85.771c-.7-.541-1.046-1.285-.675-1.58.355-.384,1.331-.378,2.24-.364h2.684l9.288-.061c2.644-.034,4.784-.084,6.263-.145a8.532,8.532,0,0,0,2.3-.219" transform="translate(4.088 10.733)" fill="#aa6550"/>
      </g>
    </g>
  </g>
</svg>
