<svg id="Grupo_245332" data-name="Grupo 245332" xmlns="http://www.w3.org/2000/svg" xmlns:xlink="http://www.w3.org/1999/xlink" width="122.566" height="136.098" viewBox="0 0 122.566 136.098">
  <defs>
    <clipPath id="clip-path">
      <rect id="Rectángulo_317565" data-name="Rectángulo 317565" width="122.566" height="136.097" fill="none"/>
    </clipPath>
  </defs>
  <g id="Grupo_245312" data-name="Grupo 245312" clip-path="url(#clip-path)">
    <path id="Trazado_246907" data-name="Trazado 246907" d="M28.493,11.239C29,7.852,29.2,7.68,32.376,7.679c2.809,0,5.619-.026,8.428.014a1.865,1.865,0,0,0,1.988-1.112A11.472,11.472,0,0,1,53.553,0c4.818.006,8.435,2.311,10.809,6.577a2.467,2.467,0,0,0,1.767,1.053c2.8.112,5.617.049,8.426.05,3.37,0,3.427.048,4.029,3.466.618.03,1.273.088,1.929.089,5.844.008,11.687-.013,17.53.011,5.93.025,9.01,3.145,9.02,9.082q.015,8.515.03,17.028a1.152,1.152,0,0,0,.1.319c.1.024.249.1.307.062,4.992-3.614,8.777-1.669,12.4,1.182,2.94,2.313,3.471,6.452,1.473,9.943-4.465,7.8-9,15.557-13.438,23.373a6.7,6.7,0,0,0-.835,3.154c-.051,17.2-.033,34.4-.038,51.593,0,5.994-3.148,9.115-9.173,9.115q-44.416,0-88.832,0C3.181,136.1,0,132.919,0,127.024Q0,73.66,0,20.3c0-5.916,3.115-9.031,9.056-9.053,5.787-.021,11.574-.005,17.362-.005h2.071m66.2,84.9-.431-.181c-.5.847-.936,1.735-1.507,2.528a5.85,5.85,0,0,1-1.6,1.651c-3.57,2.128-7.175,4.2-10.79,6.248-2.349,1.333-3.753.486-3.771-2.263-.025-3.765-.1-7.534.042-11.294a8.978,8.978,0,0,1,1.06-3.954c5.368-9.483,10.846-18.9,16.26-28.361a4.719,4.719,0,0,0,.708-2.182c.045-11.071.017-22.143.053-33.214,0-1.183-.393-1.559-1.553-1.549-4.494.038-8.989,0-13.484,0a6.979,6.979,0,0,0-1.092.166c-.614,3.383-.672,3.43-4.182,3.43H32.433c-.562,0-1.127.023-1.685-.024a2.076,2.076,0,0,1-2.026-1.9c-.082-.488-.109-.986-.182-1.68H26.658q-6.069,0-12.137,0c-2.17,0-2.173.007-2.173,2.231q0,47.883,0,95.766v2.162H14.72q37.588,0,75.177,0c1.18,0,2.362-.058,3.539-.007.956.042,1.284-.344,1.27-1.278-.038-2.472-.01-4.946-.009-7.418q0-9.435,0-18.869m7.893-13.552c-1.8,2.684-3.613,5.113-3.538,8.664.232,11.01.088,22.029.083,33.044,0,3.186-.642,3.82-3.875,3.812-2.528-.006-5.055-.08-7.583-.081q-38.094-.01-76.187-.008c-2.686,0-3.439-.68-3.44-3.18q-.012-51.17,0-102.34c0-2.493.711-3.167,3.251-3.173,5.112-.011,10.226-.044,15.338.02,1.466.019,1.945-.47,1.947-1.946s-.447-1.955-1.93-1.937c-5.843.069-11.687.018-17.53.033-3.611.009-4.812,1.236-4.813,4.909q-.006,53.278,0,106.555c0,3.658,1.177,4.822,4.869,4.82q44.33-.033,88.659-.08c3.652,0,4.829-1.2,4.831-4.863q.007-21.328,0-42.656c0-.531-.051-1.062-.078-1.593M32.915,11.859c0,3.311.036,6.389-.019,9.466-.021,1.173.424,1.575,1.573,1.573q19.03-.035,38.061,0c1.124,0,1.621-.353,1.592-1.55q-.093-3.957,0-7.917c.025-1.152-.373-1.6-1.546-1.581-2.581.054-5.164.016-7.746.01-2.836-.006-2.885-.042-3.925-2.659a7.928,7.928,0,0,0-14.7-.084c-1.127,2.736-1.127,2.739-4.035,2.743-3.019,0-6.037,0-9.252,0M99.137,50.337l.589.189c.979-2.165,2.713-4.3,2.8-6.5.337-8.188.155-16.4.12-24.6-.01-2.265-1.263-3.646-3.511-3.7-6.4-.141-12.8-.174-19.2-.205a1.646,1.646,0,0,0-1.254.58,2.064,2.064,0,0,0,1.97,3.214c5.053-.038,10.1-.136,15.157-.143,2.527,0,3.311.83,3.316,3.372q.024,12.977.009,25.955v1.833m14.555-10.223c-2.447-.38-3.579.8-4.51,2.412Q95.8,65.743,82.4,88.948c-.27.467-.493.961-.779,1.523l2.256,1.308,29.813-51.665M89.784,95.159c.388-.62.726-1.127,1.03-1.653Q97.808,81.4,104.8,69.287q6.4-11.089,12.8-22.177a3.834,3.834,0,0,0-.274-4.885L87.508,93.869l2.276,1.29M85.94,98.106l-4.765-2.7v5.462l4.765-2.764" transform="translate(0 0)"/>
    <path id="Trazado_246908" data-name="Trazado 246908" d="M118.979,142.464q0,9.435,0,18.87c0,2.473-.028,4.946.01,7.418.014.934-.313,1.319-1.269,1.278-1.177-.051-2.359.007-3.539.007q-37.588,0-75.177,0H36.629v-2.162q0-47.883,0-95.766c0-2.224,0-2.229,2.174-2.231q6.068-.006,12.136,0h1.883c.073.694.1,1.192.182,1.68a2.076,2.076,0,0,0,2.026,1.9c.558.047,1.123.024,1.684.024H98.686c3.51,0,3.568-.047,4.182-3.43a6.979,6.979,0,0,1,1.092-.166c4.495,0,8.99.04,13.484,0,1.16-.01,1.557.367,1.553,1.549-.036,11.072-.008,22.143-.053,33.215a4.725,4.725,0,0,1-.708,2.182c-5.414,9.457-10.893,18.878-16.26,28.361a8.977,8.977,0,0,0-1.06,3.954c-.14,3.76-.067,7.529-.042,11.295.018,2.749,1.423,3.6,3.771,2.263,3.615-2.051,7.22-4.12,10.79-6.248a5.852,5.852,0,0,0,1.6-1.65c.571-.794,1.011-1.681,1.507-2.528l.432.181M64.831,111.357c0-1.8.033-3.6-.009-5.4-.046-1.952-.72-2.628-2.679-2.646q-5.225-.047-10.451,0c-2.046.015-2.771.728-2.784,2.728q-.036,5.227,0,10.454c.013,2,.717,2.711,2.779,2.731q5.225.052,10.451,0c1.993-.022,2.638-.678,2.684-2.642.041-1.741.008-3.484.009-5.227m0-22.142c0-1.85.042-3.7-.012-5.55-.053-1.8-.674-2.457-2.47-2.482q-5.463-.078-10.929,0c-1.748.023-2.482.76-2.5,2.463q-.06,5.465,0,10.932c.018,1.713.778,2.462,2.485,2.478q5.464.049,10.929,0c1.751-.015,2.432-.688,2.486-2.459.055-1.792.012-3.587.012-5.381M56.9,141.351h5.562a2.072,2.072,0,0,0,2.342-2.266q.051-5.647,0-11.3a2.071,2.071,0,0,0-2.316-2.291c-3.708,0-7.417-.021-11.125.009-1.627.013-2.427.751-2.448,2.341-.047,3.708-.034,7.418-.006,11.127a2.149,2.149,0,0,0,2.427,2.377c1.854,0,3.708,0,5.562,0m.131,6.34c-1.91,0-3.821-.03-5.731.009-1.645.034-2.368.725-2.386,2.379q-.062,5.564,0,11.128a2.119,2.119,0,0,0,2.315,2.326q5.647.036,11.293,0a2.035,2.035,0,0,0,2.269-2.172c.049-3.821.045-7.643.009-11.464a2.048,2.048,0,0,0-2.377-2.213c-1.8.02-3.6,0-5.394,0m22.954-14.2c-1.514,1.279-2.687,2.229-3.813,3.232-1.048.934-1.468,2.029-.418,3.226.887,1.011,2.135.907,3.346-.371,1.029-1.086,1.913-2.309,3.03-3.679,1.534,1.621,2.542,2.751,3.621,3.808,1.161,1.137,2.373,1.215,3.23.233.977-1.119.68-2.2-.32-3.106-1.155-1.05-2.373-2.03-3.827-3.263,1.6-1.484,2.774-2.528,3.9-3.621.985-.958,1.227-2.069.168-3.1s-2.177-.738-3.105.25c-1.071,1.14-2.07,2.347-3.4,3.867-1.378-1.552-2.387-2.754-3.469-3.886-.936-.979-2.062-1.253-3.111-.221s-.8,2.155.191,3.1c1.139,1.077,2.343,2.086,3.98,3.533m0-19.554c-1.112-1.241-2.079-2.4-3.134-3.471a2.043,2.043,0,1,0-2.915,2.851c1.513,1.577,3.067,3.115,4.632,4.64a1.952,1.952,0,0,0,2.875.179q5.957-5.317,11.824-10.735a1.862,1.862,0,0,0,.068-2.853,1.941,1.941,0,0,0-2.863-.095c-.439.346-.842.74-1.257,1.116-2.947,2.67-5.892,5.341-9.231,8.367m-.017,44.328c-1.009-1.154-1.853-2.2-2.787-3.165-1.174-1.208-2.543-1.368-3.365-.414-1.029,1.194-.606,2.256.4,3.244,1.366,1.336,2.69,2.715,4.06,4.046,1.331,1.292,2.252,1.32,3.651.075,2.267-2.017,4.5-4.069,6.749-6.109,1.414-1.284,2.842-2.554,4.231-3.866,1.195-1.129,1.356-2.32.429-3.225-1.139-1.113-2.228-.733-3.251.233-.367.347-.748.681-1.122,1.021l-9,8.16m.035-66.5c-1.132-1.248-2.109-2.4-3.172-3.472a2.044,2.044,0,1,0-2.863,2.9c1.533,1.566,3.077,3.124,4.657,4.642a1.968,1.968,0,0,0,2.89.09q5.9-5.284,11.729-10.657a1.871,1.871,0,0,0,.107-2.859,1.932,1.932,0,0,0-2.864-.132c-.311.238-.591.519-.882.783l-9.6,8.7" transform="translate(-24.282 -46.322)" fill="#eceff1"/>
    <path id="Trazado_246909" data-name="Trazado 246909" d="M111.063,113c.027.531.078,1.062.078,1.593q.007,21.327,0,42.656c0,3.668-1.178,4.859-4.831,4.863q-44.329.047-88.659.08c-3.692,0-4.869-1.162-4.869-4.82q-.007-53.277,0-106.555c0-3.672,1.2-4.9,4.813-4.909,5.843-.014,11.687.036,17.53-.033,1.484-.018,1.932.467,1.931,1.937s-.481,1.965-1.947,1.946C30,49.7,24.884,49.73,19.772,49.742c-2.54.006-3.25.68-3.251,3.173q-.012,51.17,0,102.34c0,2.5.754,3.18,3.44,3.181q38.094.007,76.187.007c2.528,0,5.055.074,7.583.081,3.233.008,3.874-.626,3.875-3.812.005-11.015.15-22.033-.083-33.044-.075-3.551,1.736-5.98,3.538-8.664" transform="translate(-8.473 -30.413)" fill="#837683"/>
    <path id="Trazado_246910" data-name="Trazado 246910" d="M97.606,20.115c3.216,0,6.234,0,9.253,0,2.908,0,2.908-.006,4.035-2.743a7.928,7.928,0,0,1,14.7.084c1.04,2.617,1.089,2.653,3.925,2.659,2.582.005,5.165.043,7.746-.01,1.173-.025,1.571.429,1.546,1.581q-.086,3.957,0,7.916c.028,1.2-.469,1.552-1.592,1.55q-19.03-.031-38.061,0c-1.149,0-1.594-.4-1.573-1.573.055-3.077.019-6.155.019-9.466m20.667-4.226a2.678,2.678,0,0,0-2.7,2.63,2.653,2.653,0,0,0,5.3.1,2.675,2.675,0,0,0-2.6-2.729" transform="translate(-64.691 -8.256)" fill="#e3a76f"/>
    <path id="Trazado_246911" data-name="Trazado 246911" d="M253.191,80.867V79.033q0-12.977-.009-25.954c0-2.543-.789-3.376-3.316-3.373-5.052.007-10.1.1-15.157.143a2.064,2.064,0,0,1-1.971-3.214,1.645,1.645,0,0,1,1.254-.581c6.4.031,12.8.064,19.2.206a3.34,3.34,0,0,1,3.511,3.695c.035,8.2.217,16.412-.12,24.6-.091,2.2-1.824,4.335-2.8,6.5Z" transform="translate(-154.053 -30.53)" fill="#6a606a"/>
    <path id="Trazado_246912" data-name="Trazado 246912" d="M274.208,118.857,244.4,170.522l-2.256-1.308c.286-.562.509-1.056.779-1.523q13.389-23.212,26.78-46.422c.932-1.617,2.063-2.791,4.51-2.412" transform="translate(-160.515 -78.743)" fill="#fddf76"/>
    <path id="Trazado_246913" data-name="Trazado 246913" d="M261.871,178.2l-2.276-1.29,29.816-51.644a3.834,3.834,0,0,1,.273,4.886q-6.413,11.082-12.8,22.177-6.989,12.111-13.981,24.219c-.3.526-.642,1.033-1.03,1.653" transform="translate(-172.087 -83.036)" fill="#fecf62"/>
    <path id="Trazado_246914" data-name="Trazado 246914" d="M245.572,285.728l-4.765,2.764v-5.462l4.765,2.7" transform="translate(-159.632 -187.623)" fill="#e3a76f"/>
    <path id="Trazado_246915" data-name="Trazado 246915" d="M88.944,177.07c0,1.742.032,3.486-.008,5.227-.046,1.964-.691,2.62-2.684,2.641q-5.225.058-10.451,0c-2.062-.02-2.766-.727-2.779-2.731q-.034-5.227,0-10.454c.014-2,.739-2.712,2.784-2.728q5.225-.039,10.451,0c1.958.018,2.633.694,2.679,2.646.042,1.8.009,3.6.008,5.4M81,180.778c3.78,0,3.78,0,3.78-3.789s0-3.791-3.782-3.791-3.769,0-3.769,3.793,0,3.787,3.771,3.787" transform="translate(-48.394 -112.035)"/>
    <path id="Trazado_246916" data-name="Trazado 246916" d="M88.932,111.373c0,1.794.043,3.589-.012,5.381-.054,1.77-.736,2.444-2.486,2.459q-5.464.046-10.929,0c-1.707-.015-2.468-.765-2.485-2.478q-.057-5.465,0-10.931c.019-1.7.753-2.44,2.5-2.463q5.463-.073,10.929,0c1.8.026,2.417.68,2.47,2.482.054,1.849.012,3.7.012,5.55m-11.622-.226c0,3.79,0,3.79,3.844,3.789,3.526,0,3.526,0,3.526-3.443,0-3.937,0-3.937-3.859-3.937-3.511,0-3.511,0-3.511,3.59" transform="translate(-48.386 -68.48)"/>
    <path id="Trazado_246917" data-name="Trazado 246917" d="M81.011,250.722q-2.782,0-5.562,0a2.149,2.149,0,0,1-2.427-2.377c-.028-3.709-.041-7.418.006-11.127.02-1.59.82-2.328,2.448-2.341,3.708-.029,7.416-.006,11.125-.009a2.071,2.071,0,0,1,2.316,2.291q.052,5.648,0,11.3a2.072,2.072,0,0,1-2.342,2.266q-2.781,0-5.562,0m-3.7-4.1c2.285,0,4.356.046,6.42-.044a1.4,1.4,0,0,0,.991-.937c.092-2.122.047-4.251.047-6.475H77.31Z" transform="translate(-48.39 -155.691)"/>
    <path id="Trazado_246918" data-name="Trazado 246918" d="M81.141,300.691c1.8,0,3.6.015,5.394,0a2.048,2.048,0,0,1,2.377,2.213c.036,3.821.039,7.643-.009,11.464a2.035,2.035,0,0,1-2.269,2.172q-5.647.025-11.293,0a2.118,2.118,0,0,1-2.315-2.326q-.057-5.564,0-11.128c.018-1.654.741-2.345,2.386-2.379,1.91-.039,3.821-.009,5.731-.009m3.629,11.563c0-2.249.037-4.376-.039-6.5a1.273,1.273,0,0,0-.843-.909c-2.165-.08-4.334-.042-6.544-.042v7.451Z" transform="translate(-48.389 -199.322)"/>
    <path id="Trazado_246919" data-name="Trazado 246919" d="M155.712,244.276c-1.637-1.446-2.841-2.456-3.98-3.533-1-.941-1.243-2.062-.191-3.1s2.175-.757,3.111.221c1.083,1.132,2.091,2.334,3.469,3.886,1.331-1.52,2.33-2.727,3.4-3.867.928-.988,2.046-1.277,3.105-.249s.817,2.139-.168,3.1c-1.124,1.093-2.295,2.137-3.9,3.621,1.454,1.233,2.672,2.213,3.827,3.264,1,.909,1.3,1.987.32,3.106-.857.981-2.069.9-3.231-.233-1.079-1.057-2.086-2.187-3.62-3.808-1.117,1.37-2,2.593-3.03,3.679-1.211,1.278-2.459,1.382-3.346.371-1.05-1.2-.63-2.292.418-3.226,1.125-1,2.3-1.953,3.813-3.232" transform="translate(-100.005 -157.103)"/>
    <path id="Trazado_246920" data-name="Trazado 246920" d="M151.907,180.8c3.338-3.026,6.284-5.7,9.231-8.367.415-.376.818-.77,1.257-1.116a1.94,1.94,0,0,1,2.862.095,1.862,1.862,0,0,1-.068,2.852q-5.861,5.423-11.824,10.735a1.951,1.951,0,0,1-2.875-.179c-1.565-1.525-3.119-3.064-4.632-4.64a2.043,2.043,0,1,1,2.915-2.851c1.054,1.072,2.021,2.231,3.134,3.471" transform="translate(-96.201 -113.18)"/>
    <path id="Trazado_246921" data-name="Trazado 246921" d="M151.937,312.244l9-8.16c.375-.34.755-.674,1.122-1.021,1.023-.966,2.111-1.346,3.251-.233.927.905.766,2.1-.429,3.225-1.388,1.312-2.816,2.582-4.231,3.866-2.246,2.04-4.482,4.092-6.749,6.109-1.4,1.244-2.32,1.217-3.651-.075-1.37-1.331-2.694-2.71-4.06-4.046-1.01-.988-1.433-2.05-.4-3.244.822-.953,2.19-.794,3.365.414.934.961,1.778,2.011,2.787,3.165" transform="translate(-96.249 -200.297)"/>
    <path id="Trazado_246922" data-name="Trazado 246922" d="M151.928,115.048l9.6-8.7c.291-.264.57-.545.882-.783a1.932,1.932,0,0,1,2.864.132,1.871,1.871,0,0,1-.107,2.859q-5.819,5.377-11.729,10.657a1.968,1.968,0,0,1-2.89-.09c-1.58-1.519-3.123-3.076-4.657-4.642a2.044,2.044,0,1,1,2.863-2.9c1.063,1.069,2.04,2.225,3.172,3.472" transform="translate(-96.204 -69.602)"/>
    <path id="Trazado_246923" data-name="Trazado 246923" d="M153.64,22.643a2.675,2.675,0,0,1,2.6,2.729,2.653,2.653,0,0,1-5.3-.1,2.678,2.678,0,0,1,2.7-2.63" transform="translate(-100.058 -15.01)"/>
    <path id="Trazado_246924" data-name="Trazado 246924" d="M89.314,189.022c-3.771,0-3.771,0-3.771-3.787s0-3.793,3.769-3.793,3.782,0,3.782,3.791,0,3.789-3.78,3.789" transform="translate(-56.707 -120.279)" fill="#ffe177"/>
    <path id="Trazado_246925" data-name="Trazado 246925" d="M85.8,119.512c0-3.59,0-3.59,3.511-3.59,3.859,0,3.859,0,3.859,3.937,0,3.442,0,3.442-3.526,3.443-3.844,0-3.844,0-3.844-3.789" transform="translate(-56.88 -76.845)" fill="#fe646f"/>
    <path id="Trazado_246926" data-name="Trazado 246926" d="M85.793,255.081v-7.456h7.458c0,2.224.046,4.353-.047,6.475a1.4,1.4,0,0,1-.991.937c-2.064.09-4.135.044-6.42.044" transform="translate(-56.873 -164.152)" fill="#6cf5c2"/>
    <path id="Trazado_246927" data-name="Trazado 246927" d="M93.319,320.344H85.892v-7.451c2.21,0,4.38-.037,6.544.042a1.273,1.273,0,0,1,.843.909c.077,2.123.039,4.25.039,6.5" transform="translate(-56.938 -207.413)" fill="#8ac9fe"/>
  </g>
</svg>
